<?xml version="1.0" encoding="UTF-8" ?>
<!DOCTYPE svg PUBLIC "-//W3C//DTD SVG 1.1//EN" "http://www.w3.org/Graphics/SVG/1.1/DTD/svg11.dtd">
<svg width="283pt" height="163pt" viewBox="0 0 283 163" version="1.1" xmlns="http://www.w3.org/2000/svg">
<g id="#e3657dff">
<path fill="#e3657d" opacity="1.00" d=" M 0.00 0.00 L 1.16 0.00 C 2.25 2.85 1.67 5.88 1.74 8.84 C 2.40 11.41 4.47 13.46 4.79 16.15 C 5.06 18.36 5.09 20.59 5.23 22.82 C 9.81 24.69 6.09 30.98 10.53 32.77 C 10.84 35.45 11.16 38.16 12.23 40.66 C 13.45 43.14 12.23 46.54 14.68 48.38 C 16.98 50.59 19.34 52.73 21.43 55.15 C 21.21 57.43 20.92 59.72 21.01 62.02 C 21.36 63.43 22.88 64.09 23.69 65.22 C 24.13 67.33 24.18 69.50 24.36 71.64 C 26.53 71.79 28.70 71.96 30.87 72.15 C 31.66 73.04 32.45 73.92 33.24 74.82 C 38.04 75.33 42.88 74.64 47.68 75.22 C 47.93 76.82 48.18 78.42 48.42 80.02 C 48.76 78.30 49.13 76.59 49.52 74.88 C 49.94 77.54 50.17 80.21 50.27 82.90 C 50.68 81.96 51.10 81.03 51.52 80.09 C 51.97 81.49 52.43 82.89 52.84 84.31 C 52.59 88.45 54.87 94.55 50.26 96.91 C 49.65 95.73 49.05 94.56 48.44 93.38 C 48.19 93.95 47.67 95.09 47.41 95.66 C 45.09 95.93 42.76 96.14 40.43 96.29 C 40.06 99.08 39.99 102.72 36.62 103.54 C 28.91 104.73 20.98 103.33 13.24 104.29 C 11.87 105.28 10.69 106.49 9.42 107.62 C 6.38 105.51 4.30 109.09 3.30 111.52 C 2.19 111.83 1.10 112.15 0.00 112.49 L 0.00 0.00 Z" />
</g>
<g id="#e87288ff">
<path fill="#e87288" opacity="1.00" d=" M 1.16 0.00 L 28.97 0.00 C 30.36 2.36 31.47 4.88 32.60 7.38 C 33.62 7.80 34.64 8.23 35.66 8.65 C 36.44 13.07 36.43 17.59 37.26 21.99 C 37.50 23.41 38.87 24.22 39.72 25.27 C 39.86 27.12 39.90 28.99 40.21 30.82 C 42.42 32.93 45.86 33.71 47.48 36.51 C 48.06 39.02 48.06 41.63 48.37 44.18 C 50.33 42.92 50.51 40.33 51.36 38.35 C 51.81 38.80 52.69 39.68 53.14 40.13 C 53.07 54.85 53.00 69.58 52.84 84.31 C 52.43 82.89 51.97 81.49 51.52 80.09 C 51.10 81.03 50.68 81.96 50.27 82.90 C 50.17 80.21 49.94 77.54 49.52 74.88 C 49.13 76.59 48.76 78.30 48.42 80.02 C 48.18 78.42 47.93 76.82 47.68 75.22 C 42.88 74.64 38.04 75.33 33.24 74.82 C 32.45 73.92 31.66 73.04 30.87 72.15 C 28.70 71.96 26.53 71.79 24.36 71.64 C 24.18 69.50 24.13 67.33 23.69 65.22 C 22.88 64.09 21.36 63.43 21.01 62.02 C 20.92 59.72 21.21 57.43 21.43 55.15 C 19.34 52.73 16.98 50.59 14.68 48.38 C 12.23 46.54 13.45 43.14 12.23 40.66 C 11.16 38.16 10.84 35.45 10.53 32.77 C 6.09 30.98 9.81 24.69 5.23 22.82 C 5.09 20.59 5.06 18.36 4.79 16.15 C 4.47 13.46 2.40 11.41 1.74 8.84 C 1.67 5.88 2.25 2.85 1.16 0.00 Z" />
</g>
<g id="#ef8398ff">
<path fill="#ef8398" opacity="1.00" d=" M 28.97 0.00 L 63.51 0.00 C 65.70 3.12 67.20 6.61 67.59 10.42 C 69.85 10.86 72.11 11.29 74.39 11.67 C 74.50 12.85 74.92 14.10 74.51 15.27 C 73.59 15.97 72.64 16.64 71.67 17.27 C 75.98 19.52 81.18 20.45 84.37 24.44 C 77.51 24.76 70.06 23.24 63.79 26.84 C 60.80 28.74 57.96 31.27 56.41 34.51 C 55.72 36.20 55.03 37.89 54.58 39.66 L 54.36 40.56 L 53.14 40.13 C 52.69 39.68 51.81 38.80 51.36 38.35 C 50.51 40.33 50.33 42.92 48.37 44.18 C 48.06 41.63 48.06 39.02 47.48 36.51 C 45.86 33.71 42.42 32.93 40.21 30.82 C 39.90 28.99 39.86 27.12 39.72 25.27 C 38.87 24.22 37.50 23.41 37.26 21.99 C 36.43 17.59 36.44 13.07 35.66 8.65 C 34.64 8.23 33.62 7.80 32.60 7.38 C 31.47 4.88 30.36 2.36 28.97 0.00 Z" />
</g>
<g id="#f390a4ff">
<path fill="#f390a4" opacity="1.00" d=" M 63.51 0.00 L 90.53 0.00 C 90.87 0.54 91.55 1.62 91.89 2.16 C 93.13 2.65 94.37 3.14 95.62 3.62 C 95.86 5.94 96.08 8.25 96.29 10.57 C 97.86 10.91 99.44 11.27 101.01 11.61 C 101.70 14.07 102.66 16.69 105.07 17.96 C 109.72 20.22 115.21 19.04 119.94 21.07 C 125.19 23.38 131.37 21.55 136.45 24.41 C 119.09 24.51 101.73 24.48 84.37 24.44 C 81.18 20.45 75.98 19.52 71.67 17.27 C 72.64 16.64 73.59 15.97 74.51 15.27 C 74.92 14.10 74.50 12.85 74.39 11.67 C 72.11 11.29 69.85 10.86 67.59 10.42 C 67.20 6.61 65.70 3.12 63.51 0.00 Z" />
</g>
<g id="#f69bacff">
<path fill="#f69bac" opacity="1.00" d=" M 90.53 0.00 L 197.77 0.00 C 196.23 2.60 193.17 3.20 190.86 4.83 C 189.47 6.30 188.98 8.36 188.16 10.16 C 186.35 11.03 184.41 11.68 182.83 12.94 C 181.45 14.58 180.64 16.60 179.27 18.24 C 175.36 20.10 168.91 19.29 167.60 24.49 C 157.22 24.47 146.83 24.68 136.45 24.41 C 131.37 21.55 125.19 23.38 119.94 21.07 C 115.21 19.04 109.72 20.22 105.07 17.96 C 102.66 16.69 101.70 14.07 101.01 11.61 C 99.44 11.27 97.86 10.91 96.29 10.57 C 96.08 8.25 95.86 5.94 95.62 3.62 C 94.37 3.14 93.13 2.65 91.89 2.16 C 91.55 1.62 90.87 0.54 90.53 0.00 Z" />
</g>
<g id="#f38fa4ff">
<path fill="#f38fa4" opacity="1.00" d=" M 197.77 0.00 L 224.26 0.00 C 224.09 1.41 223.94 2.82 223.79 4.22 C 222.75 4.05 221.72 3.87 220.69 3.69 C 222.44 7.25 217.25 8.79 216.37 11.81 C 216.88 12.79 217.46 13.74 217.81 14.80 C 216.49 18.17 212.84 19.05 209.80 20.18 C 210.51 21.70 209.72 23.16 209.13 24.55 C 195.29 24.55 181.45 24.51 167.60 24.49 C 168.91 19.29 175.36 20.10 179.27 18.24 C 180.64 16.60 181.45 14.58 182.83 12.94 C 184.41 11.68 186.35 11.03 188.16 10.16 C 188.98 8.36 189.47 6.30 190.86 4.83 C 193.17 3.20 196.23 2.60 197.77 0.00 Z" />
</g>
<g id="#ef859aff">
<path fill="#ef859a" opacity="1.00" d=" M 224.26 0.00 L 246.87 0.00 C 244.39 2.87 243.54 6.82 240.49 9.23 C 240.21 11.12 240.22 13.03 240.12 14.93 C 238.01 16.01 237.38 18.35 235.93 20.02 C 233.33 23.16 231.59 26.88 229.32 30.24 C 228.15 31.67 228.38 33.54 228.59 35.23 C 227.04 32.26 224.96 29.52 222.12 27.68 C 218.22 25.27 213.70 24.17 209.13 24.55 C 209.72 23.16 210.51 21.70 209.80 20.18 C 212.84 19.05 216.49 18.17 217.81 14.80 C 217.46 13.74 216.88 12.79 216.37 11.81 C 217.25 8.79 222.44 7.25 220.69 3.69 C 221.72 3.87 222.75 4.05 223.79 4.22 C 223.94 2.82 224.09 1.41 224.26 0.00 Z" />
</g>
<g id="#e9768bff">
<path fill="#e9768b" opacity="1.00" d=" M 246.87 0.00 L 283.00 0.00 L 283.00 15.43 C 282.33 15.72 280.99 16.30 280.31 16.58 C 280.10 18.63 280.01 20.69 279.57 22.71 C 276.89 26.01 274.32 29.44 272.46 33.28 C 271.87 35.59 272.00 38.02 271.36 40.32 C 269.44 42.75 266.73 44.58 265.43 47.48 C 264.18 50.06 262.68 52.62 260.11 54.10 C 256.03 56.52 254.43 61.67 250.01 63.66 C 248.91 63.51 247.88 63.06 246.86 62.64 C 246.24 66.23 243.03 68.27 240.49 70.49 C 238.27 72.65 234.91 71.84 232.12 72.12 C 232.05 66.73 231.99 61.35 231.59 55.98 C 230.85 69.39 231.37 82.84 230.67 96.25 C 230.41 88.68 230.66 81.12 230.44 73.55 C 230.57 63.37 230.37 53.19 230.44 43.00 C 230.59 40.28 229.58 37.71 228.59 35.23 C 228.38 33.54 228.15 31.67 229.32 30.24 C 231.59 26.88 233.33 23.16 235.93 20.02 C 237.38 18.35 238.01 16.01 240.12 14.93 C 240.22 13.03 240.21 11.12 240.49 9.23 C 243.54 6.82 244.39 2.87 246.87 0.00 Z" />
</g>
<g id="#e4667eff">
<path fill="#e4667e" opacity="1.00" d=" M 280.31 16.58 C 280.99 16.30 282.33 15.72 283.00 15.43 L 283.00 110.34 C 279.44 107.94 275.14 107.91 271.02 107.96 C 267.52 108.04 265.13 105.01 261.96 104.07 C 258.65 103.65 255.31 104.25 252.00 103.85 C 249.91 103.18 248.31 101.34 246.05 101.16 C 241.42 100.63 236.79 99.98 232.13 99.89 C 231.85 90.63 232.11 81.38 232.12 72.12 C 234.91 71.84 238.27 72.65 240.49 70.49 C 243.03 68.27 246.24 66.23 246.86 62.64 C 247.88 63.06 248.91 63.51 250.01 63.66 C 254.43 61.67 256.03 56.52 260.11 54.10 C 262.68 52.62 264.18 50.06 265.43 47.48 C 266.73 44.58 269.44 42.75 271.36 40.32 C 272.00 38.02 271.87 35.59 272.46 33.28 C 274.32 29.44 276.89 26.01 279.57 22.71 C 280.01 20.69 280.10 18.63 280.31 16.58 Z" />
</g>
<g id="#f7f2f4ff">
<path fill="#f7f2f4" opacity="1.00" d=" M 63.79 26.84 C 70.06 23.24 77.51 24.76 84.37 24.44 C 101.73 24.48 119.09 24.51 136.45 24.41 C 146.83 24.68 157.22 24.47 167.60 24.49 C 181.45 24.51 195.29 24.55 209.13 24.55 C 213.70 24.17 218.22 25.27 222.12 27.68 C 221.41 28.60 220.08 29.53 221.37 30.64 C 219.45 30.78 217.47 30.89 215.76 31.86 C 218.82 32.30 221.91 31.94 224.96 31.56 C 225.69 33.23 226.01 35.03 226.17 36.84 C 225.42 35.94 224.68 35.04 223.94 34.13 C 224.08 38.19 223.85 42.86 226.66 46.13 C 227.47 44.23 225.96 40.08 228.87 40.06 C 228.66 42.66 228.17 45.23 227.50 47.75 C 224.12 46.16 220.73 48.63 217.26 47.85 C 216.38 46.71 215.38 45.67 214.17 44.86 C 215.47 49.75 213.45 54.38 212.43 59.08 C 212.36 58.54 212.20 57.47 212.12 56.93 C 211.81 53.85 210.28 51.14 208.59 48.61 C 207.11 49.62 205.45 50.41 203.66 49.72 C 197.45 49.80 191.25 50.79 185.03 50.81 C 159.34 50.79 133.66 51.26 107.98 50.82 C 103.75 50.59 99.51 48.50 95.35 50.22 C 95.36 51.22 95.37 52.23 95.37 53.24 C 94.59 52.41 93.81 51.59 93.03 50.77 C 92.34 51.83 91.64 52.95 90.48 53.56 C 89.17 53.84 87.89 54.21 86.65 54.70 C 86.16 54.27 85.20 53.40 84.72 52.96 C 85.36 53.07 86.64 53.27 87.29 53.38 C 87.05 52.94 86.57 52.07 86.33 51.63 C 85.91 50.92 85.50 50.19 85.11 49.46 C 83.87 49.77 82.63 50.07 81.39 50.37 C 80.03 50.11 78.70 49.58 77.31 49.55 C 75.36 50.69 73.71 52.25 71.98 53.67 C 72.15 51.83 72.30 49.99 72.46 48.14 C 68.94 47.63 65.39 47.60 61.85 47.50 C 60.67 46.30 59.46 45.13 58.24 43.97 C 61.25 41.94 65.11 37.14 61.47 33.96 C 61.22 35.07 60.96 36.18 60.72 37.29 C 60.20 37.07 59.69 36.85 59.18 36.63 C 58.95 37.69 58.73 38.75 58.50 39.81 C 58.05 39.88 57.14 40.02 56.69 40.09 C 56.65 38.22 56.53 36.37 56.41 34.51 C 57.96 31.27 60.80 28.74 63.79 26.84 M 69.40 39.75 C 70.26 42.54 74.40 41.98 75.63 39.74 C 76.21 37.15 74.66 33.77 71.52 34.65 C 69.21 34.14 67.77 38.68 69.40 39.75 M 87.10 34.96 C 83.29 36.99 86.40 43.11 90.34 41.61 C 91.07 40.76 91.82 39.92 92.56 39.08 C 92.06 36.62 90.04 32.90 87.10 34.96 M 102.57 36.31 C 102.51 37.37 102.44 38.43 102.38 39.48 C 103.17 40.21 103.97 40.94 104.76 41.68 C 105.38 41.63 106.63 41.53 107.25 41.49 C 109.64 40.50 108.59 37.50 108.53 35.54 C 106.61 33.80 104.12 34.54 102.57 36.31 Z" />
</g>
<g id="#f4e9edff">
<path fill="#f4e9ed" opacity="1.00" d=" M 222.12 27.68 C 224.96 29.52 227.04 32.26 228.59 35.23 C 229.58 37.71 230.59 40.28 230.44 43.00 C 230.37 53.19 230.57 63.37 230.44 73.55 C 229.74 74.95 228.88 76.36 229.00 78.00 C 228.84 86.65 229.12 95.32 228.75 103.97 C 228.39 103.89 227.65 103.72 227.28 103.63 C 226.63 98.82 227.53 93.94 226.71 89.14 C 225.29 80.83 226.56 72.38 225.80 64.03 C 225.44 64.11 224.73 64.28 224.37 64.37 C 224.00 66.80 223.93 69.27 223.72 71.73 C 221.24 71.90 218.76 72.09 216.28 72.27 C 216.12 74.73 215.94 77.19 215.77 79.66 C 213.95 79.86 212.13 80.09 210.31 80.30 C 210.60 85.66 207.47 90.35 207.69 95.71 C 205.54 95.84 203.40 96.00 201.26 96.21 C 199.39 99.41 195.63 99.01 192.44 99.29 C 192.13 100.76 191.83 102.24 191.52 103.71 C 189.14 103.89 186.77 104.09 184.39 104.29 C 184.11 105.79 183.85 107.28 183.58 108.78 C 178.81 109.41 174.00 108.70 169.22 109.08 C 168.39 110.00 167.56 110.91 166.73 111.83 C 154.19 112.20 141.63 111.87 129.09 112.02 C 125.47 111.87 120.89 113.10 118.78 109.26 C 113.50 108.55 108.11 109.45 102.84 108.43 C 98.08 108.28 93.84 105.33 89.02 105.92 C 85.95 105.63 82.18 106.97 79.61 104.90 C 82.22 103.73 85.15 103.94 87.94 103.70 C 87.90 103.10 87.82 101.88 87.78 101.27 C 85.35 101.08 82.91 100.90 80.48 100.72 C 80.14 99.24 79.82 97.76 79.49 96.28 C 77.12 96.08 74.75 95.90 72.37 95.74 C 72.11 94.25 71.86 92.77 71.60 91.28 C 69.14 91.10 66.67 90.91 64.21 90.74 C 63.55 85.21 64.43 79.62 63.79 74.11 C 62.46 71.13 61.72 67.97 61.61 64.72 C 61.05 64.36 59.94 63.66 59.38 63.31 C 59.15 61.30 58.92 59.29 58.70 57.28 C 53.44 53.03 55.87 45.48 54.58 39.66 C 55.03 37.89 55.72 36.20 56.41 34.51 C 56.53 36.37 56.65 38.22 56.69 40.09 C 57.14 40.02 58.05 39.88 58.50 39.81 C 58.73 38.75 58.95 37.69 59.18 36.63 C 59.69 36.85 60.20 37.07 60.72 37.29 C 60.96 36.18 61.22 35.07 61.47 33.96 C 65.11 37.14 61.25 41.94 58.24 43.97 C 59.46 45.13 60.67 46.30 61.85 47.50 C 65.39 47.60 68.94 47.63 72.46 48.14 C 72.30 49.99 72.15 51.83 71.98 53.67 C 73.71 52.25 75.36 50.69 77.31 49.55 C 78.70 49.58 80.03 50.11 81.39 50.37 C 79.10 51.46 76.69 52.28 74.45 53.47 C 72.20 55.32 73.83 58.33 74.55 60.51 C 75.48 60.68 76.41 60.83 77.34 60.97 C 84.31 61.62 91.31 60.88 98.28 61.18 C 99.96 61.42 101.66 61.26 103.32 60.97 C 132.54 61.28 161.77 61.13 191.00 61.24 C 196.83 60.96 202.71 61.79 208.50 60.83 C 209.87 59.69 211.00 58.31 212.12 56.93 C 212.20 57.47 212.36 58.54 212.43 59.08 C 213.45 54.38 215.47 49.75 214.17 44.86 C 215.38 45.67 216.38 46.71 217.26 47.85 C 220.73 48.63 224.12 46.16 227.50 47.75 C 228.17 45.23 228.66 42.66 228.87 40.06 C 225.96 40.08 227.47 44.23 226.66 46.13 C 223.85 42.86 224.08 38.19 223.94 34.13 C 224.68 35.04 225.42 35.94 226.17 36.84 C 226.01 35.03 225.69 33.23 224.96 31.56 C 221.91 31.94 218.82 32.30 215.76 31.86 C 217.47 30.89 219.45 30.78 221.37 30.64 C 220.08 29.53 221.41 28.60 222.12 27.68 Z" />
</g>
<g id="#d37a80ff">
<path fill="#d37a80" opacity="1.00" d=" M 69.40 39.75 C 67.77 38.68 69.21 34.14 71.52 34.65 C 70.96 36.41 70.14 38.06 69.40 39.75 Z" />
</g>
<g id="#f66468ff">
<path fill="#f66468" opacity="1.00" d=" M 71.52 34.65 C 74.66 33.77 76.21 37.15 75.63 39.74 C 74.40 41.98 70.26 42.54 69.40 39.75 C 70.14 38.06 70.96 36.41 71.52 34.65 Z" />
</g>
<g id="#f8f373ff">
<path fill="#f8f373" opacity="1.00" d=" M 87.10 34.96 C 90.04 32.90 92.06 36.62 92.56 39.08 C 91.82 39.92 91.07 40.76 90.34 41.61 C 86.40 43.11 83.29 36.99 87.10 34.96 Z" />
</g>
<g id="#8ef481ff">
<path fill="#8ef481" opacity="1.00" d=" M 102.57 36.31 C 104.12 34.54 106.61 33.80 108.53 35.54 C 108.59 37.50 109.64 40.50 107.25 41.49 C 106.63 41.53 105.38 41.63 104.76 41.68 C 103.97 40.94 103.17 40.21 102.38 39.48 C 102.44 38.43 102.51 37.37 102.57 36.31 Z" />
</g>
<g id="#e66885ff">
<path fill="#e66885" opacity="1.00" d=" M 53.14 40.13 L 54.36 40.56 C 53.81 68.01 53.86 95.48 53.67 122.94 C 53.37 129.27 56.37 135.72 61.73 139.22 C 56.13 141.67 49.85 139.82 43.95 140.40 C 29.35 141.99 14.65 140.90 0.00 141.39 L 0.00 112.49 C 1.10 112.15 2.19 111.83 3.30 111.52 C 4.30 109.09 6.38 105.51 9.42 107.62 C 10.69 106.49 11.87 105.28 13.24 104.29 C 20.98 103.33 28.91 104.73 36.62 103.54 C 39.99 102.72 40.06 99.08 40.43 96.29 C 42.76 96.14 45.09 95.93 47.41 95.66 C 47.67 95.09 48.19 93.95 48.44 93.38 C 49.05 94.56 49.65 95.73 50.26 96.91 C 54.87 94.55 52.59 88.45 52.84 84.31 C 53.00 69.58 53.07 54.85 53.14 40.13 Z" />
<path fill="#e66885" opacity="1.00" d=" M 232.13 99.89 C 236.79 99.98 241.42 100.63 246.05 101.16 C 248.31 101.34 249.91 103.18 252.00 103.85 C 255.31 104.25 258.65 103.65 261.96 104.07 C 265.13 105.01 267.52 108.04 271.02 107.96 C 275.14 107.91 279.44 107.94 283.00 110.34 L 283.00 139.05 C 272.71 140.08 262.31 138.55 252.06 140.21 C 244.03 140.28 235.95 140.73 227.95 139.81 C 225.73 140.07 223.52 140.78 221.28 140.27 C 226.39 137.39 229.58 132.13 230.79 126.49 C 231.60 124.41 232.17 122.23 231.99 119.97 C 231.77 113.28 232.04 106.59 232.13 99.89 Z" />
</g>
<g id="#f3e3e8ff">
<path fill="#f3e3e8" opacity="1.00" d=" M 54.36 40.56 L 54.58 39.66 C 55.87 45.48 53.44 53.03 58.70 57.28 C 58.92 59.29 59.15 61.30 59.38 63.31 C 59.94 63.66 61.05 64.36 61.61 64.72 C 61.72 67.97 62.46 71.13 63.79 74.11 C 64.43 79.62 63.55 85.21 64.21 90.74 C 66.67 90.91 69.14 91.10 71.60 91.28 C 71.86 92.77 72.11 94.25 72.37 95.74 C 74.75 95.90 77.12 96.08 79.49 96.28 C 79.82 97.76 80.14 99.24 80.48 100.72 C 82.91 100.90 85.35 101.08 87.78 101.27 C 87.82 101.88 87.90 103.10 87.94 103.70 C 85.15 103.94 82.22 103.73 79.61 104.90 C 82.18 106.97 85.95 105.63 89.02 105.92 C 93.84 105.33 98.08 108.28 102.84 108.43 C 108.11 109.45 113.50 108.55 118.78 109.26 C 120.89 113.10 125.47 111.87 129.09 112.02 C 141.63 111.87 154.19 112.20 166.73 111.83 C 167.56 110.91 168.39 110.00 169.22 109.08 C 174.00 108.70 178.81 109.41 183.58 108.78 C 183.85 107.28 184.11 105.79 184.39 104.29 C 186.77 104.09 189.14 103.89 191.52 103.71 C 191.83 102.24 192.13 100.76 192.44 99.29 C 195.63 99.01 199.39 99.41 201.26 96.21 C 203.40 96.00 205.54 95.84 207.69 95.71 C 207.47 90.35 210.60 85.66 210.31 80.30 C 212.13 80.09 213.95 79.86 215.77 79.66 C 215.94 77.19 216.12 74.73 216.28 72.27 C 218.76 72.09 221.24 71.90 223.72 71.73 C 223.93 69.27 224.00 66.80 224.37 64.37 C 224.73 64.28 225.44 64.11 225.80 64.03 C 226.56 72.38 225.29 80.83 226.71 89.14 C 227.53 93.94 226.63 98.82 227.28 103.63 C 227.65 103.72 228.39 103.89 228.75 103.97 C 229.12 95.32 228.84 86.65 229.00 78.00 C 228.88 76.36 229.74 74.95 230.44 73.55 C 230.66 81.12 230.41 88.68 230.67 96.25 C 230.72 106.33 230.68 116.41 230.79 126.49 C 229.58 132.13 226.39 137.39 221.28 140.27 C 216.87 142.69 211.84 142.66 206.97 142.58 C 161.97 142.50 116.98 142.56 71.98 142.35 C 68.34 142.30 64.91 140.88 61.73 139.22 C 56.37 135.72 53.37 129.27 53.67 122.94 C 53.86 95.48 53.81 68.01 54.36 40.56 Z" />
</g>
<g id="#efe6e9ff">
<path fill="#efe6e9" opacity="1.00" d=" M 203.66 49.72 C 205.45 50.41 207.11 49.62 208.59 48.61 C 210.28 51.14 211.81 53.85 212.12 56.93 C 211.00 58.31 209.87 59.69 208.50 60.83 C 206.51 60.17 204.52 59.47 202.55 58.76 C 200.08 60.56 196.86 59.67 194.03 59.83 C 168.35 59.78 142.67 59.83 116.99 59.93 C 112.44 60.09 107.59 58.90 103.32 60.97 C 101.66 61.26 99.96 61.42 98.28 61.18 C 96.27 58.67 92.89 59.76 90.14 59.62 C 85.88 60.04 81.24 58.70 77.34 60.97 C 76.41 60.83 75.48 60.68 74.55 60.51 C 73.83 58.33 72.20 55.32 74.45 53.47 C 76.69 52.28 79.10 51.46 81.39 50.37 C 82.63 50.07 83.87 49.77 85.11 49.46 C 85.50 50.19 85.91 50.92 86.33 51.63 C 85.76 51.83 84.62 52.21 84.05 52.41 C 83.32 54.10 85.22 54.87 86.14 55.91 C 85.54 55.99 84.32 56.15 83.72 56.23 C 84.05 58.21 86.27 56.89 87.47 56.78 C 88.39 56.99 89.32 57.21 90.24 57.44 C 90.30 56.47 90.42 54.53 90.48 53.56 C 91.64 52.95 92.34 51.83 93.03 50.77 C 93.81 51.59 94.59 52.41 95.37 53.24 C 95.37 52.23 95.36 51.22 95.35 50.22 C 99.51 48.50 103.75 50.59 107.98 50.82 C 133.66 51.26 159.34 50.79 185.03 50.81 C 191.25 50.79 197.45 49.80 203.66 49.72 M 200.11 55.75 C 201.30 56.13 202.52 56.30 203.77 56.27 C 204.44 57.61 205.46 58.46 206.83 58.82 C 204.73 56.55 205.55 53.35 203.82 51.00 C 200.72 50.09 199.09 53.07 200.11 55.75 M 100.04 51.58 C 99.99 53.16 99.94 54.73 99.89 56.30 C 99.37 56.21 98.32 56.01 97.80 55.91 C 98.20 55.33 99.00 54.17 99.40 53.58 C 98.62 53.68 97.08 53.88 96.30 53.98 C 96.62 55.17 96.96 56.36 97.32 57.55 C 98.54 57.44 99.77 57.34 101.00 57.25 C 101.00 56.69 101.01 55.57 101.02 55.01 L 101.98 55.01 C 101.99 55.56 102.00 56.66 102.01 57.21 C 103.90 56.56 107.64 58.77 108.23 56.25 C 106.67 56.31 105.10 56.36 103.53 56.41 C 103.39 55.85 103.11 54.73 102.97 54.17 C 101.65 53.75 100.76 52.70 100.04 51.58 M 91.24 54.11 C 91.75 55.33 91.18 56.43 90.46 57.44 C 91.92 57.32 93.39 57.26 94.85 57.25 C 95.06 56.10 95.47 55.02 96.09 54.03 C 95.55 54.00 94.48 53.93 93.94 53.90 C 93.89 54.44 93.79 55.52 93.74 56.06 L 93.04 56.76 C 93.05 55.97 93.06 54.39 93.07 53.60 C 92.61 53.73 91.69 53.98 91.24 54.11 Z" />
</g>
<g id="#9f9598ff">
<path fill="#9f9598" opacity="1.00" d=" M 200.11 55.75 C 199.09 53.07 200.72 50.09 203.82 51.00 C 205.55 53.35 204.73 56.55 206.83 58.82 C 205.46 58.46 204.44 57.61 203.77 56.27 C 202.52 56.30 201.30 56.13 200.11 55.75 M 202.07 52.04 C 200.13 52.46 200.91 55.69 202.87 55.03 C 204.77 54.66 203.80 51.61 202.07 52.04 Z" />
</g>
<g id="#8c8487ff">
<path fill="#8c8487" opacity="1.00" d=" M 84.05 52.41 C 84.62 52.21 85.76 51.83 86.33 51.63 C 86.57 52.07 87.05 52.94 87.29 53.38 C 86.64 53.27 85.36 53.07 84.72 52.96 C 85.20 53.40 86.16 54.27 86.65 54.70 C 87.89 54.21 89.17 53.84 90.48 53.56 C 90.42 54.53 90.30 56.47 90.24 57.44 C 89.32 57.21 88.39 56.99 87.47 56.78 C 86.27 56.89 84.05 58.21 83.72 56.23 C 84.32 56.15 85.54 55.99 86.14 55.91 C 85.22 54.87 83.32 54.10 84.05 52.41 Z" />
</g>
<g id="#a39c9eff">
<path fill="#a39c9e" opacity="1.00" d=" M 100.04 51.58 C 100.76 52.70 101.65 53.75 102.97 54.17 C 103.11 54.73 103.39 55.85 103.53 56.41 C 105.10 56.36 106.67 56.31 108.23 56.25 C 107.64 58.77 103.90 56.56 102.01 57.21 C 102.00 56.66 101.99 55.56 101.98 55.01 L 101.02 55.01 C 101.01 55.57 101.00 56.69 101.00 57.25 C 99.77 57.34 98.54 57.44 97.32 57.55 C 96.96 56.36 96.62 55.17 96.30 53.98 C 97.08 53.88 98.62 53.68 99.40 53.58 C 99.00 54.17 98.20 55.33 97.80 55.91 C 98.32 56.01 99.37 56.21 99.89 56.30 C 99.94 54.73 99.99 53.16 100.04 51.58 Z" />
</g>
<g id="#e5dadeff">
<path fill="#e5dade" opacity="1.00" d=" M 202.07 52.04 C 203.80 51.61 204.77 54.66 202.87 55.03 C 200.91 55.69 200.13 52.46 202.07 52.04 Z" />
</g>
<g id="#8a8385ff">
<path fill="#8a8385" opacity="1.00" d=" M 91.24 54.11 C 91.69 53.98 92.61 53.73 93.07 53.60 C 93.06 54.39 93.05 55.97 93.04 56.76 L 93.74 56.06 C 93.79 55.52 93.89 54.44 93.94 53.90 C 94.48 53.93 95.55 54.00 96.09 54.03 C 95.47 55.02 95.06 56.10 94.85 57.25 C 93.39 57.26 91.92 57.32 90.46 57.44 C 91.18 56.43 91.75 55.33 91.24 54.11 Z" />
</g>
<g id="#d16b83ff">
<path fill="#d16b83" opacity="1.00" d=" M 230.67 96.25 C 231.37 82.84 230.85 69.39 231.59 55.98 C 231.99 61.35 232.05 66.73 232.12 72.12 C 232.11 81.38 231.85 90.63 232.13 99.89 C 232.04 106.59 231.77 113.28 231.99 119.97 C 232.17 122.23 231.60 124.41 230.79 126.49 C 230.68 116.41 230.72 106.33 230.67 96.25 Z" />
</g>
<g id="#decbd1ff">
<path fill="#decbd1" opacity="1.00" d=" M 202.55 58.76 C 204.52 59.47 206.51 60.17 208.50 60.83 C 202.71 61.79 196.83 60.96 191.00 61.24 C 161.77 61.13 132.54 61.28 103.32 60.97 C 107.59 58.90 112.44 60.09 116.99 59.93 C 142.67 59.83 168.35 59.78 194.03 59.83 C 196.86 59.67 200.08 60.56 202.55 58.76 Z" />
<path fill="#decbd1" opacity="1.00" d=" M 90.14 59.62 C 92.89 59.76 96.27 58.67 98.28 61.18 C 91.31 60.88 84.31 61.62 77.34 60.97 C 81.24 58.70 85.88 60.04 90.14 59.62 Z" />
</g>
<g id="#f4859dff">
<path fill="#f4859d" opacity="1.00" d=" M 61.73 139.22 C 64.91 140.88 68.34 142.30 71.98 142.35 C 116.98 142.56 161.97 142.50 206.97 142.58 C 211.84 142.66 216.87 142.69 221.28 140.27 C 223.52 140.78 225.73 140.07 227.95 139.81 C 235.95 140.73 244.03 140.28 252.06 140.21 C 262.31 138.55 272.71 140.08 283.00 139.05 L 283.00 150.92 C 277.67 150.33 272.29 150.17 266.94 150.38 C 264.81 150.47 263.10 152.03 261.01 152.31 C 256.81 152.69 252.58 152.48 248.39 152.08 C 245.70 151.07 242.84 151.00 240.00 151.15 C 234.90 151.42 230.10 149.12 225.00 149.39 C 175.35 149.23 125.71 149.67 76.07 149.04 C 64.21 148.58 52.37 149.62 40.58 150.62 C 40.45 150.82 40.19 151.24 40.06 151.45 C 45.39 151.60 50.65 152.84 56.00 152.64 C 59.79 152.49 63.59 152.66 67.34 153.27 C 61.30 154.15 55.17 153.31 49.14 154.26 C 38.25 155.57 27.24 153.89 16.38 155.39 C 10.93 156.03 5.41 155.33 0.00 156.35 L 0.00 141.39 C 14.65 140.90 29.35 141.99 43.95 140.40 C 49.85 139.82 56.13 141.67 61.73 139.22 Z" />
</g>
<g id="#ee718cff">
<path fill="#ee718c" opacity="1.00" d=" M 40.58 150.62 C 52.37 149.62 64.21 148.58 76.07 149.04 C 125.71 149.67 175.35 149.23 225.00 149.39 C 230.10 149.12 234.90 151.42 240.00 151.15 C 242.84 151.00 245.70 151.07 248.39 152.08 C 241.61 152.45 234.81 152.68 228.04 153.23 C 212.02 153.09 195.99 153.42 179.98 152.81 C 152.65 152.82 125.33 152.76 98.00 152.78 C 87.78 152.83 77.55 152.59 67.34 153.27 C 63.59 152.66 59.79 152.49 56.00 152.64 C 50.65 152.84 45.39 151.60 40.06 151.45 C 40.19 151.24 40.45 150.82 40.58 150.62 Z" />
</g>
<g id="#fda1b8ff">
<path fill="#fda1b8" opacity="1.00" d=" M 261.01 152.31 C 263.10 152.03 264.81 150.47 266.94 150.38 C 272.29 150.17 277.67 150.33 283.00 150.92 L 283.00 163.00 L 224.45 163.00 C 223.35 159.25 218.84 161.02 215.98 160.44 C 217.75 158.23 221.50 159.74 224.04 158.99 C 222.75 157.14 219.91 158.03 217.96 157.69 C 211.27 158.10 204.70 156.39 198.02 156.69 C 192.68 156.72 187.38 155.80 182.03 155.83 C 153.37 155.59 124.71 155.72 96.04 155.86 C 90.26 155.91 84.52 156.76 78.79 157.47 C 74.29 158.01 69.74 157.32 65.25 157.97 C 63.38 161.50 59.15 160.52 55.88 161.15 C 57.09 162.34 58.77 162.69 60.38 163.00 L 0.00 163.00 L 0.00 156.35 C 5.41 155.33 10.93 156.03 16.38 155.39 C 27.24 153.89 38.25 155.57 49.14 154.26 C 55.17 153.31 61.30 154.15 67.34 153.27 C 77.55 152.59 87.78 152.83 98.00 152.78 C 125.33 152.76 152.65 152.82 179.98 152.81 C 195.99 153.42 212.02 153.09 228.04 153.23 C 234.81 152.68 241.61 152.45 248.39 152.08 C 252.58 152.48 256.81 152.69 261.01 152.31 Z" />
</g>
<g id="#fdb9c9ff">
<path fill="#fdb9c9" opacity="1.00" d=" M 78.79 157.47 C 84.52 156.76 90.26 155.91 96.04 155.86 C 124.71 155.72 153.37 155.59 182.03 155.83 C 187.38 155.80 192.68 156.72 198.02 156.69 C 204.70 156.39 211.27 158.10 217.96 157.69 C 219.91 158.03 222.75 157.14 224.04 158.99 C 221.50 159.74 217.75 158.23 215.98 160.44 C 218.84 161.02 223.35 159.25 224.45 163.00 L 60.38 163.00 C 58.77 162.69 57.09 162.34 55.88 161.15 C 59.15 160.52 63.38 161.50 65.25 157.97 C 69.74 157.32 74.29 158.01 78.79 157.47 Z" />
</g>
</svg>
