<?xml version="1.0" encoding="UTF-8" ?>
<!DOCTYPE svg PUBLIC "-//W3C//DTD SVG 1.1//EN" "http://www.w3.org/Graphics/SVG/1.1/DTD/svg11.dtd">
<svg width="720pt" height="720pt" viewBox="0 0 720 720" version="1.1" xmlns="http://www.w3.org/2000/svg">
<g id="#fb1010ff">
<path fill="#fb1010" opacity="1.00" d=" M 299.06 252.78 C 341.19 247.05 384.26 247.76 426.10 255.40 C 449.16 259.67 471.88 266.17 493.32 275.74 C 508.74 282.76 523.62 291.34 536.34 302.62 C 548.71 313.52 559.25 327.48 562.75 343.86 C 566.02 358.14 562.69 373.20 555.54 385.78 C 554.63 382.91 553.16 380.28 551.19 378.02 C 547.24 372.14 543.14 366.38 538.84 360.77 C 536.30 357.14 533.14 354.03 529.90 351.05 C 526.34 347.74 522.49 344.76 519.06 341.31 C 511.59 332.17 501.40 325.83 491.50 319.65 C 482.45 312.81 471.79 308.67 461.83 303.38 C 453.94 300.15 446.48 295.87 438.20 293.64 C 429.70 289.89 420.79 286.18 411.36 286.03 C 410.63 285.90 409.91 285.78 409.19 285.68 C 409.65 285.52 410.57 285.19 411.03 285.03 C 400.46 282.64 389.78 280.83 379.06 279.30 C 368.06 278.59 357.02 279.35 346.01 278.98 C 336.92 278.64 327.91 280.01 318.90 280.96 C 313.79 281.47 308.92 283.23 303.85 283.94 C 298.83 284.63 293.81 285.53 289.03 287.25 C 284.01 289.12 278.67 289.89 273.66 291.77 C 269.39 293.39 264.78 294.15 260.84 296.56 L 260.47 296.63 C 254.35 298.13 248.69 301.05 242.77 303.15 C 223.80 313.32 205.07 324.08 187.49 336.56 C 181.27 340.92 174.65 345.26 170.46 351.76 L 170.44 351.78 C 166.00 353.61 163.58 357.99 160.51 361.41 C 156.05 366.59 153.11 372.84 150.63 379.16 L 150.39 379.79 C 143.60 365.06 143.16 347.55 149.82 332.71 C 158.76 312.31 176.64 297.50 195.32 286.26 C 226.99 267.78 262.97 257.94 299.06 252.78 Z" />
<path fill="#fb1010" opacity="1.00" d=" M 326.78 306.51 L 327.23 306.52 C 339.10 305.40 351.09 305.17 363.00 306.18 C 370.01 306.60 377.09 306.00 384.05 307.21 C 389.93 307.95 395.86 308.43 401.68 309.61 C 404.23 310.23 406.79 310.78 409.38 311.20 C 409.45 311.37 409.59 311.69 409.65 311.85 C 415.04 311.12 420.02 314.00 425.26 314.82 C 425.68 314.94 426.53 315.16 426.95 315.28 C 432.02 316.94 437.09 318.60 442.27 319.90 C 444.98 321.02 447.63 322.28 450.36 323.38 C 452.89 324.39 455.40 325.47 457.93 326.52 C 459.75 327.25 461.60 327.95 463.44 328.67 C 469.92 331.17 475.96 334.62 482.24 337.58 C 483.14 338.04 484.04 338.50 484.96 338.96 C 485.55 339.26 486.15 339.58 486.75 339.89 C 495.90 345.49 504.94 351.29 514.14 356.80 C 514.00 357.19 513.72 357.96 513.58 358.34 C 503.24 363.22 493.29 369.03 482.59 373.08 C 480.67 373.67 478.75 374.27 476.83 374.88 C 469.79 377.11 463.19 380.62 455.88 382.03 C 452.49 382.38 449.11 382.95 445.87 384.04 C 437.54 386.78 428.85 388.13 420.25 389.73 C 401.41 393.46 382.25 395.96 363.02 395.90 C 334.68 396.70 306.10 396.33 278.17 390.96 C 270.41 389.40 262.57 388.21 254.85 386.47 C 249.32 385.29 244.07 382.95 238.41 382.37 C 229.90 381.33 222.41 376.99 214.29 374.63 C 212.95 374.23 211.62 373.82 210.29 373.40 C 202.13 370.98 195.15 365.75 187.06 363.16 C 187.40 362.16 187.14 360.80 188.07 360.11 C 194.18 355.16 201.34 351.74 207.71 347.15 C 213.46 345.00 218.38 341.19 224.06 338.88 C 229.48 336.21 235.46 334.86 240.65 331.70 C 260.13 322.34 281.03 316.34 302.07 311.68 C 309.75 309.79 317.97 310.11 325.40 307.29 C 325.74 307.09 326.43 306.71 326.78 306.51 M 401.92 326.86 C 399.69 327.51 397.76 329.86 399.07 332.18 C 398.57 332.36 397.56 332.73 397.06 332.92 C 397.36 334.20 397.67 335.47 397.99 336.76 C 403.67 336.66 409.33 336.07 414.99 335.68 C 414.89 334.42 414.78 333.17 414.68 331.93 C 411.71 331.67 408.72 331.77 405.77 331.36 C 407.61 330.31 409.78 330.92 411.78 330.90 C 412.38 329.58 412.96 328.26 413.56 326.95 C 409.77 326.11 405.67 325.58 401.92 326.86 M 343.01 337.05 C 345.88 338.91 348.84 340.71 352.03 341.98 C 355.68 341.19 358.72 338.61 362.12 337.10 C 358.78 335.59 355.81 332.86 352.13 332.32 C 348.80 333.16 345.94 335.32 343.01 337.05 M 277.36 354.01 C 277.34 357.10 277.84 360.55 280.21 362.77 C 283.26 365.89 287.88 366.33 292.00 366.65 C 300.47 366.93 309.37 367.28 317.24 363.60 C 324.90 367.51 333.74 366.84 342.06 366.62 C 354.57 365.93 367.23 363.37 378.29 357.28 C 381.73 354.88 386.02 356.79 389.88 356.44 C 390.86 353.87 391.88 351.32 392.85 348.75 C 389.94 348.27 387.00 348.23 384.07 348.07 C 375.28 347.33 366.70 345.22 358.00 343.90 C 349.60 342.48 340.88 344.09 333.14 347.49 C 334.93 349.47 336.55 351.62 338.48 353.47 C 339.95 353.97 341.42 353.14 342.83 352.81 C 350.09 350.33 357.86 352.05 365.13 353.61 C 357.05 356.36 348.51 357.44 340.02 357.60 C 334.24 357.62 328.29 358.08 322.76 356.05 C 323.43 354.04 323.85 351.95 324.28 349.88 C 320.02 349.43 315.75 349.23 311.47 349.14 C 310.46 352.14 310.05 356.67 306.16 357.22 C 301.43 357.86 296.55 357.91 291.83 357.16 C 291.31 349.19 291.95 341.20 291.44 333.24 C 286.76 333.26 282.09 333.61 277.41 333.64 C 277.33 340.43 277.38 347.22 277.36 354.01 M 425.63 335.26 C 425.20 338.03 424.38 340.73 423.09 343.23 C 417.85 341.04 412.49 339.15 407.09 337.41 C 405.78 337.15 404.42 336.45 403.10 336.88 C 400.50 338.74 398.26 341.06 395.87 343.17 C 402.69 346.08 410.17 347.15 416.91 350.32 C 412.66 353.33 408.01 355.72 403.08 357.39 C 403.01 360.36 402.99 363.34 402.84 366.32 C 411.83 366.50 420.87 367.26 429.83 366.33 C 434.30 365.67 440.38 364.30 441.28 359.02 C 441.75 354.48 437.72 351.31 434.45 348.90 C 438.09 345.00 442.29 339.97 441.59 334.36 C 436.26 334.02 430.94 334.98 425.63 335.26 M 450.61 333.83 C 450.59 344.65 450.66 355.46 450.58 366.28 C 455.35 367.10 460.21 366.35 465.01 366.16 C 465.01 355.31 464.96 344.45 465.04 333.60 C 460.24 333.00 455.41 333.64 450.61 333.83 M 246.87 353.18 C 249.67 356.45 252.83 359.66 254.25 363.82 C 254.65 365.03 255.05 366.82 253.63 367.54 C 248.28 370.30 242.03 369.17 236.25 369.38 C 235.29 372.03 234.43 374.72 233.68 377.45 C 242.06 378.32 250.89 378.76 258.91 375.67 C 262.95 374.05 267.33 371.43 268.48 366.90 C 269.48 361.54 266.83 356.39 263.67 352.25 C 262.57 350.89 261.29 348.66 259.19 349.51 C 255.06 350.62 250.97 351.92 246.87 353.18 M 306.15 373.31 C 308.90 375.73 312.38 377.03 315.57 378.75 C 318.75 376.97 321.99 375.32 325.13 373.48 C 322.10 371.87 319.19 370.03 316.04 368.67 C 312.42 369.06 309.39 371.74 306.15 373.31 Z" />
<path fill="#fb1010" opacity="1.00" d=" M 421.82 357.72 C 423.72 356.73 425.60 355.68 427.44 354.56 C 428.26 355.39 429.08 356.24 429.89 357.09 C 427.22 357.58 424.51 357.67 421.82 357.72 Z" />
<path fill="#fb1010" opacity="1.00" d=" M 520.62 366.72 C 521.68 366.30 522.98 364.76 524.12 365.81 C 528.30 369.19 531.69 373.56 536.43 376.24 C 536.57 376.34 536.84 376.56 536.98 376.66 C 541.51 382.26 546.31 387.63 550.47 393.52 C 539.00 407.93 524.09 419.23 507.98 427.99 C 475.41 445.53 438.96 454.71 402.43 459.20 C 356.30 464.53 309.16 462.42 263.96 451.55 C 237.96 445.12 212.35 435.79 189.73 421.24 C 179.14 414.40 169.22 406.34 161.21 396.56 C 160.39 395.53 159.38 394.64 158.24 394.00 L 158.27 393.11 C 159.42 389.27 162.01 386.14 164.57 383.16 C 169.27 379.40 172.90 374.56 177.05 370.25 C 186.35 376.10 195.60 382.16 205.81 386.36 C 214.97 391.31 225.01 394.17 234.64 398.03 C 241.24 399.82 247.33 403.10 254.01 404.62 C 259.52 405.86 264.40 409.29 270.22 409.21 C 270.91 409.30 271.61 409.37 272.31 409.46 C 285.61 413.84 299.52 416.37 313.46 417.52 C 335.09 418.71 356.79 418.49 378.43 417.57 C 393.75 416.77 408.58 412.61 423.49 409.34 C 426.34 408.62 429.07 407.55 431.79 406.45 C 436.43 404.55 441.47 403.85 446.08 401.84 C 451.34 399.58 456.90 398.17 462.18 395.99 C 470.73 392.71 479.69 390.14 487.41 385.04 C 488.72 384.44 490.04 383.85 491.35 383.24 C 494.46 381.80 497.38 379.99 500.32 378.23 C 501.26 377.72 502.21 377.20 503.15 376.69 C 504.61 375.86 506.06 375.02 507.50 374.15 C 512.12 372.13 516.44 369.53 520.62 366.72 M 240.08 409.69 C 238.69 414.88 236.72 419.90 234.65 424.85 C 235.51 427.19 237.36 428.75 239.77 429.34 C 242.83 430.10 246.08 432.81 249.18 430.79 C 250.51 433.99 254.12 434.20 256.99 435.15 C 257.38 434.77 258.16 434.00 258.54 433.62 C 259.26 437.35 263.49 437.17 266.10 435.67 C 266.84 436.67 267.59 437.68 268.33 438.70 C 270.42 439.09 272.50 438.77 274.51 438.12 C 275.07 438.97 275.64 439.82 276.21 440.68 C 279.17 441.21 282.09 441.93 285.03 442.60 C 286.51 442.66 288.27 443.90 289.58 442.65 C 290.89 440.75 291.47 443.17 292.26 443.97 C 294.78 444.56 297.32 444.97 299.86 445.46 C 300.76 444.84 301.64 444.18 302.48 443.48 C 303.33 440.14 303.63 436.69 304.07 433.27 C 302.48 432.93 300.91 432.59 299.34 432.23 C 299.17 435.09 298.74 437.93 298.21 440.75 C 295.99 440.35 293.78 439.94 291.59 439.46 C 292.13 436.68 292.75 433.91 293.56 431.21 C 289.06 430.75 284.25 427.79 280.06 430.82 C 279.70 432.77 279.31 434.71 278.95 436.67 C 278.03 436.47 276.20 436.09 275.28 435.90 C 275.88 433.11 276.56 430.34 277.37 427.62 C 275.77 427.19 274.18 426.74 272.60 426.29 C 272.02 429.04 271.34 431.78 270.79 434.55 C 269.52 434.28 268.25 434.01 266.98 433.74 C 267.56 430.92 268.29 428.13 269.30 425.43 C 267.68 424.97 266.07 424.49 264.46 424.00 C 263.80 426.78 263.05 429.53 262.27 432.28 C 261.04 431.89 259.82 431.51 258.60 431.13 C 259.36 428.42 260.15 425.72 261.01 423.04 C 259.50 422.52 257.97 421.99 256.46 421.48 C 255.66 424.20 254.84 426.92 254.04 429.65 C 252.82 429.24 251.61 428.85 250.40 428.45 C 251.29 425.80 252.13 423.14 252.98 420.47 C 251.41 419.93 249.84 419.38 248.27 418.86 C 247.60 421.58 246.77 424.26 245.91 426.93 C 243.96 426.18 242.01 425.42 240.06 424.69 C 241.63 420.30 243.14 415.88 244.70 411.49 C 243.16 410.89 241.62 410.29 240.08 409.69 M 462.21 411.68 C 462.64 412.70 463.07 413.71 463.52 414.74 C 464.59 414.28 465.65 413.83 466.74 413.40 C 466.32 412.38 465.91 411.36 465.51 410.36 C 464.41 410.80 463.30 411.24 462.21 411.68 M 250.51 414.10 C 250.16 415.15 249.82 416.21 249.48 417.26 C 250.54 417.64 251.61 418.01 252.69 418.39 C 253.06 417.40 253.44 416.41 253.82 415.43 C 252.71 414.98 251.61 414.54 250.51 414.10 M 463.25 416.67 C 464.61 419.15 465.55 421.83 466.51 424.49 C 464.42 425.28 462.32 426.02 460.21 426.74 C 459.76 425.27 459.31 423.81 458.84 422.36 C 457.45 421.50 456.07 420.63 454.70 419.76 C 450.61 421.31 446.45 422.66 442.25 423.89 L 441.92 422.54 C 440.30 422.98 438.69 423.43 437.07 423.87 C 438.48 426.88 439.11 430.17 439.89 433.39 C 438.59 433.74 437.30 434.09 436.02 434.45 C 435.38 431.69 434.67 428.94 433.85 426.24 C 432.27 426.67 430.70 427.10 429.13 427.52 C 430.16 430.19 430.85 432.97 431.37 435.78 C 428.88 436.32 426.41 436.92 423.92 437.48 C 424.26 435.48 424.55 433.47 424.78 431.46 C 423.62 430.76 422.47 430.06 421.32 429.38 C 418.36 430.26 415.35 430.91 412.31 431.37 C 411.59 432.52 410.89 433.68 410.19 434.85 C 411.13 436.40 412.08 437.96 413.04 439.51 C 411.75 440.63 410.58 441.87 409.46 443.17 C 410.06 445.70 410.48 448.27 410.73 450.86 C 413.98 453.78 418.13 452.30 421.90 451.52 C 422.58 449.86 423.24 448.19 423.90 446.53 C 420.96 447.11 418.05 447.82 415.10 448.38 C 414.93 446.92 414.76 445.48 414.60 444.03 C 416.22 443.69 417.57 442.75 418.85 441.74 C 419.39 441.91 420.49 442.25 421.04 442.42 C 425.62 441.82 430.02 440.30 434.54 439.39 C 435.05 438.62 435.57 437.86 436.10 437.10 C 437.41 437.40 438.73 438.37 440.12 437.79 C 446.33 436.15 452.37 433.96 458.53 432.15 C 459.00 431.05 459.48 429.95 459.96 428.86 C 460.87 429.45 461.79 430.05 462.71 430.66 C 465.97 429.13 470.50 428.76 471.72 424.74 C 470.48 421.47 469.30 418.19 468.09 414.92 C 466.48 415.50 464.86 416.09 463.25 416.67 M 428.66 422.39 C 428.85 423.18 429.24 424.76 429.43 425.55 C 430.56 425.21 431.68 424.88 432.82 424.56 C 432.52 423.54 432.23 422.53 431.95 421.52 C 430.85 421.81 429.75 422.10 428.66 422.39 M 308.45 423.24 C 307.92 424.39 307.41 425.56 306.89 426.72 C 308.60 427.03 310.30 427.35 312.01 427.67 L 311.98 426.31 C 311.25 426.04 309.79 425.50 309.06 425.23 C 310.04 425.09 312.01 424.80 312.99 424.65 C 311.80 423.40 310.03 423.45 308.45 423.24 M 287.24 424.69 C 286.90 425.66 286.57 426.63 286.23 427.61 C 287.35 427.98 288.48 428.36 289.61 428.74 C 289.87 427.63 290.14 426.53 290.41 425.44 C 289.35 425.18 288.29 424.93 287.24 424.69 M 300.73 427.29 C 300.58 428.38 300.44 429.49 300.30 430.59 C 301.43 430.75 302.56 430.91 303.70 431.08 C 303.79 430.32 303.95 428.82 304.03 428.07 C 302.93 427.80 301.83 427.54 300.73 427.29 M 306.91 427.96 C 306.81 433.41 305.67 438.77 304.91 444.15 C 305.72 444.96 306.54 445.77 307.36 446.59 C 310.93 447.01 314.49 447.55 318.07 447.92 C 318.95 447.22 319.84 446.53 320.73 445.85 C 320.92 442.38 321.35 438.94 321.75 435.50 C 320.03 435.30 318.30 435.10 316.59 434.90 C 317.06 437.74 316.41 440.59 316.15 443.42 C 314.05 443.14 311.97 442.79 309.91 442.34 C 310.72 437.76 311.14 433.13 311.72 428.53 C 310.11 428.33 308.51 428.15 306.91 427.96 M 394.54 428.44 C 395.79 434.50 396.79 440.69 396.89 446.89 C 398.78 446.57 400.66 446.25 402.56 445.93 C 400.93 440.07 400.42 433.97 399.77 427.94 C 398.03 428.11 396.28 428.27 394.54 428.44 M 329.16 430.30 C 329.49 435.82 328.77 441.33 328.13 446.81 C 331.06 450.23 335.99 449.25 340.00 449.60 C 341.57 449.95 342.57 448.62 343.69 447.79 C 344.12 448.30 344.97 449.32 345.40 449.83 C 349.61 449.84 353.81 449.82 358.02 449.83 C 359.11 448.95 360.19 448.06 361.28 447.19 C 360.98 444.26 360.96 441.32 360.93 438.39 C 359.92 437.65 358.92 436.92 357.93 436.19 C 354.49 435.97 350.86 435.79 348.19 438.37 C 348.18 440.69 348.17 443.01 348.17 445.33 C 346.75 445.33 345.33 445.33 343.92 445.35 C 344.03 442.58 344.28 439.83 344.46 437.08 C 342.71 437.00 340.97 436.91 339.23 436.79 C 339.78 439.58 339.47 442.42 339.31 445.23 C 337.31 445.15 335.32 445.06 333.33 444.97 C 333.51 440.26 333.76 435.56 333.99 430.85 C 332.38 430.67 330.77 430.50 329.16 430.30 M 373.15 430.71 C 373.24 435.56 373.56 440.41 374.05 445.23 C 369.78 445.49 371.65 440.49 371.78 437.88 C 369.94 436.48 368.12 435.06 366.34 433.60 C 365.09 434.32 363.84 435.05 362.61 435.78 C 363.94 436.85 365.28 437.93 366.61 439.02 C 366.61 441.08 366.63 443.14 366.66 445.20 C 365.75 445.25 363.93 445.35 363.01 445.40 C 363.00 446.91 362.99 448.42 362.99 449.93 C 367.00 449.43 371.05 449.43 375.06 448.99 C 376.58 449.15 377.53 447.90 378.56 447.03 C 379.37 447.58 380.18 448.14 381.00 448.70 C 385.88 448.00 390.80 447.54 395.72 447.16 C 395.45 445.71 395.18 444.27 394.92 442.84 C 392.29 443.11 389.67 443.36 387.05 443.57 C 387.00 442.20 386.95 440.82 386.91 439.46 C 389.47 439.15 392.03 438.85 394.60 438.60 C 394.36 437.08 394.13 435.57 393.91 434.06 C 390.98 434.81 387.96 435.02 384.97 435.35 C 383.83 436.07 383.16 437.34 382.26 438.33 C 382.08 440.58 382.76 442.59 384.56 444.04 C 382.61 444.15 380.66 444.29 378.71 444.44 C 378.27 439.71 377.70 434.99 377.80 430.24 C 376.24 430.41 374.70 430.57 373.15 430.71 M 340.29 431.65 C 340.23 432.68 340.16 433.72 340.11 434.77 C 341.30 434.82 342.49 434.87 343.70 434.93 C 343.65 433.81 343.62 432.70 343.59 431.60 C 342.48 431.61 341.39 431.63 340.29 431.65 M 312.40 449.24 C 312.31 450.34 312.22 451.44 312.14 452.55 C 313.38 452.64 314.61 452.74 315.86 452.85 C 315.84 451.72 315.81 450.61 315.80 449.50 C 314.66 449.41 313.53 449.32 312.40 449.24 Z" />
<path fill="#fb1010" opacity="1.00" d=" M 153.40 384.50 C 154.95 385.41 156.26 386.85 156.13 388.78 C 154.42 388.89 153.07 386.01 153.40 384.50 Z" />
<path fill="#fb1010" opacity="1.00" d=" M 443.64 428.02 C 447.22 426.91 450.79 425.77 454.35 424.59 C 454.78 425.88 455.22 427.18 455.66 428.48 C 452.05 429.67 448.43 430.80 444.80 431.92 C 444.41 430.61 444.02 429.32 443.64 428.02 Z" />
<path fill="#fb1010" opacity="1.00" d=" M 284.45 433.53 C 285.59 433.74 286.73 433.94 287.88 434.16 C 287.59 435.60 287.32 437.05 287.05 438.50 C 285.85 438.28 284.65 438.05 283.46 437.83 C 283.79 436.39 284.11 434.95 284.45 433.53 Z" />
<path fill="#fb1010" opacity="1.00" d=" M 414.54 435.35 C 416.76 434.90 418.98 434.49 421.21 434.13 C 420.71 436.41 420.07 438.86 417.33 439.16 C 416.38 437.90 415.44 436.64 414.54 435.35 Z" />
<path fill="#fb1010" opacity="1.00" d=" M 352.83 446.00 C 352.83 444.00 352.83 442.00 352.83 440.00 C 353.72 440.00 355.49 440.00 356.37 440.00 C 356.37 441.99 356.37 443.99 356.37 446.00 C 355.49 446.00 353.72 446.00 352.83 446.00 Z" />
</g>
<g id="#cb6161ff">
<path fill="#cb6161" opacity="1.00" d=" M 318.90 280.96 C 327.91 280.01 336.92 278.64 346.01 278.98 C 357.02 279.35 368.06 278.59 379.06 279.30 C 389.78 280.83 400.46 282.64 411.03 285.03 C 410.57 285.19 409.65 285.52 409.19 285.68 C 398.51 283.87 387.94 281.32 377.17 280.05 C 376.52 280.03 375.20 279.99 374.55 279.97 C 369.40 279.96 364.26 279.73 359.12 279.66 C 358.71 279.66 357.89 279.67 357.48 279.67 C 354.88 279.69 352.28 279.77 349.69 279.84 C 348.26 279.87 346.83 279.89 345.41 279.90 C 342.77 279.92 340.13 279.94 337.50 280.11 C 336.75 280.17 336.01 280.24 335.27 280.33 C 330.59 280.96 325.92 281.59 321.22 281.99 C 315.34 282.22 309.79 284.33 304.00 285.14 L 303.85 283.94 C 308.92 283.23 313.79 281.47 318.90 280.96 Z" />
</g>
<g id="#cebfbfff">
<path fill="#cebfbf" opacity="1.00" d=" M 335.27 280.33 C 336.01 280.24 336.75 280.17 337.50 280.11 C 336.96 284.82 338.77 289.21 342.08 292.52 C 345.63 291.17 349.46 291.21 353.00 292.60 C 356.22 289.06 357.46 284.37 357.48 279.67 C 357.89 279.67 358.71 279.66 359.12 279.66 C 359.49 281.95 359.85 284.23 360.22 286.51 C 365.43 286.38 373.48 286.69 374.55 279.97 C 375.20 279.99 376.52 280.03 377.17 280.05 C 376.25 282.10 375.62 284.38 374.10 286.10 C 369.97 288.75 364.73 289.70 359.99 288.27 C 358.49 290.22 357.01 292.19 355.53 294.17 C 356.05 296.13 356.54 298.09 357.02 300.07 C 354.07 297.84 351.63 294.67 348.00 293.54 C 344.41 294.21 342.31 297.48 339.57 299.55 C 336.89 298.80 339.65 295.34 340.30 293.71 C 338.37 292.28 336.78 290.48 335.37 288.56 C 330.84 288.53 326.09 288.20 322.11 285.82 C 320.41 284.89 318.93 283.52 317.07 282.92 C 313.15 284.19 309.80 286.98 305.65 287.61 C 303.05 287.94 300.42 287.64 297.81 287.47 C 296.59 289.82 295.12 292.26 292.10 291.43 C 292.68 290.21 293.27 289.00 293.86 287.79 C 293.15 287.85 291.73 287.96 291.01 288.01 C 295.22 286.57 299.62 285.84 304.00 285.14 C 309.79 284.33 315.34 282.22 321.22 281.99 C 324.29 286.55 330.13 285.79 334.89 286.39 C 335.02 284.37 335.14 282.35 335.27 280.33 Z" />
</g>
<g id="#eee0e3ff">
<path fill="#eee0e3" opacity="1.00" d=" M 337.50 280.11 C 340.13 279.94 342.77 279.92 345.41 279.90 C 343.89 281.25 342.25 282.50 341.01 284.13 C 340.36 285.94 342.53 286.86 343.93 287.20 C 346.26 287.79 349.09 288.79 351.29 287.33 C 352.83 286.40 352.73 284.40 353.25 282.90 C 350.71 283.82 348.21 284.83 345.69 285.80 C 347.02 283.81 348.36 281.83 349.69 279.84 C 352.28 279.77 354.88 279.69 357.48 279.67 C 357.46 284.37 356.22 289.06 353.00 292.60 C 349.46 291.21 345.63 291.17 342.08 292.52 C 338.77 289.21 336.96 284.82 337.50 280.11 Z" />
</g>
<g id="#ddd1d3ff">
<path fill="#ddd1d3" opacity="1.00" d=" M 345.41 279.90 C 346.83 279.89 348.26 279.87 349.69 279.84 C 348.36 281.83 347.02 283.81 345.69 285.80 C 348.21 284.83 350.71 283.82 353.25 282.90 C 352.73 284.40 352.83 286.40 351.29 287.33 C 349.09 288.79 346.26 287.79 343.93 287.20 C 342.53 286.86 340.36 285.94 341.01 284.13 C 342.25 282.50 343.89 281.25 345.41 279.90 Z" />
</g>
<g id="#eadfe2ff">
<path fill="#eadfe2" opacity="1.00" d=" M 359.12 279.66 C 364.26 279.73 369.40 279.96 374.55 279.97 C 373.48 286.69 365.43 286.38 360.22 286.51 C 359.85 284.23 359.49 281.95 359.12 279.66 Z" />
</g>
<g id="#eedcddff">
<path fill="#eedcdd" opacity="1.00" d=" M 377.17 280.05 C 387.94 281.32 398.51 283.87 409.19 285.68 C 409.91 285.78 410.63 285.90 411.36 286.03 C 417.65 288.60 424.62 289.06 430.74 292.12 C 432.54 292.96 434.31 293.89 436.15 294.66 C 435.34 294.58 433.71 294.43 432.90 294.36 C 432.82 295.23 432.73 296.10 432.63 296.98 C 431.65 297.25 430.67 297.52 429.70 297.80 C 428.89 299.09 428.08 300.39 427.27 301.68 C 422.73 299.60 417.79 301.55 413.79 303.91 C 412.20 304.66 412.39 306.51 412.49 307.97 C 412.92 308.99 413.37 310.00 413.84 311.02 C 412.34 311.07 410.87 311.13 409.38 311.20 C 406.79 310.78 404.23 310.23 401.68 309.61 C 402.96 309.10 404.24 308.58 405.52 308.03 C 403.70 306.50 401.87 304.98 399.90 303.65 C 400.87 303.70 401.84 303.74 402.82 303.79 C 401.97 303.12 401.13 302.45 400.29 301.79 C 402.56 299.23 404.31 295.78 407.60 294.46 C 411.82 293.58 414.13 297.87 416.63 300.39 C 418.14 301.49 419.27 298.84 418.14 297.84 C 415.43 294.81 411.57 291.20 407.14 292.43 C 403.45 293.87 399.54 296.36 398.83 300.59 C 396.47 300.85 394.11 301.12 391.76 301.43 C 392.50 302.05 393.26 302.66 394.03 303.27 C 393.25 303.56 392.47 303.87 391.70 304.20 C 391.47 304.95 391.03 306.46 390.80 307.22 C 390.27 307.23 389.20 307.26 388.66 307.28 C 388.13 304.13 386.24 301.16 383.35 299.73 C 379.60 298.73 375.68 298.79 371.84 298.41 C 371.75 297.78 371.56 296.51 371.47 295.88 C 368.20 296.41 367.40 299.69 366.54 302.37 C 361.89 302.30 357.45 303.70 353.02 304.91 C 344.40 305.81 335.72 303.98 327.09 305.09 C 327.04 304.61 326.93 303.66 326.87 303.18 C 327.39 303.30 328.43 303.52 328.95 303.64 C 328.53 299.95 327.26 296.36 324.27 293.98 C 324.98 292.63 325.70 291.28 326.43 289.94 C 325.99 289.49 325.11 288.58 324.67 288.12 C 322.30 290.72 320.09 294.89 315.95 294.29 C 311.96 293.69 311.06 288.48 307.06 288.03 C 307.08 292.39 311.38 294.55 314.73 296.30 C 317.24 297.65 319.92 296.06 322.34 295.31 C 323.66 297.07 324.98 298.83 326.10 300.73 C 324.52 300.13 322.94 299.52 321.37 298.93 C 321.96 300.00 322.55 301.08 323.15 302.16 C 322.86 302.56 322.27 303.35 321.97 303.75 C 320.17 303.33 318.38 302.92 316.58 302.50 C 315.33 303.42 314.07 304.33 312.83 305.25 C 311.77 304.02 310.72 302.80 309.67 301.58 C 309.20 301.61 308.24 301.69 307.77 301.73 C 308.58 299.57 309.58 297.49 310.53 295.39 C 309.06 295.28 307.27 294.77 306.21 296.15 C 304.03 298.50 304.85 301.89 305.18 304.74 C 303.73 304.17 302.28 303.60 300.83 303.03 C 300.47 304.35 300.11 305.67 299.76 306.99 C 296.78 308.05 293.78 307.06 290.89 306.25 C 291.60 308.39 292.80 310.30 294.25 312.02 C 292.40 312.46 290.55 312.95 288.72 313.46 C 289.69 312.75 290.66 312.04 291.63 311.31 C 289.40 310.01 287.04 308.92 284.49 308.42 C 284.38 306.70 284.89 304.74 283.76 303.27 C 282.12 301.13 279.58 300.00 277.33 298.64 C 279.49 296.20 281.35 292.47 284.99 292.20 C 289.32 292.15 290.99 297.42 295.03 298.07 C 296.14 294.26 290.99 292.72 288.65 290.69 C 288.64 290.22 288.60 289.29 288.58 288.82 C 289.19 288.62 290.40 288.21 291.01 288.01 C 291.73 287.96 293.15 287.85 293.86 287.79 C 293.27 289.00 292.68 290.21 292.10 291.43 C 295.12 292.26 296.59 289.82 297.81 287.47 C 300.42 287.64 303.05 287.94 305.65 287.61 C 309.80 286.98 313.15 284.19 317.07 282.92 C 318.93 283.52 320.41 284.89 322.11 285.82 C 326.09 288.20 330.84 288.53 335.37 288.56 C 336.78 290.48 338.37 292.28 340.30 293.71 C 339.65 295.34 336.89 298.80 339.57 299.55 C 342.31 297.48 344.41 294.21 348.00 293.54 C 351.63 294.67 354.07 297.84 357.02 300.07 C 356.54 298.09 356.05 296.13 355.53 294.17 C 357.01 292.19 358.49 290.22 359.99 288.27 C 364.73 289.70 369.97 288.75 374.10 286.10 C 375.62 284.38 376.25 282.10 377.17 280.05 M 369.04 288.97 C 369.22 290.50 368.78 292.53 370.41 293.43 C 373.33 295.68 376.67 299.18 380.72 297.53 C 384.12 295.92 388.80 293.25 386.94 288.75 C 383.37 290.72 381.13 297.22 376.26 294.80 C 373.01 293.90 372.35 289.62 369.04 288.97 M 384.04 297.49 C 385.74 299.59 387.48 301.66 389.31 303.65 C 391.55 300.72 387.01 293.55 384.04 297.49 M 342.13 302.76 C 346.58 304.67 351.95 304.58 355.89 301.54 C 354.42 299.81 352.64 298.38 350.68 297.25 C 350.01 298.69 350.24 301.47 348.02 301.41 C 345.71 301.92 345.31 298.57 344.26 297.16 C 342.56 298.58 342.10 300.63 342.13 302.76 M 288.70 301.70 C 285.94 303.47 287.27 307.27 289.21 309.15 C 289.86 307.17 289.89 304.84 291.26 303.21 C 294.82 300.36 299.89 302.41 303.68 300.12 C 302.61 299.22 301.56 297.92 299.98 298.23 C 296.05 298.52 292.10 299.71 288.70 301.70 Z" />
</g>
<g id="#eddfe2ff">
<path fill="#eddfe2" opacity="1.00" d=" M 321.22 281.99 C 325.92 281.59 330.59 280.96 335.27 280.33 C 335.14 282.35 335.02 284.37 334.89 286.39 C 330.13 285.79 324.29 286.55 321.22 281.99 Z" />
</g>
<g id="#ce4a4aff">
<path fill="#ce4a4a" opacity="1.00" d=" M 289.03 287.25 C 293.81 285.53 298.83 284.63 303.85 283.94 L 304.00 285.14 C 299.62 285.84 295.22 286.57 291.01 288.01 C 290.40 288.21 289.19 288.62 288.58 288.82 C 284.12 290.55 279.29 290.93 274.82 292.62 C 271.55 293.68 268.31 294.88 264.98 295.73 C 263.60 296.03 262.22 296.30 260.84 296.56 C 264.78 294.15 269.39 293.39 273.66 291.77 C 278.67 289.89 284.01 289.12 289.03 287.25 Z" />
</g>
<g id="#cb4444ff">
<path fill="#cb4444" opacity="1.00" d=" M 411.36 286.03 C 420.79 286.18 429.70 289.89 438.20 293.64 C 446.48 295.87 453.94 300.15 461.83 303.38 C 471.79 308.67 482.45 312.81 491.50 319.65 C 501.40 325.83 511.59 332.17 519.06 341.31 C 518.51 341.07 517.40 340.61 516.84 340.37 C 513.10 337.21 509.82 333.49 505.66 330.85 C 501.93 328.13 498.13 325.51 494.20 323.11 C 490.61 321.00 487.25 318.56 483.78 316.28 C 480.95 314.68 477.92 313.47 475.02 312.01 C 473.71 311.16 472.41 310.31 471.04 309.58 C 469.64 308.88 468.24 308.24 466.84 307.58 C 462.63 305.52 458.31 303.72 454.01 301.89 C 448.23 299.07 442.57 295.82 436.15 294.66 C 434.31 293.89 432.54 292.96 430.74 292.12 C 424.62 289.06 417.65 288.60 411.36 286.03 Z" />
</g>
<g id="#d3c0bdff">
<path fill="#d3c0bd" opacity="1.00" d=" M 307.06 288.03 C 311.06 288.48 311.96 293.69 315.95 294.29 C 320.09 294.89 322.30 290.72 324.67 288.12 C 325.11 288.58 325.99 289.49 326.43 289.94 C 325.70 291.28 324.98 292.63 324.27 293.98 C 327.26 296.36 328.53 299.95 328.95 303.64 C 328.43 303.52 327.39 303.30 326.87 303.18 C 326.68 302.57 326.29 301.34 326.10 300.73 C 324.98 298.83 323.66 297.07 322.34 295.31 C 319.92 296.06 317.24 297.65 314.73 296.30 C 311.38 294.55 307.08 292.39 307.06 288.03 Z" />
</g>
<g id="#d1bdbcff">
<path fill="#d1bdbc" opacity="1.00" d=" M 274.82 292.62 C 279.29 290.93 284.12 290.55 288.58 288.82 C 288.60 289.29 288.64 290.22 288.65 290.69 C 290.99 292.72 296.14 294.26 295.03 298.07 C 290.99 297.42 289.32 292.15 284.99 292.20 C 281.35 292.47 279.49 296.20 277.33 298.64 C 279.58 300.00 282.12 301.13 283.76 303.27 C 284.89 304.74 284.38 306.70 284.49 308.42 C 283.36 309.32 282.22 310.22 281.07 311.10 C 280.64 311.08 279.79 311.04 279.36 311.02 C 280.22 308.71 283.14 305.70 280.45 303.59 C 277.51 301.16 273.47 301.20 269.96 300.18 C 268.63 299.97 267.78 299.18 267.41 297.81 C 270.03 297.75 272.66 297.95 275.26 298.33 C 275.85 296.34 276.77 294.48 277.83 292.70 C 277.08 292.68 275.57 292.64 274.82 292.62 Z" />
</g>
<g id="#d3c1bfff">
<path fill="#d3c1bf" opacity="1.00" d=" M 369.04 288.97 C 372.35 289.62 373.01 293.90 376.26 294.80 C 381.13 297.22 383.37 290.72 386.94 288.75 C 388.80 293.25 384.12 295.92 380.72 297.53 C 376.67 299.18 373.33 295.68 370.41 293.43 C 368.78 292.53 369.22 290.50 369.04 288.97 Z" />
</g>
<g id="#c8b5b7ff">
<path fill="#c8b5b7" opacity="1.00" d=" M 398.83 300.59 C 399.54 296.36 403.45 293.87 407.14 292.43 C 411.57 291.20 415.43 294.81 418.14 297.84 C 419.27 298.84 418.14 301.49 416.63 300.39 C 414.13 297.87 411.82 293.58 407.60 294.46 C 404.31 295.78 402.56 299.23 400.29 301.79 C 401.13 302.45 401.97 303.12 402.82 303.79 C 401.84 303.74 400.87 303.70 399.90 303.65 C 397.95 303.49 395.99 303.38 394.03 303.27 C 393.26 302.66 392.50 302.05 391.76 301.43 C 394.11 301.12 396.47 300.85 398.83 300.59 Z" />
</g>
<g id="#edd2d3ff">
<path fill="#edd2d3" opacity="1.00" d=" M 264.98 295.73 C 268.31 294.88 271.55 293.68 274.82 292.62 C 275.57 292.64 277.08 292.68 277.83 292.70 C 276.77 294.48 275.85 296.34 275.26 298.33 C 272.66 297.95 270.03 297.75 267.41 297.81 C 267.78 299.18 268.63 299.97 269.96 300.18 C 273.47 301.20 277.51 301.16 280.45 303.59 C 283.14 305.70 280.22 308.71 279.36 311.02 C 279.79 311.04 280.64 311.08 281.07 311.10 C 280.18 311.79 279.30 312.51 278.43 313.22 C 278.61 313.89 278.97 315.22 279.16 315.88 C 277.87 316.28 276.60 316.75 275.34 317.22 C 275.48 316.22 275.61 315.22 275.76 314.22 C 272.47 314.17 269.19 314.14 265.91 314.11 C 267.19 308.04 267.25 301.58 264.98 295.73 M 267.65 312.08 C 270.62 314.57 275.24 312.92 278.24 311.15 C 274.83 311.38 270.27 309.37 267.65 312.08 Z" />
</g>
<g id="#d1c3bbff">
<path fill="#d1c3bb" opacity="1.00" d=" M 306.21 296.15 C 307.27 294.77 309.06 295.28 310.53 295.39 C 309.58 297.49 308.58 299.57 307.77 301.73 C 307.50 303.93 307.37 306.15 307.25 308.37 C 310.81 308.23 314.44 307.81 317.55 305.93 C 320.62 306.22 323.69 306.43 326.78 306.51 C 326.43 306.71 325.74 307.09 325.40 307.29 C 318.21 307.16 311.26 309.22 304.15 309.89 C 305.34 308.41 305.53 306.56 305.18 304.74 C 304.85 301.89 304.03 298.50 306.21 296.15 Z" />
</g>
<g id="#e9d1d1ff">
<path fill="#e9d1d1" opacity="1.00" d=" M 432.63 296.98 C 432.73 296.10 432.82 295.23 432.90 294.36 C 433.71 294.43 435.34 294.58 436.15 294.66 C 442.57 295.82 448.23 299.07 454.01 301.89 C 453.24 301.97 451.72 302.13 450.95 302.20 C 451.66 307.66 452.11 313.21 450.92 318.64 C 450.68 320.21 450.51 321.79 450.36 323.38 C 447.63 322.28 444.98 321.02 442.27 319.90 C 443.79 319.84 445.32 319.77 446.85 319.68 C 447.28 317.92 447.71 316.16 448.16 314.41 C 445.89 315.33 443.55 316.93 441.00 316.23 C 437.84 315.29 435.88 312.43 433.70 310.18 C 433.18 310.28 432.14 310.47 431.62 310.56 C 430.98 312.23 430.35 313.89 429.73 315.57 C 429.04 315.50 427.65 315.35 426.95 315.28 C 426.53 315.16 425.68 314.94 425.26 314.82 C 426.13 314.53 427.86 313.93 428.72 313.63 C 428.01 311.36 427.72 308.81 426.17 306.91 C 424.92 306.43 423.61 306.15 422.32 305.82 C 422.79 306.90 423.26 307.99 423.74 309.07 C 423.28 309.33 422.36 309.85 421.91 310.11 C 419.97 308.07 417.87 306.11 415.14 305.20 C 419.18 303.61 423.55 303.43 427.84 303.40 C 428.31 306.33 428.87 309.24 429.65 312.11 C 430.23 306.98 431.25 301.95 432.63 296.98 M 439.04 307.06 C 438.36 308.23 437.66 309.46 438.23 310.86 C 439.31 310.81 440.39 310.75 441.48 310.67 C 441.57 310.06 441.75 308.85 441.84 308.25 C 440.90 307.85 439.97 307.45 439.04 307.06 Z" />
</g>
<g id="#cdb1b2ff">
<path fill="#cdb1b2" opacity="1.00" d=" M 260.84 296.56 C 262.22 296.30 263.60 296.03 264.98 295.73 C 267.25 301.58 267.19 308.04 265.91 314.11 C 264.81 315.37 263.62 316.55 262.45 317.74 C 260.41 315.21 263.58 312.63 263.76 309.98 C 264.15 305.73 265.37 300.03 261.36 297.09 L 260.47 296.63 L 260.84 296.56 Z" />
</g>
<g id="#d0c2c3ff">
<path fill="#d0c2c3" opacity="1.00" d=" M 366.54 302.37 C 367.40 299.69 368.20 296.41 371.47 295.88 C 371.56 296.51 371.75 297.78 371.84 298.41 C 370.78 299.71 369.73 301.02 368.68 302.33 C 368.14 302.34 367.07 302.36 366.54 302.37 Z" />
</g>
<g id="#d8c8c7ff">
<path fill="#d8c8c7" opacity="1.00" d=" M 384.04 297.49 C 387.01 293.55 391.55 300.72 389.31 303.65 C 387.48 301.66 385.74 299.59 384.04 297.49 Z" />
</g>
<g id="#c83f3fff">
<path fill="#c83f3f" opacity="1.00" d=" M 242.77 303.15 C 248.69 301.05 254.35 298.13 260.47 296.63 L 261.36 297.09 C 255.80 299.39 250.20 301.61 244.66 303.96 C 239.68 306.45 234.75 309.07 229.98 311.95 L 229.96 311.96 C 229.57 312.33 228.78 313.07 228.39 313.45 C 223.69 314.71 219.91 317.95 215.74 320.30 C 215.51 320.42 215.05 320.67 214.82 320.80 C 213.06 321.77 211.30 322.75 209.56 323.76 C 207.55 324.95 205.60 326.23 203.63 327.48 C 201.22 328.96 198.83 330.48 196.49 332.08 C 191.26 335.82 186.01 339.54 180.82 343.33 C 177.84 345.93 175.20 348.90 172.09 351.35 L 170.46 351.76 C 174.65 345.26 181.27 340.92 187.49 336.56 C 205.07 324.08 223.80 313.32 242.77 303.15 Z" />
</g>
<g id="#f5f4f1ff">
<path fill="#f5f4f1" opacity="1.00" d=" M 342.13 302.76 C 342.10 300.63 342.56 298.58 344.26 297.16 C 345.31 298.57 345.71 301.92 348.02 301.41 C 350.24 301.47 350.01 298.69 350.68 297.25 C 352.64 298.38 354.42 299.81 355.89 301.54 C 351.95 304.58 346.58 304.67 342.13 302.76 Z" />
</g>
<g id="#cab5b3ff">
<path fill="#cab5b3" opacity="1.00" d=" M 429.70 297.80 C 430.67 297.52 431.65 297.25 432.63 296.98 C 431.25 301.95 430.23 306.98 429.65 312.11 C 428.87 309.24 428.31 306.33 427.84 303.40 C 423.55 303.43 419.18 303.61 415.14 305.20 C 414.24 306.11 413.36 307.03 412.49 307.97 C 412.39 306.51 412.20 304.66 413.79 303.91 C 417.79 301.55 422.73 299.60 427.27 301.68 C 428.08 300.39 428.89 299.09 429.70 297.80 Z" />
</g>
<g id="#edceceff">
<path fill="#edcece" opacity="1.00" d=" M 244.66 303.96 C 250.20 301.61 255.80 299.39 261.36 297.09 C 265.37 300.03 264.15 305.73 263.76 309.98 C 263.58 312.63 260.41 315.21 262.45 317.74 C 262.17 318.01 261.63 318.56 261.35 318.83 C 262.59 319.41 263.82 319.98 265.06 320.56 C 263.10 321.11 261.15 321.69 259.26 322.43 C 259.08 321.43 258.91 320.43 258.73 319.44 C 258.80 314.68 252.74 315.03 249.53 316.13 C 248.01 314.94 246.48 313.78 245.01 312.55 C 243.07 309.94 243.19 306.73 244.66 303.96 M 251.26 304.94 C 252.51 306.58 255.00 307.32 256.09 305.07 C 255.21 302.85 252.56 303.53 251.26 304.94 M 249.00 307.27 C 248.39 308.08 247.79 308.91 247.19 309.73 C 249.26 311.07 251.31 313.03 253.98 312.75 C 256.99 313.02 259.32 310.90 261.29 308.94 C 260.07 308.29 258.84 307.66 257.62 307.04 C 257.57 307.51 257.47 308.47 257.42 308.95 C 255.96 309.37 254.50 309.83 252.99 310.04 C 251.40 309.58 250.28 308.24 249.00 307.27 Z" />
</g>
<g id="#cdbbb9ff">
<path fill="#cdbbb9" opacity="1.00" d=" M 288.70 301.70 C 292.10 299.71 296.05 298.52 299.98 298.23 C 301.56 297.92 302.61 299.22 303.68 300.12 C 299.89 302.41 294.82 300.36 291.26 303.21 C 289.89 304.84 289.86 307.17 289.21 309.15 C 287.27 307.27 285.94 303.47 288.70 301.70 Z" />
</g>
<g id="#ededebff">
<path fill="#ededeb" opacity="1.00" d=" M 371.84 298.41 C 375.68 298.79 379.60 298.73 383.35 299.73 C 386.24 301.16 388.13 304.13 388.66 307.28 C 387.12 307.30 385.58 307.28 384.05 307.21 C 377.09 306.00 370.01 306.60 363.00 306.18 C 351.09 305.17 339.10 305.40 327.23 306.52 L 327.09 305.09 C 335.72 303.98 344.40 305.81 353.02 304.91 C 357.45 303.70 361.89 302.30 366.54 302.37 C 367.07 302.36 368.14 302.34 368.68 302.33 C 369.73 301.02 370.78 299.71 371.84 298.41 Z" />
</g>
<g id="#f6f3f0ff">
<path fill="#f6f3f0" opacity="1.00" d=" M 321.37 298.93 C 322.94 299.52 324.52 300.13 326.10 300.73 C 326.29 301.34 326.68 302.57 326.87 303.18 C 326.93 303.66 327.04 304.61 327.09 305.09 L 327.23 306.52 L 326.78 306.51 C 323.69 306.43 320.62 306.22 317.55 305.93 C 314.44 307.81 310.81 308.23 307.25 308.37 C 307.37 306.15 307.50 303.93 307.77 301.73 C 308.24 301.69 309.20 301.61 309.67 301.58 C 310.72 302.80 311.77 304.02 312.83 305.25 C 314.07 304.33 315.33 303.42 316.58 302.50 C 318.38 302.92 320.17 303.33 321.97 303.75 C 322.27 303.35 322.86 302.56 323.15 302.16 C 322.55 301.08 321.96 300.00 321.37 298.93 Z" />
</g>
<g id="#e7cecdff">
<path fill="#e7cecd" opacity="1.00" d=" M 450.95 302.20 C 451.72 302.13 453.24 301.97 454.01 301.89 C 458.31 303.72 462.63 305.52 466.84 307.58 C 466.49 309.19 466.78 311.19 465.34 312.35 C 462.47 315.14 458.16 314.50 454.51 314.65 C 454.39 315.24 454.16 316.42 454.04 317.01 C 456.45 317.11 458.86 317.22 461.28 317.34 C 462.47 321.12 465.82 323.28 469.07 325.16 C 468.28 325.07 466.70 324.89 465.91 324.80 C 465.09 326.09 464.26 327.37 463.44 328.67 C 461.60 327.95 459.75 327.25 457.93 326.52 C 459.50 325.74 461.07 324.97 462.64 324.19 C 461.83 322.25 461.02 320.32 460.23 318.38 C 457.12 318.30 454.01 318.36 450.92 318.64 C 452.11 313.21 451.66 307.66 450.95 302.20 Z" />
</g>
<g id="#f5f1f0ff">
<path fill="#f5f1f0" opacity="1.00" d=" M 300.83 303.03 C 302.28 303.60 303.73 304.17 305.18 304.74 C 305.53 306.56 305.34 308.41 304.15 309.89 C 300.85 310.61 297.54 311.27 294.25 312.02 C 292.80 310.30 291.60 308.39 290.89 306.25 C 293.78 307.06 296.78 308.05 299.76 306.99 C 300.11 305.67 300.47 304.35 300.83 303.03 Z" />
</g>
<g id="#f7f7f3ff">
<path fill="#f7f7f3" opacity="1.00" d=" M 394.03 303.27 C 395.99 303.38 397.95 303.49 399.90 303.65 C 401.87 304.98 403.70 306.50 405.52 308.03 C 404.24 308.58 402.96 309.10 401.68 309.61 C 395.86 308.43 389.93 307.95 384.05 307.21 C 385.58 307.28 387.12 307.30 388.66 307.28 C 389.20 307.26 390.27 307.23 390.80 307.22 C 391.03 306.46 391.47 304.95 391.70 304.20 C 392.47 303.87 393.25 303.56 394.03 303.27 Z" />
</g>
<g id="#cdaaaaff">
<path fill="#cdaaaa" opacity="1.00" d=" M 229.98 311.95 C 234.75 309.07 239.68 306.45 244.66 303.96 C 243.19 306.73 243.07 309.94 245.01 312.55 C 245.61 313.69 246.23 314.84 246.84 315.99 C 246.33 316.30 245.32 316.91 244.82 317.21 C 242.24 314.80 240.92 311.52 239.89 308.23 C 238.76 308.49 237.64 308.77 236.51 309.04 C 237.04 310.17 237.56 311.29 238.09 312.42 C 235.38 312.27 232.68 312.05 229.98 311.95 Z" />
</g>
<g id="#d4b7b7ff">
<path fill="#d4b7b7" opacity="1.00" d=" M 251.26 304.94 C 252.56 303.53 255.21 302.85 256.09 305.07 C 255.00 307.32 252.51 306.58 251.26 304.94 Z" />
</g>
<g id="#f2f1edff">
<path fill="#f2f1ed" opacity="1.00" d=" M 412.49 307.97 C 413.36 307.03 414.24 306.11 415.14 305.20 C 417.87 306.11 419.97 308.07 421.91 310.11 C 422.36 309.85 423.28 309.33 423.74 309.07 C 423.26 307.99 422.79 306.90 422.32 305.82 C 423.61 306.15 424.92 306.43 426.17 306.91 C 427.72 308.81 428.01 311.36 428.72 313.63 C 427.86 313.93 426.13 314.53 425.26 314.82 C 420.02 314.00 415.04 311.12 409.65 311.85 C 409.59 311.69 409.45 311.37 409.38 311.20 C 410.87 311.13 412.34 311.07 413.84 311.02 C 413.37 310.00 412.92 308.99 412.49 307.97 Z" />
</g>
<g id="#d9b6b5ff">
<path fill="#d9b6b5" opacity="1.00" d=" M 249.00 307.27 C 250.28 308.24 251.40 309.58 252.99 310.04 C 254.50 309.83 255.96 309.37 257.42 308.95 C 257.47 308.47 257.57 307.51 257.62 307.04 C 258.84 307.66 260.07 308.29 261.29 308.94 C 259.32 310.90 256.99 313.02 253.98 312.75 C 251.31 313.03 249.26 311.07 247.19 309.73 C 247.79 308.91 248.39 308.08 249.00 307.27 Z" />
</g>
<g id="#dac1c1ff">
<path fill="#dac1c1" opacity="1.00" d=" M 439.04 307.06 C 439.97 307.45 440.90 307.85 441.84 308.25 C 441.75 308.85 441.57 310.06 441.48 310.67 C 440.39 310.75 439.31 310.81 438.23 310.86 C 437.66 309.46 438.36 308.23 439.04 307.06 Z" />
</g>
<g id="#efc6c7ff">
<path fill="#efc6c7" opacity="1.00" d=" M 236.51 309.04 C 237.64 308.77 238.76 308.49 239.89 308.23 C 240.92 311.52 242.24 314.80 244.82 317.21 C 245.32 316.91 246.33 316.30 246.84 315.99 C 246.23 314.84 245.61 313.69 245.01 312.55 C 246.48 313.78 248.01 314.94 249.53 316.13 C 247.11 317.69 244.99 319.64 242.95 321.65 C 243.76 322.21 244.57 322.78 245.38 323.35 C 245.53 323.97 245.67 324.60 245.82 325.23 C 246.92 325.61 248.02 326.00 249.13 326.39 C 248.02 326.88 246.91 327.38 245.80 327.87 C 243.36 326.55 240.66 325.90 237.90 325.92 C 239.07 325.37 240.21 324.75 241.35 324.14 C 239.09 323.32 236.69 322.63 234.32 323.46 C 234.72 324.25 235.53 325.83 235.93 326.61 C 235.58 326.74 234.88 326.98 234.53 327.11 C 232.83 323.75 231.74 318.85 227.09 318.81 C 229.04 322.74 231.04 326.76 231.07 331.27 C 230.33 329.60 229.56 327.96 228.81 326.31 C 228.49 326.45 227.86 326.74 227.54 326.88 C 226.28 325.65 225.10 324.31 223.61 323.35 C 221.10 322.46 218.36 322.73 215.74 322.58 C 215.43 321.98 215.12 321.39 214.82 320.80 C 215.05 320.67 215.51 320.42 215.74 320.30 C 221.01 321.76 226.26 319.63 230.22 316.14 C 231.26 314.90 230.08 313.29 229.96 311.96 L 229.98 311.95 C 232.68 312.05 235.38 312.27 238.09 312.42 C 237.56 311.29 237.04 310.17 236.51 309.04 Z" />
</g>
<g id="#f3f3f1ff">
<path fill="#f3f3f1" opacity="1.00" d=" M 284.49 308.42 C 287.04 308.92 289.40 310.01 291.63 311.31 C 290.66 312.04 289.69 312.75 288.72 313.46 C 285.56 314.39 282.32 315.00 279.16 315.88 C 278.97 315.22 278.61 313.89 278.43 313.22 C 279.30 312.51 280.18 311.79 281.07 311.10 C 282.22 310.22 283.36 309.32 284.49 308.42 Z" />
</g>
<g id="#d95c5bff">
<path fill="#d95c5b" opacity="1.00" d=" M 304.15 309.89 C 311.26 309.22 318.21 307.16 325.40 307.29 C 317.97 310.11 309.75 309.79 302.07 311.68 C 281.03 316.34 260.13 322.34 240.65 331.70 C 235.46 334.86 229.48 336.21 224.06 338.88 C 218.38 341.19 213.46 345.00 207.71 347.15 C 209.44 345.82 211.13 344.43 212.94 343.19 C 220.19 338.55 228.37 335.64 236.29 332.37 C 239.43 330.80 242.55 329.21 245.80 327.87 C 246.91 327.38 248.02 326.88 249.13 326.39 C 252.45 324.92 255.89 323.78 259.26 322.43 C 261.15 321.69 263.10 321.11 265.06 320.56 C 268.54 319.61 271.97 318.50 275.34 317.22 C 276.60 316.75 277.87 316.28 279.16 315.88 C 282.32 315.00 285.56 314.39 288.72 313.46 C 290.55 312.95 292.40 312.46 294.25 312.02 C 297.54 311.27 300.85 310.61 304.15 309.89 Z" />
</g>
<g id="#d2adafff">
<path fill="#d2adaf" opacity="1.00" d=" M 466.84 307.58 C 468.24 308.24 469.64 308.88 471.04 309.58 C 468.82 312.27 466.29 314.67 463.62 316.90 C 465.34 320.06 468.04 323.16 471.92 323.35 C 475.59 322.69 477.97 319.61 479.28 316.34 C 477.85 314.90 476.45 313.44 475.02 312.01 C 477.92 313.47 480.95 314.68 483.78 316.28 C 482.19 318.31 480.72 320.44 479.40 322.65 C 481.50 324.25 483.55 325.93 485.75 327.41 L 486.48 327.80 C 487.71 328.45 488.95 329.12 490.23 329.71 C 488.69 329.86 487.16 330.06 485.64 330.26 C 485.44 333.17 485.20 336.06 484.96 338.96 C 484.04 338.50 483.14 338.04 482.24 337.58 C 484.31 332.43 480.80 327.50 477.93 323.49 C 475.31 325.34 472.19 325.96 469.07 325.16 C 465.82 323.28 462.47 321.12 461.28 317.34 C 458.86 317.22 456.45 317.11 454.04 317.01 C 454.16 316.42 454.39 315.24 454.51 314.65 C 458.16 314.50 462.47 315.14 465.34 312.35 C 466.78 311.19 466.49 309.19 466.84 307.58 Z" />
</g>
<g id="#f8e9e8ff">
<path fill="#f8e9e8" opacity="1.00" d=" M 431.62 310.56 C 432.14 310.47 433.18 310.28 433.70 310.18 C 435.88 312.43 437.84 315.29 441.00 316.23 C 443.55 316.93 445.89 315.33 448.16 314.41 C 447.71 316.16 447.28 317.92 446.85 319.68 C 445.32 319.77 443.79 319.84 442.27 319.90 C 437.09 318.60 432.02 316.94 426.95 315.28 C 427.65 315.35 429.04 315.50 429.73 315.57 C 430.35 313.89 430.98 312.23 431.62 310.56 Z" />
</g>
<g id="#edc7c8ff">
<path fill="#edc7c8" opacity="1.00" d=" M 471.04 309.58 C 472.41 310.31 473.71 311.16 475.02 312.01 C 476.45 313.44 477.85 314.90 479.28 316.34 C 477.97 319.61 475.59 322.69 471.92 323.35 C 468.04 323.16 465.34 320.06 463.62 316.90 C 466.29 314.67 468.82 312.27 471.04 309.58 Z" />
</g>
<g id="#d5bfc2ff">
<path fill="#d5bfc2" opacity="1.00" d=" M 267.65 312.08 C 270.27 309.37 274.83 311.38 278.24 311.15 C 275.24 312.92 270.62 314.57 267.65 312.08 Z" />
</g>
<g id="#d1abadff">
<path fill="#d1abad" opacity="1.00" d=" M 228.39 313.45 C 228.78 313.07 229.57 312.33 229.96 311.96 C 230.08 313.29 231.26 314.90 230.22 316.14 C 226.26 319.63 221.01 321.76 215.74 320.30 C 219.91 317.95 223.69 314.71 228.39 313.45 Z" />
</g>
<g id="#f5eae7ff">
<path fill="#f5eae7" opacity="1.00" d=" M 262.45 317.74 C 263.62 316.55 264.81 315.37 265.91 314.11 C 269.19 314.14 272.47 314.17 275.76 314.22 C 275.61 315.22 275.48 316.22 275.34 317.22 C 271.97 318.50 268.54 319.61 265.06 320.56 C 263.82 319.98 262.59 319.41 261.35 318.83 C 261.63 318.56 262.17 318.01 262.45 317.74 Z" />
</g>
<g id="#d1aeb0ff">
<path fill="#d1aeb0" opacity="1.00" d=" M 249.53 316.13 C 252.74 315.03 258.80 314.68 258.73 319.44 C 257.11 318.77 255.51 318.10 253.91 317.41 C 250.64 318.72 247.74 320.74 245.38 323.35 C 244.57 322.78 243.76 322.21 242.95 321.65 C 244.99 319.64 247.11 317.69 249.53 316.13 Z" />
</g>
<g id="#eec6c9ff">
<path fill="#eec6c9" opacity="1.00" d=" M 479.40 322.65 C 480.72 320.44 482.19 318.31 483.78 316.28 C 487.25 318.56 490.61 321.00 494.20 323.11 C 493.64 324.23 493.11 325.35 492.57 326.47 C 490.29 326.79 488.02 327.11 485.75 327.41 C 483.55 325.93 481.50 324.25 479.40 322.65 Z" />
</g>
<g id="#f6d8dcff">
<path fill="#f6d8dc" opacity="1.00" d=" M 245.38 323.35 C 247.74 320.74 250.64 318.72 253.91 317.41 C 255.51 318.10 257.11 318.77 258.73 319.44 C 258.91 320.43 259.08 321.43 259.26 322.43 C 255.89 323.78 252.45 324.92 249.13 326.39 C 248.02 326.00 246.92 325.61 245.82 325.23 C 245.67 324.60 245.53 323.97 245.38 323.35 Z" />
</g>
<g id="#f5e4e3ff">
<path fill="#f5e4e3" opacity="1.00" d=" M 450.92 318.64 C 454.01 318.36 457.12 318.30 460.23 318.38 C 461.02 320.32 461.83 322.25 462.64 324.19 C 461.07 324.97 459.50 325.74 457.93 326.52 C 455.40 325.47 452.89 324.39 450.36 323.38 C 450.51 321.79 450.68 320.21 450.92 318.64 Z" />
</g>
<g id="#cfaba9ff">
<path fill="#cfaba9" opacity="1.00" d=" M 227.09 318.81 C 231.74 318.85 232.83 323.75 234.53 327.11 C 233.51 328.85 232.49 330.58 231.44 332.30 L 231.07 331.27 C 231.04 326.76 229.04 322.74 227.09 318.81 Z" />
</g>
<g id="#e9b5b5ff">
<path fill="#e9b5b5" opacity="1.00" d=" M 209.56 323.76 C 211.30 322.75 213.06 321.77 214.82 320.80 C 215.12 321.39 215.43 321.98 215.74 322.58 C 218.36 322.73 221.10 322.46 223.61 323.35 C 225.10 324.31 226.28 325.65 227.54 326.88 C 225.71 327.77 224.00 328.86 222.30 329.96 C 223.34 330.88 224.40 331.80 225.45 332.72 C 223.82 332.73 222.19 332.76 220.56 332.78 C 219.99 333.57 219.42 334.36 218.85 335.15 C 216.05 335.24 213.25 335.30 210.45 335.34 C 210.63 336.75 210.81 338.15 210.99 339.57 C 205.99 339.78 201.60 342.17 197.21 344.31 C 198.82 344.89 200.42 345.49 202.06 346.00 C 200.71 346.43 199.36 346.87 198.02 347.30 C 199.86 347.53 201.70 347.77 203.55 348.04 C 201.45 350.49 198.74 352.31 195.55 352.97 C 195.46 350.01 195.88 346.91 194.86 344.07 C 194.13 342.23 192.02 341.67 190.50 340.68 C 192.15 338.83 193.65 336.86 195.07 334.83 C 198.02 335.01 201.27 335.91 203.90 334.03 C 201.46 333.25 198.98 332.64 196.49 332.08 C 198.83 330.48 201.22 328.96 203.63 327.48 C 205.35 331.45 205.22 336.23 208.49 339.45 C 208.97 336.61 207.88 333.86 207.68 331.06 C 207.64 328.50 208.70 326.11 209.56 323.76 Z" />
</g>
<g id="#dab4b4ff">
<path fill="#dab4b4" opacity="1.00" d=" M 234.32 323.46 C 236.69 322.63 239.09 323.32 241.35 324.14 C 240.21 324.75 239.07 325.37 237.90 325.92 C 237.40 326.09 236.42 326.44 235.93 326.61 C 235.53 325.83 234.72 324.25 234.32 323.46 Z" />
</g>
<g id="#f2d0d5ff">
<path fill="#f2d0d5" opacity="1.00" d=" M 469.07 325.16 C 472.19 325.96 475.31 325.34 477.93 323.49 C 480.80 327.50 484.31 332.43 482.24 337.58 C 475.96 334.62 469.92 331.17 463.44 328.67 C 464.26 327.37 465.09 326.09 465.91 324.80 C 466.70 324.89 468.28 325.07 469.07 325.16 Z" />
</g>
<g id="#eebdbcff">
<path fill="#eebdbc" opacity="1.00" d=" M 494.20 323.11 C 498.13 325.51 501.93 328.13 505.66 330.85 C 505.77 332.51 505.81 334.19 506.16 335.83 C 507.60 338.54 510.78 339.41 513.41 340.54 C 511.19 342.95 509.23 345.60 507.68 348.49 C 512.15 347.72 515.10 344.34 516.84 340.37 C 517.40 340.61 518.51 341.07 519.06 341.31 C 519.36 344.14 521.13 346.38 522.91 348.48 C 521.62 348.77 520.34 349.08 519.07 349.39 C 519.92 349.73 520.77 350.08 521.64 350.43 C 520.40 351.38 519.17 352.33 517.94 353.28 C 517.46 351.77 516.95 350.24 516.05 348.93 C 514.66 348.42 513.17 348.30 511.73 348.07 C 513.89 351.22 516.37 354.25 517.50 357.97 C 516.37 357.60 515.25 357.21 514.14 356.80 C 504.94 351.29 495.90 345.49 486.75 339.89 C 489.01 339.69 491.29 339.52 493.56 339.43 C 496.11 339.37 498.94 339.74 501.12 338.09 C 503.73 336.42 503.37 331.81 500.59 330.47 C 496.25 328.25 491.25 328.05 486.48 327.80 L 485.75 327.41 C 488.02 327.11 490.29 326.79 492.57 326.47 C 493.11 325.35 493.64 324.23 494.20 323.11 Z" />
</g>
<g id="#cf9795ff">
<path fill="#cf9795" opacity="1.00" d=" M 203.63 327.48 C 205.60 326.23 207.55 324.95 209.56 323.76 C 208.70 326.11 207.64 328.50 207.68 331.06 C 207.88 333.86 208.97 336.61 208.49 339.45 C 205.22 336.23 205.35 331.45 203.63 327.48 Z" />
</g>
<g id="#f3ceceff">
<path fill="#f3cece" opacity="1.00" d=" M 227.54 326.88 C 227.86 326.74 228.49 326.45 228.81 326.31 C 229.56 327.96 230.33 329.60 231.07 331.27 L 231.44 332.30 C 232.49 330.58 233.51 328.85 234.53 327.11 C 234.88 326.98 235.58 326.74 235.93 326.61 C 236.42 326.44 237.40 326.09 237.90 325.92 C 240.66 325.90 243.36 326.55 245.80 327.87 C 242.55 329.21 239.43 330.80 236.29 332.37 C 228.37 335.64 220.19 338.55 212.94 343.19 C 211.50 343.35 210.07 343.46 208.63 343.57 C 207.92 344.70 207.21 345.83 206.51 346.97 C 205.02 346.67 203.53 346.37 202.06 346.00 C 200.42 345.49 198.82 344.89 197.21 344.31 C 201.60 342.17 205.99 339.78 210.99 339.57 C 210.81 338.15 210.63 336.75 210.45 335.34 C 213.25 335.30 216.05 335.24 218.85 335.15 C 219.42 334.36 219.99 333.57 220.56 332.78 C 222.19 332.76 223.82 332.73 225.45 332.72 C 224.40 331.80 223.34 330.88 222.30 329.96 C 224.00 328.86 225.71 327.77 227.54 326.88 Z" />
</g>
<g id="#fefefeff">
<path fill="#fefefe" opacity="1.00" d=" M 401.92 326.86 C 405.67 325.58 409.77 326.11 413.56 326.95 C 412.96 328.26 412.38 329.58 411.78 330.90 C 409.78 330.92 407.61 330.31 405.77 331.36 C 408.72 331.77 411.71 331.67 414.68 331.93 C 414.78 333.17 414.89 334.42 414.99 335.68 C 409.33 336.07 403.67 336.66 397.99 336.76 C 397.67 335.47 397.36 334.20 397.06 332.92 C 397.56 332.73 398.57 332.36 399.07 332.18 C 397.76 329.86 399.69 327.51 401.92 326.86 Z" />
<path fill="#fefefe" opacity="1.00" d=" M 343.01 337.05 C 345.94 335.32 348.80 333.16 352.13 332.32 C 355.81 332.86 358.78 335.59 362.12 337.10 C 358.72 338.61 355.68 341.19 352.03 341.98 C 348.84 340.71 345.88 338.91 343.01 337.05 Z" />
<path fill="#fefefe" opacity="1.00" d=" M 277.36 354.01 C 277.38 347.22 277.33 340.43 277.41 333.64 C 282.09 333.61 286.76 333.26 291.44 333.24 C 291.95 341.20 291.31 349.19 291.83 357.16 C 296.55 357.91 301.43 357.86 306.16 357.22 C 310.05 356.67 310.46 352.14 311.47 349.14 C 315.75 349.23 320.02 349.43 324.28 349.88 C 323.85 351.95 323.43 354.04 322.76 356.05 C 328.29 358.08 334.24 357.62 340.02 357.60 C 348.51 357.44 357.05 356.36 365.13 353.61 C 357.86 352.05 350.09 350.33 342.83 352.81 C 341.42 353.14 339.95 353.97 338.48 353.47 C 336.55 351.62 334.93 349.47 333.14 347.49 C 340.88 344.09 349.60 342.48 358.00 343.90 C 366.70 345.22 375.28 347.33 384.07 348.07 C 387.00 348.23 389.94 348.27 392.85 348.75 C 391.88 351.32 390.86 353.87 389.88 356.44 C 386.02 356.79 381.73 354.88 378.29 357.28 C 367.23 363.37 354.57 365.93 342.06 366.62 C 333.74 366.84 324.90 367.51 317.24 363.60 C 309.37 367.28 300.47 366.93 292.00 366.65 C 287.88 366.33 283.26 365.89 280.21 362.77 C 277.84 360.55 277.34 357.10 277.36 354.01 Z" />
<path fill="#fefefe" opacity="1.00" d=" M 425.63 335.26 C 430.94 334.98 436.26 334.02 441.59 334.36 C 442.29 339.97 438.09 345.00 434.45 348.90 C 437.72 351.31 441.75 354.48 441.28 359.02 C 440.38 364.30 434.30 365.67 429.83 366.33 C 420.87 367.26 411.83 366.50 402.84 366.32 C 402.99 363.34 403.01 360.36 403.08 357.39 C 408.01 355.72 412.66 353.33 416.91 350.32 C 410.17 347.15 402.69 346.08 395.87 343.17 C 398.26 341.06 400.50 338.74 403.10 336.88 C 404.42 336.45 405.78 337.15 407.09 337.41 C 412.49 339.15 417.85 341.04 423.09 343.23 C 424.38 340.73 425.20 338.03 425.63 335.26 M 421.82 357.72 C 424.51 357.67 427.22 357.58 429.89 357.09 C 429.08 356.24 428.26 355.39 427.44 354.56 C 425.60 355.68 423.72 356.73 421.82 357.72 Z" />
<path fill="#fefefe" opacity="1.00" d=" M 450.61 333.83 C 455.41 333.64 460.24 333.00 465.04 333.60 C 464.96 344.45 465.01 355.31 465.01 366.16 C 460.21 366.35 455.35 367.10 450.58 366.28 C 450.66 355.46 450.59 344.65 450.61 333.83 Z" />
<path fill="#fefefe" opacity="1.00" d=" M 246.87 353.18 C 250.97 351.92 255.06 350.62 259.19 349.51 C 261.29 348.66 262.57 350.89 263.67 352.25 C 266.83 356.39 269.48 361.54 268.48 366.90 C 267.33 371.43 262.95 374.05 258.91 375.67 C 250.89 378.76 242.06 378.32 233.68 377.45 C 234.43 374.72 235.29 372.03 236.25 369.38 C 242.03 369.17 248.28 370.30 253.63 367.54 C 255.05 366.82 254.65 365.03 254.25 363.82 C 252.83 359.66 249.67 356.45 246.87 353.18 Z" />
<path fill="#fefefe" opacity="1.00" d=" M 306.15 373.31 C 309.39 371.74 312.42 369.06 316.04 368.67 C 319.19 370.03 322.10 371.87 325.13 373.48 C 321.99 375.32 318.75 376.97 315.57 378.75 C 312.38 377.03 308.90 375.73 306.15 373.31 Z" />
<path fill="#fefefe" opacity="1.00" d=" M 462.21 411.68 C 463.30 411.24 464.41 410.80 465.51 410.36 C 465.91 411.36 466.32 412.38 466.74 413.40 C 465.65 413.83 464.59 414.28 463.52 414.74 C 463.07 413.71 462.64 412.70 462.21 411.68 Z" />
<path fill="#fefefe" opacity="1.00" d=" M 250.51 414.10 C 251.61 414.54 252.71 414.98 253.82 415.43 C 253.44 416.41 253.06 417.40 252.69 418.39 C 251.61 418.01 250.54 417.64 249.48 417.26 C 249.82 416.21 250.16 415.15 250.51 414.10 Z" />
<path fill="#fefefe" opacity="1.00" d=" M 428.66 422.39 C 429.75 422.10 430.85 421.81 431.95 421.52 C 432.23 422.53 432.52 423.54 432.82 424.56 C 431.68 424.88 430.56 425.21 429.43 425.55 C 429.24 424.76 428.85 423.18 428.66 422.39 Z" />
<path fill="#fefefe" opacity="1.00" d=" M 308.45 423.24 C 310.03 423.45 311.80 423.40 312.99 424.65 C 312.01 424.80 310.04 425.09 309.06 425.23 C 309.79 425.50 311.25 426.04 311.98 426.31 L 312.01 427.67 C 310.30 427.35 308.60 427.03 306.89 426.72 C 307.41 425.56 307.92 424.39 308.45 423.24 Z" />
<path fill="#fefefe" opacity="1.00" d=" M 287.24 424.69 C 288.29 424.93 289.35 425.18 290.41 425.44 C 290.14 426.53 289.87 427.63 289.61 428.74 C 288.48 428.36 287.35 427.98 286.23 427.61 C 286.57 426.63 286.90 425.66 287.24 424.69 Z" />
</g>
<g id="#c69893ff">
<path fill="#c69893" opacity="1.00" d=" M 486.48 327.80 C 491.25 328.05 496.25 328.25 500.59 330.47 C 503.37 331.81 503.73 336.42 501.12 338.09 C 498.94 339.74 496.11 339.37 493.56 339.43 C 495.68 338.48 497.76 337.43 499.86 336.41 C 499.51 334.85 499.61 332.89 498.08 331.93 C 495.78 330.37 492.88 330.24 490.23 329.71 C 488.95 329.12 487.71 328.45 486.48 327.80 Z" />
</g>
<g id="#f3cccdff">
<path fill="#f3cccd" opacity="1.00" d=" M 485.64 330.26 C 487.16 330.06 488.69 329.86 490.23 329.71 C 492.88 330.24 495.78 330.37 498.08 331.93 C 499.61 332.89 499.51 334.85 499.86 336.41 C 497.76 337.43 495.68 338.48 493.56 339.43 C 491.29 339.52 489.01 339.69 486.75 339.89 C 486.15 339.58 485.55 339.26 484.96 338.96 C 485.20 336.06 485.44 333.17 485.64 330.26 M 489.78 334.81 C 491.81 335.57 493.88 336.33 496.08 336.48 C 498.49 334.46 494.99 332.26 492.93 332.67 C 491.45 332.49 490.75 334.02 489.78 334.81 Z" />
</g>
<g id="#d2a09eff">
<path fill="#d2a09e" opacity="1.00" d=" M 505.66 330.85 C 509.82 333.49 513.10 337.21 516.84 340.37 C 515.10 344.34 512.15 347.72 507.68 348.49 C 509.23 345.60 511.19 342.95 513.41 340.54 C 510.78 339.41 507.60 338.54 506.16 335.83 C 505.81 334.19 505.77 332.51 505.66 330.85 Z" />
</g>
<g id="#cd9191ff">
<path fill="#cd9191" opacity="1.00" d=" M 180.82 343.33 C 186.01 339.54 191.26 335.82 196.49 332.08 C 198.98 332.64 201.46 333.25 203.90 334.03 C 201.27 335.91 198.02 335.01 195.07 334.83 C 193.65 336.86 192.15 338.83 190.50 340.68 C 192.02 341.67 194.13 342.23 194.86 344.07 C 195.88 346.91 195.46 350.01 195.55 352.97 C 198.74 352.31 201.45 350.49 203.55 348.04 C 201.70 347.77 199.86 347.53 198.02 347.30 C 199.36 346.87 200.71 346.43 202.06 346.00 C 203.53 346.37 205.02 346.67 206.51 346.97 C 207.21 345.83 207.92 344.70 208.63 343.57 C 210.07 343.46 211.50 343.35 212.94 343.19 C 211.13 344.43 209.44 345.82 207.71 347.15 C 201.34 351.74 194.18 355.16 188.07 360.11 C 187.14 360.80 187.40 362.16 187.06 363.16 C 186.76 363.07 186.16 362.89 185.86 362.80 C 185.90 362.19 185.98 360.97 186.02 360.36 C 188.53 358.07 192.80 356.92 193.22 353.02 C 194.43 348.32 190.49 344.76 188.02 341.29 C 185.85 342.07 183.68 342.87 181.48 343.57 L 180.82 343.33 Z" />
</g>
<g id="#d8aeadff">
<path fill="#d8aead" opacity="1.00" d=" M 489.78 334.81 C 490.75 334.02 491.45 332.49 492.93 332.67 C 494.99 332.26 498.49 334.46 496.08 336.48 C 493.88 336.33 491.81 335.57 489.78 334.81 Z" />
</g>
<g id="#efb3b4ff">
<path fill="#efb3b4" opacity="1.00" d=" M 181.48 343.57 C 183.68 342.87 185.85 342.07 188.02 341.29 C 190.49 344.76 194.43 348.32 193.22 353.02 C 192.80 356.92 188.53 358.07 186.02 360.36 C 183.05 363.73 178.51 363.87 174.35 363.78 C 173.98 362.54 173.62 361.30 173.25 360.07 C 175.91 359.84 178.63 359.92 181.25 359.29 C 183.63 356.71 183.84 352.99 184.71 349.76 C 185.94 349.69 187.17 349.62 188.41 349.56 C 188.52 345.67 184.19 345.04 181.48 343.57 Z" />
</g>
<g id="#eaa09eff">
<path fill="#eaa09e" opacity="1.00" d=" M 519.06 341.31 C 522.49 344.76 526.34 347.74 529.90 351.05 C 526.78 352.39 523.30 352.06 520.06 352.92 C 524.69 354.22 530.26 353.52 534.04 356.98 C 536.01 359.52 533.12 362.21 532.17 364.55 C 534.50 363.50 536.73 362.24 538.84 360.77 C 543.14 366.38 547.24 372.14 551.19 378.02 C 551.43 382.50 553.45 387.30 550.96 391.50 C 546.09 386.74 542.98 380.23 536.98 376.66 C 536.84 376.56 536.57 376.34 536.43 376.24 C 533.41 371.65 528.69 368.72 525.00 364.75 C 526.31 364.06 527.64 363.37 528.96 362.69 C 527.36 361.73 525.68 360.88 524.27 359.66 C 523.59 358.16 524.34 356.43 524.37 354.84 C 522.23 355.03 519.83 354.87 518.35 356.74 C 518.20 355.58 518.08 354.42 517.94 353.28 C 519.17 352.33 520.40 351.38 521.64 350.43 C 520.77 350.08 519.92 349.73 519.07 349.39 C 520.34 349.08 521.62 348.77 522.91 348.48 C 521.13 346.38 519.36 344.14 519.06 341.31 Z" />
</g>
<g id="#e99b9cff">
<path fill="#e99b9c" opacity="1.00" d=" M 172.09 351.35 C 175.20 348.90 177.84 345.93 180.82 343.33 L 181.48 343.57 C 184.19 345.04 188.52 345.67 188.41 349.56 C 187.17 349.62 185.94 349.69 184.71 349.76 C 183.84 352.99 183.63 356.71 181.25 359.29 C 178.63 359.92 175.91 359.84 173.25 360.07 C 173.62 361.30 173.98 362.54 174.35 363.78 C 178.51 363.87 183.05 363.73 186.02 360.36 C 185.98 360.97 185.90 362.19 185.86 362.80 C 185.90 365.45 185.01 367.98 183.12 369.88 C 182.77 369.73 182.06 369.42 181.70 369.26 C 182.91 367.76 184.63 366.19 184.02 364.05 C 180.45 363.87 178.94 368.14 176.19 369.87 C 171.96 373.94 167.25 377.82 164.57 383.16 C 162.01 386.14 159.42 389.27 158.27 393.11 C 157.80 392.55 157.39 391.97 157.03 391.36 C 157.42 388.34 158.02 385.35 158.44 382.35 C 159.10 377.85 158.14 373.35 157.62 368.89 C 159.96 365.30 162.56 361.88 165.18 358.49 C 166.33 360.10 167.36 361.82 168.77 363.23 C 170.12 363.70 171.55 363.89 172.95 364.18 C 171.50 361.85 169.57 359.72 168.86 357.02 C 169.20 354.82 170.89 353.13 172.09 351.35 M 159.00 371.59 C 159.53 372.37 159.92 373.58 161.13 373.42 C 164.07 373.64 167.03 373.53 169.98 373.64 C 166.42 372.40 162.83 369.36 159.00 371.59 Z" />
</g>
<g id="#cf9593ff">
<path fill="#cf9593" opacity="1.00" d=" M 511.73 348.07 C 513.17 348.30 514.66 348.42 516.05 348.93 C 516.95 350.24 517.46 351.77 517.94 353.28 C 518.08 354.42 518.20 355.58 518.35 356.74 C 518.27 360.31 521.53 362.22 524.05 364.06 C 523.10 364.31 522.17 364.61 521.26 364.94 C 519.51 363.55 517.75 362.19 515.99 360.84 C 514.89 362.11 513.79 363.38 512.69 364.65 C 511.97 364.71 510.53 364.82 509.81 364.88 C 511.39 362.92 513.60 361.09 513.58 358.34 C 513.72 357.96 514.00 357.19 514.14 356.80 C 515.25 357.21 516.37 357.60 517.50 357.97 C 516.37 354.25 513.89 351.22 511.73 348.07 Z" />
</g>
<g id="#cf8183ff">
<path fill="#cf8183" opacity="1.00" d=" M 529.90 351.05 C 533.14 354.03 536.30 357.14 538.84 360.77 C 536.73 362.24 534.50 363.50 532.17 364.55 C 533.12 362.21 536.01 359.52 534.04 356.98 C 530.26 353.52 524.69 354.22 520.06 352.92 C 523.30 352.06 526.78 352.39 529.90 351.05 Z" />
</g>
<g id="#c73435ff">
<path fill="#c73435" opacity="1.00" d=" M 160.51 361.41 C 163.58 357.99 166.00 353.61 170.44 351.78 C 168.68 354.00 166.94 356.26 165.18 358.49 C 162.56 361.88 159.96 365.30 157.62 368.89 C 155.10 373.06 153.09 377.50 150.60 381.69 C 150.61 381.05 150.63 379.79 150.63 379.16 C 153.11 372.84 156.05 366.59 160.51 361.41 Z" />
</g>
<g id="#d07b79ff">
<path fill="#d07b79" opacity="1.00" d=" M 170.44 351.78 L 170.46 351.76 L 172.09 351.35 C 170.89 353.13 169.20 354.82 168.86 357.02 C 169.57 359.72 171.50 361.85 172.95 364.18 C 171.55 363.89 170.12 363.70 168.77 363.23 C 167.36 361.82 166.33 360.10 165.18 358.49 C 166.94 356.26 168.68 354.00 170.44 351.78 Z" />
</g>
<g id="#f4c4c1ff">
<path fill="#f4c4c1" opacity="1.00" d=" M 518.35 356.74 C 519.83 354.87 522.23 355.03 524.37 354.84 C 524.34 356.43 523.59 358.16 524.27 359.66 C 525.68 360.88 527.36 361.73 528.96 362.69 C 527.64 363.37 526.31 364.06 525.00 364.75 L 524.05 364.06 C 521.53 362.22 518.27 360.31 518.35 356.74 Z" />
</g>
<g id="#edbebcff">
<path fill="#edbebc" opacity="1.00" d=" M 482.59 373.08 C 493.29 369.03 503.24 363.22 513.58 358.34 C 513.60 361.09 511.39 362.92 509.81 364.88 C 510.53 364.82 511.97 364.71 512.69 364.65 C 513.79 363.38 514.89 362.11 515.99 360.84 C 517.75 362.19 519.51 363.55 521.26 364.94 C 518.94 366.41 516.69 367.98 514.30 369.34 C 511.86 367.29 509.11 365.50 505.80 365.48 C 507.05 366.89 508.34 368.27 509.64 369.64 C 507.48 370.72 505.32 371.83 503.19 372.97 C 503.18 373.90 503.16 375.76 503.15 376.69 C 502.21 377.20 501.26 377.72 500.32 378.23 C 499.78 378.22 498.71 378.18 498.17 378.16 C 499.13 376.58 500.11 375.01 501.10 373.44 C 498.61 371.97 495.78 371.46 492.94 371.99 C 494.33 372.92 495.74 373.85 497.15 374.78 C 493.09 378.17 487.71 378.43 482.67 378.33 C 482.63 376.58 482.61 374.83 482.59 373.08 Z" />
</g>
<g id="#edbebdff">
<path fill="#edbebd" opacity="1.00" d=" M 185.86 362.80 C 186.16 362.89 186.76 363.07 187.06 363.16 C 195.15 365.75 202.13 370.98 210.29 373.40 C 209.86 375.03 209.43 376.66 209.01 378.30 C 204.20 378.38 198.97 378.33 195.15 374.96 C 196.14 373.83 197.12 372.69 198.10 371.55 C 195.79 372.00 192.78 371.56 191.37 373.90 C 192.62 378.31 198.04 378.85 201.80 379.85 C 201.80 381.03 201.80 382.20 201.80 383.39 C 197.48 381.21 193.27 378.82 189.09 376.38 C 189.42 372.59 186.00 371.16 183.12 369.88 C 185.01 367.98 185.90 365.45 185.86 362.80 Z" />
</g>
<g id="#cd8687ff">
<path fill="#cd8687" opacity="1.00" d=" M 176.19 369.87 C 178.94 368.14 180.45 363.87 184.02 364.05 C 184.63 366.19 182.91 367.76 181.70 369.26 C 181.05 369.39 179.73 369.65 179.07 369.78 C 178.11 369.82 177.15 369.85 176.19 369.87 Z" />
</g>
<g id="#d44443ff">
<path fill="#d44443" opacity="1.00" d=" M 521.26 364.94 C 522.17 364.61 523.10 364.31 524.05 364.06 L 525.00 364.75 C 528.69 368.72 533.41 371.65 536.43 376.24 C 531.69 373.56 528.30 369.19 524.12 365.81 C 522.98 364.76 521.68 366.30 520.62 366.72 C 516.44 369.53 512.12 372.13 507.50 374.15 C 509.64 372.38 511.87 370.70 514.30 369.34 C 516.69 367.98 518.94 366.41 521.26 364.94 Z" />
</g>
<g id="#d29999ff">
<path fill="#d29999" opacity="1.00" d=" M 505.80 365.48 C 509.11 365.50 511.86 367.29 514.30 369.34 C 511.87 370.70 509.64 372.38 507.50 374.15 C 506.06 375.02 504.61 375.86 503.15 376.69 C 503.16 375.76 503.18 373.90 503.19 372.97 C 505.32 371.83 507.48 370.72 509.64 369.64 C 508.34 368.27 507.05 366.89 505.80 365.48 Z" />
</g>
<g id="#db787aff">
<path fill="#db787a" opacity="1.00" d=" M 150.60 381.69 C 153.09 377.50 155.10 373.06 157.62 368.89 C 158.14 373.35 159.10 377.85 158.44 382.35 C 158.02 385.35 157.42 388.34 157.03 391.36 C 156.80 390.71 156.35 389.42 156.13 388.78 C 156.26 386.85 154.95 385.41 153.40 384.50 C 152.35 383.68 151.51 382.64 150.60 381.69 Z" />
</g>
<g id="#d39a99ff">
<path fill="#d39a99" opacity="1.00" d=" M 179.07 369.78 C 179.73 369.65 181.05 369.39 181.70 369.26 C 182.06 369.42 182.77 369.73 183.12 369.88 C 186.00 371.16 189.42 372.59 189.09 376.38 C 185.59 374.44 182.22 372.25 179.07 369.78 Z" />
</g>
<g id="#bf6c70ff">
<path fill="#bf6c70" opacity="1.00" d=" M 159.00 371.59 C 162.83 369.36 166.42 372.40 169.98 373.64 C 167.03 373.53 164.07 373.64 161.13 373.42 C 159.92 373.58 159.53 372.37 159.00 371.59 Z" />
</g>
<g id="#cc4a49ff">
<path fill="#cc4a49" opacity="1.00" d=" M 164.57 383.16 C 167.25 377.82 171.96 373.94 176.19 369.87 C 177.15 369.85 178.11 369.82 179.07 369.78 C 182.22 372.25 185.59 374.44 189.09 376.38 C 193.27 378.82 197.48 381.21 201.80 383.39 C 204.89 384.88 208.04 386.23 211.20 387.58 C 212.82 388.25 214.46 388.87 216.09 389.54 C 218.46 390.49 220.75 391.60 223.10 392.61 C 224.53 393.10 225.99 393.52 227.44 393.98 C 232.84 395.96 238.40 397.52 243.74 399.70 C 245.08 400.27 246.42 400.86 247.78 401.41 C 253.69 403.41 259.97 404.34 265.62 407.15 C 267.16 407.82 268.68 408.52 270.22 409.21 C 264.40 409.29 259.52 405.86 254.01 404.62 C 247.33 403.10 241.24 399.82 234.64 398.03 C 225.01 394.17 214.97 391.31 205.81 386.36 C 195.60 382.16 186.35 376.10 177.05 370.25 C 172.90 374.56 169.27 379.40 164.57 383.16 Z" />
</g>
<g id="#d3aaaeff">
<path fill="#d3aaae" opacity="1.00" d=" M 191.37 373.90 C 192.78 371.56 195.79 372.00 198.10 371.55 C 197.12 372.69 196.14 373.83 195.15 374.96 C 198.97 378.33 204.20 378.38 209.01 378.30 C 209.43 376.66 209.86 375.03 210.29 373.40 C 211.62 373.82 212.95 374.23 214.29 374.63 C 213.60 374.70 212.21 374.84 211.51 374.91 C 212.39 378.15 214.10 381.08 216.71 383.24 C 221.90 381.89 227.81 382.38 232.05 385.93 C 234.58 388.37 238.31 387.74 241.49 388.38 C 238.35 390.17 234.57 389.18 231.25 390.31 C 229.51 390.92 228.60 392.68 227.44 393.98 C 225.99 393.52 224.53 393.10 223.10 392.61 C 226.10 391.43 228.88 389.78 231.49 387.89 C 228.27 384.32 222.54 382.28 218.28 385.26 C 216.62 386.04 216.57 388.02 216.09 389.54 C 214.46 388.87 212.82 388.25 211.20 387.58 C 212.46 386.47 213.72 385.36 214.97 384.25 C 213.25 383.04 211.65 381.55 209.64 380.83 C 207.06 380.29 204.40 380.27 201.80 379.85 C 198.04 378.85 192.62 378.31 191.37 373.90 Z" />
</g>
<g id="#d5acafff">
<path fill="#d5acaf" opacity="1.00" d=" M 492.94 371.99 C 495.78 371.46 498.61 371.97 501.10 373.44 C 500.11 375.01 499.13 376.58 498.17 378.16 C 498.71 378.18 499.78 378.22 500.32 378.23 C 497.38 379.99 494.46 381.80 491.35 383.24 C 491.18 382.48 490.85 380.95 490.68 380.19 C 485.78 379.78 480.84 380.55 477.03 383.89 C 478.25 385.10 479.47 386.30 480.70 387.51 C 478.77 388.29 476.83 389.04 474.91 389.84 C 475.18 388.85 475.45 387.86 475.73 386.88 C 471.48 382.54 464.25 383.25 460.51 387.88 C 463.09 389.76 465.86 391.40 468.84 392.57 C 467.45 393.03 466.05 393.42 464.66 393.86 C 463.61 392.74 462.65 391.52 461.38 390.65 C 457.97 388.86 453.71 390.47 450.43 388.27 C 452.92 387.97 455.44 387.82 457.94 387.48 C 458.25 387.12 458.88 386.40 459.20 386.04 C 463.64 382.37 469.78 381.95 475.23 383.03 C 477.81 381.01 479.54 378.20 480.42 375.05 C 479.52 375.01 477.73 374.92 476.83 374.88 C 478.75 374.27 480.67 373.67 482.59 373.08 C 482.61 374.83 482.63 376.58 482.67 378.33 C 487.71 378.43 493.09 378.17 497.15 374.78 C 495.74 373.85 494.33 372.92 492.94 371.99 Z" />
</g>
<g id="#e9cfd0ff">
<path fill="#e9cfd0" opacity="1.00" d=" M 211.51 374.91 C 212.21 374.84 213.60 374.70 214.29 374.63 C 222.41 376.99 229.90 381.33 238.41 382.37 L 237.39 382.51 C 235.71 382.76 234.08 383.25 232.46 383.71 C 235.67 387.63 241.79 387.98 245.71 384.94 C 246.52 385.17 247.35 385.40 248.18 385.63 C 247.84 386.93 247.51 388.24 247.18 389.55 C 251.34 388.63 255.99 388.82 259.44 391.61 C 260.85 393.12 261.75 395.02 262.76 396.81 C 263.51 394.57 264.53 392.44 265.83 390.48 C 265.95 390.76 266.18 391.32 266.30 391.60 C 265.38 395.14 263.87 398.48 262.55 401.89 C 262.74 402.22 263.12 402.88 263.31 403.21 C 264.08 404.52 264.86 405.82 265.62 407.15 C 259.97 404.34 253.69 403.41 247.78 401.41 C 245.68 396.74 245.41 391.60 245.47 386.57 C 244.42 387.68 242.43 388.39 242.53 390.18 C 242.62 393.38 243.35 396.53 243.74 399.70 C 238.40 397.52 232.84 395.96 227.44 393.98 C 228.60 392.68 229.51 390.92 231.25 390.31 C 234.57 389.18 238.35 390.17 241.49 388.38 C 238.31 387.74 234.58 388.37 232.05 385.93 C 227.81 382.38 221.90 381.89 216.71 383.24 C 214.10 381.08 212.39 378.15 211.51 374.91 Z" />
</g>
<g id="#f0cfd5ff">
<path fill="#f0cfd5" opacity="1.00" d=" M 455.88 382.03 C 463.19 380.62 469.79 377.11 476.83 374.88 C 477.73 374.92 479.52 375.01 480.42 375.05 C 479.54 378.20 477.81 381.01 475.23 383.03 C 469.78 381.95 463.64 382.37 459.20 386.04 C 457.76 386.39 456.31 386.67 454.86 386.90 C 456.23 385.66 457.61 384.43 458.99 383.21 C 457.56 382.92 456.13 382.65 454.70 382.40 L 455.88 382.03 Z" />
</g>
<g id="#d75857fb">
<path fill="#d75857" opacity="1.00" d=" M 536.98 376.66 C 542.98 380.23 546.09 386.74 550.96 391.50 C 553.45 387.30 551.43 382.50 551.19 378.02 C 553.16 380.28 554.63 382.91 555.54 385.78 C 553.88 388.38 552.28 391.03 550.47 393.52 C 546.31 387.63 541.51 382.26 536.98 376.66 Z" />
</g>
<g id="#efc7c9ff">
<path fill="#efc7c9" opacity="1.00" d=" M 201.80 383.39 C 201.80 382.20 201.80 381.03 201.80 379.85 C 204.40 380.27 207.06 380.29 209.64 380.83 C 211.65 381.55 213.25 383.04 214.97 384.25 C 213.72 385.36 212.46 386.47 211.20 387.58 C 208.04 386.23 204.89 384.88 201.80 383.39 Z" />
</g>
<g id="#f0c6c9ff">
<path fill="#f0c6c9" opacity="1.00" d=" M 477.03 383.89 C 480.84 380.55 485.78 379.78 490.68 380.19 C 490.85 380.95 491.18 382.48 491.35 383.24 C 490.04 383.85 488.72 384.44 487.41 385.04 C 485.14 385.79 482.90 386.59 480.70 387.51 C 479.47 386.30 478.25 385.10 477.03 383.89 Z" />
</g>
<g id="#d47170ff">
<path fill="#d47170" opacity="1.00" d=" M 238.41 382.37 C 244.07 382.95 249.32 385.29 254.85 386.47 C 262.57 388.21 270.41 389.40 278.17 390.96 C 306.10 396.33 334.68 396.70 363.02 395.90 C 382.25 395.96 401.41 393.46 420.25 389.73 C 428.85 388.13 437.54 386.78 445.87 384.04 C 449.11 382.95 452.49 382.38 455.88 382.03 L 454.70 382.40 C 451.94 383.29 449.17 384.13 446.39 384.92 C 445.46 385.18 444.54 385.44 443.62 385.71 C 432.47 388.66 421.06 390.47 409.76 392.70 C 407.34 393.06 404.93 393.40 402.54 393.89 C 397.09 394.66 391.62 395.17 386.15 395.70 C 366.19 397.45 346.13 397.55 326.11 396.99 C 319.64 396.83 313.21 396.13 306.76 395.77 C 306.54 395.77 306.10 395.75 305.88 395.74 C 300.68 395.19 295.48 394.74 290.31 393.96 C 287.76 393.53 285.21 393.15 282.66 392.76 C 271.16 390.43 259.54 388.61 248.18 385.63 C 247.35 385.40 246.52 385.17 245.71 384.94 C 242.93 384.11 240.18 383.23 237.39 382.51 L 238.41 382.37 Z" />
</g>
<g id="#f4e4e6ff">
<path fill="#f4e4e6" opacity="1.00" d=" M 232.46 383.71 C 234.08 383.25 235.71 382.76 237.39 382.51 C 240.18 383.23 242.93 384.11 245.71 384.94 C 241.79 387.98 235.67 387.63 232.46 383.71 Z" />
</g>
<g id="#f6e5e7ff">
<path fill="#f6e5e7" opacity="1.00" d=" M 446.39 384.92 C 449.17 384.13 451.94 383.29 454.70 382.40 C 456.13 382.65 457.56 382.92 458.99 383.21 C 457.61 384.43 456.23 385.66 454.86 386.90 C 451.88 387.13 448.84 386.75 446.39 384.92 Z" />
</g>
<g id="#ecc8c8ff">
<path fill="#ecc8c8" opacity="1.00" d=" M 218.28 385.26 C 222.54 382.28 228.27 384.32 231.49 387.89 C 228.88 389.78 226.10 391.43 223.10 392.61 C 220.75 391.60 218.46 390.49 216.09 389.54 C 216.57 388.02 216.62 386.04 218.28 385.26 Z" />
<path fill="#ecc8c8" opacity="1.00" d=" M 460.51 387.88 C 464.25 383.25 471.48 382.54 475.73 386.88 C 475.45 387.86 475.18 388.85 474.91 389.84 C 472.86 390.70 470.87 391.68 468.84 392.57 C 465.86 391.40 463.09 389.76 460.51 387.88 Z" />
</g>
<g id="#e9cfcfff">
<path fill="#e9cfcf" opacity="1.00" d=" M 443.62 385.71 C 444.54 385.44 445.46 385.18 446.39 384.92 C 448.84 386.75 451.88 387.13 454.86 386.90 C 456.31 386.67 457.76 386.39 459.20 386.04 C 458.88 386.40 458.25 387.12 457.94 387.48 C 455.44 387.82 452.92 387.97 450.43 388.27 C 453.71 390.47 457.97 388.86 461.38 390.65 C 462.65 391.52 463.61 392.74 464.66 393.86 C 459.20 395.83 453.62 397.44 448.22 399.58 C 448.68 396.48 449.47 393.42 449.57 390.28 C 449.66 388.37 447.58 387.57 446.41 386.46 C 446.51 391.26 446.10 396.05 445.31 400.79 C 438.96 403.35 432.01 404.07 425.91 407.33 C 426.86 405.96 427.81 404.59 428.72 403.20 C 428.92 402.88 429.32 402.25 429.52 401.94 C 427.76 398.57 426.71 394.89 426.75 391.06 C 428.24 392.25 428.68 394.05 428.93 395.83 C 430.33 393.10 432.25 390.42 435.29 389.40 C 438.31 387.95 441.65 388.89 444.74 389.51 C 444.36 388.24 443.98 386.97 443.62 385.71 Z" />
</g>
<g id="#cb5959ff">
<path fill="#cb5959" opacity="1.00" d=" M 480.70 387.51 C 482.90 386.59 485.14 385.79 487.41 385.04 C 479.69 390.14 470.73 392.71 462.18 395.99 C 456.90 398.17 451.34 399.58 446.08 401.84 C 441.47 403.85 436.43 404.55 431.79 406.45 C 429.07 407.55 426.34 408.62 423.49 409.34 C 408.58 412.61 393.75 416.77 378.43 417.57 L 377.03 417.18 C 377.46 417.08 378.33 416.89 378.77 416.80 C 383.52 415.74 388.37 415.26 393.18 414.55 C 394.80 414.31 396.43 414.04 398.05 413.73 C 407.28 411.38 416.77 410.01 425.91 407.33 C 432.01 404.07 438.96 403.35 445.31 400.79 C 446.28 400.38 447.25 399.98 448.22 399.58 C 453.62 397.44 459.20 395.83 464.66 393.86 C 466.05 393.42 467.45 393.03 468.84 392.57 C 470.87 391.68 472.86 390.70 474.91 389.84 C 476.83 389.04 478.77 388.29 480.70 387.51 Z" />
</g>
<g id="#f1e7e3ff">
<path fill="#f1e7e3" opacity="1.00" d=" M 248.18 385.63 C 259.54 388.61 271.16 390.43 282.66 392.76 C 282.23 393.97 281.80 395.19 281.38 396.41 C 277.11 396.63 272.85 396.92 268.58 396.70 C 267.82 394.99 267.04 393.30 266.30 391.60 C 266.18 391.32 265.95 390.76 265.83 390.48 C 264.53 392.44 263.51 394.57 262.76 396.81 C 261.75 395.02 260.85 393.12 259.44 391.61 C 255.99 388.82 251.34 388.63 247.18 389.55 C 247.51 388.24 247.84 386.93 248.18 385.63 Z" />
</g>
<g id="#f6f3efff">
<path fill="#f6f3ef" opacity="1.00" d=" M 409.76 392.70 C 421.06 390.47 432.47 388.66 443.62 385.71 C 443.98 386.97 444.36 388.24 444.74 389.51 C 441.65 388.89 438.31 387.95 435.29 389.40 C 432.25 390.42 430.33 393.10 428.93 395.83 C 428.68 394.05 428.24 392.25 426.75 391.06 C 424.54 392.61 422.83 394.71 421.18 396.82 C 420.33 395.56 419.49 394.32 418.64 393.08 C 417.08 394.13 415.52 395.18 413.95 396.24 C 413.21 396.22 411.73 396.18 410.99 396.16 C 410.66 395.77 410.02 394.98 409.70 394.59 C 409.72 394.12 409.75 393.18 409.76 392.70 Z" />
</g>
<g id="#d4b8b8ff">
<path fill="#d4b8b8" opacity="1.00" d=" M 242.53 390.18 C 242.43 388.39 244.42 387.68 245.47 386.57 C 245.41 391.60 245.68 396.74 247.78 401.41 C 246.42 400.86 245.08 400.27 243.74 399.70 C 243.35 396.53 242.62 393.38 242.53 390.18 Z" />
</g>
<g id="#d4b9baff">
<path fill="#d4b9ba" opacity="1.00" d=" M 446.41 386.46 C 447.58 387.57 449.66 388.37 449.57 390.28 C 449.47 393.42 448.68 396.48 448.22 399.58 C 447.25 399.98 446.28 400.38 445.31 400.79 C 446.10 396.05 446.51 391.26 446.41 386.46 Z" />
</g>
<g id="#d1c1c2ff">
<path fill="#d1c1c2" opacity="1.00" d=" M 262.55 401.89 C 263.87 398.48 265.38 395.14 266.30 391.60 C 267.04 393.30 267.82 394.99 268.58 396.70 C 272.85 396.92 277.11 396.63 281.38 396.41 C 281.90 396.40 282.96 396.38 283.49 396.37 C 281.82 397.60 280.07 398.70 278.26 399.70 C 280.86 401.83 283.44 404.78 287.07 404.80 C 291.51 404.39 293.28 399.79 296.61 397.54 L 297.83 397.85 C 299.75 398.37 301.64 398.97 303.53 399.61 C 301.52 400.18 299.46 400.54 297.38 400.73 C 296.34 401.90 295.31 403.08 294.28 404.27 C 295.69 405.98 297.09 407.70 298.50 409.41 C 301.29 409.21 304.09 409.15 306.89 409.17 C 308.06 407.55 309.22 405.92 310.39 404.30 C 309.08 403.40 307.69 402.58 306.57 401.45 C 305.96 400.22 306.55 398.81 306.56 397.52 C 308.31 399.25 309.89 401.53 312.30 402.35 C 315.88 402.48 319.54 402.19 322.96 403.53 C 324.49 402.02 326.02 400.50 327.55 398.99 C 329.55 401.70 326.25 403.30 324.33 404.57 C 325.34 405.92 326.35 407.27 327.36 408.62 C 329.96 408.97 332.56 409.33 335.16 409.70 C 336.72 408.21 338.27 406.71 339.83 405.21 C 339.57 403.76 339.32 402.32 339.08 400.88 C 342.09 402.46 344.82 404.92 348.21 405.57 C 351.74 404.79 354.64 402.35 357.93 400.90 C 357.52 402.47 357.11 404.04 356.70 405.61 C 358.16 407.12 359.61 408.64 361.06 410.18 C 364.78 408.79 367.08 405.38 370.39 403.37 C 373.46 401.45 377.17 403.14 380.50 402.48 C 382.54 401.15 384.27 399.39 386.16 397.87 C 385.98 400.62 384.38 402.76 382.34 404.47 C 383.19 406.04 384.05 407.61 384.92 409.18 C 387.72 409.19 390.52 409.26 393.32 409.39 C 394.75 407.67 396.20 405.97 397.69 404.29 C 396.66 403.09 395.62 401.90 394.59 400.72 C 392.25 400.63 389.93 400.28 387.73 399.53 C 389.85 398.96 391.99 398.44 394.15 398.00 C 394.66 397.90 395.68 397.68 396.20 397.58 C 398.49 400.59 400.92 404.35 405.03 404.81 C 408.64 404.76 411.24 401.89 413.75 399.67 C 411.96 398.58 410.21 397.42 408.56 396.13 C 409.17 396.14 410.38 396.15 410.99 396.16 C 411.73 396.18 413.21 396.22 413.95 396.24 C 415.52 395.18 417.08 394.13 418.64 393.08 C 419.49 394.32 420.33 395.56 421.18 396.82 C 422.83 394.71 424.54 392.61 426.75 391.06 C 426.71 394.89 427.76 398.57 429.52 401.94 C 429.32 402.25 428.92 402.88 428.72 403.20 C 426.87 402.41 425.17 401.34 423.57 400.15 C 420.68 400.41 416.96 399.29 414.84 401.84 C 412.95 403.64 411.05 405.55 408.60 406.58 C 405.59 408.22 402.41 406.15 399.49 405.31 C 398.29 407.78 394.09 411.74 398.05 413.73 C 396.43 414.04 394.80 414.31 393.18 414.55 C 393.34 413.48 393.51 412.41 393.68 411.35 C 390.14 411.38 386.51 411.19 383.08 412.22 C 380.89 412.81 380.02 415.16 378.77 416.80 C 378.33 416.89 377.46 417.08 377.03 417.18 C 376.73 417.13 376.14 417.05 375.84 417.00 C 376.92 413.47 379.78 411.27 383.00 409.77 C 380.52 407.73 378.17 405.22 375.00 404.31 C 371.73 404.07 369.51 406.86 367.51 408.99 C 370.50 411.23 373.07 413.94 375.30 416.92 C 374.11 416.88 372.93 416.85 371.75 416.85 C 370.53 413.15 366.41 412.21 362.99 411.81 C 360.52 411.61 360.12 414.27 359.45 416.01 C 362.21 415.71 365.26 414.90 367.65 416.85 C 364.21 416.94 360.77 417.02 357.33 417.10 C 357.61 413.49 357.50 409.01 353.77 407.16 C 350.12 407.21 346.40 407.73 342.89 406.41 C 339.43 409.01 337.02 412.94 337.41 417.39 C 336.85 417.37 335.75 417.33 335.19 417.31 C 335.00 415.51 334.81 413.71 334.63 411.91 C 329.64 411.30 322.24 411.08 320.28 416.90 C 319.07 416.90 317.87 416.92 316.67 416.96 C 318.91 413.95 321.54 411.26 324.59 409.05 C 322.58 406.86 320.30 404.19 317.04 404.30 C 313.84 405.17 311.49 407.70 309.01 409.76 C 312.21 411.28 315.09 413.47 316.15 417.02 C 315.84 417.05 315.22 417.12 314.92 417.16 C 314.50 417.06 313.67 416.87 313.25 416.78 C 311.97 415.11 311.00 412.83 308.83 412.18 C 305.41 411.14 301.79 411.38 298.27 411.34 C 298.47 412.40 298.67 413.46 298.87 414.52 C 296.51 414.18 294.18 413.72 291.87 413.21 C 293.30 413.13 294.73 413.04 296.16 412.93 C 295.54 410.15 294.29 407.60 292.63 405.30 C 290.43 406.07 288.25 406.95 285.94 407.31 C 281.63 406.78 278.82 403.20 275.70 400.60 C 273.33 399.93 270.82 400.19 268.39 400.19 C 266.80 401.35 265.12 402.41 263.31 403.21 C 263.12 402.88 262.74 402.22 262.55 401.89 Z" />
</g>
<g id="#ecdddbff">
<path fill="#ecdddb" opacity="1.00" d=" M 282.66 392.76 C 285.21 393.15 287.76 393.53 290.31 393.96 C 291.97 395.83 294.18 397.02 296.61 397.54 C 293.28 399.79 291.51 404.39 287.07 404.80 C 283.44 404.78 280.86 401.83 278.26 399.70 C 280.07 398.70 281.82 397.60 283.49 396.37 C 282.96 396.38 281.90 396.40 281.38 396.41 C 281.80 395.19 282.23 393.97 282.66 392.76 Z" />
</g>
<g id="#ecdedbff">
<path fill="#ecdedb" opacity="1.00" d=" M 402.54 393.89 C 404.93 393.40 407.34 393.06 409.76 392.70 C 409.75 393.18 409.72 394.12 409.70 394.59 C 410.02 394.98 410.66 395.77 410.99 396.16 C 410.38 396.15 409.17 396.14 408.56 396.13 C 410.21 397.42 411.96 398.58 413.75 399.67 C 411.24 401.89 408.64 404.76 405.03 404.81 C 400.92 404.35 398.49 400.59 396.20 397.58 C 398.46 396.62 400.49 395.23 402.54 393.89 Z" />
</g>
<g id="#fdfdf8ff">
<path fill="#fdfdf8" opacity="1.00" d=" M 290.31 393.96 C 295.48 394.74 300.68 395.19 305.88 395.74 C 303.87 398.15 300.64 397.94 297.83 397.85 L 296.61 397.54 C 294.18 397.02 291.97 395.83 290.31 393.96 Z" />
</g>
<g id="#fdfcf7ff">
<path fill="#fdfcf7" opacity="1.00" d=" M 386.15 395.70 C 391.62 395.17 397.09 394.66 402.54 393.89 C 400.49 395.23 398.46 396.62 396.20 397.58 C 395.68 397.68 394.66 397.90 394.15 398.00 C 391.33 397.95 388.19 397.99 386.15 395.70 Z" />
</g>
<g id="#f0dedeff">
<path fill="#f0dede" opacity="1.00" d=" M 305.88 395.74 C 306.10 395.75 306.54 395.77 306.76 395.77 C 306.71 396.21 306.61 397.08 306.56 397.52 C 306.55 398.81 305.96 400.22 306.57 401.45 C 307.69 402.58 309.08 403.40 310.39 404.30 C 309.22 405.92 308.06 407.55 306.89 409.17 C 304.09 409.15 301.29 409.21 298.50 409.41 C 297.09 407.70 295.69 405.98 294.28 404.27 C 295.31 403.08 296.34 401.90 297.38 400.73 C 299.46 400.54 301.52 400.18 303.53 399.61 C 301.64 398.97 299.75 398.37 297.83 397.85 C 300.64 397.94 303.87 398.15 305.88 395.74 Z" />
</g>
<g id="#eeeae8ff">
<path fill="#eeeae8" opacity="1.00" d=" M 306.76 395.77 C 313.21 396.13 319.64 396.83 326.11 396.99 C 326.47 397.49 327.19 398.49 327.55 398.99 C 326.02 400.50 324.49 402.02 322.96 403.53 C 319.54 402.19 315.88 402.48 312.30 402.35 C 309.89 401.53 308.31 399.25 306.56 397.52 C 306.61 397.08 306.71 396.21 306.76 395.77 Z" />
</g>
<g id="#eee1e1ff">
<path fill="#eee1e1" opacity="1.00" d=" M 326.11 396.99 C 346.13 397.55 366.19 397.45 386.15 395.70 C 388.19 397.99 391.33 397.95 394.15 398.00 C 391.99 398.44 389.85 398.96 387.73 399.53 C 389.93 400.28 392.25 400.63 394.59 400.72 C 395.62 401.90 396.66 403.09 397.69 404.29 C 396.20 405.97 394.75 407.67 393.32 409.39 C 390.52 409.26 387.72 409.19 384.92 409.18 C 384.05 407.61 383.19 406.04 382.34 404.47 C 384.38 402.76 385.98 400.62 386.16 397.87 C 384.27 399.39 382.54 401.15 380.50 402.48 C 377.17 403.14 373.46 401.45 370.39 403.37 C 367.08 405.38 364.78 408.79 361.06 410.18 C 359.61 408.64 358.16 407.12 356.70 405.61 C 357.11 404.04 357.52 402.47 357.93 400.90 C 354.64 402.35 351.74 404.79 348.21 405.57 C 344.82 404.92 342.09 402.46 339.08 400.88 C 339.32 402.32 339.57 403.76 339.83 405.21 C 338.27 406.71 336.72 408.21 335.16 409.70 C 332.56 409.33 329.96 408.97 327.36 408.62 C 326.35 407.27 325.34 405.92 324.33 404.57 C 326.25 403.30 329.55 401.70 327.55 398.99 C 327.19 398.49 326.47 397.49 326.11 396.99 M 363.94 398.90 C 363.89 399.66 363.78 401.19 363.73 401.95 C 364.66 403.52 366.60 403.58 368.17 403.99 C 367.88 401.53 365.77 400.20 363.94 398.90 Z" />
</g>
<g id="#d8ceccff">
<path fill="#d8cecc" opacity="1.00" d=" M 363.94 398.90 C 365.77 400.20 367.88 401.53 368.17 403.99 C 366.60 403.58 364.66 403.52 363.73 401.95 C 363.78 401.19 363.89 399.66 363.94 398.90 Z" />
</g>
<g id="#f0dbdeff">
<path fill="#f0dbde" opacity="1.00" d=" M 263.31 403.21 C 265.12 402.41 266.80 401.35 268.39 400.19 C 270.82 400.19 273.33 399.93 275.70 400.60 C 278.82 403.20 281.63 406.78 285.94 407.31 C 288.25 406.95 290.43 406.07 292.63 405.30 C 294.29 407.60 295.54 410.15 296.16 412.93 C 294.73 413.04 293.30 413.13 291.87 413.21 C 285.35 411.97 278.99 409.74 272.31 409.46 C 271.61 409.37 270.91 409.30 270.22 409.21 C 268.68 408.52 267.16 407.82 265.62 407.15 C 264.86 405.82 264.08 404.52 263.31 403.21 Z" />
<path fill="#f0dbde" opacity="1.00" d=" M 414.84 401.84 C 416.96 399.29 420.68 400.41 423.57 400.15 C 425.17 401.34 426.87 402.41 428.72 403.20 C 427.81 404.59 426.86 405.96 425.91 407.33 C 416.77 410.01 407.28 411.38 398.05 413.73 C 394.09 411.74 398.29 407.78 399.49 405.31 C 402.41 406.15 405.59 408.22 408.60 406.58 C 411.05 405.55 412.95 403.64 414.84 401.84 Z" />
</g>
<g id="#ebdbdeff">
<path fill="#ebdbde" opacity="1.00" d=" M 309.01 409.76 C 311.49 407.70 313.84 405.17 317.04 404.30 C 320.30 404.19 322.58 406.86 324.59 409.05 C 321.54 411.26 318.91 413.95 316.67 416.96 L 316.15 417.02 C 315.09 413.47 312.21 411.28 309.01 409.76 Z" />
<path fill="#ebdbde" opacity="1.00" d=" M 367.51 408.99 C 369.51 406.86 371.73 404.07 375.00 404.31 C 378.17 405.22 380.52 407.73 383.00 409.77 C 379.78 411.27 376.92 413.47 375.84 417.00 L 375.30 416.92 C 373.07 413.94 370.50 411.23 367.51 408.99 Z" />
</g>
<g id="#e6dbddff">
<path fill="#e6dbdd" opacity="1.00" d=" M 342.89 406.41 C 346.40 407.73 350.12 407.21 353.77 407.16 C 357.50 409.01 357.61 413.49 357.33 417.10 C 350.68 417.07 344.04 416.95 337.41 417.39 C 337.02 412.94 339.43 409.01 342.89 406.41 Z" />
</g>
<g id="#ffffffff">
<path fill="#ffffff" opacity="1.00" d=" M 240.08 409.69 C 241.62 410.29 243.16 410.89 244.70 411.49 C 243.14 415.88 241.63 420.30 240.06 424.69 C 242.01 425.42 243.96 426.18 245.91 426.93 C 246.77 424.26 247.60 421.58 248.27 418.86 C 249.84 419.38 251.41 419.93 252.98 420.47 C 252.13 423.14 251.29 425.80 250.40 428.45 C 251.61 428.85 252.82 429.24 254.04 429.65 C 254.84 426.92 255.66 424.20 256.46 421.48 C 257.97 421.99 259.50 422.52 261.01 423.04 C 260.15 425.72 259.36 428.42 258.60 431.13 C 259.82 431.51 261.04 431.89 262.27 432.28 C 263.05 429.53 263.80 426.78 264.46 424.00 C 266.07 424.49 267.68 424.97 269.30 425.43 C 268.29 428.13 267.56 430.92 266.98 433.74 C 268.25 434.01 269.52 434.28 270.79 434.55 C 271.34 431.78 272.02 429.04 272.60 426.29 C 274.18 426.74 275.77 427.19 277.37 427.62 C 276.56 430.34 275.88 433.11 275.28 435.90 C 276.20 436.09 278.03 436.47 278.95 436.67 C 279.31 434.71 279.70 432.77 280.06 430.82 C 284.25 427.79 289.06 430.75 293.56 431.21 C 292.75 433.91 292.13 436.68 291.59 439.46 C 293.78 439.94 295.99 440.35 298.21 440.75 C 298.74 437.93 299.17 435.09 299.34 432.23 C 300.91 432.59 302.48 432.93 304.07 433.27 C 303.63 436.69 303.33 440.14 302.48 443.48 C 301.64 444.18 300.76 444.84 299.86 445.46 C 297.32 444.97 294.78 444.56 292.26 443.97 C 291.47 443.17 290.89 440.75 289.58 442.65 C 288.27 443.90 286.51 442.66 285.03 442.60 C 282.09 441.93 279.17 441.21 276.21 440.68 C 275.64 439.82 275.07 438.97 274.51 438.12 C 272.50 438.77 270.42 439.09 268.33 438.70 C 267.59 437.68 266.84 436.67 266.10 435.67 C 263.49 437.17 259.26 437.35 258.54 433.62 C 258.16 434.00 257.38 434.77 256.99 435.15 C 254.12 434.20 250.51 433.99 249.18 430.79 C 246.08 432.81 242.83 430.10 239.77 429.34 C 237.36 428.75 235.51 427.19 234.65 424.85 C 236.72 419.90 238.69 414.88 240.08 409.69 M 284.45 433.53 C 284.11 434.95 283.79 436.39 283.46 437.83 C 284.65 438.05 285.85 438.28 287.05 438.50 C 287.32 437.05 287.59 435.60 287.88 434.16 C 286.73 433.94 285.59 433.74 284.45 433.53 Z" />
<path fill="#ffffff" opacity="1.00" d=" M 463.25 416.67 C 464.86 416.09 466.48 415.50 468.09 414.92 C 469.30 418.19 470.48 421.47 471.72 424.74 C 470.50 428.76 465.97 429.13 462.71 430.66 C 461.79 430.05 460.87 429.45 459.96 428.86 C 459.48 429.95 459.00 431.05 458.53 432.15 C 452.37 433.96 446.33 436.15 440.12 437.79 C 438.73 438.37 437.41 437.40 436.10 437.10 C 435.57 437.86 435.05 438.62 434.54 439.39 C 430.02 440.30 425.62 441.82 421.04 442.42 C 420.49 442.25 419.39 441.91 418.85 441.74 C 417.57 442.75 416.22 443.69 414.60 444.03 C 414.76 445.48 414.93 446.92 415.10 448.38 C 418.05 447.82 420.96 447.11 423.90 446.53 C 423.24 448.19 422.58 449.86 421.90 451.52 C 418.13 452.30 413.98 453.78 410.73 450.86 C 410.48 448.27 410.06 445.70 409.46 443.17 C 410.58 441.87 411.75 440.63 413.04 439.51 C 412.08 437.96 411.13 436.40 410.19 434.85 C 410.89 433.68 411.59 432.52 412.31 431.37 C 415.35 430.91 418.36 430.26 421.32 429.38 C 422.47 430.06 423.62 430.76 424.78 431.46 C 424.55 433.47 424.26 435.48 423.92 437.48 C 426.41 436.92 428.88 436.32 431.37 435.78 C 430.85 432.97 430.16 430.19 429.13 427.52 C 430.70 427.10 432.27 426.67 433.85 426.24 C 434.67 428.94 435.38 431.69 436.02 434.45 C 437.30 434.09 438.59 433.74 439.89 433.39 C 439.11 430.17 438.48 426.88 437.07 423.87 C 438.69 423.43 440.30 422.98 441.92 422.54 L 442.25 423.89 C 446.45 422.66 450.61 421.31 454.70 419.76 C 456.07 420.63 457.45 421.50 458.84 422.36 C 459.31 423.81 459.76 425.27 460.21 426.74 C 462.32 426.02 464.42 425.28 466.51 424.49 C 465.55 421.83 464.61 419.15 463.25 416.67 M 443.64 428.02 C 444.02 429.32 444.41 430.61 444.80 431.92 C 448.43 430.80 452.05 429.67 455.66 428.48 C 455.22 427.18 454.78 425.88 454.35 424.59 C 450.79 425.77 447.22 426.91 443.64 428.02 M 414.54 435.35 C 415.44 436.64 416.38 437.90 417.33 439.16 C 420.07 438.86 420.71 436.41 421.21 434.13 C 418.98 434.49 416.76 434.90 414.54 435.35 Z" />
<path fill="#ffffff" opacity="1.00" d=" M 300.73 427.29 C 301.83 427.54 302.93 427.80 304.03 428.07 C 303.95 428.82 303.79 430.32 303.70 431.08 C 302.56 430.91 301.43 430.75 300.30 430.59 C 300.44 429.49 300.58 428.38 300.73 427.29 Z" />
<path fill="#ffffff" opacity="1.00" d=" M 306.91 427.96 C 308.51 428.15 310.11 428.33 311.72 428.53 C 311.14 433.13 310.72 437.76 309.91 442.34 C 311.97 442.79 314.05 443.14 316.15 443.42 C 316.41 440.59 317.06 437.74 316.59 434.90 C 318.30 435.10 320.03 435.30 321.75 435.50 C 321.35 438.94 320.92 442.38 320.73 445.85 C 319.84 446.53 318.95 447.22 318.07 447.92 C 314.49 447.55 310.93 447.01 307.36 446.59 C 306.54 445.77 305.72 444.96 304.91 444.15 C 305.67 438.77 306.81 433.41 306.91 427.96 Z" />
<path fill="#ffffff" opacity="1.00" d=" M 394.54 428.44 C 396.28 428.27 398.03 428.11 399.77 427.94 C 400.42 433.97 400.93 440.07 402.56 445.93 C 400.66 446.25 398.78 446.57 396.89 446.89 C 396.79 440.69 395.79 434.50 394.54 428.44 Z" />
<path fill="#ffffff" opacity="1.00" d=" M 329.16 430.30 C 330.77 430.50 332.38 430.67 333.99 430.85 C 333.76 435.56 333.51 440.26 333.33 444.97 C 335.32 445.06 337.31 445.15 339.31 445.23 C 339.47 442.42 339.78 439.58 339.23 436.79 C 340.97 436.91 342.71 437.00 344.46 437.08 C 344.28 439.83 344.03 442.58 343.92 445.35 C 345.33 445.33 346.75 445.33 348.17 445.33 C 348.17 443.01 348.18 440.69 348.19 438.37 C 350.86 435.79 354.49 435.97 357.93 436.19 C 358.92 436.92 359.92 437.65 360.93 438.39 C 360.96 441.32 360.98 444.26 361.28 447.19 C 360.19 448.06 359.11 448.95 358.02 449.83 C 353.81 449.82 349.61 449.84 345.40 449.83 C 344.97 449.32 344.12 448.30 343.69 447.79 C 342.57 448.62 341.57 449.95 340.00 449.60 C 335.99 449.25 331.06 450.23 328.13 446.81 C 328.77 441.33 329.49 435.82 329.16 430.30 M 352.83 446.00 C 353.72 446.00 355.49 446.00 356.37 446.00 C 356.37 443.99 356.37 441.99 356.37 440.00 C 355.49 440.00 353.72 440.00 352.83 440.00 C 352.83 442.00 352.83 444.00 352.83 446.00 Z" />
<path fill="#ffffff" opacity="1.00" d=" M 373.15 430.71 C 374.70 430.57 376.24 430.41 377.80 430.24 C 377.70 434.99 378.27 439.71 378.71 444.44 C 380.66 444.29 382.61 444.15 384.56 444.04 C 382.76 442.59 382.08 440.58 382.26 438.33 C 383.16 437.34 383.83 436.07 384.97 435.35 C 387.96 435.02 390.98 434.81 393.91 434.06 C 394.13 435.57 394.36 437.08 394.60 438.60 C 392.03 438.85 389.47 439.15 386.91 439.46 C 386.95 440.82 387.00 442.20 387.05 443.57 C 389.67 443.36 392.29 443.11 394.92 442.84 C 395.18 444.27 395.45 445.71 395.72 447.16 C 390.80 447.54 385.88 448.00 381.00 448.70 C 380.18 448.14 379.37 447.58 378.56 447.03 C 377.53 447.90 376.58 449.15 375.06 448.99 C 371.05 449.43 367.00 449.43 362.99 449.93 C 362.99 448.42 363.00 446.91 363.01 445.40 C 363.93 445.35 365.75 445.25 366.66 445.20 C 366.63 443.14 366.61 441.08 366.61 439.02 C 365.28 437.93 363.94 436.85 362.61 435.78 C 363.84 435.05 365.09 434.32 366.34 433.60 C 368.12 435.06 369.94 436.48 371.78 437.88 C 371.65 440.49 369.78 445.49 374.05 445.23 C 373.56 440.41 373.24 435.56 373.15 430.71 Z" />
<path fill="#ffffff" opacity="1.00" d=" M 340.29 431.65 C 341.39 431.63 342.48 431.61 343.59 431.60 C 343.62 432.70 343.65 433.81 343.70 434.93 C 342.49 434.87 341.30 434.82 340.11 434.77 C 340.16 433.72 340.23 432.68 340.29 431.65 Z" />
<path fill="#ffffff" opacity="1.00" d=" M 312.40 449.24 C 313.53 449.32 314.66 449.41 315.80 449.50 C 315.81 450.61 315.84 451.72 315.86 452.85 C 314.61 452.74 313.38 452.64 312.14 452.55 C 312.22 451.44 312.31 450.34 312.40 449.24 Z" />
</g>
<g id="#ce6263ff">
<path fill="#ce6263" opacity="1.00" d=" M 272.31 409.46 C 278.99 409.74 285.35 411.97 291.87 413.21 C 294.18 413.72 296.51 414.18 298.87 414.52 C 303.67 415.21 308.51 415.67 313.25 416.78 C 313.67 416.87 314.50 417.06 314.92 417.16 L 313.46 417.52 C 299.52 416.37 285.61 413.84 272.31 409.46 Z" />
</g>
<g id="#eee2e4ff">
<path fill="#eee2e4" opacity="1.00" d=" M 298.27 411.34 C 301.79 411.38 305.41 411.14 308.83 412.18 C 311.00 412.83 311.97 415.11 313.25 416.78 C 308.51 415.67 303.67 415.21 298.87 414.52 C 298.67 413.46 298.47 412.40 298.27 411.34 Z" />
<path fill="#eee2e4" opacity="1.00" d=" M 383.08 412.22 C 386.51 411.19 390.14 411.38 393.68 411.35 C 393.51 412.41 393.34 413.48 393.18 414.55 C 388.37 415.26 383.52 415.74 378.77 416.80 C 380.02 415.16 380.89 412.81 383.08 412.22 Z" />
</g>
<g id="#eadee1ff">
<path fill="#eadee1" opacity="1.00" d=" M 320.28 416.90 C 322.24 411.08 329.64 411.30 334.63 411.91 C 334.81 413.71 335.00 415.51 335.19 417.31 C 330.23 416.89 325.25 416.76 320.28 416.90 Z" />
</g>
<g id="#f0e4e7ff">
<path fill="#f0e4e7" opacity="1.00" d=" M 359.45 416.01 C 360.12 414.27 360.52 411.61 362.99 411.81 C 366.41 412.21 370.53 413.15 371.75 416.85 C 370.38 416.84 369.01 416.84 367.65 416.85 C 365.26 414.90 362.21 415.71 359.45 416.01 Z" />
</g>
<g id="#c68687ff">
<path fill="#c68687" opacity="1.00" d=" M 314.92 417.16 C 315.22 417.12 315.84 417.05 316.15 417.02 L 316.67 416.96 C 317.87 416.92 319.07 416.90 320.28 416.90 C 325.25 416.76 330.23 416.89 335.19 417.31 C 335.75 417.33 336.85 417.37 337.41 417.39 C 344.04 416.95 350.68 417.07 357.33 417.10 C 360.77 417.02 364.21 416.94 367.65 416.85 C 369.01 416.84 370.38 416.84 371.75 416.85 C 372.93 416.85 374.11 416.88 375.30 416.92 L 375.84 417.00 C 376.14 417.05 376.73 417.13 377.03 417.18 L 378.43 417.57 C 356.79 418.49 335.09 418.71 313.46 417.52 L 314.92 417.16 Z" />
</g>
</svg>
