<?xml version="1.0" encoding="UTF-8" ?>
<!DOCTYPE svg PUBLIC "-//W3C//DTD SVG 1.1//EN" "http://www.w3.org/Graphics/SVG/1.1/DTD/svg11.dtd">
<svg width="720pt" height="720pt" viewBox="0 0 720 720" version="1.1" xmlns="http://www.w3.org/2000/svg">
<g id="#fb1010ff">
<path fill="#fb1010" opacity="1.00" d=" M 238.00 267.00 C 276.53 253.97 317.41 248.79 357.99 249.01 C 392.10 249.36 426.28 253.66 459.08 263.20 C 478.98 269.12 498.45 276.90 516.19 287.79 C 530.67 296.78 544.25 307.92 553.63 322.33 C 561.04 333.67 565.19 347.43 563.71 361.02 C 562.92 369.78 559.70 378.09 555.55 385.77 C 554.59 382.95 553.22 380.29 551.27 378.03 C 547.19 372.23 543.19 366.38 538.85 360.77 C 536.29 357.13 533.12 354.00 529.87 350.99 C 526.31 347.67 522.33 344.81 519.06 341.19 C 512.58 333.52 504.27 327.72 495.88 322.36 C 491.02 319.67 486.84 315.92 481.84 313.47 C 472.03 308.48 462.30 303.31 452.12 299.10 C 447.48 296.55 442.43 295.00 437.43 293.34 C 429.22 289.62 420.51 286.19 411.38 286.05 C 410.70 285.95 410.03 285.85 409.36 285.75 C 409.74 285.54 410.50 285.12 410.88 284.91 C 399.98 282.73 389.06 280.57 378.02 279.22 C 367.03 278.69 356.01 279.31 345.00 278.97 C 331.14 278.92 317.33 280.89 303.85 283.94 C 298.03 284.66 292.30 285.96 286.80 287.99 C 278.02 290.49 269.05 292.66 260.77 296.55 L 260.43 296.63 C 254.33 298.14 248.68 301.00 242.77 303.10 C 225.50 312.44 208.32 322.10 192.15 333.30 C 184.53 338.91 175.71 343.58 170.46 351.75 L 170.46 351.75 C 166.01 353.65 163.55 358.00 160.48 361.48 C 155.92 366.73 152.98 373.11 150.46 379.53 C 143.78 365.78 143.27 349.27 148.87 335.07 C 154.96 319.22 167.02 306.47 180.33 296.32 C 197.65 283.25 217.56 274.02 238.00 267.00 Z" />
<path fill="#fb1010" opacity="1.00" d=" M 326.74 306.52 L 327.24 306.53 C 338.14 305.46 349.12 305.24 360.06 305.95 C 368.11 306.88 376.32 305.68 384.29 307.33 C 390.06 307.88 395.82 308.49 401.52 309.54 C 404.00 310.16 406.48 310.87 409.04 311.20 C 414.58 311.71 419.84 313.63 425.26 314.83 C 425.65 314.93 426.44 315.14 426.83 315.24 C 431.96 316.96 437.14 318.52 442.35 320.00 C 445.07 321.06 447.71 322.33 450.43 323.41 C 452.95 324.39 455.43 325.48 457.93 326.55 C 459.66 327.24 461.42 327.88 463.17 328.56 C 469.72 331.10 475.87 334.52 482.17 337.61 C 483.07 338.08 483.99 338.54 484.92 339.00 C 485.52 339.29 486.13 339.58 486.75 339.86 C 496.01 345.54 505.12 351.50 514.51 356.97 C 514.23 357.29 513.67 357.93 513.39 358.25 C 505.33 362.76 496.86 366.45 488.67 370.68 C 486.71 371.67 484.65 372.42 482.57 373.09 C 480.64 373.69 478.71 374.30 476.79 374.90 C 469.76 377.10 463.19 380.64 455.88 382.01 C 452.49 382.35 449.10 382.89 445.86 383.98 C 435.87 387.26 425.39 388.58 415.12 390.66 C 401.56 393.30 387.80 394.78 374.02 395.70 C 359.08 395.98 344.13 396.33 329.19 395.93 C 330.27 394.37 331.35 392.82 332.44 391.27 C 332.25 389.92 332.08 388.58 331.90 387.24 C 339.84 388.90 348.02 387.49 356.07 388.14 C 359.09 385.18 359.89 381.15 359.40 377.06 C 358.25 375.57 357.11 374.08 355.98 372.58 C 351.29 372.62 346.60 372.70 341.91 372.60 C 340.75 370.37 338.15 370.91 336.09 370.66 C 336.44 374.71 336.47 378.78 336.41 382.85 C 334.99 383.02 333.58 383.21 332.16 383.39 C 332.12 379.86 332.16 376.32 332.40 372.80 C 330.81 372.81 329.22 372.82 327.64 372.84 C 327.63 373.88 327.62 374.93 327.63 375.98 C 325.92 374.70 324.48 372.15 322.01 372.84 C 320.38 373.41 319.21 374.76 317.88 375.79 C 318.01 378.95 318.01 382.12 317.89 385.30 C 319.88 387.11 322.31 388.23 325.05 388.24 C 325.80 387.35 326.56 386.48 327.33 385.62 C 327.37 387.74 327.41 389.86 327.45 391.99 C 324.39 392.02 321.33 391.95 318.28 391.72 C 318.54 392.34 319.06 393.58 319.32 394.21 L 319.99 395.89 C 298.00 394.67 276.28 390.90 254.76 386.39 C 249.26 385.25 244.07 382.76 238.41 382.42 C 229.90 381.28 222.37 376.98 214.23 374.61 C 212.92 374.22 211.63 373.81 210.33 373.41 C 202.28 370.78 195.03 366.25 187.30 362.84 C 187.25 362.31 187.14 361.25 187.09 360.73 C 190.35 358.43 193.45 355.85 197.08 354.14 C 204.77 350.35 211.55 344.94 219.27 341.15 C 224.76 338.27 230.58 336.12 236.34 333.87 C 257.22 323.00 280.06 316.54 302.94 311.45 C 310.36 309.76 318.26 309.99 325.41 307.25 C 325.74 307.07 326.41 306.70 326.74 306.52 M 291.10 326.84 C 293.71 328.22 296.21 329.83 298.95 330.92 C 301.91 331.49 304.30 329.17 306.83 328.03 C 309.12 329.05 311.30 331.24 313.97 330.75 C 316.85 329.67 319.59 328.15 321.93 326.14 C 319.36 324.72 316.88 323.05 314.10 322.07 C 311.17 321.52 308.79 323.82 306.29 324.96 C 304.00 323.84 301.76 321.69 299.04 322.25 C 296.18 323.37 293.51 324.94 291.10 326.84 M 409.58 326.46 C 409.50 334.76 409.93 343.08 409.34 351.36 C 406.66 351.45 403.99 351.50 401.32 351.35 C 400.27 348.47 398.84 345.60 396.34 343.72 C 390.21 338.65 381.62 338.17 374.09 339.49 C 369.51 340.64 364.28 343.05 362.95 348.01 C 361.61 351.78 364.18 355.72 367.50 357.44 C 373.59 360.64 380.66 360.61 387.35 361.14 C 380.08 364.91 371.85 361.97 364.18 361.89 C 363.38 364.43 362.60 366.98 361.87 369.55 C 370.40 371.73 379.42 372.73 388.13 371.10 C 393.83 370.03 399.31 366.60 401.17 360.85 C 407.02 360.76 413.27 361.42 418.64 358.56 C 422.16 356.73 424.47 352.98 424.36 348.98 C 424.42 341.35 424.43 333.72 424.32 326.09 C 419.40 325.93 414.48 326.19 409.58 326.46 M 338.32 327.11 C 338.46 338.31 338.28 349.51 338.42 360.70 C 343.26 360.92 348.09 360.42 352.94 360.40 C 353.09 349.12 352.95 337.84 353.01 326.55 C 348.11 326.17 343.19 326.61 338.32 327.11 M 438.00 327.06 C 437.99 338.23 438.02 349.41 437.98 360.58 C 442.84 361.05 447.71 360.38 452.58 360.37 C 452.54 349.04 452.91 337.68 452.39 326.36 C 447.58 326.37 442.78 326.55 438.00 327.06 M 301.38 332.49 C 296.90 333.68 291.81 336.22 290.60 341.09 C 289.72 344.12 292.04 346.98 294.57 348.36 C 299.61 351.01 305.45 351.29 311.03 351.57 C 300.38 351.42 289.72 351.25 279.07 351.49 C 281.60 349.63 283.97 347.20 284.45 343.96 C 283.93 341.13 280.86 340.20 278.45 339.64 C 267.24 337.74 255.79 338.72 244.61 340.30 C 244.61 342.65 244.61 345.00 244.60 347.36 C 247.35 349.43 250.19 351.39 253.09 353.25 C 248.88 355.01 244.09 356.48 241.30 360.36 C 239.46 362.91 239.93 366.74 242.30 368.80 C 245.42 371.51 249.63 372.41 253.57 373.23 C 264.83 374.96 276.33 374.60 287.56 372.88 C 286.34 370.49 286.58 366.58 283.99 365.26 C 274.43 365.79 264.31 367.35 255.14 363.89 C 255.14 363.46 255.13 362.61 255.13 362.18 C 258.35 359.61 262.86 357.44 267.00 358.93 C 276.12 361.40 285.63 360.74 294.96 360.83 C 302.33 360.81 309.72 360.43 316.98 359.08 C 320.68 358.27 324.70 357.27 327.38 354.40 C 331.13 348.89 329.42 340.75 324.20 336.77 C 317.80 331.73 309.12 331.22 301.38 332.49 M 299.66 366.43 C 299.61 367.57 299.56 368.72 299.52 369.87 C 300.69 369.93 301.86 369.99 303.04 370.05 C 302.99 368.80 302.95 367.55 302.91 366.31 C 301.82 366.35 300.74 366.39 299.66 366.43 M 304.96 366.25 C 304.89 367.50 304.82 368.75 304.75 370.00 C 305.62 370.00 307.36 370.00 308.23 370.00 C 308.18 368.77 308.13 367.53 308.09 366.31 C 307.31 366.29 305.74 366.26 304.96 366.25 M 291.80 372.57 C 292.79 376.72 292.55 381.03 291.99 385.21 C 292.94 386.15 293.90 387.09 294.86 388.03 C 300.61 387.92 306.37 388.09 312.12 387.98 C 313.98 388.16 315.33 386.49 316.06 385.00 C 316.37 380.89 316.07 376.76 316.18 372.65 C 314.38 372.63 312.59 372.61 310.81 372.58 C 311.68 375.98 311.41 379.51 311.39 382.99 C 306.64 383.00 301.90 383.00 297.16 382.99 C 297.16 379.54 297.17 376.10 297.18 372.65 C 295.38 372.63 293.59 372.61 291.80 372.57 Z" />
<path fill="#fb1010" opacity="1.00" d=" M 301.61 342.77 C 303.14 340.18 306.42 340.35 309.04 340.36 C 311.60 340.26 313.94 341.40 316.12 342.63 C 311.46 344.22 306.35 343.82 301.61 342.77 Z" />
<path fill="#fb1010" opacity="1.00" d=" M 260.16 346.59 C 263.85 346.37 267.56 346.23 271.23 346.68 C 269.73 348.06 267.88 348.90 265.98 349.57 C 264.05 348.54 262.11 347.55 260.16 346.59 Z" />
<path fill="#fb1010" opacity="1.00" d=" M 375.67 350.18 C 378.55 346.39 384.65 348.08 387.26 351.32 C 383.37 351.47 379.38 351.58 375.67 350.18 Z" />
<path fill="#fb1010" opacity="1.00" d=" M 507.58 374.10 C 513.31 371.77 518.25 368.01 523.68 365.11 C 527.69 369.07 531.60 373.26 536.44 376.23 C 536.57 376.34 536.83 376.54 536.95 376.64 C 541.51 382.23 546.30 387.62 550.48 393.51 C 539.00 407.94 524.07 419.25 507.94 428.01 C 475.39 445.53 438.96 454.71 402.45 459.20 C 356.32 464.53 309.17 462.43 263.97 451.55 C 237.97 445.13 212.37 435.80 189.76 421.26 C 180.17 415.09 171.18 407.88 163.57 399.36 C 161.88 397.51 160.54 395.26 158.29 394.03 L 158.23 393.09 C 159.49 389.30 161.98 386.11 164.58 383.14 C 169.53 379.42 172.77 373.97 177.69 370.23 C 186.19 376.55 195.49 381.81 205.18 386.07 C 218.81 393.09 233.68 397.12 247.85 402.83 C 252.35 404.38 257.10 405.17 261.44 407.19 C 264.19 408.48 267.20 408.96 270.21 409.20 C 270.91 409.29 271.62 409.37 272.34 409.46 C 286.07 413.99 300.46 416.54 314.87 417.61 C 336.03 418.69 357.24 418.46 378.40 417.57 C 388.98 416.84 399.49 415.06 409.77 412.43 C 416.65 410.61 423.84 409.85 430.42 406.99 C 435.45 404.74 440.99 404.01 446.06 401.84 C 459.82 396.27 474.61 392.83 487.39 385.06 C 488.69 384.46 490.00 383.87 491.31 383.27 C 494.44 381.81 497.39 380.00 500.35 378.23 C 501.17 377.77 502.01 377.31 502.85 376.85 C 504.44 375.96 506.02 375.05 507.58 374.10 M 240.08 409.68 C 238.70 414.87 236.73 419.89 234.64 424.83 C 236.50 429.87 242.67 429.85 246.89 431.88 C 247.44 431.56 248.53 430.93 249.08 430.62 C 250.39 433.90 254.00 434.21 256.94 435.16 C 257.35 434.78 258.16 434.01 258.57 433.63 C 259.26 437.37 263.52 437.15 266.11 435.66 C 266.85 436.67 267.60 437.69 268.34 438.72 C 270.43 439.05 272.52 438.80 274.52 438.11 C 275.07 438.96 275.64 439.82 276.20 440.68 C 280.43 441.42 284.56 442.62 288.79 443.34 C 289.23 442.90 290.12 442.04 290.57 441.61 C 291.11 442.40 291.65 443.19 292.20 443.98 C 294.73 444.53 297.27 444.96 299.82 445.47 C 304.52 443.39 303.00 437.41 304.07 433.28 C 302.48 432.93 300.91 432.59 299.33 432.23 C 299.18 435.10 298.75 437.94 298.21 440.77 C 295.99 440.36 293.78 439.95 291.60 439.42 C 292.12 436.64 292.75 433.88 293.60 431.19 C 289.71 430.97 285.76 428.43 281.94 429.88 C 279.05 430.72 279.82 434.40 278.80 436.59 C 277.92 436.44 276.17 436.16 275.29 436.01 C 275.85 433.18 276.53 430.37 277.40 427.61 C 275.79 427.19 274.19 426.74 272.60 426.29 C 272.02 429.05 271.34 431.79 270.78 434.57 C 269.51 434.28 268.24 434.01 266.97 433.73 C 267.57 430.92 268.29 428.14 269.24 425.43 C 267.64 424.96 266.05 424.48 264.46 423.99 C 263.80 426.77 263.05 429.53 262.27 432.29 C 261.06 431.91 259.86 431.54 258.65 431.18 C 259.33 428.43 260.13 425.72 261.03 423.05 C 259.50 422.52 257.96 421.99 256.44 421.47 C 255.66 424.20 254.85 426.91 254.04 429.64 C 252.83 429.25 251.61 428.87 250.40 428.50 C 251.28 425.83 252.13 423.15 252.98 420.47 C 251.40 419.92 249.83 419.38 248.26 418.86 C 247.61 421.58 246.78 424.26 245.91 426.94 C 243.96 426.18 242.01 425.41 240.06 424.68 C 241.64 420.30 243.12 415.88 244.71 411.50 C 243.16 410.89 241.62 410.29 240.08 409.68 M 462.20 411.69 C 462.64 412.70 463.07 413.71 463.52 414.74 C 464.59 414.28 465.65 413.83 466.74 413.39 C 466.33 412.38 465.91 411.36 465.52 410.35 C 464.41 410.80 463.30 411.23 462.20 411.69 M 250.49 414.10 C 250.13 415.19 249.79 416.30 249.44 417.40 C 250.52 417.72 251.59 418.04 252.67 418.37 C 253.05 417.38 253.44 416.40 253.82 415.42 C 252.71 414.97 251.60 414.53 250.49 414.10 M 463.19 416.68 C 464.66 419.12 465.56 421.85 466.50 424.53 C 464.41 425.29 462.31 426.01 460.21 426.74 C 459.75 425.25 459.28 423.76 458.78 422.29 C 457.40 421.46 456.04 420.61 454.68 419.76 C 450.63 421.31 446.50 422.62 442.35 423.88 C 442.22 423.55 441.94 422.87 441.80 422.54 C 440.21 422.98 438.63 423.44 437.04 423.88 C 438.53 426.87 439.10 430.19 439.88 433.41 C 438.58 433.75 437.29 434.10 436.01 434.45 C 435.39 431.67 434.68 428.92 433.80 426.22 C 432.24 426.67 430.67 427.11 429.12 427.54 C 430.17 430.19 430.86 432.97 431.37 435.78 C 428.88 436.32 426.40 436.92 423.92 437.49 C 424.26 435.48 424.54 433.47 424.77 431.46 C 423.62 430.76 422.48 430.06 421.34 429.38 C 418.38 430.25 415.36 430.91 412.31 431.37 C 411.59 432.53 410.88 433.69 410.19 434.87 C 411.14 436.41 412.09 437.96 413.07 439.50 C 411.74 440.61 410.55 441.88 409.45 443.22 C 410.08 445.73 410.48 448.29 410.73 450.87 C 414.00 453.77 418.16 452.30 421.93 451.53 C 422.58 449.85 423.20 448.16 423.82 446.48 C 420.92 447.12 418.04 447.84 415.12 448.39 C 414.93 446.92 414.75 445.46 414.58 444.01 C 416.21 443.70 417.56 442.78 418.81 441.74 C 421.81 443.23 424.98 441.48 428.01 440.97 C 430.88 440.00 434.71 440.33 436.22 437.14 C 437.47 437.43 438.70 438.34 440.04 437.81 C 446.26 436.20 452.30 433.95 458.48 432.19 C 458.98 431.07 459.49 429.95 460.00 428.84 C 460.89 429.44 461.79 430.05 462.69 430.67 C 465.97 429.14 470.51 428.76 471.72 424.72 C 470.48 421.47 469.30 418.19 468.10 414.92 C 466.46 415.51 464.83 416.10 463.19 416.68 M 428.68 422.34 C 428.92 423.40 429.16 424.47 429.41 425.54 C 430.54 425.21 431.67 424.88 432.82 424.56 C 432.53 423.55 432.24 422.54 431.96 421.54 C 430.86 421.81 429.77 422.07 428.68 422.34 M 308.48 423.20 C 307.94 424.37 307.41 425.54 306.89 426.72 C 308.57 427.03 310.25 427.35 311.94 427.67 L 312.10 425.80 C 311.49 425.87 310.28 426.00 309.67 426.07 L 309.47 425.03 C 310.36 424.95 312.13 424.79 313.02 424.71 C 311.78 423.54 310.07 423.41 308.48 423.20 M 287.24 424.66 C 286.90 425.64 286.57 426.63 286.24 427.62 C 287.36 427.98 288.49 428.36 289.62 428.74 C 289.87 427.63 290.13 426.53 290.39 425.44 C 289.34 425.17 288.28 424.91 287.24 424.66 M 300.73 427.28 C 300.59 428.40 300.45 429.52 300.32 430.65 C 301.45 430.78 302.57 430.92 303.70 431.06 C 303.79 430.31 303.96 428.82 304.04 428.08 C 302.93 427.80 301.83 427.54 300.73 427.28 M 306.88 427.94 C 306.86 433.39 305.66 438.75 304.90 444.13 C 305.71 444.95 306.52 445.77 307.34 446.59 C 310.91 447.01 314.47 447.54 318.04 447.93 C 318.94 447.23 319.84 446.53 320.74 445.83 C 320.92 442.37 321.35 438.94 321.75 435.51 C 320.02 435.30 318.28 435.08 316.55 434.88 C 317.10 437.72 316.40 440.58 316.15 443.41 C 314.05 443.14 311.97 442.79 309.90 442.36 C 310.73 437.78 311.13 433.15 311.72 428.54 C 310.09 428.33 308.49 428.14 306.88 427.94 M 394.50 428.44 C 395.82 434.50 396.82 440.70 396.86 446.91 C 398.78 446.57 400.70 446.24 402.63 445.92 C 400.82 440.11 400.48 433.95 399.78 427.94 C 398.02 428.11 396.26 428.28 394.50 428.44 M 329.13 430.29 C 329.53 435.82 328.75 441.34 328.13 446.83 C 330.08 449.14 333.11 449.42 335.95 449.47 C 338.57 449.42 341.83 450.49 343.55 447.79 C 344.17 448.46 344.79 449.13 345.42 449.81 C 349.62 449.85 353.83 449.82 358.04 449.83 C 359.12 448.94 360.20 448.06 361.29 447.18 C 360.95 444.36 360.93 441.51 361.09 438.68 C 360.04 437.82 358.99 436.99 357.95 436.16 C 355.78 436.16 353.61 436.17 351.45 436.19 C 350.38 436.94 349.30 437.68 348.22 438.41 C 348.18 440.72 348.16 443.03 348.17 445.34 C 346.75 445.33 345.34 445.33 343.93 445.35 C 344.03 442.58 344.27 439.83 344.46 437.07 C 342.69 436.99 340.93 436.92 339.18 436.81 C 339.82 439.58 339.45 442.43 339.32 445.24 C 337.32 445.15 335.31 445.06 333.32 444.96 C 333.52 440.26 333.74 435.56 334.02 430.87 C 332.39 430.68 330.75 430.49 329.13 430.29 M 373.14 430.72 C 373.26 435.56 373.55 440.40 374.05 445.22 C 369.81 445.56 371.62 440.41 371.78 437.89 C 369.96 436.49 368.15 435.08 366.36 433.65 C 365.12 434.28 363.87 434.92 362.62 435.57 C 363.92 436.77 365.25 437.92 366.59 439.09 C 366.61 441.12 366.64 443.15 366.68 445.19 C 365.76 445.24 363.92 445.36 363.00 445.42 C 362.99 446.92 362.99 448.43 362.99 449.94 C 367.32 449.36 371.71 449.48 376.03 448.85 C 377.13 448.58 377.86 447.59 378.77 446.98 C 379.31 447.42 380.40 448.29 380.94 448.73 C 385.85 448.00 390.80 447.51 395.76 447.19 C 395.47 445.73 395.18 444.28 394.89 442.84 C 392.29 443.11 389.70 443.35 387.11 443.58 C 387.03 442.57 386.87 440.54 386.79 439.53 C 389.38 439.16 391.98 438.84 394.58 438.60 C 394.36 437.08 394.13 435.56 393.92 434.05 C 390.26 435.67 384.69 433.46 382.74 437.84 C 381.52 440.13 382.74 442.65 384.70 444.06 C 382.69 444.16 380.70 444.29 378.71 444.43 C 378.28 439.71 377.68 434.99 377.80 430.24 C 376.24 430.41 374.69 430.57 373.14 430.72 M 340.29 431.64 C 340.23 432.68 340.16 433.72 340.11 434.77 C 341.30 434.82 342.49 434.87 343.69 434.93 C 343.65 433.81 343.62 432.71 343.59 431.61 C 342.49 431.61 341.39 431.63 340.29 431.64 M 312.41 449.24 C 312.31 450.34 312.22 451.44 312.13 452.55 C 313.37 452.64 314.61 452.74 315.86 452.85 C 315.83 451.72 315.81 450.59 315.79 449.48 C 314.66 449.39 313.53 449.31 312.41 449.24 Z" />
<path fill="#fb1010" opacity="1.00" d=" M 323.01 377.35 C 324.47 377.35 325.93 377.36 327.39 377.38 C 327.39 379.58 327.40 381.78 327.40 383.99 C 325.93 383.99 324.46 383.99 323.00 384.00 C 323.00 381.78 323.00 379.56 323.01 377.35 Z" />
<path fill="#fb1010" opacity="1.00" d=" M 341.37 377.61 C 345.68 377.60 349.99 377.60 354.30 377.60 C 354.45 379.37 354.59 381.15 354.74 382.94 C 350.28 383.04 345.81 383.01 341.35 382.98 C 341.36 381.19 341.36 379.39 341.37 377.61 Z" />
<path fill="#fb1010" opacity="1.00" d=" M 153.43 384.53 C 154.97 385.41 156.26 386.84 156.14 388.74 C 154.43 388.96 153.06 386.02 153.43 384.53 Z" />
<path fill="#fb1010" opacity="1.00" d=" M 443.65 428.01 C 447.22 426.92 450.78 425.79 454.31 424.58 C 454.76 425.87 455.22 427.17 455.68 428.47 C 452.06 429.67 448.42 430.80 444.78 431.92 C 444.40 430.61 444.02 429.31 443.65 428.01 Z" />
<path fill="#fb1010" opacity="1.00" d=" M 284.44 433.54 C 285.58 433.74 286.72 433.94 287.87 434.15 C 287.60 435.58 287.33 437.04 287.09 438.49 C 285.87 438.28 284.66 438.06 283.46 437.85 C 283.78 436.41 284.10 434.97 284.44 433.54 Z" />
<path fill="#fb1010" opacity="1.00" d=" M 414.66 435.28 C 416.81 434.88 418.97 434.50 421.13 434.12 C 420.78 435.45 420.41 436.79 420.07 438.13 C 419.12 438.43 418.18 438.74 417.24 439.06 C 416.32 437.83 415.44 436.59 414.66 435.28 Z" />
<path fill="#fb1010" opacity="1.00" d=" M 352.84 446.03 C 352.83 444.01 352.83 441.98 352.84 439.97 C 353.73 439.98 355.49 440.01 356.38 440.02 C 356.37 442.00 356.37 443.99 356.38 445.98 C 355.49 445.99 353.73 446.02 352.84 446.03 Z" />
</g>
<g id="#cb6161ff">
<path fill="#cb6161" opacity="1.00" d=" M 303.85 283.94 C 317.33 280.89 331.14 278.92 345.00 278.97 C 356.01 279.31 367.03 278.69 378.02 279.22 C 389.06 280.57 399.98 282.73 410.88 284.91 C 410.50 285.12 409.74 285.54 409.36 285.75 C 398.64 283.82 388.00 281.35 377.17 280.05 C 376.52 280.03 375.21 279.99 374.55 279.97 C 369.41 279.95 364.27 279.73 359.13 279.66 C 358.72 279.66 357.89 279.66 357.48 279.66 C 354.93 279.68 352.37 279.77 349.82 279.86 C 348.36 279.88 346.90 279.89 345.44 279.90 C 342.79 279.91 340.15 279.93 337.51 280.08 C 336.75 280.13 336.00 280.21 335.26 280.30 C 330.58 280.96 325.90 281.58 321.20 281.98 C 315.33 282.26 309.78 284.30 304.01 285.16 L 303.85 283.94 Z" />
</g>
<g id="#cebfbfff">
<path fill="#cebfbf" opacity="1.00" d=" M 335.26 280.30 C 336.00 280.21 336.75 280.13 337.51 280.08 C 336.96 284.79 338.76 289.21 342.08 292.52 C 345.63 291.17 349.46 291.20 352.99 292.61 C 356.23 289.07 357.44 284.36 357.48 279.66 C 357.89 279.66 358.72 279.66 359.13 279.66 C 359.49 281.94 359.85 284.23 360.21 286.52 C 365.43 286.38 373.46 286.68 374.55 279.97 C 375.21 279.99 376.52 280.03 377.17 280.05 C 376.26 282.10 375.63 284.38 374.10 286.08 C 370.00 288.73 364.74 289.77 360.03 288.21 C 358.52 290.19 357.03 292.18 355.53 294.16 C 356.05 296.13 356.55 298.10 357.03 300.09 C 354.08 297.86 351.64 294.67 348.00 293.55 C 344.15 294.43 341.72 297.87 338.77 300.22 C 338.15 297.87 339.13 295.70 340.30 293.72 C 338.38 292.28 336.76 290.50 335.39 288.55 C 330.85 288.55 326.09 288.20 322.11 285.82 C 320.41 284.89 318.94 283.52 317.08 282.93 C 313.14 284.17 309.80 286.97 305.66 287.61 C 303.05 287.95 300.43 287.64 297.82 287.47 C 296.59 289.81 295.10 292.27 292.06 291.43 C 292.66 290.21 293.27 289.01 293.88 287.80 C 293.16 287.85 291.72 287.96 291.00 288.02 C 295.23 286.64 299.63 285.89 304.01 285.16 C 309.78 284.30 315.33 282.26 321.20 281.98 C 324.27 286.54 330.12 285.79 334.89 286.39 C 335.01 284.36 335.13 282.32 335.26 280.30 Z" />
</g>
<g id="#eee0e3ff">
<path fill="#eee0e3" opacity="1.00" d=" M 337.51 280.08 C 340.15 279.93 342.79 279.91 345.44 279.90 C 343.89 281.25 342.26 282.53 340.97 284.12 C 340.81 287.56 345.64 287.52 348.12 288.03 C 351.30 288.72 353.12 285.61 353.25 282.87 C 350.78 283.77 348.36 284.79 345.95 285.82 C 346.11 285.37 346.45 284.47 346.61 284.02 C 347.73 282.67 348.80 281.28 349.82 279.86 C 352.37 279.77 354.93 279.68 357.48 279.66 C 357.44 284.36 356.23 289.07 352.99 292.61 C 349.46 291.20 345.63 291.17 342.08 292.52 C 338.76 289.21 336.96 284.79 337.51 280.08 Z" />
</g>
<g id="#ddd1d3ff">
<path fill="#ddd1d3" opacity="1.00" d=" M 345.44 279.90 C 346.90 279.89 348.36 279.88 349.82 279.86 C 348.80 281.28 347.73 282.67 346.61 284.02 C 346.45 284.47 346.11 285.37 345.95 285.82 C 348.36 284.79 350.78 283.77 353.25 282.87 C 353.12 285.61 351.30 288.72 348.12 288.03 C 345.64 287.52 340.81 287.56 340.97 284.12 C 342.26 282.53 343.89 281.25 345.44 279.90 Z" />
</g>
<g id="#eadfe2ff">
<path fill="#eadfe2" opacity="1.00" d=" M 359.13 279.66 C 364.27 279.73 369.41 279.95 374.55 279.97 C 373.46 286.68 365.43 286.38 360.21 286.52 C 359.85 284.23 359.49 281.94 359.13 279.66 Z" />
</g>
<g id="#eedcddff">
<path fill="#eedcdd" opacity="1.00" d=" M 377.17 280.05 C 388.00 281.35 398.64 283.82 409.36 285.75 C 410.03 285.85 410.70 285.95 411.38 286.05 C 417.67 288.61 424.65 289.02 430.75 292.10 C 432.54 292.96 434.31 293.90 436.16 294.66 C 435.34 294.58 433.68 294.41 432.86 294.33 C 432.80 295.22 432.73 296.11 432.66 297.00 C 431.66 297.25 430.68 297.51 429.69 297.78 C 428.87 299.10 428.06 300.42 427.24 301.75 C 422.75 299.51 417.78 301.60 413.78 303.91 C 412.21 304.68 412.36 306.50 412.53 307.96 C 412.96 309.07 413.40 310.17 413.85 311.27 C 412.24 311.26 410.63 311.26 409.04 311.20 C 406.48 310.87 404.00 310.16 401.52 309.54 C 402.50 309.29 404.47 308.78 405.46 308.52 C 403.88 306.62 402.07 304.89 399.89 303.70 C 400.86 303.74 401.83 303.78 402.81 303.81 C 401.96 303.07 401.13 302.34 400.30 301.61 C 402.62 299.16 404.38 295.82 407.59 294.46 C 411.81 293.56 414.11 297.88 416.63 300.39 C 418.14 301.50 419.26 298.83 418.15 297.84 C 415.44 294.80 411.56 291.20 407.13 292.43 C 403.44 293.87 399.53 296.36 398.83 300.60 C 396.45 300.85 394.07 301.12 391.70 301.43 C 392.39 301.97 393.09 302.50 393.81 303.02 C 392.28 303.97 391.32 305.48 390.42 306.99 C 389.99 307.01 389.12 307.06 388.68 307.09 C 388.00 304.05 386.22 301.11 383.34 299.73 C 379.60 298.72 375.67 298.79 371.83 298.41 C 371.75 297.77 371.57 296.49 371.49 295.85 C 368.23 296.43 367.38 299.67 366.51 302.37 C 361.87 302.28 357.44 303.72 353.02 304.91 C 344.40 305.80 335.72 304.01 327.10 305.08 C 327.04 304.60 326.93 303.66 326.87 303.18 C 327.39 303.30 328.43 303.53 328.95 303.65 C 328.53 299.95 327.29 296.34 324.25 293.98 C 324.97 292.64 325.70 291.30 326.43 289.96 C 325.99 289.50 325.11 288.57 324.68 288.11 C 322.46 290.52 320.61 294.11 316.96 294.36 C 313.16 294.36 311.34 290.58 308.94 288.29 C 306.33 287.81 307.21 291.40 308.70 292.26 C 311.65 294.66 315.43 298.07 319.51 296.31 C 320.45 295.98 321.40 295.65 322.34 295.30 C 323.65 297.06 324.97 298.82 326.11 300.71 C 324.52 300.12 322.93 299.52 321.35 298.93 C 321.95 300.00 322.56 301.07 323.18 302.15 C 322.87 302.55 322.26 303.35 321.95 303.75 C 320.15 303.33 318.35 302.91 316.56 302.49 C 315.32 303.41 314.08 304.34 312.85 305.28 C 311.79 304.04 310.73 302.81 309.68 301.58 C 309.18 301.61 308.20 301.69 307.70 301.73 C 308.58 299.58 309.59 297.49 310.56 295.38 C 309.08 295.32 307.26 294.76 306.20 296.15 C 304.09 298.50 304.84 301.87 305.07 304.71 C 303.64 304.14 302.22 303.57 300.80 303.01 C 300.46 304.33 300.13 305.66 299.81 306.99 C 296.81 308.07 293.78 307.08 290.88 306.23 C 291.63 308.36 292.81 310.28 294.23 312.03 C 292.36 312.48 290.50 312.98 288.66 313.49 C 289.69 312.80 290.71 312.09 291.73 311.37 C 289.45 310.18 287.18 308.58 284.50 308.64 C 284.43 307.08 284.68 305.45 284.16 303.95 C 282.69 301.31 279.74 300.11 277.27 298.62 C 279.49 296.22 281.35 292.50 284.98 292.20 C 289.31 292.14 291.00 297.41 295.04 298.08 C 296.10 294.24 290.99 292.70 288.63 290.68 C 288.62 290.21 288.60 289.27 288.60 288.80 C 289.20 288.60 290.40 288.21 291.00 288.02 C 291.72 287.96 293.16 287.85 293.88 287.80 C 293.27 289.01 292.66 290.21 292.06 291.43 C 295.10 292.27 296.59 289.81 297.82 287.47 C 300.43 287.64 303.05 287.95 305.66 287.61 C 309.80 286.97 313.14 284.17 317.08 282.93 C 318.94 283.52 320.41 284.89 322.11 285.82 C 326.09 288.20 330.85 288.55 335.39 288.55 C 336.76 290.50 338.38 292.28 340.30 293.72 C 339.13 295.70 338.15 297.87 338.77 300.22 C 341.72 297.87 344.15 294.43 348.00 293.55 C 351.64 294.67 354.08 297.86 357.03 300.09 C 356.55 298.10 356.05 296.13 355.53 294.16 C 357.03 292.18 358.52 290.19 360.03 288.21 C 364.74 289.77 370.00 288.73 374.10 286.08 C 375.63 284.38 376.26 282.10 377.17 280.05 M 369.03 288.96 C 369.21 290.49 368.77 292.52 370.41 293.44 C 373.33 295.69 376.67 299.18 380.72 297.53 C 384.13 295.92 388.80 293.24 386.94 288.73 C 383.39 290.74 381.12 297.21 376.25 294.79 C 373.01 293.88 372.33 289.63 369.03 288.96 M 384.12 297.60 C 385.80 299.66 387.51 301.70 389.33 303.66 C 391.21 300.58 388.32 297.55 386.10 295.67 C 385.44 296.31 384.78 296.95 384.12 297.60 M 342.11 302.77 C 346.59 304.66 351.95 304.58 355.91 301.54 C 354.40 299.83 352.63 298.39 350.68 297.24 C 350.01 298.68 350.24 301.47 348.02 301.40 C 345.71 301.91 345.31 298.57 344.27 297.16 C 342.57 298.59 342.09 300.63 342.11 302.77 M 288.69 301.70 C 285.95 303.51 287.07 307.36 289.41 308.99 C 290.06 306.91 289.76 304.11 291.81 302.78 C 295.43 300.60 300.04 302.24 303.69 300.13 C 302.61 299.23 301.57 297.92 299.98 298.23 C 296.04 298.52 292.10 299.71 288.69 301.70 Z" />
</g>
<g id="#eddfe2ff">
<path fill="#eddfe2" opacity="1.00" d=" M 321.20 281.98 C 325.90 281.58 330.58 280.96 335.26 280.30 C 335.13 282.32 335.01 284.36 334.89 286.39 C 330.12 285.79 324.27 286.54 321.20 281.98 Z" />
</g>
<g id="#ce4a4aff">
<path fill="#ce4a4a" opacity="1.00" d=" M 286.80 287.99 C 292.30 285.96 298.03 284.66 303.85 283.94 L 304.01 285.16 C 299.63 285.89 295.23 286.64 291.00 288.02 C 290.40 288.21 289.20 288.60 288.60 288.80 C 284.12 290.51 279.29 290.95 274.79 292.62 C 271.52 293.65 268.30 294.85 264.98 295.72 C 263.58 296.02 262.17 296.29 260.77 296.55 C 269.05 292.66 278.02 290.49 286.80 287.99 Z" />
</g>
<g id="#cb4444ff">
<path fill="#cb4444" opacity="1.00" d=" M 411.38 286.05 C 420.51 286.19 429.22 289.62 437.43 293.34 C 442.43 295.00 447.48 296.55 452.12 299.10 C 462.30 303.31 472.03 308.48 481.84 313.47 C 486.84 315.92 491.02 319.67 495.88 322.36 C 504.27 327.72 512.58 333.52 519.06 341.19 C 518.50 341.01 517.40 340.66 516.85 340.48 C 513.19 337.18 509.80 333.56 505.65 330.84 C 501.93 328.13 498.11 325.55 494.21 323.11 C 490.65 320.96 487.27 318.56 483.80 316.27 C 480.95 314.63 477.90 313.41 474.96 311.96 C 473.66 311.10 472.36 310.24 471.00 309.50 C 469.62 308.82 468.23 308.19 466.84 307.56 C 462.64 305.59 458.41 303.67 454.08 302.01 C 448.32 299.08 442.62 295.80 436.16 294.66 C 434.31 293.90 432.54 292.96 430.75 292.10 C 424.65 289.02 417.67 288.61 411.38 286.05 Z" />
</g>
<g id="#d3c0bdff">
<path fill="#d3c0bd" opacity="1.00" d=" M 308.70 292.26 C 307.21 291.40 306.33 287.81 308.94 288.29 C 311.34 290.58 313.16 294.36 316.96 294.36 C 320.61 294.11 322.46 290.52 324.68 288.11 C 325.11 288.57 325.99 289.50 326.43 289.96 C 325.70 291.30 324.97 292.64 324.25 293.98 C 327.29 296.34 328.53 299.95 328.95 303.65 C 328.43 303.53 327.39 303.30 326.87 303.18 C 326.68 302.57 326.30 301.33 326.11 300.71 C 324.97 298.82 323.65 297.06 322.34 295.30 C 321.40 295.65 320.45 295.98 319.51 296.31 C 315.43 298.07 311.65 294.66 308.70 292.26 Z" />
</g>
<g id="#d1bdbcff">
<path fill="#d1bdbc" opacity="1.00" d=" M 274.79 292.62 C 279.29 290.95 284.12 290.51 288.60 288.80 C 288.60 289.27 288.62 290.21 288.63 290.68 C 290.99 292.70 296.10 294.24 295.04 298.08 C 291.00 297.41 289.31 292.14 284.98 292.20 C 281.35 292.50 279.49 296.22 277.27 298.62 C 279.74 300.11 282.69 301.31 284.16 303.95 C 284.68 305.45 284.43 307.08 284.50 308.64 C 283.29 309.40 282.10 310.21 280.89 310.99 C 280.49 311.00 279.69 311.02 279.29 311.03 C 280.06 308.86 282.75 306.42 280.98 304.13 C 278.15 301.13 273.66 301.29 269.96 300.18 C 268.64 299.96 267.79 299.17 267.39 297.82 C 270.04 297.74 272.68 297.94 275.30 298.35 C 275.82 296.34 276.76 294.47 277.84 292.70 C 277.08 292.68 275.56 292.64 274.79 292.62 Z" />
</g>
<g id="#d3c1bfff">
<path fill="#d3c1bf" opacity="1.00" d=" M 369.03 288.96 C 372.33 289.63 373.01 293.88 376.25 294.79 C 381.12 297.21 383.39 290.74 386.94 288.73 C 388.80 293.24 384.13 295.92 380.72 297.53 C 376.67 299.18 373.33 295.69 370.41 293.44 C 368.77 292.52 369.21 290.49 369.03 288.96 Z" />
</g>
<g id="#c8b5b7ff">
<path fill="#c8b5b7" opacity="1.00" d=" M 398.83 300.60 C 399.53 296.36 403.44 293.87 407.13 292.43 C 411.56 291.20 415.44 294.80 418.15 297.84 C 419.26 298.83 418.14 301.50 416.63 300.39 C 414.11 297.88 411.81 293.56 407.59 294.46 C 404.38 295.82 402.62 299.16 400.30 301.61 C 401.13 302.34 401.96 303.07 402.81 303.81 C 401.83 303.78 400.86 303.74 399.89 303.70 C 397.85 303.54 395.82 303.32 393.81 303.02 C 393.09 302.50 392.39 301.97 391.70 301.43 C 394.07 301.12 396.45 300.85 398.83 300.60 Z" />
</g>
<g id="#edd2d3ff">
<path fill="#edd2d3" opacity="1.00" d=" M 264.98 295.72 C 268.30 294.85 271.52 293.65 274.79 292.62 C 275.56 292.64 277.08 292.68 277.84 292.70 C 276.76 294.47 275.82 296.34 275.30 298.35 C 272.68 297.94 270.04 297.74 267.39 297.82 C 267.79 299.17 268.64 299.96 269.96 300.18 C 273.66 301.29 278.15 301.13 280.98 304.13 C 282.75 306.42 280.06 308.86 279.29 311.03 C 279.69 311.02 280.49 311.00 280.89 310.99 C 279.27 312.21 278.18 313.87 278.72 316.01 C 277.57 316.38 276.44 316.81 275.31 317.24 C 275.47 316.23 275.63 315.22 275.80 314.22 C 272.52 314.19 269.26 314.15 265.99 314.08 C 267.13 307.99 267.26 301.57 264.98 295.72 M 267.76 312.01 C 270.46 314.73 275.40 312.95 278.25 311.08 C 274.92 311.37 270.15 309.34 267.76 312.01 Z" />
</g>
<g id="#d1c3bbff">
<path fill="#d1c3bb" opacity="1.00" d=" M 306.20 296.15 C 307.26 294.76 309.08 295.32 310.56 295.38 C 309.59 297.49 308.58 299.58 307.70 301.73 C 307.45 304.03 307.44 306.36 307.52 308.67 C 310.98 308.21 314.50 307.65 317.59 305.92 C 320.63 306.21 323.68 306.44 326.74 306.52 C 326.41 306.70 325.74 307.07 325.41 307.25 C 318.69 307.01 312.24 309.11 305.58 309.57 C 305.42 307.94 305.24 306.33 305.07 304.71 C 304.84 301.87 304.09 298.50 306.20 296.15 Z" />
</g>
<g id="#e9d1d1ff">
<path fill="#e9d1d1" opacity="1.00" d=" M 432.66 297.00 C 432.73 296.11 432.80 295.22 432.86 294.33 C 433.68 294.41 435.34 294.58 436.16 294.66 C 442.62 295.80 448.32 299.08 454.08 302.01 C 453.30 302.02 451.72 302.04 450.93 302.05 C 451.72 307.54 452.06 313.13 450.88 318.60 C 450.67 320.19 450.54 321.80 450.43 323.41 C 447.71 322.33 445.07 321.06 442.35 320.00 C 443.76 319.62 445.93 320.41 446.89 318.97 C 447.49 317.49 447.79 315.92 448.20 314.39 C 445.89 315.27 443.56 316.95 440.99 316.25 C 437.83 315.32 436.11 312.26 433.67 310.30 C 430.93 309.82 430.72 313.77 429.60 315.46 C 428.91 315.41 427.52 315.30 426.83 315.24 C 426.44 315.14 425.65 314.93 425.26 314.83 C 426.13 314.52 427.86 313.91 428.73 313.60 C 427.99 311.34 427.66 308.81 426.13 306.91 C 424.89 306.42 423.58 306.14 422.31 305.80 C 422.78 306.87 423.27 307.94 423.77 309.01 C 423.30 309.34 422.38 310.00 421.91 310.33 C 420.54 308.90 419.16 307.46 417.80 306.03 C 417.09 305.88 415.66 305.57 414.95 305.41 C 418.96 303.49 423.49 303.49 427.85 303.39 C 428.29 306.36 428.83 309.31 429.59 312.22 C 430.32 307.07 431.18 301.99 432.66 297.00 M 438.90 307.03 C 438.49 308.35 438.16 309.70 437.91 311.06 C 439.82 311.00 441.84 310.53 442.08 308.30 C 441.01 307.87 439.96 307.45 438.90 307.03 Z" />
</g>
<g id="#cdb1b2ff">
<path fill="#cdb1b2" opacity="1.00" d=" M 260.77 296.55 C 262.17 296.29 263.58 296.02 264.98 295.72 C 267.26 301.57 267.13 307.99 265.99 314.08 C 265.06 315.15 264.08 316.18 263.05 317.16 C 262.57 317.06 261.60 316.85 261.12 316.75 C 263.97 311.73 264.93 305.74 263.71 300.09 C 263.40 298.79 262.18 298.00 261.36 297.04 L 260.43 296.63 L 260.77 296.55 Z" />
</g>
<g id="#d0c2c3ff">
<path fill="#d0c2c3" opacity="1.00" d=" M 366.51 302.37 C 367.38 299.67 368.23 296.43 371.49 295.85 C 371.57 296.49 371.75 297.77 371.83 298.41 C 370.78 299.72 369.73 301.03 368.68 302.34 C 368.14 302.35 367.05 302.37 366.51 302.37 Z" />
</g>
<g id="#d8c8c7ff">
<path fill="#d8c8c7" opacity="1.00" d=" M 384.12 297.60 C 384.78 296.95 385.44 296.31 386.10 295.67 C 388.32 297.55 391.21 300.58 389.33 303.66 C 387.51 301.70 385.80 299.66 384.12 297.60 Z" />
</g>
<g id="#c83d3dff">
<path fill="#c83d3d" opacity="1.00" d=" M 242.77 303.10 C 248.68 301.00 254.33 298.14 260.43 296.63 L 261.36 297.04 C 255.79 299.34 250.21 301.60 244.65 303.92 C 242.36 304.99 240.18 306.27 237.96 307.49 C 237.39 307.80 236.23 308.43 235.65 308.74 C 228.45 312.40 221.59 316.69 214.66 320.85 C 212.94 321.80 211.24 322.76 209.55 323.75 C 207.56 324.93 205.63 326.18 203.68 327.42 C 201.23 328.92 198.82 330.47 196.45 332.09 C 191.22 335.81 186.00 339.54 180.83 343.33 C 177.85 345.91 175.19 348.83 172.12 351.30 L 170.46 351.75 C 175.71 343.58 184.53 338.91 192.15 333.30 C 208.32 322.10 225.50 312.44 242.77 303.10 Z" />
</g>
<g id="#f5f4f1ff">
<path fill="#f5f4f1" opacity="1.00" d=" M 342.11 302.77 C 342.09 300.63 342.57 298.59 344.27 297.16 C 345.31 298.57 345.71 301.91 348.02 301.40 C 350.24 301.47 350.01 298.68 350.68 297.24 C 352.63 298.39 354.40 299.83 355.91 301.54 C 351.95 304.58 346.59 304.66 342.11 302.77 Z" />
</g>
<g id="#cab5b3ff">
<path fill="#cab5b3" opacity="1.00" d=" M 429.69 297.78 C 430.68 297.51 431.66 297.25 432.66 297.00 C 431.18 301.99 430.32 307.07 429.59 312.22 C 428.83 309.31 428.29 306.36 427.85 303.39 C 423.49 303.49 418.96 303.49 414.95 305.41 C 414.13 306.25 413.32 307.10 412.53 307.96 C 412.36 306.50 412.21 304.68 413.78 303.91 C 417.78 301.60 422.75 299.51 427.24 301.75 C 428.06 300.42 428.87 299.10 429.69 297.78 Z" />
</g>
<g id="#edceceff">
<path fill="#edcece" opacity="1.00" d=" M 244.65 303.92 C 250.21 301.60 255.79 299.34 261.36 297.04 C 262.18 298.00 263.40 298.79 263.71 300.09 C 264.93 305.74 263.97 311.73 261.12 316.75 C 261.60 316.85 262.57 317.06 263.05 317.16 C 262.43 317.76 261.82 318.36 261.20 318.96 C 262.50 319.48 263.79 320.00 265.09 320.52 C 263.12 321.08 261.16 321.70 259.26 322.46 C 259.09 321.46 258.92 320.47 258.74 319.48 C 258.75 314.79 252.76 315.00 249.55 316.12 C 248.04 314.92 246.51 313.75 245.03 312.54 C 243.00 309.94 243.24 306.73 244.65 303.92 M 251.35 304.80 C 252.18 305.55 253.01 306.30 253.85 307.05 C 254.60 306.40 255.34 305.72 256.06 305.03 C 255.21 302.89 252.69 303.55 251.35 304.80 M 247.09 309.69 C 249.90 311.96 253.63 313.84 257.24 312.23 C 258.57 311.31 260.85 310.47 260.69 308.54 C 259.69 307.97 258.65 307.50 257.62 307.02 C 257.57 307.51 257.47 308.50 257.43 309.00 C 255.98 309.38 254.55 309.82 253.06 309.96 C 251.47 309.67 250.44 308.26 249.19 307.38 C 248.49 308.14 247.79 308.91 247.09 309.69 Z" />
</g>
<g id="#cdbbb9ff">
<path fill="#cdbbb9" opacity="1.00" d=" M 288.69 301.70 C 292.10 299.71 296.04 298.52 299.98 298.23 C 301.57 297.92 302.61 299.23 303.69 300.13 C 300.04 302.24 295.43 300.60 291.81 302.78 C 289.76 304.11 290.06 306.91 289.41 308.99 C 287.07 307.36 285.95 303.51 288.69 301.70 Z" />
</g>
<g id="#ededebff">
<path fill="#ededeb" opacity="1.00" d=" M 371.83 298.41 C 375.67 298.79 379.60 298.72 383.34 299.73 C 386.22 301.11 388.00 304.05 388.68 307.09 C 387.21 307.16 385.75 307.24 384.29 307.33 C 376.32 305.68 368.11 306.88 360.06 305.95 C 349.12 305.24 338.14 305.46 327.24 306.53 L 327.10 305.08 C 335.72 304.01 344.40 305.80 353.02 304.91 C 357.44 303.72 361.87 302.28 366.51 302.37 C 367.05 302.37 368.14 302.35 368.68 302.34 C 369.73 301.03 370.78 299.72 371.83 298.41 Z" />
</g>
<g id="#f6f3f0ff">
<path fill="#f6f3f0" opacity="1.00" d=" M 321.35 298.93 C 322.93 299.52 324.52 300.12 326.11 300.71 C 326.30 301.33 326.68 302.57 326.87 303.18 C 326.93 303.66 327.04 304.60 327.10 305.08 L 327.24 306.53 L 326.74 306.52 C 323.68 306.44 320.63 306.21 317.59 305.92 C 314.50 307.65 310.98 308.21 307.52 308.67 C 307.44 306.36 307.45 304.03 307.70 301.73 C 308.20 301.69 309.18 301.61 309.68 301.58 C 310.73 302.81 311.79 304.04 312.85 305.28 C 314.08 304.34 315.32 303.41 316.56 302.49 C 318.35 302.91 320.15 303.33 321.95 303.75 C 322.26 303.35 322.87 302.55 323.18 302.15 C 322.56 301.07 321.95 300.00 321.35 298.93 Z" />
</g>
<g id="#e7cecdff">
<path fill="#e7cecd" opacity="1.00" d=" M 450.93 302.05 C 451.72 302.04 453.30 302.02 454.08 302.01 C 458.41 303.67 462.64 305.59 466.84 307.56 C 466.57 309.20 466.90 311.23 465.43 312.39 C 462.59 315.29 458.21 314.55 454.55 314.65 C 454.45 315.24 454.26 316.42 454.16 317.01 C 456.58 317.08 459.01 317.15 461.44 317.24 C 462.37 321.11 465.72 323.25 469.10 324.81 C 466.27 324.46 464.25 326.04 463.17 328.56 C 461.42 327.88 459.66 327.24 457.93 326.55 C 459.63 325.75 461.29 324.86 462.84 323.78 C 461.61 322.04 460.40 320.28 459.20 318.52 C 456.43 318.34 453.65 318.40 450.88 318.60 C 452.06 313.13 451.72 307.54 450.93 302.05 Z" />
</g>
<g id="#f5f1f0ff">
<path fill="#f5f1f0" opacity="1.00" d=" M 300.80 303.01 C 302.22 303.57 303.64 304.14 305.07 304.71 C 305.24 306.33 305.42 307.94 305.58 309.57 C 301.78 310.30 298.02 311.23 294.23 312.03 C 292.81 310.28 291.63 308.36 290.88 306.23 C 293.78 307.08 296.81 308.07 299.81 306.99 C 300.13 305.66 300.46 304.33 300.80 303.01 Z" />
</g>
<g id="#f7f7f3ff">
<path fill="#f7f7f3" opacity="1.00" d=" M 393.81 303.02 C 395.82 303.32 397.85 303.54 399.89 303.70 C 402.07 304.89 403.88 306.62 405.46 308.52 C 404.47 308.78 402.50 309.29 401.52 309.54 C 395.82 308.49 390.06 307.88 384.29 307.33 C 385.75 307.24 387.21 307.16 388.68 307.09 C 389.12 307.06 389.99 307.01 390.42 306.99 C 391.32 305.48 392.28 303.97 393.81 303.02 Z" />
</g>
<g id="#cdaaaaff">
<path fill="#cdaaaa" opacity="1.00" d=" M 237.96 307.49 C 240.18 306.27 242.36 304.99 244.65 303.92 C 243.24 306.73 243.00 309.94 245.03 312.54 C 245.74 313.97 246.39 315.44 246.99 316.93 C 242.37 317.21 241.37 312.15 240.13 308.78 C 239.59 308.46 238.51 307.81 237.96 307.49 Z" />
</g>
<g id="#d4b7b7ff">
<path fill="#d4b7b7" opacity="1.00" d=" M 251.35 304.80 C 252.69 303.55 255.21 302.89 256.06 305.03 C 255.34 305.72 254.60 306.40 253.85 307.05 C 253.01 306.30 252.18 305.55 251.35 304.80 Z" />
</g>
<g id="#f2f1edff">
<path fill="#f2f1ed" opacity="1.00" d=" M 412.53 307.96 C 413.32 307.10 414.13 306.25 414.95 305.41 C 415.66 305.57 417.09 305.88 417.80 306.03 C 419.16 307.46 420.54 308.90 421.91 310.33 C 422.38 310.00 423.30 309.34 423.77 309.01 C 423.27 307.94 422.78 306.87 422.31 305.80 C 423.58 306.14 424.89 306.42 426.13 306.91 C 427.66 308.81 427.99 311.34 428.73 313.60 C 427.86 313.91 426.13 314.52 425.26 314.83 C 419.84 313.63 414.58 311.71 409.04 311.20 C 410.63 311.26 412.24 311.26 413.85 311.27 C 413.40 310.17 412.96 309.07 412.53 307.96 Z" />
</g>
<g id="#d9b6b5ff">
<path fill="#d9b6b5" opacity="1.00" d=" M 247.09 309.69 C 247.79 308.91 248.49 308.14 249.19 307.38 C 250.44 308.26 251.47 309.67 253.06 309.96 C 254.55 309.82 255.98 309.38 257.43 309.00 C 257.47 308.50 257.57 307.51 257.62 307.02 C 258.65 307.50 259.69 307.97 260.69 308.54 C 260.85 310.47 258.57 311.31 257.24 312.23 C 253.63 313.84 249.90 311.96 247.09 309.69 Z" />
</g>
<g id="#dac1c1ff">
<path fill="#dac1c1" opacity="1.00" d=" M 438.90 307.03 C 439.96 307.45 441.01 307.87 442.08 308.30 C 441.84 310.53 439.82 311.00 437.91 311.06 C 438.16 309.70 438.49 308.35 438.90 307.03 Z" />
</g>
<g id="#efc6c8ff">
<path fill="#efc6c8" opacity="1.00" d=" M 235.65 308.74 C 236.23 308.43 237.39 307.80 237.96 307.49 C 238.51 307.81 239.59 308.46 240.13 308.78 C 241.37 312.15 242.37 317.21 246.99 316.93 C 246.39 315.44 245.74 313.97 245.03 312.54 C 246.51 313.75 248.04 314.92 249.55 316.12 C 247.09 317.67 244.96 319.66 242.94 321.74 C 243.78 322.27 244.62 322.80 245.47 323.33 C 245.49 323.70 245.55 324.44 245.57 324.81 C 246.43 325.46 247.30 326.11 248.17 326.77 C 247.36 327.12 246.56 327.48 245.76 327.84 C 243.28 326.62 240.58 325.86 237.82 325.68 C 239.27 325.27 240.70 324.78 242.13 324.27 C 239.29 323.54 236.37 323.33 233.46 323.43 C 231.98 321.49 230.49 319.57 228.97 317.66 C 229.78 315.97 230.59 314.29 231.42 312.61 C 233.98 312.49 236.52 312.11 239.01 311.47 C 237.89 310.55 236.77 309.64 235.65 308.74 Z" />
</g>
<g id="#f3f3f1ff">
<path fill="#f3f3f1" opacity="1.00" d=" M 284.50 308.64 C 287.18 308.58 289.45 310.18 291.73 311.37 C 290.71 312.09 289.69 312.80 288.66 313.49 C 285.38 314.48 282.01 315.10 278.72 316.01 C 278.18 313.87 279.27 312.21 280.89 310.99 C 282.10 310.21 283.29 309.40 284.50 308.64 Z" />
</g>
<g id="#d95e5dff">
<path fill="#d95e5d" opacity="1.00" d=" M 305.58 309.57 C 312.24 309.11 318.69 307.01 325.41 307.25 C 318.26 309.99 310.36 309.76 302.94 311.45 C 280.06 316.54 257.22 323.00 236.34 333.87 C 230.58 336.12 224.76 338.27 219.27 341.15 C 211.55 344.94 204.77 350.35 197.08 354.14 L 196.32 353.53 C 199.81 351.59 203.04 349.24 206.27 346.89 C 215.31 341.25 224.99 336.70 234.97 332.95 C 238.60 331.32 242.08 329.37 245.76 327.84 C 246.56 327.48 247.36 327.12 248.17 326.77 C 251.78 325.11 255.58 323.94 259.26 322.46 C 261.16 321.70 263.12 321.08 265.09 320.52 C 268.54 319.57 271.96 318.51 275.31 317.24 C 276.44 316.81 277.57 316.38 278.72 316.01 C 282.01 315.10 285.38 314.48 288.66 313.49 C 290.50 312.98 292.36 312.48 294.23 312.03 C 298.02 311.23 301.78 310.30 305.58 309.57 Z" />
</g>
<g id="#cfa9abff">
<path fill="#cfa9ab" opacity="1.00" d=" M 466.84 307.56 C 468.23 308.19 469.62 308.82 471.00 309.50 C 468.78 312.24 466.21 314.66 463.47 316.86 C 465.30 320.02 467.98 323.27 471.95 323.43 C 475.63 322.71 477.99 319.56 479.48 316.35 C 477.96 314.90 476.47 313.41 474.96 311.96 C 477.90 313.41 480.95 314.63 483.80 316.27 C 482.17 318.26 480.67 320.35 479.34 322.54 C 481.39 324.23 483.42 325.96 485.64 327.44 L 486.48 327.86 C 487.71 328.47 488.95 329.10 490.23 329.65 C 488.66 329.78 487.12 329.97 485.58 330.14 C 485.39 333.10 485.16 336.05 484.92 339.00 C 483.99 338.54 483.07 338.08 482.17 337.61 C 484.78 332.59 480.67 327.48 477.94 323.46 C 475.18 324.81 472.15 326.14 469.10 324.81 C 465.72 323.25 462.37 321.11 461.44 317.24 C 459.01 317.15 456.58 317.08 454.16 317.01 C 454.26 316.42 454.45 315.24 454.55 314.65 C 458.21 314.55 462.59 315.29 465.43 312.39 C 466.90 311.23 466.57 309.20 466.84 307.56 Z" />
</g>
<g id="#d2ababff">
<path fill="#d2abab" opacity="1.00" d=" M 214.66 320.85 C 221.59 316.69 228.45 312.40 235.65 308.74 C 236.77 309.64 237.89 310.55 239.01 311.47 C 236.52 312.11 233.98 312.49 231.42 312.61 C 230.59 314.29 229.78 315.97 228.97 317.66 C 230.49 319.57 231.98 321.49 233.46 323.43 C 236.37 323.33 239.29 323.54 242.13 324.27 C 240.70 324.78 239.27 325.27 237.82 325.68 C 236.71 325.64 235.61 325.61 234.52 325.58 C 233.81 327.95 233.02 330.30 232.05 332.58 C 230.72 328.05 229.82 323.08 226.44 319.54 C 222.87 319.74 219.36 320.96 215.72 320.80 L 214.66 320.85 Z" />
</g>
<g id="#f8e9e8ff">
<path fill="#f8e9e8" opacity="1.00" d=" M 429.60 315.46 C 430.72 313.77 430.93 309.82 433.67 310.30 C 436.11 312.26 437.83 315.32 440.99 316.25 C 443.56 316.95 445.89 315.27 448.20 314.39 C 447.79 315.92 447.49 317.49 446.89 318.97 C 445.93 320.41 443.76 319.62 442.35 320.00 C 437.14 318.52 431.96 316.96 426.83 315.24 C 427.52 315.30 428.91 315.41 429.60 315.46 Z" />
</g>
<g id="#edc7c8ff">
<path fill="#edc7c8" opacity="1.00" d=" M 471.00 309.50 C 472.36 310.24 473.66 311.10 474.96 311.96 C 476.47 313.41 477.96 314.90 479.48 316.35 C 477.99 319.56 475.63 322.71 471.95 323.43 C 467.98 323.27 465.30 320.02 463.47 316.86 C 466.21 314.66 468.78 312.24 471.00 309.50 Z" />
</g>
<g id="#d5bfc2ff">
<path fill="#d5bfc2" opacity="1.00" d=" M 267.76 312.01 C 270.15 309.34 274.92 311.37 278.25 311.08 C 275.40 312.95 270.46 314.73 267.76 312.01 Z" />
</g>
<g id="#f5eae7ff">
<path fill="#f5eae7" opacity="1.00" d=" M 263.05 317.16 C 264.08 316.18 265.06 315.15 265.99 314.08 C 269.26 314.15 272.52 314.19 275.80 314.22 C 275.63 315.22 275.47 316.23 275.31 317.24 C 271.96 318.51 268.54 319.57 265.09 320.52 C 263.79 320.00 262.50 319.48 261.20 318.96 C 261.82 318.36 262.43 317.76 263.05 317.16 Z" />
</g>
<g id="#d1aeb0ff">
<path fill="#d1aeb0" opacity="1.00" d=" M 249.55 316.12 C 252.76 315.00 258.75 314.79 258.74 319.48 C 257.10 318.80 255.47 318.12 253.85 317.42 C 250.64 318.73 247.76 320.71 245.47 323.33 C 244.62 322.80 243.78 322.27 242.94 321.74 C 244.96 319.66 247.09 317.67 249.55 316.12 Z" />
</g>
<g id="#eec6c9ff">
<path fill="#eec6c9" opacity="1.00" d=" M 479.34 322.54 C 480.67 320.35 482.17 318.26 483.80 316.27 C 487.27 318.56 490.65 320.96 494.21 323.11 C 493.68 324.22 493.17 325.35 492.66 326.47 C 490.31 326.79 487.98 327.11 485.64 327.44 C 483.42 325.96 481.39 324.23 479.34 322.54 Z" />
</g>
<g id="#f6d8dcff">
<path fill="#f6d8dc" opacity="1.00" d=" M 245.47 323.33 C 247.76 320.71 250.64 318.73 253.85 317.42 C 255.47 318.12 257.10 318.80 258.74 319.48 C 258.92 320.47 259.09 321.46 259.26 322.46 C 255.58 323.94 251.78 325.11 248.17 326.77 C 247.30 326.11 246.43 325.46 245.57 324.81 C 245.55 324.44 245.49 323.70 245.47 323.33 Z" />
</g>
<g id="#f6e5e4ff">
<path fill="#f6e5e4" opacity="1.00" d=" M 450.88 318.60 C 453.65 318.40 456.43 318.34 459.20 318.52 C 460.40 320.28 461.61 322.04 462.84 323.78 C 461.29 324.86 459.63 325.75 457.93 326.55 C 455.43 325.48 452.95 324.39 450.43 323.41 C 450.54 321.80 450.67 320.19 450.88 318.60 Z" />
</g>
<g id="#f3cdccff">
<path fill="#f3cdcc" opacity="1.00" d=" M 215.72 320.80 C 219.36 320.96 222.87 319.74 226.44 319.54 C 229.82 323.08 230.72 328.05 232.05 332.58 C 233.02 330.30 233.81 327.95 234.52 325.58 C 235.61 325.61 236.71 325.64 237.82 325.68 C 240.58 325.86 243.28 326.62 245.76 327.84 C 242.08 329.37 238.60 331.32 234.97 332.95 C 224.99 336.70 215.31 341.25 206.27 346.89 C 203.23 345.90 200.13 345.11 197.00 344.46 C 201.43 342.21 205.85 339.51 211.01 339.64 C 210.80 338.20 210.59 336.76 210.38 335.33 C 213.85 335.04 218.36 336.37 220.63 332.94 C 222.33 332.73 224.02 332.55 225.72 332.39 C 224.50 331.65 223.28 330.91 222.07 330.18 C 223.88 329.11 225.70 328.05 227.50 326.98 C 226.08 325.53 224.97 323.49 222.91 322.90 C 220.47 322.43 217.96 322.60 215.49 322.59 C 215.55 322.14 215.67 321.25 215.72 320.80 Z" />
</g>
<g id="#e8b5b5ff">
<path fill="#e8b5b5" opacity="1.00" d=" M 209.55 323.75 C 211.24 322.76 212.94 321.80 214.66 320.85 L 215.72 320.80 C 215.67 321.25 215.55 322.14 215.49 322.59 C 217.96 322.60 220.47 322.43 222.91 322.90 C 224.97 323.49 226.08 325.53 227.50 326.98 C 225.70 328.05 223.88 329.11 222.07 330.18 C 223.28 330.91 224.50 331.65 225.72 332.39 C 224.02 332.55 222.33 332.73 220.63 332.94 C 218.36 336.37 213.85 335.04 210.38 335.33 C 210.59 336.76 210.80 338.20 211.01 339.64 C 205.85 339.51 201.43 342.21 197.00 344.46 C 200.13 345.11 203.23 345.90 206.27 346.89 C 203.04 349.24 199.81 351.59 196.32 353.53 C 195.24 350.75 195.65 347.71 195.07 344.85 C 194.61 342.59 192.25 341.71 190.56 340.55 C 192.25 338.76 193.74 336.80 195.09 334.75 C 198.04 335.02 201.17 335.67 203.90 334.11 C 201.45 333.30 198.96 332.66 196.45 332.09 C 198.82 330.47 201.23 328.92 203.68 327.42 C 205.51 331.38 204.92 336.56 208.92 339.29 C 207.78 334.13 206.93 328.63 209.55 323.75 Z" />
</g>
<g id="#fefefeff">
<path fill="#fefefe" opacity="1.00" d=" M 291.10 326.84 C 293.51 324.94 296.18 323.37 299.04 322.25 C 301.76 321.69 304.00 323.84 306.29 324.96 C 308.79 323.82 311.17 321.52 314.10 322.07 C 316.88 323.05 319.36 324.72 321.93 326.14 C 319.59 328.15 316.85 329.67 313.97 330.75 C 311.30 331.24 309.12 329.05 306.83 328.03 C 304.30 329.17 301.91 331.49 298.95 330.92 C 296.21 329.83 293.71 328.22 291.10 326.84 Z" />
<path fill="#fefefe" opacity="1.00" d=" M 409.58 326.46 C 414.48 326.19 419.40 325.93 424.32 326.09 C 424.43 333.72 424.42 341.35 424.36 348.98 C 424.47 352.98 422.16 356.73 418.64 358.56 C 413.27 361.42 407.02 360.76 401.17 360.85 C 399.31 366.60 393.83 370.03 388.13 371.10 C 379.42 372.73 370.40 371.73 361.87 369.55 C 362.60 366.98 363.38 364.43 364.18 361.89 C 371.85 361.97 380.08 364.91 387.35 361.14 C 380.66 360.61 373.59 360.64 367.50 357.44 C 364.18 355.72 361.61 351.78 362.95 348.01 C 364.28 343.05 369.51 340.64 374.09 339.49 C 381.62 338.17 390.21 338.65 396.34 343.72 C 398.84 345.60 400.27 348.47 401.32 351.35 C 403.99 351.50 406.66 351.45 409.34 351.36 C 409.93 343.08 409.50 334.76 409.58 326.46 M 375.67 350.18 C 379.38 351.58 383.37 351.47 387.26 351.32 C 384.65 348.08 378.55 346.39 375.67 350.18 Z" />
<path fill="#fefefe" opacity="1.00" d=" M 338.32 327.11 C 343.19 326.61 348.11 326.17 353.01 326.55 C 352.95 337.84 353.09 349.12 352.94 360.40 C 348.09 360.42 343.26 360.92 338.42 360.70 C 338.28 349.51 338.46 338.31 338.32 327.11 Z" />
<path fill="#fefefe" opacity="1.00" d=" M 438.00 327.06 C 442.78 326.55 447.58 326.37 452.39 326.36 C 452.91 337.68 452.54 349.04 452.58 360.37 C 447.71 360.38 442.84 361.05 437.98 360.58 C 438.02 349.41 437.99 338.23 438.00 327.06 Z" />
<path fill="#fefefe" opacity="1.00" d=" M 301.38 332.49 C 309.12 331.22 317.80 331.73 324.20 336.77 C 329.42 340.75 331.13 348.89 327.38 354.40 C 324.70 357.27 320.68 358.27 316.98 359.08 C 309.72 360.43 302.33 360.81 294.96 360.83 C 285.63 360.74 276.12 361.40 267.00 358.93 C 262.86 357.44 258.35 359.61 255.13 362.18 C 255.13 362.61 255.14 363.46 255.14 363.89 C 264.31 367.35 274.43 365.79 283.99 365.26 C 286.58 366.58 286.34 370.49 287.56 372.88 C 276.33 374.60 264.83 374.96 253.57 373.23 C 249.63 372.41 245.42 371.51 242.30 368.80 C 239.93 366.74 239.46 362.91 241.30 360.36 C 244.09 356.48 248.88 355.01 253.09 353.25 C 250.19 351.39 247.35 349.43 244.60 347.36 C 244.61 345.00 244.61 342.65 244.61 340.30 C 255.79 338.72 267.24 337.74 278.45 339.64 C 280.86 340.20 283.93 341.13 284.45 343.96 C 283.97 347.20 281.60 349.63 279.07 351.49 C 289.72 351.25 300.38 351.42 311.03 351.57 C 305.45 351.29 299.61 351.01 294.57 348.36 C 292.04 346.98 289.72 344.12 290.60 341.09 C 291.81 336.22 296.90 333.68 301.38 332.49 M 301.61 342.77 C 306.35 343.82 311.46 344.22 316.12 342.63 C 313.94 341.40 311.60 340.26 309.04 340.36 C 306.42 340.35 303.14 340.18 301.61 342.77 M 260.16 346.59 C 262.11 347.55 264.05 348.54 265.98 349.57 C 267.88 348.90 269.73 348.06 271.23 346.68 C 267.56 346.23 263.85 346.37 260.16 346.59 Z" />
<path fill="#fefefe" opacity="1.00" d=" M 462.20 411.69 C 463.30 411.23 464.41 410.80 465.52 410.35 C 465.91 411.36 466.33 412.38 466.74 413.39 C 465.65 413.83 464.59 414.28 463.52 414.74 C 463.07 413.71 462.64 412.70 462.20 411.69 Z" />
<path fill="#fefefe" opacity="1.00" d=" M 250.49 414.10 C 251.60 414.53 252.71 414.97 253.82 415.42 C 253.44 416.40 253.05 417.38 252.67 418.37 C 251.59 418.04 250.52 417.72 249.44 417.40 C 249.79 416.30 250.13 415.19 250.49 414.10 Z" />
<path fill="#fefefe" opacity="1.00" d=" M 428.68 422.34 C 429.77 422.07 430.86 421.81 431.96 421.54 C 432.24 422.54 432.53 423.55 432.82 424.56 C 431.67 424.88 430.54 425.21 429.41 425.54 C 429.16 424.47 428.92 423.40 428.68 422.34 Z" />
<path fill="#fefefe" opacity="1.00" d=" M 308.48 423.20 C 310.07 423.41 311.78 423.54 313.02 424.71 C 312.13 424.79 310.36 424.95 309.47 425.03 L 309.67 426.07 C 310.28 426.00 311.49 425.87 312.10 425.80 L 311.94 427.67 C 310.25 427.35 308.57 427.03 306.89 426.72 C 307.41 425.54 307.94 424.37 308.48 423.20 Z" />
<path fill="#fefefe" opacity="1.00" d=" M 287.24 424.66 C 288.28 424.91 289.34 425.17 290.39 425.44 C 290.13 426.53 289.87 427.63 289.62 428.74 C 288.49 428.36 287.36 427.98 286.24 427.62 C 286.57 426.63 286.90 425.64 287.24 424.66 Z" />
</g>
<g id="#f2d0d5ff">
<path fill="#f2d0d5" opacity="1.00" d=" M 469.10 324.81 C 472.15 326.14 475.18 324.81 477.94 323.46 C 480.67 327.48 484.78 332.59 482.17 337.61 C 475.87 334.52 469.72 331.10 463.17 328.56 C 464.25 326.04 466.27 324.46 469.10 324.81 Z" />
</g>
<g id="#eebdbcff">
<path fill="#eebdbc" opacity="1.00" d=" M 494.21 323.11 C 498.11 325.55 501.93 328.13 505.65 330.84 C 505.76 332.49 505.80 334.15 506.14 335.78 C 507.58 338.53 510.81 339.38 513.47 340.51 C 511.18 342.91 509.19 345.58 507.63 348.51 C 509.47 347.77 511.46 347.23 513.08 346.01 C 514.62 344.38 515.58 342.31 516.85 340.48 C 517.40 340.66 518.50 341.01 519.06 341.19 C 519.27 344.12 521.18 346.39 522.94 348.59 C 521.65 348.81 520.38 349.04 519.11 349.28 C 519.95 349.73 520.80 350.18 521.65 350.64 C 520.38 351.49 519.12 352.34 517.86 353.19 C 517.39 351.71 516.92 350.20 516.06 348.91 C 514.64 348.49 513.16 348.31 511.72 348.07 C 513.94 351.17 516.32 354.25 517.39 357.97 C 516.42 357.65 515.46 357.31 514.51 356.97 C 505.12 351.50 496.01 345.54 486.75 339.86 C 488.99 339.73 491.24 339.53 493.50 339.42 C 496.50 339.54 499.98 339.63 502.17 337.17 C 503.43 335.03 503.05 331.61 500.64 330.42 C 496.27 328.23 491.26 328.04 486.48 327.86 L 485.64 327.44 C 487.98 327.11 490.31 326.79 492.66 326.47 C 493.17 325.35 493.68 324.22 494.21 323.11 Z" />
</g>
<g id="#cf9795ff">
<path fill="#cf9795" opacity="1.00" d=" M 203.68 327.42 C 205.63 326.18 207.56 324.93 209.55 323.75 C 206.93 328.63 207.78 334.13 208.92 339.29 C 204.92 336.56 205.51 331.38 203.68 327.42 Z" />
</g>
<g id="#c69893ff">
<path fill="#c69893" opacity="1.00" d=" M 486.48 327.86 C 491.26 328.04 496.27 328.23 500.64 330.42 C 503.05 331.61 503.43 335.03 502.17 337.17 C 499.98 339.63 496.50 339.54 493.50 339.42 C 495.63 338.47 497.72 337.44 499.84 336.45 C 499.51 334.88 499.64 332.90 498.08 331.96 C 495.74 330.46 492.88 330.22 490.23 329.65 C 488.95 329.10 487.71 328.47 486.48 327.86 Z" />
</g>
<g id="#f3cccdff">
<path fill="#f3cccd" opacity="1.00" d=" M 485.58 330.14 C 487.12 329.97 488.66 329.78 490.23 329.65 C 492.88 330.22 495.74 330.46 498.08 331.96 C 499.64 332.90 499.51 334.88 499.84 336.45 C 497.72 337.44 495.63 338.47 493.50 339.42 C 491.24 339.53 488.99 339.73 486.75 339.86 C 486.13 339.58 485.52 339.29 484.92 339.00 C 485.16 336.05 485.39 333.10 485.58 330.14 M 491.15 333.20 C 490.91 333.44 490.43 333.92 490.19 334.16 C 491.07 336.49 495.89 337.35 497.22 335.00 C 496.10 332.88 493.25 331.83 491.15 333.20 Z" />
</g>
<g id="#d2a09eff">
<path fill="#d2a09e" opacity="1.00" d=" M 505.65 330.84 C 509.80 333.56 513.19 337.18 516.85 340.48 C 515.58 342.31 514.62 344.38 513.08 346.01 C 511.46 347.23 509.47 347.77 507.63 348.51 C 509.19 345.58 511.18 342.91 513.47 340.51 C 510.81 339.38 507.58 338.53 506.14 335.78 C 505.80 334.15 505.76 332.49 505.65 330.84 Z" />
</g>
<g id="#cc8f90ff">
<path fill="#cc8f90" opacity="1.00" d=" M 180.83 343.33 C 186.00 339.54 191.22 335.81 196.45 332.09 C 198.96 332.66 201.45 333.30 203.90 334.11 C 201.17 335.67 198.04 335.02 195.09 334.75 C 193.74 336.80 192.25 338.76 190.56 340.55 C 192.25 341.71 194.61 342.59 195.07 344.85 C 195.65 347.71 195.24 350.75 196.32 353.53 L 197.08 354.14 C 193.45 355.85 190.35 358.43 187.09 360.73 C 187.14 361.25 187.25 362.31 187.30 362.84 C 186.97 363.08 186.32 363.55 185.99 363.79 C 185.45 366.01 184.34 368.01 182.96 369.82 C 181.65 369.68 180.33 369.65 179.02 369.65 C 178.11 369.66 177.20 369.69 176.30 369.73 C 178.34 368.14 180.17 366.28 181.38 363.97 C 184.67 361.71 187.73 359.15 190.97 356.81 C 193.47 355.17 193.91 351.68 193.18 348.98 C 192.15 345.98 189.81 343.70 187.96 341.20 C 185.77 342.00 183.60 342.81 181.38 343.53 L 180.83 343.33 Z" />
</g>
<g id="#d8aeadff">
<path fill="#d8aead" opacity="1.00" d=" M 491.15 333.20 C 493.25 331.83 496.10 332.88 497.22 335.00 C 495.89 337.35 491.07 336.49 490.19 334.16 C 490.43 333.92 490.91 333.44 491.15 333.20 Z" />
</g>
<g id="#efb3b4ff">
<path fill="#efb3b4" opacity="1.00" d=" M 181.38 343.53 C 183.60 342.81 185.77 342.00 187.96 341.20 C 189.81 343.70 192.15 345.98 193.18 348.98 C 193.91 351.68 193.47 355.17 190.97 356.81 C 187.73 359.15 184.67 361.71 181.38 363.97 C 179.05 363.89 176.74 363.73 174.42 363.58 C 174.02 362.37 173.63 361.16 173.25 359.96 C 175.92 359.73 178.73 360.08 181.31 359.26 C 183.37 356.58 183.73 353.05 184.66 349.90 C 186.12 349.63 187.57 349.35 189.02 349.06 C 187.25 346.30 184.30 344.79 181.38 343.53 Z" />
</g>
<g id="#eaa09eff">
<path fill="#eaa09e" opacity="1.00" d=" M 519.06 341.19 C 522.33 344.81 526.31 347.67 529.87 350.99 C 526.73 352.34 523.24 352.07 519.98 352.98 C 524.64 354.25 530.25 353.43 534.01 357.00 C 535.85 359.50 533.10 362.16 532.25 364.51 C 534.54 363.43 536.75 362.19 538.85 360.77 C 543.19 366.38 547.19 372.23 551.27 378.03 C 551.11 382.52 554.04 387.69 550.44 391.44 C 546.26 386.25 542.74 380.24 536.95 376.64 C 536.83 376.54 536.57 376.34 536.44 376.23 C 533.40 371.65 528.69 368.69 524.96 364.76 C 526.25 364.07 527.56 363.39 528.86 362.71 C 527.10 361.55 525.35 360.38 523.62 359.19 C 523.94 357.68 524.27 356.18 524.60 354.68 C 522.41 355.02 519.80 354.76 518.34 356.77 C 518.17 355.57 518.03 354.37 517.86 353.19 C 519.12 352.34 520.38 351.49 521.65 350.64 C 520.80 350.18 519.95 349.73 519.11 349.28 C 520.38 349.04 521.65 348.81 522.94 348.59 C 521.18 346.39 519.27 344.12 519.06 341.19 Z" />
</g>
<g id="#e99b9cff">
<path fill="#e99b9c" opacity="1.00" d=" M 172.12 351.30 C 175.19 348.83 177.85 345.91 180.83 343.33 L 181.38 343.53 C 184.30 344.79 187.25 346.30 189.02 349.06 C 187.57 349.35 186.12 349.63 184.66 349.90 C 183.73 353.05 183.37 356.58 181.31 359.26 C 178.73 360.08 175.92 359.73 173.25 359.96 C 173.63 361.16 174.02 362.37 174.42 363.58 C 176.74 363.73 179.05 363.89 181.38 363.97 C 180.17 366.28 178.34 368.14 176.30 369.73 C 172.05 373.86 167.31 377.77 164.58 383.14 C 161.98 386.11 159.49 389.30 158.23 393.09 C 157.78 392.52 157.38 391.92 157.01 391.31 C 157.41 388.07 158.11 384.87 158.52 381.63 C 159.06 377.35 158.09 373.10 157.62 368.87 C 159.96 365.26 162.58 361.83 165.21 358.43 C 166.35 360.07 167.36 361.82 168.77 363.25 C 170.12 363.71 171.55 363.84 172.95 364.10 C 171.47 361.79 169.48 359.68 168.80 356.96 C 169.26 354.77 170.88 353.07 172.12 351.30 M 159.27 371.44 C 159.38 371.93 159.60 372.89 159.71 373.37 C 163.12 373.51 166.52 373.56 169.93 373.57 C 166.48 372.42 163.00 369.47 159.27 371.44 Z" />
</g>
<g id="#cf9593ff">
<path fill="#cf9593" opacity="1.00" d=" M 511.72 348.07 C 513.16 348.31 514.64 348.49 516.06 348.91 C 516.92 350.20 517.39 351.71 517.86 353.19 C 518.03 354.37 518.17 355.57 518.34 356.77 C 518.39 360.26 521.47 362.24 523.98 364.05 C 523.07 364.32 522.18 364.62 521.30 364.96 C 519.53 363.56 517.74 362.18 515.94 360.83 C 514.87 362.11 513.79 363.38 512.72 364.67 C 512.00 364.73 510.54 364.85 509.82 364.91 C 511.34 362.91 513.82 361.08 513.39 358.25 C 513.67 357.93 514.23 357.29 514.51 356.97 C 515.46 357.31 516.42 357.65 517.39 357.97 C 516.32 354.25 513.94 351.17 511.72 348.07 Z" />
</g>
<g id="#cf8183ff">
<path fill="#cf8183" opacity="1.00" d=" M 529.87 350.99 C 533.12 354.00 536.29 357.13 538.85 360.77 C 536.75 362.19 534.54 363.43 532.25 364.51 C 533.10 362.16 535.85 359.50 534.01 357.00 C 530.25 353.43 524.64 354.25 519.98 352.98 C 523.24 352.07 526.73 352.34 529.87 350.99 Z" />
</g>
<g id="#c73435ff">
<path fill="#c73435" opacity="1.00" d=" M 160.48 361.48 C 163.55 358.00 166.01 353.65 170.46 351.75 C 168.70 353.97 166.98 356.21 165.21 358.43 C 162.58 361.83 159.96 365.26 157.62 368.87 C 155.11 373.05 153.07 377.49 150.63 381.71 C 150.58 381.17 150.50 380.07 150.46 379.53 C 152.98 373.11 155.92 366.73 160.48 361.48 Z" />
</g>
<g id="#d07b79ff">
<path fill="#d07b79" opacity="1.00" d=" M 170.46 351.75 L 170.46 351.75 L 172.12 351.30 C 170.88 353.07 169.26 354.77 168.80 356.96 C 169.48 359.68 171.47 361.79 172.95 364.10 C 171.55 363.84 170.12 363.71 168.77 363.25 C 167.36 361.82 166.35 360.07 165.21 358.43 C 166.98 356.21 168.70 353.97 170.46 351.75 Z" />
</g>
<g id="#f4c4c1ff">
<path fill="#f4c4c1" opacity="1.00" d=" M 518.34 356.77 C 519.80 354.76 522.41 355.02 524.60 354.68 C 524.27 356.18 523.94 357.68 523.62 359.19 C 525.35 360.38 527.10 361.55 528.86 362.71 C 527.56 363.39 526.25 364.07 524.96 364.76 L 523.98 364.05 C 521.47 362.24 518.39 360.26 518.34 356.77 Z" />
</g>
<g id="#edbebdff">
<path fill="#edbebd" opacity="1.00" d=" M 488.67 370.68 C 496.86 366.45 505.33 362.76 513.39 358.25 C 513.82 361.08 511.34 362.91 509.82 364.91 C 510.54 364.85 512.00 364.73 512.72 364.67 C 513.79 363.38 514.87 362.11 515.94 360.83 C 517.74 362.18 519.53 363.56 521.30 364.96 C 518.96 366.42 516.69 367.98 514.29 369.35 C 511.84 367.30 509.07 365.52 505.76 365.51 C 507.04 366.92 508.37 368.30 509.72 369.66 C 506.49 371.07 502.18 372.36 502.85 376.85 C 502.01 377.31 501.17 377.77 500.35 378.23 C 499.82 378.24 498.78 378.26 498.25 378.27 C 499.15 376.51 500.07 374.77 500.99 373.02 C 498.40 372.08 495.67 371.64 492.93 371.95 C 494.32 372.91 495.74 373.86 497.15 374.81 C 493.03 378.07 487.71 378.33 482.68 378.33 C 482.63 376.58 482.60 374.84 482.57 373.09 C 484.65 372.42 486.71 371.67 488.67 370.68 Z" />
<path fill="#edbebd" opacity="1.00" d=" M 185.99 363.79 C 186.32 363.55 186.97 363.08 187.30 362.84 C 195.03 366.25 202.28 370.78 210.33 373.41 C 209.87 375.03 209.42 376.66 208.97 378.29 C 204.17 378.23 198.63 378.57 195.14 374.62 C 196.15 373.61 197.16 372.61 198.17 371.60 C 195.69 371.74 190.21 371.86 191.99 375.76 C 194.63 378.30 198.40 379.06 201.86 379.89 C 201.83 381.06 201.79 382.24 201.77 383.43 C 197.48 381.21 193.30 378.82 189.12 376.41 C 189.44 372.57 185.89 371.06 182.96 369.82 C 184.34 368.01 185.45 366.01 185.99 363.79 Z" />
</g>
<g id="#d44443ff">
<path fill="#d44443" opacity="1.00" d=" M 521.30 364.96 C 522.18 364.62 523.07 364.32 523.98 364.05 L 524.96 364.76 C 528.69 368.69 533.40 371.65 536.44 376.23 C 531.60 373.26 527.69 369.07 523.68 365.11 C 518.25 368.01 513.31 371.77 507.58 374.10 C 509.70 372.36 511.90 370.70 514.29 369.35 C 516.69 367.98 518.96 366.42 521.30 364.96 Z" />
</g>
<g id="#000000ff">
<path fill="#000000" opacity="1.00" d=" M 299.66 366.43 C 300.74 366.39 301.82 366.35 302.91 366.31 C 302.95 367.55 302.99 368.80 303.04 370.05 C 301.86 369.99 300.69 369.93 299.52 369.87 C 299.56 368.72 299.61 367.57 299.66 366.43 Z" />
<path fill="#000000" opacity="1.00" d=" M 336.09 370.66 C 338.15 370.91 340.75 370.37 341.91 372.60 C 346.60 372.70 351.29 372.62 355.98 372.58 C 357.11 374.08 358.25 375.57 359.40 377.06 C 359.89 381.15 359.09 385.18 356.07 388.14 C 348.02 387.49 339.84 388.90 331.90 387.24 C 332.08 388.58 332.25 389.92 332.44 391.27 C 331.35 392.82 330.27 394.37 329.19 395.93 C 326.16 395.92 323.13 395.94 320.11 395.75 C 319.91 395.36 319.52 394.59 319.32 394.21 C 319.06 393.58 318.54 392.34 318.28 391.72 C 321.33 391.95 324.39 392.02 327.45 391.99 C 327.41 389.86 327.37 387.74 327.33 385.62 C 326.56 386.48 325.80 387.35 325.05 388.24 C 322.31 388.23 319.88 387.11 317.89 385.30 C 318.01 382.12 318.01 378.95 317.88 375.79 C 319.21 374.76 320.38 373.41 322.01 372.84 C 324.48 372.15 325.92 374.70 327.63 375.98 C 327.62 374.93 327.63 373.88 327.64 372.84 C 329.22 372.82 330.81 372.81 332.40 372.80 C 332.16 376.32 332.12 379.86 332.16 383.39 C 333.58 383.21 334.99 383.02 336.41 382.85 C 336.47 378.78 336.44 374.71 336.09 370.66 M 323.01 377.35 C 323.00 379.56 323.00 381.78 323.00 384.00 C 324.46 383.99 325.93 383.99 327.40 383.99 C 327.40 381.78 327.39 379.58 327.39 377.38 C 325.93 377.36 324.47 377.35 323.01 377.35 M 341.37 377.61 C 341.36 379.39 341.36 381.19 341.35 382.98 C 345.81 383.01 350.28 383.04 354.74 382.94 C 354.59 381.15 354.45 379.37 354.30 377.60 C 349.99 377.60 345.68 377.60 341.37 377.61 Z" />
<path fill="#000000" opacity="1.00" d=" M 291.80 372.57 C 293.59 372.61 295.38 372.63 297.18 372.65 C 297.17 376.10 297.16 379.54 297.16 382.99 C 301.90 383.00 306.64 383.00 311.39 382.99 C 311.41 379.51 311.68 375.98 310.81 372.58 C 312.59 372.61 314.38 372.63 316.18 372.65 C 316.07 376.76 316.37 380.89 316.06 385.00 C 315.33 386.49 313.98 388.16 312.12 387.98 C 306.37 388.09 300.61 387.92 294.86 388.03 C 293.90 387.09 292.94 386.15 291.99 385.21 C 292.55 381.03 292.79 376.72 291.80 372.57 Z" />
</g>
<g id="#190101ff">
<path fill="#190101" opacity="1.00" d=" M 304.96 366.25 C 305.74 366.26 307.31 366.29 308.09 366.31 C 308.13 367.53 308.18 368.77 308.23 370.00 C 307.36 370.00 305.62 370.00 304.75 370.00 C 304.82 368.75 304.89 367.50 304.96 366.25 Z" />
</g>
<g id="#d29999ff">
<path fill="#d29999" opacity="1.00" d=" M 505.76 365.51 C 509.07 365.52 511.84 367.30 514.29 369.35 C 511.90 370.70 509.70 372.36 507.58 374.10 C 506.02 375.05 504.44 375.96 502.85 376.85 C 502.18 372.36 506.49 371.07 509.72 369.66 C 508.37 368.30 507.04 366.92 505.76 365.51 Z" />
</g>
<g id="#db787aff">
<path fill="#db787a" opacity="1.00" d=" M 150.63 381.71 C 153.07 377.49 155.11 373.05 157.62 368.87 C 158.09 373.10 159.06 377.35 158.52 381.63 C 158.11 384.87 157.41 388.07 157.01 391.31 C 156.79 390.67 156.36 389.38 156.14 388.74 C 156.26 386.84 154.97 385.41 153.43 384.53 C 152.37 383.71 151.53 382.67 150.63 381.71 Z" />
</g>
<g id="#d39a99ff">
<path fill="#d39a99" opacity="1.00" d=" M 179.02 369.65 C 180.33 369.65 181.65 369.68 182.96 369.82 C 185.89 371.06 189.44 372.57 189.12 376.41 C 185.56 374.46 182.17 372.21 179.02 369.65 Z" />
</g>
<g id="#bf6c70ff">
<path fill="#bf6c70" opacity="1.00" d=" M 159.27 371.44 C 163.00 369.47 166.48 372.42 169.93 373.57 C 166.52 373.56 163.12 373.51 159.71 373.37 C 159.60 372.89 159.38 371.93 159.27 371.44 Z" />
</g>
<g id="#cc4a49ff">
<path fill="#cc4a49" opacity="1.00" d=" M 164.58 383.14 C 167.31 377.77 172.05 373.86 176.30 369.73 C 177.20 369.69 178.11 369.66 179.02 369.65 C 182.17 372.21 185.56 374.46 189.12 376.41 C 193.30 378.82 197.48 381.21 201.77 383.43 C 204.84 384.95 208.02 386.26 211.19 387.57 C 212.83 388.24 214.49 388.88 216.13 389.56 C 218.50 390.52 220.80 391.63 223.15 392.63 C 224.54 393.12 225.96 393.53 227.36 393.99 C 232.79 395.97 238.37 397.53 243.71 399.73 C 245.04 400.28 246.36 400.85 247.71 401.39 C 253.63 403.41 259.92 404.30 265.58 407.10 C 267.13 407.78 268.66 408.49 270.21 409.20 C 267.20 408.96 264.19 408.48 261.44 407.19 C 257.10 405.17 252.35 404.38 247.85 402.83 C 233.68 397.12 218.81 393.09 205.18 386.07 C 195.49 381.81 186.19 376.55 177.69 370.23 C 172.77 373.97 169.53 379.42 164.58 383.14 Z" />
</g>
<g id="#d3aaaeff">
<path fill="#d3aaae" opacity="1.00" d=" M 191.99 375.76 C 190.21 371.86 195.69 371.74 198.17 371.60 C 197.16 372.61 196.15 373.61 195.14 374.62 C 198.63 378.57 204.17 378.23 208.97 378.29 C 209.42 376.66 209.87 375.03 210.33 373.41 C 211.63 373.81 212.92 374.22 214.23 374.61 C 213.54 374.70 212.16 374.87 211.47 374.96 C 212.39 378.20 214.08 381.15 216.76 383.26 C 221.93 381.90 227.79 382.41 232.03 385.91 C 234.59 388.33 238.30 387.77 241.51 388.35 C 238.36 390.11 234.60 389.23 231.27 390.29 C 229.46 390.86 228.55 392.67 227.36 393.99 C 225.96 393.53 224.54 393.12 223.15 392.63 C 226.10 391.39 228.87 389.77 231.48 387.92 C 228.26 384.31 222.52 382.31 218.24 385.27 C 216.55 386.02 216.61 388.05 216.13 389.56 C 214.49 388.88 212.83 388.24 211.19 387.57 C 212.44 386.46 213.69 385.34 214.94 384.23 C 213.24 383.04 211.66 381.56 209.67 380.87 C 207.10 380.33 204.45 380.31 201.86 379.89 C 198.40 379.06 194.63 378.30 191.99 375.76 Z" />
</g>
<g id="#d5acafff">
<path fill="#d5acaf" opacity="1.00" d=" M 492.93 371.95 C 495.67 371.64 498.40 372.08 500.99 373.02 C 500.07 374.77 499.15 376.51 498.25 378.27 C 498.78 378.26 499.82 378.24 500.35 378.23 C 497.39 380.00 494.44 381.81 491.31 383.27 C 491.14 382.49 490.79 380.94 490.62 380.17 C 485.72 379.75 480.81 380.61 476.97 383.86 C 478.20 385.09 479.43 386.31 480.69 387.53 C 478.75 388.29 476.80 389.03 474.89 389.84 C 475.19 388.86 475.49 387.89 475.81 386.92 C 473.51 385.29 470.98 383.40 467.98 383.89 C 465.00 384.04 462.59 385.91 460.50 387.85 C 463.09 389.75 465.87 391.39 468.87 392.56 C 467.47 393.03 466.05 393.42 464.65 393.87 C 461.70 388.67 455.34 389.98 450.39 388.97 C 452.74 387.76 455.40 387.78 457.97 387.53 C 458.28 387.14 458.89 386.37 459.19 385.99 C 463.13 382.80 468.35 382.17 473.23 382.70 C 477.63 383.39 479.20 378.27 480.40 375.04 C 479.49 375.01 477.69 374.93 476.79 374.90 C 478.71 374.30 480.64 373.69 482.57 373.09 C 482.60 374.84 482.63 376.58 482.68 378.33 C 487.71 378.33 493.03 378.07 497.15 374.81 C 495.74 373.86 494.32 372.91 492.93 371.95 Z" />
</g>
<g id="#e9cfd0ff">
<path fill="#e9cfd0" opacity="1.00" d=" M 211.47 374.96 C 212.16 374.87 213.54 374.70 214.23 374.61 C 222.37 376.98 229.90 381.28 238.41 382.42 L 237.55 382.51 C 235.92 382.70 234.31 383.03 232.70 383.34 C 235.35 387.93 241.93 387.95 245.77 384.87 C 246.59 385.10 247.41 385.34 248.24 385.57 C 247.88 386.91 247.52 388.25 247.16 389.60 C 250.57 388.86 254.25 388.61 257.41 390.37 C 260.24 391.45 261.31 394.50 262.76 396.89 C 263.39 395.13 264.04 393.38 264.70 391.64 C 265.16 391.48 266.08 391.15 266.54 390.99 L 266.45 391.43 C 265.41 395.01 263.89 398.43 262.57 401.91 C 262.75 402.23 263.12 402.87 263.31 403.19 C 264.07 404.49 264.84 405.79 265.58 407.10 C 259.92 404.30 253.63 403.41 247.71 401.39 C 245.75 396.65 245.34 391.52 245.54 386.45 C 244.51 387.62 242.57 388.41 242.55 390.18 C 242.61 393.39 243.33 396.55 243.71 399.73 C 238.37 397.53 232.79 395.97 227.36 393.99 C 228.55 392.67 229.46 390.86 231.27 390.29 C 234.60 389.23 238.36 390.11 241.51 388.35 C 238.30 387.77 234.59 388.33 232.03 385.91 C 227.79 382.41 221.93 381.90 216.76 383.26 C 214.08 381.15 212.39 378.20 211.47 374.96 Z" />
</g>
<g id="#f0cfd5ff">
<path fill="#f0cfd5" opacity="1.00" d=" M 455.88 382.01 C 463.19 380.64 469.76 377.10 476.79 374.90 C 477.69 374.93 479.49 375.01 480.40 375.04 C 479.20 378.27 477.63 383.39 473.23 382.70 C 468.35 382.17 463.13 382.80 459.19 385.99 C 457.76 386.35 456.31 386.64 454.86 386.89 C 456.22 385.68 457.58 384.47 458.95 383.26 C 457.51 382.95 456.08 382.65 454.66 382.38 L 455.88 382.01 Z" />
</g>
<g id="#d75857fb">
<path fill="#d75857" opacity="1.00" d=" M 536.95 376.64 C 542.74 380.24 546.26 386.25 550.44 391.44 C 554.04 387.69 551.11 382.52 551.27 378.03 C 553.22 380.29 554.59 382.95 555.55 385.77 C 553.89 388.37 552.30 391.02 550.48 393.51 C 546.30 387.62 541.51 382.23 536.95 376.64 Z" />
</g>
<g id="#efc7c9ff">
<path fill="#efc7c9" opacity="1.00" d=" M 201.77 383.43 C 201.79 382.24 201.83 381.06 201.86 379.89 C 204.45 380.31 207.10 380.33 209.67 380.87 C 211.66 381.56 213.24 383.04 214.94 384.23 C 213.69 385.34 212.44 386.46 211.19 387.57 C 208.02 386.26 204.84 384.95 201.77 383.43 Z" />
</g>
<g id="#f0c6c9ff">
<path fill="#f0c6c9" opacity="1.00" d=" M 476.97 383.86 C 480.81 380.61 485.72 379.75 490.62 380.17 C 490.79 380.94 491.14 382.49 491.31 383.27 C 490.00 383.87 488.69 384.46 487.39 385.06 C 485.13 385.82 482.89 386.62 480.69 387.53 C 479.43 386.31 478.20 385.09 476.97 383.86 Z" />
</g>
<g id="#ce6563ff">
<path fill="#ce6563" opacity="1.00" d=" M 238.41 382.42 C 244.07 382.76 249.26 385.25 254.76 386.39 C 276.28 390.90 298.00 394.67 319.99 395.89 L 319.32 394.21 C 319.52 394.59 319.91 395.36 320.11 395.75 C 323.13 395.94 326.16 395.92 329.19 395.93 C 344.13 396.33 359.08 395.98 374.02 395.70 C 387.80 394.78 401.56 393.30 415.12 390.66 C 425.39 388.58 435.87 387.26 445.86 383.98 C 449.10 382.89 452.49 382.35 455.88 382.01 L 454.66 382.38 C 451.87 383.22 449.09 384.06 446.30 384.86 C 445.42 385.11 444.54 385.36 443.66 385.62 C 432.57 388.63 421.17 390.35 409.92 392.62 C 407.17 393.03 404.43 393.44 401.70 393.90 C 396.57 394.69 391.40 395.17 386.23 395.65 C 366.23 397.32 346.14 397.63 326.08 396.92 C 319.60 396.75 313.16 396.13 306.70 395.69 C 306.49 395.68 306.06 395.66 305.85 395.65 C 300.67 395.18 295.48 394.68 290.33 393.90 C 287.76 393.47 285.19 393.08 282.61 392.69 C 271.15 390.37 259.56 388.57 248.24 385.57 C 247.41 385.34 246.59 385.10 245.77 384.87 C 243.03 384.06 240.31 383.21 237.55 382.51 L 238.41 382.42 Z" />
</g>
<g id="#f4e4e6ff">
<path fill="#f4e4e6" opacity="1.00" d=" M 232.70 383.34 C 234.31 383.03 235.92 382.70 237.55 382.51 C 240.31 383.21 243.03 384.06 245.77 384.87 C 241.93 387.95 235.35 387.93 232.70 383.34 Z" />
</g>
<g id="#f6e5e7ff">
<path fill="#f6e5e7" opacity="1.00" d=" M 446.30 384.86 C 449.09 384.06 451.87 383.22 454.66 382.38 C 456.08 382.65 457.51 382.95 458.95 383.26 C 457.58 384.47 456.22 385.68 454.86 386.89 C 451.85 387.13 448.75 386.79 446.30 384.86 Z" />
</g>
<g id="#ecc8c8ff">
<path fill="#ecc8c8" opacity="1.00" d=" M 218.24 385.27 C 222.52 382.31 228.26 384.31 231.48 387.92 C 228.87 389.77 226.10 391.39 223.15 392.63 C 220.80 391.63 218.50 390.52 216.13 389.56 C 216.61 388.05 216.55 386.02 218.24 385.27 Z" />
<path fill="#ecc8c8" opacity="1.00" d=" M 460.50 387.85 C 462.59 385.91 465.00 384.04 467.98 383.89 C 470.98 383.40 473.51 385.29 475.81 386.92 C 475.49 387.89 475.19 388.86 474.89 389.84 C 472.86 390.70 470.88 391.68 468.87 392.56 C 465.87 391.39 463.09 389.75 460.50 387.85 Z" />
</g>
<g id="#e9cfcfff">
<path fill="#e9cfcf" opacity="1.00" d=" M 443.66 385.62 C 444.54 385.36 445.42 385.11 446.30 384.86 C 448.75 386.79 451.85 387.13 454.86 386.89 C 456.31 386.64 457.76 386.35 459.19 385.99 C 458.89 386.37 458.28 387.14 457.97 387.53 C 455.40 387.78 452.74 387.76 450.39 388.97 C 455.34 389.98 461.70 388.67 464.65 393.87 C 459.19 395.80 453.63 397.48 448.24 399.61 C 448.68 396.29 449.75 392.98 449.47 389.62 C 448.72 388.34 447.69 387.25 446.78 386.13 C 446.31 391.03 446.09 395.97 445.28 400.84 C 438.97 403.39 432.01 404.00 425.97 407.33 C 426.88 406.01 427.81 404.71 428.66 403.36 C 428.86 402.98 429.27 402.23 429.47 401.86 C 427.88 398.71 426.80 395.35 426.61 391.82 C 427.21 392.12 428.43 392.72 429.03 393.02 C 428.86 394.05 428.69 395.08 428.52 396.12 C 430.21 393.38 432.12 390.47 435.33 389.39 C 438.32 387.90 441.64 388.87 444.71 389.51 C 444.35 388.21 444.00 386.91 443.66 385.62 Z" />
</g>
<g id="#cb5959ff">
<path fill="#cb5959" opacity="1.00" d=" M 480.69 387.53 C 482.89 386.62 485.13 385.82 487.39 385.06 C 474.61 392.83 459.82 396.27 446.06 401.84 C 440.99 404.01 435.45 404.74 430.42 406.99 C 423.84 409.85 416.65 410.61 409.77 412.43 C 399.49 415.06 388.98 416.84 378.40 417.57 L 377.01 417.17 C 377.43 417.08 378.28 416.90 378.70 416.81 C 383.48 415.77 388.35 415.26 393.18 414.57 C 394.81 414.32 396.45 414.05 398.07 413.74 C 407.33 411.45 416.82 410.00 425.97 407.33 C 432.01 404.00 438.97 403.39 445.28 400.84 C 446.26 400.42 447.24 400.01 448.24 399.61 C 453.63 397.48 459.19 395.80 464.65 393.87 C 466.05 393.42 467.47 393.03 468.87 392.56 C 470.88 391.68 472.86 390.70 474.89 389.84 C 476.80 389.03 478.75 388.29 480.69 387.53 Z" />
</g>
<g id="#f1e7e3ff">
<path fill="#f1e7e3" opacity="1.00" d=" M 248.24 385.57 C 259.56 388.57 271.15 390.37 282.61 392.69 C 282.22 393.91 281.83 395.13 281.44 396.36 C 277.12 396.61 272.80 396.91 268.48 396.71 C 267.78 394.95 267.08 393.20 266.45 391.43 L 266.54 390.99 C 266.08 391.15 265.16 391.48 264.70 391.64 C 264.04 393.38 263.39 395.13 262.76 396.89 C 261.31 394.50 260.24 391.45 257.41 390.37 C 254.25 388.61 250.57 388.86 247.16 389.60 C 247.52 388.25 247.88 386.91 248.24 385.57 Z" />
</g>
<g id="#f6f3efff">
<path fill="#f6f3ef" opacity="1.00" d=" M 409.92 392.62 C 421.17 390.35 432.57 388.63 443.66 385.62 C 444.00 386.91 444.35 388.21 444.71 389.51 C 441.64 388.87 438.32 387.90 435.33 389.39 C 432.12 390.47 430.21 393.38 428.52 396.12 C 428.69 395.08 428.86 394.05 429.03 393.02 C 428.43 392.72 427.21 392.12 426.61 391.82 L 425.90 391.49 C 424.26 393.15 422.73 394.89 421.16 396.61 C 420.30 395.44 419.45 394.27 418.60 393.10 C 417.07 394.15 415.53 395.19 414.00 396.23 C 413.23 396.25 411.68 396.29 410.91 396.30 C 410.57 395.07 410.24 393.85 409.92 392.62 Z" />
</g>
<g id="#d4b8b8ff">
<path fill="#d4b8b8" opacity="1.00" d=" M 242.55 390.18 C 242.57 388.41 244.51 387.62 245.54 386.45 C 245.34 391.52 245.75 396.65 247.71 401.39 C 246.36 400.85 245.04 400.28 243.71 399.73 C 243.33 396.55 242.61 393.39 242.55 390.18 Z" />
</g>
<g id="#d4b9baff">
<path fill="#d4b9ba" opacity="1.00" d=" M 445.28 400.84 C 446.09 395.97 446.31 391.03 446.78 386.13 C 447.69 387.25 448.72 388.34 449.47 389.62 C 449.75 392.98 448.68 396.29 448.24 399.61 C 447.24 400.01 446.26 400.42 445.28 400.84 Z" />
</g>
<g id="#d1c1c2ff">
<path fill="#d1c1c2" opacity="1.00" d=" M 262.57 401.91 C 263.89 398.43 265.41 395.01 266.45 391.43 C 267.08 393.20 267.78 394.95 268.48 396.71 C 272.80 396.91 277.12 396.61 281.44 396.36 C 281.95 396.35 282.98 396.34 283.49 396.33 C 281.93 397.66 280.11 398.63 278.25 399.46 C 280.71 401.80 283.30 404.74 286.97 404.80 C 290.70 404.41 293.25 401.24 295.05 398.24 C 295.55 398.16 296.53 397.99 297.03 397.91 L 297.88 397.95 C 299.77 398.36 301.61 398.96 303.46 399.57 C 301.47 400.18 299.42 400.53 297.36 400.70 C 296.34 401.94 295.34 403.19 294.34 404.44 C 295.74 406.09 297.13 407.75 298.53 409.41 C 301.30 409.24 304.09 409.17 306.88 409.19 C 308.04 407.55 309.20 405.92 310.37 404.29 C 309.05 403.37 307.62 402.57 306.55 401.37 C 306.19 400.10 306.49 398.76 306.55 397.48 C 308.14 399.21 309.70 401.06 311.76 402.27 C 315.49 402.68 319.35 402.08 322.96 403.48 C 324.46 402.02 325.95 400.54 327.42 399.05 C 327.80 399.98 328.16 400.93 328.51 401.89 C 327.05 402.72 325.61 403.57 324.15 404.41 C 325.36 405.94 326.58 407.47 327.81 408.99 C 330.27 409.20 332.73 409.43 335.19 409.69 C 336.73 408.20 338.26 406.69 339.79 405.18 C 339.55 403.75 339.32 402.33 339.10 400.91 C 341.93 402.47 344.56 404.48 347.64 405.55 C 351.63 405.52 354.36 401.64 358.32 401.30 C 357.73 402.67 357.13 404.05 356.53 405.42 C 358.03 406.98 359.54 408.55 361.03 410.14 C 364.80 408.79 367.10 405.35 370.43 403.35 C 373.36 401.59 376.87 402.66 380.03 402.97 C 382.06 401.25 384.08 399.52 386.20 397.90 C 385.98 400.64 384.38 402.77 382.30 404.44 C 383.17 406.01 384.05 407.58 384.95 409.14 C 387.73 409.11 390.52 409.19 393.29 409.42 C 394.70 407.72 396.16 406.06 397.66 404.44 C 396.66 403.17 395.66 401.91 394.64 400.67 C 392.31 400.61 389.98 400.28 387.77 399.52 C 389.88 398.91 392.00 398.31 394.18 397.96 L 395.02 397.92 C 395.51 397.99 396.50 398.12 396.99 398.18 C 398.63 401.31 401.28 404.37 404.99 404.81 C 408.62 404.78 411.19 401.85 413.67 399.59 C 411.96 398.52 410.27 397.45 408.59 396.37 C 409.17 396.35 410.33 396.32 410.91 396.30 C 411.68 396.29 413.23 396.25 414.00 396.23 C 415.53 395.19 417.07 394.15 418.60 393.10 C 419.45 394.27 420.30 395.44 421.16 396.61 C 422.73 394.89 424.26 393.15 425.90 391.49 L 426.61 391.82 C 426.80 395.35 427.88 398.71 429.47 401.86 C 429.27 402.23 428.86 402.98 428.66 403.36 C 426.94 402.39 425.27 401.35 423.66 400.22 C 421.06 400.19 418.47 400.26 415.89 400.43 C 413.38 403.59 410.17 406.79 405.99 407.34 C 403.82 407.00 401.80 406.09 399.76 405.31 C 398.35 407.67 393.97 411.85 398.07 413.74 C 396.45 414.05 394.81 414.32 393.18 414.57 C 393.34 413.48 393.51 412.40 393.67 411.33 C 390.14 411.38 386.53 411.17 383.11 412.19 C 380.93 412.85 379.98 415.16 378.70 416.81 C 378.28 416.90 377.43 417.08 377.01 417.17 C 376.72 417.13 376.15 417.04 375.86 417.00 C 376.96 413.49 379.73 411.20 383.00 409.77 C 380.53 407.69 378.12 405.27 374.96 404.31 C 371.72 404.15 369.53 406.95 367.45 408.99 C 370.47 411.22 373.07 413.94 375.33 416.92 C 374.10 416.88 372.86 416.86 371.64 416.85 C 370.42 413.17 366.32 412.14 362.90 411.79 C 360.82 411.53 359.22 414.16 360.11 415.92 C 362.70 415.79 365.49 415.01 367.71 416.84 C 364.27 416.93 360.83 417.02 357.38 417.10 C 357.32 413.97 357.82 410.17 354.98 408.03 C 353.57 406.42 351.33 407.35 349.51 407.29 C 347.20 407.57 344.97 406.66 342.68 406.70 C 339.06 408.95 337.38 413.27 337.38 417.41 C 336.76 417.38 335.52 417.34 334.91 417.32 C 334.84 415.49 334.79 413.67 334.74 411.85 C 329.71 411.38 322.29 411.12 320.23 416.90 C 319.04 416.92 317.85 416.95 316.67 416.97 C 318.89 413.95 321.48 411.22 324.56 409.06 C 322.51 406.95 320.31 404.13 317.05 404.32 C 313.83 405.17 311.46 407.71 309.01 409.81 C 312.23 411.27 315.17 413.38 316.11 416.99 C 315.48 416.97 314.23 416.95 313.60 416.93 C 313.54 416.92 313.40 416.88 313.34 416.87 C 312.08 415.16 311.11 412.80 308.86 412.20 C 305.42 411.19 301.79 411.40 298.25 411.32 C 298.44 412.39 298.64 413.46 298.84 414.54 C 296.46 414.18 294.10 413.71 291.75 413.19 C 293.22 413.13 294.70 413.06 296.18 412.96 C 295.57 410.07 294.20 407.44 292.25 405.23 C 289.91 406.04 287.58 407.38 285.04 407.22 C 281.34 406.17 278.41 403.49 276.10 400.52 C 273.53 400.27 270.96 400.09 268.39 400.02 C 266.88 401.34 265.22 402.52 263.31 403.19 C 263.12 402.87 262.75 402.23 262.57 401.91 Z" />
</g>
<g id="#ecdddbff">
<path fill="#ecdddb" opacity="1.00" d=" M 282.61 392.69 C 285.19 393.08 287.76 393.47 290.33 393.90 C 292.10 395.92 294.50 397.13 297.03 397.91 C 296.53 397.99 295.55 398.16 295.05 398.24 C 293.25 401.24 290.70 404.41 286.97 404.80 C 283.30 404.74 280.71 401.80 278.25 399.46 C 280.11 398.63 281.93 397.66 283.49 396.33 C 282.98 396.34 281.95 396.35 281.44 396.36 C 281.83 395.13 282.22 393.91 282.61 392.69 Z" />
</g>
<g id="#ecdedbff">
<path fill="#ecdedb" opacity="1.00" d=" M 401.70 393.90 C 404.43 393.44 407.17 393.03 409.92 392.62 C 410.24 393.85 410.57 395.07 410.91 396.30 C 410.33 396.32 409.17 396.35 408.59 396.37 C 410.27 397.45 411.96 398.52 413.67 399.59 C 411.19 401.85 408.62 404.78 404.99 404.81 C 401.28 404.37 398.63 401.31 396.99 398.18 C 396.50 398.12 395.51 397.99 395.02 397.92 C 397.53 397.12 399.87 395.82 401.70 393.90 Z" />
</g>
<g id="#fdfdf8ff">
<path fill="#fdfdf8" opacity="1.00" d=" M 290.33 393.90 C 295.48 394.68 300.67 395.18 305.85 395.65 C 303.90 398.12 300.70 397.96 297.88 397.95 L 297.03 397.91 C 294.50 397.13 292.10 395.92 290.33 393.90 Z" />
<path fill="#fdfdf8" opacity="1.00" d=" M 386.23 395.65 C 391.40 395.17 396.57 394.69 401.70 393.90 C 399.87 395.82 397.53 397.12 395.02 397.92 L 394.18 397.96 C 391.38 397.92 388.11 398.20 386.23 395.65 Z" />
</g>
<g id="#f0dedeff">
<path fill="#f0dede" opacity="1.00" d=" M 305.85 395.65 C 306.06 395.66 306.49 395.68 306.70 395.69 C 306.66 396.14 306.59 397.03 306.55 397.48 C 306.49 398.76 306.19 400.10 306.55 401.37 C 307.62 402.57 309.05 403.37 310.37 404.29 C 309.20 405.92 308.04 407.55 306.88 409.19 C 304.09 409.17 301.30 409.24 298.53 409.41 C 297.13 407.75 295.74 406.09 294.34 404.44 C 295.34 403.19 296.34 401.94 297.36 400.70 C 299.42 400.53 301.47 400.18 303.46 399.57 C 301.61 398.96 299.77 398.36 297.88 397.95 C 300.70 397.96 303.90 398.12 305.85 395.65 Z" />
</g>
<g id="#eeebe9ff">
<path fill="#eeebe9" opacity="1.00" d=" M 306.70 395.69 C 313.16 396.13 319.60 396.75 326.08 396.92 C 326.41 397.45 327.09 398.52 327.42 399.05 C 325.95 400.54 324.46 402.02 322.96 403.48 C 319.35 402.08 315.49 402.68 311.76 402.27 C 309.70 401.06 308.14 399.21 306.55 397.48 C 306.59 397.03 306.66 396.14 306.70 395.69 Z" />
</g>
<g id="#eee1e1ff">
<path fill="#eee1e1" opacity="1.00" d=" M 326.08 396.92 C 346.14 397.63 366.23 397.32 386.23 395.65 C 388.11 398.20 391.38 397.92 394.18 397.96 C 392.00 398.31 389.88 398.91 387.77 399.52 C 389.98 400.28 392.31 400.61 394.64 400.67 C 395.66 401.91 396.66 403.17 397.66 404.44 C 396.16 406.06 394.70 407.72 393.29 409.42 C 390.52 409.19 387.73 409.11 384.95 409.14 C 384.05 407.58 383.17 406.01 382.30 404.44 C 384.38 402.77 385.98 400.64 386.20 397.90 C 384.08 399.52 382.06 401.25 380.03 402.97 C 376.87 402.66 373.36 401.59 370.43 403.35 C 367.10 405.35 364.80 408.79 361.03 410.14 C 359.54 408.55 358.03 406.98 356.53 405.42 C 357.13 404.05 357.73 402.67 358.32 401.30 C 354.36 401.64 351.63 405.52 347.64 405.55 C 344.56 404.48 341.93 402.47 339.10 400.91 C 339.32 402.33 339.55 403.75 339.79 405.18 C 338.26 406.69 336.73 408.20 335.19 409.69 C 332.73 409.43 330.27 409.20 327.81 408.99 C 326.58 407.47 325.36 405.94 324.15 404.41 C 325.61 403.57 327.05 402.72 328.51 401.89 C 328.16 400.93 327.80 399.98 327.42 399.05 C 327.09 398.52 326.41 397.45 326.08 396.92 M 364.04 398.87 C 363.89 399.72 363.60 401.41 363.46 402.26 C 364.98 402.98 366.56 403.60 368.20 404.03 C 367.86 401.61 365.83 400.23 364.04 398.87 Z" />
</g>
<g id="#d8ceccff">
<path fill="#d8cecc" opacity="1.00" d=" M 364.04 398.87 C 365.83 400.23 367.86 401.61 368.20 404.03 C 366.56 403.60 364.98 402.98 363.46 402.26 C 363.60 401.41 363.89 399.72 364.04 398.87 Z" />
</g>
<g id="#f0dbdeff">
<path fill="#f0dbde" opacity="1.00" d=" M 263.31 403.19 C 265.22 402.52 266.88 401.34 268.39 400.02 C 270.96 400.09 273.53 400.27 276.10 400.52 C 278.41 403.49 281.34 406.17 285.04 407.22 C 287.58 407.38 289.91 406.04 292.25 405.23 C 294.20 407.44 295.57 410.07 296.18 412.96 C 294.70 413.06 293.22 413.13 291.75 413.19 C 285.26 412.01 278.97 409.72 272.34 409.46 C 271.62 409.37 270.91 409.29 270.21 409.20 C 268.66 408.49 267.13 407.78 265.58 407.10 C 264.84 405.79 264.07 404.49 263.31 403.19 Z" />
<path fill="#f0dbde" opacity="1.00" d=" M 415.89 400.43 C 418.47 400.26 421.06 400.19 423.66 400.22 C 425.27 401.35 426.94 402.39 428.66 403.36 C 427.81 404.71 426.88 406.01 425.97 407.33 C 416.82 410.00 407.33 411.45 398.07 413.74 C 393.97 411.85 398.35 407.67 399.76 405.31 C 401.80 406.09 403.82 407.00 405.99 407.34 C 410.17 406.79 413.38 403.59 415.89 400.43 Z" />
</g>
<g id="#ebdbdeff">
<path fill="#ebdbde" opacity="1.00" d=" M 309.01 409.81 C 311.46 407.71 313.83 405.17 317.05 404.32 C 320.31 404.13 322.51 406.95 324.56 409.06 C 321.48 411.22 318.89 413.95 316.67 416.97 L 316.11 416.99 C 315.17 413.38 312.23 411.27 309.01 409.81 Z" />
<path fill="#ebdbde" opacity="1.00" d=" M 367.45 408.99 C 369.53 406.95 371.72 404.15 374.96 404.31 C 378.12 405.27 380.53 407.69 383.00 409.77 C 379.73 411.20 376.96 413.49 375.86 417.00 L 375.33 416.92 C 373.07 413.94 370.47 411.22 367.45 408.99 Z" />
</g>
<g id="#e6dbddff">
<path fill="#e6dbdd" opacity="1.00" d=" M 342.68 406.70 C 344.97 406.66 347.20 407.57 349.51 407.29 C 351.33 407.35 353.57 406.42 354.98 408.03 C 357.82 410.17 357.32 413.97 357.38 417.10 C 350.71 417.10 344.04 416.94 337.38 417.41 C 337.38 413.27 339.06 408.95 342.68 406.70 Z" />
</g>
<g id="#ffffffff">
<path fill="#ffffff" opacity="1.00" d=" M 240.08 409.68 C 241.62 410.29 243.16 410.89 244.71 411.50 C 243.12 415.88 241.64 420.30 240.06 424.68 C 242.01 425.41 243.96 426.18 245.91 426.94 C 246.78 424.26 247.61 421.58 248.26 418.86 C 249.83 419.38 251.40 419.92 252.98 420.47 C 252.13 423.15 251.28 425.83 250.40 428.50 C 251.61 428.87 252.83 429.25 254.04 429.64 C 254.85 426.91 255.66 424.20 256.44 421.47 C 257.96 421.99 259.50 422.52 261.03 423.05 C 260.13 425.72 259.33 428.43 258.65 431.18 C 259.86 431.54 261.06 431.91 262.27 432.29 C 263.05 429.53 263.80 426.77 264.46 423.99 C 266.05 424.48 267.64 424.96 269.24 425.43 C 268.29 428.14 267.57 430.92 266.97 433.73 C 268.24 434.01 269.51 434.28 270.78 434.57 C 271.34 431.79 272.02 429.05 272.60 426.29 C 274.19 426.74 275.79 427.19 277.40 427.61 C 276.53 430.37 275.85 433.18 275.29 436.01 C 276.17 436.16 277.92 436.44 278.80 436.59 C 279.82 434.40 279.05 430.72 281.94 429.88 C 285.76 428.43 289.71 430.97 293.60 431.19 C 292.75 433.88 292.12 436.64 291.60 439.42 C 293.78 439.95 295.99 440.36 298.21 440.77 C 298.75 437.94 299.18 435.10 299.33 432.23 C 300.91 432.59 302.48 432.93 304.07 433.28 C 303.00 437.41 304.52 443.39 299.82 445.47 C 297.27 444.96 294.73 444.53 292.20 443.98 C 291.65 443.19 291.11 442.40 290.57 441.61 C 290.12 442.04 289.23 442.90 288.79 443.34 C 284.56 442.62 280.43 441.42 276.20 440.68 C 275.64 439.82 275.07 438.96 274.52 438.11 C 272.52 438.80 270.43 439.05 268.34 438.72 C 267.60 437.69 266.85 436.67 266.11 435.66 C 263.52 437.15 259.26 437.37 258.57 433.63 C 258.16 434.01 257.35 434.78 256.94 435.16 C 254.00 434.21 250.39 433.90 249.08 430.62 C 248.53 430.93 247.44 431.56 246.89 431.88 C 242.67 429.85 236.50 429.87 234.64 424.83 C 236.73 419.89 238.70 414.87 240.08 409.68 M 284.44 433.54 C 284.10 434.97 283.78 436.41 283.46 437.85 C 284.66 438.06 285.87 438.28 287.09 438.49 C 287.33 437.04 287.60 435.58 287.87 434.15 C 286.72 433.94 285.58 433.74 284.44 433.54 Z" />
<path fill="#ffffff" opacity="1.00" d=" M 463.19 416.68 C 464.83 416.10 466.46 415.51 468.10 414.92 C 469.30 418.19 470.48 421.47 471.72 424.72 C 470.51 428.76 465.97 429.14 462.69 430.67 C 461.79 430.05 460.89 429.44 460.00 428.84 C 459.49 429.95 458.98 431.07 458.48 432.19 C 452.30 433.95 446.26 436.20 440.04 437.81 C 438.70 438.34 437.47 437.43 436.22 437.14 C 434.71 440.33 430.88 440.00 428.01 440.97 C 424.98 441.48 421.81 443.23 418.81 441.74 C 417.56 442.78 416.21 443.70 414.58 444.01 C 414.75 445.46 414.93 446.92 415.12 448.39 C 418.04 447.84 420.92 447.12 423.82 446.48 C 423.20 448.16 422.58 449.85 421.93 451.53 C 418.16 452.30 414.00 453.77 410.73 450.87 C 410.48 448.29 410.08 445.73 409.45 443.22 C 410.55 441.88 411.74 440.61 413.07 439.50 C 412.09 437.96 411.14 436.41 410.19 434.87 C 410.88 433.69 411.59 432.53 412.31 431.37 C 415.36 430.91 418.38 430.25 421.34 429.38 C 422.48 430.06 423.62 430.76 424.77 431.46 C 424.54 433.47 424.26 435.48 423.92 437.49 C 426.40 436.92 428.88 436.32 431.37 435.78 C 430.86 432.97 430.17 430.19 429.12 427.54 C 430.67 427.11 432.24 426.67 433.80 426.22 C 434.68 428.92 435.39 431.67 436.01 434.45 C 437.29 434.10 438.58 433.75 439.88 433.41 C 439.10 430.19 438.53 426.87 437.04 423.88 C 438.63 423.44 440.21 422.98 441.80 422.54 C 441.94 422.87 442.22 423.55 442.35 423.88 C 446.50 422.62 450.63 421.31 454.68 419.76 C 456.04 420.61 457.40 421.46 458.78 422.29 C 459.28 423.76 459.75 425.25 460.21 426.74 C 462.31 426.01 464.41 425.29 466.50 424.53 C 465.56 421.85 464.66 419.12 463.19 416.68 M 443.65 428.01 C 444.02 429.31 444.40 430.61 444.78 431.92 C 448.42 430.80 452.06 429.67 455.68 428.47 C 455.22 427.17 454.76 425.87 454.31 424.58 C 450.78 425.79 447.22 426.92 443.65 428.01 M 414.66 435.28 C 415.44 436.59 416.32 437.83 417.24 439.06 C 418.18 438.74 419.12 438.43 420.07 438.13 C 420.41 436.79 420.78 435.45 421.13 434.12 C 418.97 434.50 416.81 434.88 414.66 435.28 Z" />
<path fill="#ffffff" opacity="1.00" d=" M 300.73 427.28 C 301.83 427.54 302.93 427.80 304.04 428.08 C 303.96 428.82 303.79 430.31 303.70 431.06 C 302.57 430.92 301.45 430.78 300.32 430.65 C 300.45 429.52 300.59 428.40 300.73 427.28 Z" />
<path fill="#ffffff" opacity="1.00" d=" M 306.88 427.94 C 308.49 428.14 310.09 428.33 311.72 428.54 C 311.13 433.15 310.73 437.78 309.90 442.36 C 311.97 442.79 314.05 443.14 316.15 443.41 C 316.40 440.58 317.10 437.72 316.55 434.88 C 318.28 435.08 320.02 435.30 321.75 435.51 C 321.35 438.94 320.92 442.37 320.74 445.83 C 319.84 446.53 318.94 447.23 318.04 447.93 C 314.47 447.54 310.91 447.01 307.34 446.59 C 306.52 445.77 305.71 444.95 304.90 444.13 C 305.66 438.75 306.86 433.39 306.88 427.94 Z" />
<path fill="#ffffff" opacity="1.00" d=" M 394.50 428.44 C 396.26 428.28 398.02 428.11 399.78 427.94 C 400.48 433.95 400.82 440.11 402.63 445.92 C 400.70 446.24 398.78 446.57 396.86 446.91 C 396.82 440.70 395.82 434.50 394.50 428.44 Z" />
<path fill="#ffffff" opacity="1.00" d=" M 329.13 430.29 C 330.75 430.49 332.39 430.68 334.02 430.87 C 333.74 435.56 333.52 440.26 333.32 444.96 C 335.31 445.06 337.32 445.15 339.32 445.24 C 339.45 442.43 339.82 439.58 339.18 436.81 C 340.93 436.92 342.69 436.99 344.46 437.07 C 344.27 439.83 344.03 442.58 343.93 445.35 C 345.34 445.33 346.75 445.33 348.17 445.34 C 348.16 443.03 348.18 440.72 348.22 438.41 C 349.30 437.68 350.38 436.94 351.45 436.19 C 353.61 436.17 355.78 436.16 357.95 436.16 C 358.99 436.99 360.04 437.82 361.09 438.68 C 360.93 441.51 360.95 444.36 361.29 447.18 C 360.20 448.06 359.12 448.94 358.04 449.83 C 353.83 449.82 349.62 449.85 345.42 449.81 C 344.79 449.13 344.17 448.46 343.55 447.79 C 341.83 450.49 338.57 449.42 335.95 449.47 C 333.11 449.42 330.08 449.14 328.13 446.83 C 328.75 441.34 329.53 435.82 329.13 430.29 M 352.84 446.03 C 353.73 446.02 355.49 445.99 356.38 445.98 C 356.37 443.99 356.37 442.00 356.38 440.02 C 355.49 440.01 353.73 439.98 352.84 439.97 C 352.83 441.98 352.83 444.01 352.84 446.03 Z" />
<path fill="#ffffff" opacity="1.00" d=" M 373.14 430.72 C 374.69 430.57 376.24 430.41 377.80 430.24 C 377.68 434.99 378.28 439.71 378.71 444.43 C 380.70 444.29 382.69 444.16 384.70 444.06 C 382.74 442.65 381.52 440.13 382.74 437.84 C 384.69 433.46 390.26 435.67 393.92 434.05 C 394.13 435.56 394.36 437.08 394.58 438.60 C 391.98 438.84 389.38 439.16 386.79 439.53 C 386.87 440.54 387.03 442.57 387.11 443.58 C 389.70 443.35 392.29 443.11 394.89 442.84 C 395.18 444.28 395.47 445.73 395.76 447.19 C 390.80 447.51 385.85 448.00 380.94 448.73 C 380.40 448.29 379.31 447.42 378.77 446.98 C 377.86 447.59 377.13 448.58 376.03 448.85 C 371.71 449.48 367.32 449.36 362.99 449.94 C 362.99 448.43 362.99 446.92 363.00 445.42 C 363.92 445.36 365.76 445.24 366.68 445.19 C 366.64 443.15 366.61 441.12 366.59 439.09 C 365.25 437.92 363.92 436.77 362.62 435.57 C 363.87 434.92 365.12 434.28 366.36 433.65 C 368.15 435.08 369.96 436.49 371.78 437.89 C 371.62 440.41 369.81 445.56 374.05 445.22 C 373.55 440.40 373.26 435.56 373.14 430.72 Z" />
<path fill="#ffffff" opacity="1.00" d=" M 340.29 431.64 C 341.39 431.63 342.49 431.61 343.59 431.61 C 343.62 432.71 343.65 433.81 343.69 434.93 C 342.49 434.87 341.30 434.82 340.11 434.77 C 340.16 433.72 340.23 432.68 340.29 431.64 Z" />
<path fill="#ffffff" opacity="1.00" d=" M 312.41 449.24 C 313.53 449.31 314.66 449.39 315.79 449.48 C 315.81 450.59 315.83 451.72 315.86 452.85 C 314.61 452.74 313.37 452.64 312.13 452.55 C 312.22 451.44 312.31 450.34 312.41 449.24 Z" />
</g>
<g id="#ce6263ff">
<path fill="#ce6263" opacity="1.00" d=" M 272.34 409.46 C 278.97 409.72 285.26 412.01 291.75 413.19 C 294.10 413.71 296.46 414.18 298.84 414.54 C 303.68 415.26 308.59 415.61 313.34 416.87 C 313.40 416.88 313.54 416.92 313.60 416.93 L 314.87 417.61 C 300.46 416.54 286.07 413.99 272.34 409.46 Z" />
</g>
<g id="#eee2e4ff">
<path fill="#eee2e4" opacity="1.00" d=" M 298.25 411.32 C 301.79 411.40 305.42 411.19 308.86 412.20 C 311.11 412.80 312.08 415.16 313.34 416.87 C 308.59 415.61 303.68 415.26 298.84 414.54 C 298.64 413.46 298.44 412.39 298.25 411.32 Z" />
<path fill="#eee2e4" opacity="1.00" d=" M 383.11 412.19 C 386.53 411.17 390.14 411.38 393.67 411.33 C 393.51 412.40 393.34 413.48 393.18 414.57 C 388.35 415.26 383.48 415.77 378.70 416.81 C 379.98 415.16 380.93 412.85 383.11 412.19 Z" />
</g>
<g id="#eadee1ff">
<path fill="#eadee1" opacity="1.00" d=" M 320.23 416.90 C 322.29 411.12 329.71 411.38 334.74 411.85 C 334.79 413.67 334.84 415.49 334.91 417.32 C 330.02 416.87 325.12 416.70 320.23 416.90 Z" />
</g>
<g id="#f0e4e7ff">
<path fill="#f0e4e7" opacity="1.00" d=" M 360.11 415.92 C 359.22 414.16 360.82 411.53 362.90 411.79 C 366.32 412.14 370.42 413.17 371.64 416.85 C 370.32 416.84 369.02 416.83 367.71 416.84 C 365.49 415.01 362.70 415.79 360.11 415.92 Z" />
</g>
<g id="#c68687ff">
<path fill="#c68687" opacity="1.00" d=" M 313.60 416.93 C 314.23 416.95 315.48 416.97 316.11 416.99 L 316.67 416.97 C 317.85 416.95 319.04 416.92 320.23 416.90 C 325.12 416.70 330.02 416.87 334.91 417.32 C 335.52 417.34 336.76 417.38 337.38 417.41 C 344.04 416.94 350.71 417.10 357.38 417.10 C 360.83 417.02 364.27 416.93 367.71 416.84 C 369.02 416.83 370.32 416.84 371.64 416.85 C 372.86 416.86 374.10 416.88 375.33 416.92 L 375.86 417.00 C 376.15 417.04 376.72 417.13 377.01 417.17 L 378.40 417.57 C 357.24 418.46 336.03 418.69 314.87 417.61 L 313.60 416.93 Z" />
</g>
</svg>
