<?xml version="1.0" encoding="UTF-8" ?>
<!DOCTYPE svg PUBLIC "-//W3C//DTD SVG 1.1//EN" "http://www.w3.org/Graphics/SVG/1.1/DTD/svg11.dtd">
<svg width="720pt" height="720pt" viewBox="0 0 720 720" version="1.1" xmlns="http://www.w3.org/2000/svg">
<g id="#fb1010ff">
<path fill="#fb1010" opacity="1.00" d=" M 295.53 253.29 C 338.78 246.99 383.09 247.56 426.10 255.40 C 449.16 259.67 471.88 266.17 493.32 275.74 C 509.18 282.95 524.47 291.84 537.42 303.58 C 549.57 314.56 559.82 328.60 562.97 344.95 C 565.87 358.90 562.50 373.47 555.58 385.72 C 554.51 382.95 553.11 380.31 551.25 378.00 C 547.19 372.24 543.23 366.42 538.91 360.86 C 536.33 357.25 533.23 354.06 529.95 351.09 C 526.34 347.73 522.37 344.76 519.00 341.13 C 511.58 332.33 501.78 326.02 492.10 319.99 C 488.91 317.89 485.89 315.52 482.48 313.78 C 472.46 308.67 462.50 303.42 452.12 299.08 C 445.59 295.50 438.17 294.11 431.54 290.75 C 425.08 288.31 418.33 286.07 411.35 286.06 C 410.67 285.95 410.00 285.85 409.33 285.75 C 409.72 285.54 410.51 285.13 410.90 284.93 C 395.41 281.95 379.84 278.12 363.94 279.04 C 351.27 279.28 338.53 278.26 325.93 280.18 C 318.44 280.62 311.18 282.49 303.85 283.93 C 299.59 284.57 295.31 285.21 291.21 286.55 C 281.10 289.96 270.45 291.92 260.79 296.54 L 260.43 296.61 C 254.10 298.18 248.16 301.03 242.08 303.37 C 236.79 306.36 231.44 309.23 226.08 312.10 C 210.32 320.98 195.20 330.97 180.45 341.43 C 168.29 351.86 155.87 363.44 150.73 379.10 L 150.44 379.89 C 143.61 365.15 143.14 347.60 149.81 332.73 C 158.64 312.57 176.22 297.85 194.65 286.67 C 225.43 268.51 260.40 258.66 295.53 253.29 Z" />
<path fill="#fb1010" opacity="1.00" d=" M 326.88 306.54 L 327.14 306.54 C 337.41 305.63 347.75 305.05 358.04 306.06 C 366.68 306.71 375.41 305.84 384.01 307.19 C 389.88 307.91 395.78 308.50 401.61 309.56 C 404.17 310.14 406.74 310.72 409.31 311.29 C 409.42 311.41 409.65 311.65 409.77 311.77 C 415.17 311.26 420.11 314.02 425.36 314.79 C 425.85 314.89 426.81 315.09 427.30 315.19 C 427.45 315.42 427.75 315.89 427.90 316.13 C 431.78 316.62 435.50 317.90 439.20 319.15 C 448.43 323.84 458.25 327.18 467.74 331.29 C 475.88 335.42 484.39 338.92 492.06 343.94 C 499.03 348.66 506.56 352.47 513.44 357.32 C 511.84 358.51 510.26 359.72 508.60 360.84 C 499.91 364.91 491.55 369.80 482.52 373.11 C 480.60 373.72 478.68 374.31 476.76 374.91 C 469.38 377.17 462.51 381.17 454.72 382.04 C 451.45 382.52 448.21 383.17 445.07 384.20 C 435.61 387.28 425.70 388.54 415.97 390.48 C 396.88 394.12 377.44 396.16 358.00 395.94 C 346.65 396.49 335.30 395.84 323.94 395.88 C 300.88 395.33 278.12 391.15 255.58 386.56 C 249.80 385.36 244.32 382.94 238.41 382.33 C 229.90 381.36 222.42 376.97 214.31 374.64 C 212.95 374.24 211.60 373.82 210.25 373.40 C 201.91 370.59 194.35 365.92 186.32 362.36 C 186.39 361.92 186.55 361.04 186.63 360.59 C 188.79 359.19 190.87 357.66 193.07 356.31 C 194.38 355.52 195.73 354.81 197.11 354.15 C 205.65 349.88 213.19 343.82 221.91 339.85 C 228.20 336.63 235.15 334.94 241.29 331.38 C 260.54 322.16 281.21 316.30 301.99 311.67 C 309.70 309.81 317.89 310.10 325.35 307.25 C 325.73 307.07 326.50 306.72 326.88 306.54 M 291.06 326.80 C 293.66 328.20 296.18 329.83 298.95 330.91 C 301.90 331.50 304.29 329.17 306.82 328.04 C 308.83 329.05 310.73 330.48 312.99 330.89 C 316.37 330.28 319.24 328.14 321.98 326.19 C 319.39 324.72 316.88 323.04 314.06 322.06 C 311.15 321.55 308.80 323.80 306.33 324.95 C 304.03 323.87 301.79 321.73 299.08 322.25 C 296.17 323.29 293.57 325.03 291.06 326.80 M 409.58 326.46 C 409.52 334.76 409.88 343.07 409.37 351.36 C 406.70 351.44 404.02 351.47 401.35 351.36 C 400.23 348.50 398.85 345.57 396.31 343.70 C 390.19 338.64 381.60 338.18 374.09 339.49 C 369.53 340.63 364.33 343.02 362.97 347.95 C 361.66 351.52 363.90 355.37 367.01 357.15 C 373.18 360.85 380.61 360.21 387.41 361.48 C 379.91 364.44 371.91 362.26 364.20 361.83 C 363.39 364.39 362.62 366.97 361.86 369.55 C 371.38 371.88 381.70 373.19 391.23 370.22 C 395.87 368.87 399.53 365.36 401.21 360.84 C 407.03 360.77 413.24 361.41 418.58 358.59 C 422.13 356.77 424.46 353.00 424.35 348.99 C 424.42 341.35 424.43 333.71 424.31 326.08 C 419.40 325.95 414.49 326.19 409.58 326.46 M 338.34 327.09 C 338.45 338.31 338.27 349.53 338.43 360.74 C 343.27 360.85 348.10 360.47 352.94 360.38 C 353.08 349.10 352.95 337.81 353.01 326.52 C 348.11 326.22 343.21 326.61 338.34 327.09 M 438.00 327.05 C 437.99 338.24 438.01 349.43 437.99 360.62 C 442.86 360.96 447.73 360.45 452.60 360.34 C 452.68 350.56 452.58 340.78 452.66 331.00 C 452.49 329.51 453.00 327.79 452.09 326.49 C 447.39 326.17 442.68 326.67 438.00 327.05 M 301.36 332.50 C 296.89 333.68 291.81 336.22 290.60 341.08 C 289.73 344.11 292.03 346.98 294.56 348.35 C 299.59 351.05 305.45 351.20 311.02 351.60 C 300.38 351.34 289.73 351.31 279.09 351.48 C 281.59 349.61 283.97 347.21 284.44 343.98 C 283.96 341.14 280.87 340.20 278.47 339.65 C 267.25 337.73 255.80 338.72 244.61 340.30 C 244.61 342.65 244.61 345.00 244.59 347.36 C 247.35 349.42 250.18 351.38 253.08 353.25 C 249.06 354.94 244.58 356.33 241.71 359.81 C 239.48 362.32 239.72 366.53 242.25 368.76 C 245.38 371.51 249.63 372.42 253.61 373.24 C 264.85 374.93 276.36 374.64 287.57 372.84 C 286.36 370.47 286.54 366.52 283.98 365.27 C 274.88 365.86 265.50 366.97 256.56 364.53 C 255.20 364.27 254.74 363.47 255.16 362.12 C 257.62 360.03 260.80 358.80 263.97 358.34 C 269.57 359.49 275.19 360.80 280.95 360.79 C 290.99 360.79 301.07 361.18 311.06 359.96 C 316.52 359.24 322.50 358.60 326.88 354.93 C 331.15 349.83 329.72 341.46 324.78 337.27 C 318.40 331.77 309.33 331.16 301.36 332.50 M 301.42 365.58 C 301.39 366.68 301.36 367.79 301.34 368.91 C 302.55 368.97 303.76 369.03 304.98 369.10 C 304.99 368.25 305.03 366.55 305.05 365.70 C 303.84 365.65 302.62 365.61 301.42 365.58 M 306.59 365.67 C 306.62 366.80 306.68 367.94 306.72 369.08 C 307.56 369.06 309.23 369.03 310.07 369.01 C 309.97 367.83 309.89 366.66 309.85 365.49 C 308.76 365.55 307.67 365.61 306.59 365.67 M 315.58 365.59 C 316.04 372.31 315.82 379.05 315.74 385.77 C 319.56 389.64 325.36 387.45 330.17 388.02 C 330.93 387.23 331.69 386.44 332.45 385.65 C 333.33 386.42 334.21 387.19 335.08 387.98 C 339.78 388.00 344.49 387.95 349.19 388.10 C 350.07 386.97 350.96 385.84 351.85 384.71 C 351.53 380.68 351.32 376.59 352.11 372.59 C 348.43 372.64 344.75 372.64 341.08 372.65 C 339.93 373.53 338.79 374.41 337.64 375.29 C 337.62 377.97 337.63 380.66 337.63 383.35 C 336.11 383.39 334.59 383.44 333.09 383.49 C 332.99 379.88 332.97 376.27 333.00 372.67 C 331.23 372.63 329.45 372.60 327.68 372.56 C 328.04 376.03 328.08 379.52 328.00 383.00 C 325.53 383.00 323.06 382.99 320.60 383.00 C 320.60 377.21 320.60 371.42 320.61 365.63 C 318.93 365.62 317.25 365.61 315.58 365.59 M 328.65 366.43 C 328.61 367.57 328.56 368.72 328.51 369.87 C 329.69 369.91 330.86 369.97 332.04 370.07 C 331.99 368.81 331.95 367.56 331.91 366.32 C 330.82 366.35 329.73 366.39 328.65 366.43 M 341.99 366.30 C 341.91 367.55 341.84 368.81 341.76 370.07 C 342.99 369.98 344.23 369.91 345.48 369.88 C 345.43 368.72 345.38 367.57 345.35 366.43 C 344.22 366.38 343.10 366.34 341.99 366.30 M 347.06 366.35 C 347.03 367.58 347.00 368.80 346.97 370.04 C 348.20 369.99 349.43 369.95 350.66 369.91 C 350.64 368.73 350.62 367.56 350.61 366.39 C 349.42 366.37 348.24 366.36 347.06 366.35 M 298.72 374.57 C 298.87 378.05 298.86 381.53 298.75 385.01 C 299.90 385.99 301.05 386.99 302.19 387.99 C 305.93 388.03 310.62 388.84 312.86 385.00 C 313.20 381.57 312.94 378.11 313.11 374.67 C 311.85 373.63 310.59 372.59 309.34 371.55 C 305.49 371.41 301.35 371.24 298.72 374.57 Z" />
<path fill="#fb1010" opacity="1.00" d=" M 301.53 342.74 C 305.20 338.73 312.04 340.05 316.19 342.71 C 311.42 344.07 306.32 343.90 301.53 342.74 Z" />
<path fill="#fb1010" opacity="1.00" d=" M 260.18 346.58 C 263.88 346.37 267.59 346.24 271.28 346.69 C 269.72 347.97 267.89 348.87 266.01 349.59 C 264.08 348.56 262.13 347.56 260.18 346.58 Z" />
<path fill="#fb1010" opacity="1.00" d=" M 375.56 350.13 C 378.69 346.45 384.52 348.11 387.36 351.29 C 383.39 351.51 379.33 351.56 375.56 350.13 Z" />
<path fill="#fb1010" opacity="1.00" d=" M 523.28 365.35 C 528.02 368.51 531.34 373.45 536.42 376.21 C 536.54 376.31 536.78 376.51 536.90 376.61 C 541.50 382.19 546.30 387.61 550.46 393.54 C 538.99 407.94 524.09 419.23 507.99 427.98 C 475.42 445.53 438.96 454.71 402.42 459.20 C 356.02 464.56 308.59 462.41 263.15 451.35 C 233.32 443.86 203.80 432.60 179.17 413.80 C 171.15 407.85 164.48 400.39 157.83 393.00 C 159.76 389.51 161.91 386.14 164.54 383.14 C 169.34 379.58 172.52 374.39 177.09 370.61 C 179.75 371.41 181.92 373.22 184.19 374.75 C 193.83 381.14 204.46 385.80 214.92 390.67 C 226.85 395.15 238.84 399.49 250.84 403.76 C 257.47 405.02 263.35 408.92 270.19 409.20 C 270.93 409.30 271.67 409.38 272.42 409.48 C 284.41 413.48 296.93 415.67 309.45 417.21 C 316.20 418.49 323.08 418.29 329.92 418.25 C 346.11 418.35 362.31 418.34 378.49 417.52 C 392.22 416.89 405.56 413.41 418.91 410.39 C 425.23 409.40 430.98 406.50 437.07 404.72 C 444.19 402.94 450.83 399.76 457.84 397.62 C 467.78 393.64 478.36 390.92 487.43 385.04 C 488.72 384.45 490.01 383.87 491.30 383.27 C 494.43 381.81 497.37 379.98 500.35 378.22 C 501.28 377.71 502.22 377.21 503.16 376.69 C 504.60 375.87 506.05 375.03 507.47 374.16 C 513.12 371.90 517.91 368.09 523.28 365.35 M 240.12 409.71 C 238.63 414.88 236.73 419.94 234.63 424.90 C 236.59 429.83 242.64 429.86 246.85 431.87 C 247.40 431.57 248.49 430.96 249.04 430.66 C 250.46 433.86 254.03 434.23 256.98 435.17 C 257.36 434.80 258.10 434.05 258.48 433.67 C 259.38 437.34 263.47 437.13 266.13 435.68 C 266.87 436.70 267.62 437.73 268.35 438.76 C 270.41 438.93 272.44 438.60 274.48 438.35 C 275.12 439.09 275.73 439.85 276.32 440.64 C 280.50 441.56 284.67 442.47 288.83 443.44 C 289.29 442.96 290.20 441.99 290.65 441.51 C 291.03 442.13 291.78 443.37 292.16 443.99 C 294.72 444.53 297.29 444.96 299.86 445.48 C 304.47 443.32 303.02 437.40 304.07 433.28 C 302.49 432.93 300.92 432.59 299.36 432.23 C 299.16 435.09 298.73 437.93 298.23 440.75 C 296.00 440.34 293.78 439.94 291.58 439.48 C 292.09 436.71 292.76 433.97 293.58 431.28 C 289.09 430.67 284.25 427.84 280.04 430.82 C 279.69 432.77 279.31 434.70 278.96 436.66 C 278.04 436.47 276.20 436.09 275.27 435.90 C 275.89 433.11 276.57 430.35 277.36 427.61 C 275.77 427.18 274.18 426.74 272.60 426.29 C 272.02 429.05 271.34 431.79 270.79 434.56 C 269.50 434.28 268.22 433.99 266.94 433.71 C 267.58 430.92 268.31 428.14 269.26 425.43 C 267.65 424.96 266.06 424.48 264.47 424.00 C 263.79 426.77 263.04 429.53 262.28 432.28 C 261.05 431.90 259.83 431.52 258.60 431.15 C 259.36 428.43 260.15 425.72 261.01 423.04 C 259.49 422.52 257.97 421.99 256.46 421.48 C 255.66 424.20 254.85 426.91 254.04 429.63 C 252.83 429.25 251.61 428.87 250.40 428.49 C 251.28 425.83 252.13 423.15 252.98 420.47 C 251.41 419.93 249.85 419.38 248.29 418.86 C 247.58 421.57 246.77 424.26 245.92 426.94 C 243.96 426.18 242.01 425.42 240.06 424.67 C 241.64 420.29 243.14 415.88 244.70 411.50 C 243.17 410.90 241.65 410.30 240.12 409.71 M 462.21 411.68 C 462.64 412.70 463.07 413.71 463.52 414.74 C 464.59 414.28 465.66 413.83 466.74 413.39 C 466.33 412.37 465.91 411.36 465.51 410.36 C 464.41 410.80 463.30 411.23 462.21 411.68 M 250.49 414.12 C 250.13 415.18 249.79 416.27 249.45 417.36 C 250.56 417.68 251.67 418.01 252.79 418.35 C 253.12 417.36 253.45 416.38 253.79 415.40 C 252.69 414.96 251.59 414.54 250.49 414.12 M 463.26 416.66 C 464.57 419.18 465.58 421.84 466.52 424.53 C 464.42 425.28 462.32 426.01 460.22 426.74 C 459.76 425.26 459.30 423.79 458.82 422.33 C 457.43 421.48 456.04 420.62 454.66 419.76 C 450.62 421.31 446.49 422.62 442.36 423.88 C 442.22 423.55 441.94 422.88 441.80 422.55 C 440.23 422.98 438.69 423.43 437.13 423.86 C 438.38 426.93 439.18 430.16 439.88 433.40 C 438.59 433.75 437.31 434.10 436.03 434.45 C 435.38 431.69 434.65 428.95 433.86 426.24 C 432.29 426.67 430.72 427.10 429.16 427.52 C 430.12 430.20 430.85 432.97 431.39 435.77 C 428.89 436.32 426.42 436.92 423.93 437.48 C 424.24 435.49 424.54 433.49 424.80 431.49 C 423.65 430.78 422.50 430.08 421.36 429.39 C 418.38 430.24 415.36 430.90 412.30 431.38 C 411.59 432.54 410.88 433.70 410.19 434.88 C 411.13 436.40 412.07 437.93 413.03 439.45 C 411.81 440.65 410.62 441.88 409.46 443.14 C 410.05 445.69 410.47 448.28 410.75 450.90 C 414.02 453.73 418.17 452.32 421.92 451.53 C 422.57 449.85 423.22 448.17 423.89 446.50 C 420.96 447.11 418.05 447.81 415.11 448.40 C 414.94 446.96 414.77 445.53 414.61 444.11 C 416.13 443.59 417.51 442.76 418.81 441.84 C 424.12 443.20 429.31 440.07 434.56 439.38 C 435.06 438.63 435.56 437.87 436.07 437.12 C 437.37 437.41 438.66 438.28 440.04 437.80 C 446.24 436.24 452.22 433.93 458.38 432.25 C 458.92 431.11 459.47 429.98 460.02 428.85 C 460.91 429.45 461.80 430.06 462.70 430.67 C 465.99 429.16 470.46 428.73 471.73 424.74 C 470.48 421.48 469.30 418.20 468.10 414.92 C 466.48 415.50 464.87 416.08 463.26 416.66 M 428.66 422.40 C 428.85 423.18 429.24 424.76 429.43 425.55 C 430.56 425.21 431.68 424.88 432.82 424.55 C 432.53 423.54 432.23 422.53 431.95 421.52 C 430.85 421.81 429.75 422.10 428.66 422.40 M 308.50 423.17 C 307.96 424.35 307.42 425.53 306.89 426.71 C 308.56 427.03 310.25 427.35 311.93 427.67 L 312.06 426.12 C 311.29 425.92 309.73 425.52 308.95 425.32 C 309.99 425.12 312.05 424.74 313.08 424.54 C 311.70 423.68 310.08 423.41 308.50 423.17 M 287.24 424.68 C 286.90 425.65 286.57 426.63 286.23 427.61 C 287.35 427.98 288.48 428.36 289.61 428.74 C 289.87 427.63 290.14 426.54 290.41 425.44 C 289.35 425.18 288.29 424.93 287.24 424.68 M 300.73 427.28 C 300.58 428.39 300.44 429.51 300.31 430.64 C 301.44 430.78 302.57 430.92 303.71 431.06 C 303.79 430.31 303.95 428.82 304.03 428.07 C 302.93 427.80 301.83 427.54 300.73 427.28 M 306.94 427.96 C 306.76 433.39 305.72 438.74 304.90 444.11 C 305.71 444.93 306.52 445.76 307.34 446.59 C 311.78 446.53 317.07 449.60 320.76 445.96 C 320.90 442.46 321.34 438.98 321.75 435.50 C 320.05 435.30 318.35 435.09 316.66 434.89 C 316.89 437.74 316.50 440.57 316.16 443.39 C 314.10 443.13 312.05 442.83 310.00 442.51 C 310.61 437.86 311.14 433.19 311.73 428.54 C 310.12 428.33 308.54 428.15 306.94 427.96 M 394.57 428.43 C 395.78 434.50 396.75 440.67 396.94 446.87 C 398.80 446.57 400.66 446.25 402.53 445.95 C 400.96 440.07 400.43 433.97 399.75 427.95 C 398.02 428.11 396.29 428.27 394.57 428.43 M 329.19 430.31 C 329.45 435.85 328.79 441.37 328.12 446.87 C 331.66 450.52 337.19 449.17 341.75 449.62 C 342.17 449.17 343.03 448.26 343.46 447.81 C 344.51 448.60 345.39 450.14 346.96 449.83 C 350.65 449.90 354.34 449.79 358.03 449.83 C 359.10 448.95 360.18 448.07 361.25 447.20 C 361.01 444.40 361.07 441.59 360.91 438.79 C 360.13 437.71 358.97 437.00 357.99 436.13 C 355.82 436.16 353.64 436.17 351.47 436.19 C 350.39 436.93 349.30 437.68 348.21 438.41 C 348.18 440.72 348.17 443.02 348.16 445.34 C 346.74 445.33 345.33 445.33 343.91 445.34 C 344.03 442.59 344.27 439.86 344.47 437.12 C 342.75 437.00 341.04 436.88 339.33 436.77 C 339.64 439.58 339.50 442.41 339.33 445.24 C 337.32 445.16 335.32 445.06 333.33 444.96 C 333.51 440.26 333.76 435.56 334.00 430.86 C 332.39 430.67 330.78 430.50 329.19 430.31 M 373.14 430.72 C 373.25 435.59 373.57 440.45 374.05 445.30 C 369.79 445.42 371.68 440.51 371.76 437.87 C 369.92 436.46 368.10 435.04 366.28 433.64 C 365.05 434.29 363.82 434.95 362.59 435.60 C 363.94 436.74 365.27 437.90 366.59 439.10 C 366.60 441.12 366.64 443.16 366.68 445.19 C 365.76 445.25 363.92 445.36 363.01 445.41 C 363.00 446.91 362.99 448.41 362.99 449.92 C 367.00 449.46 371.04 449.42 375.05 448.99 C 376.55 449.09 377.54 447.83 378.64 447.05 C 379.42 447.60 380.20 448.15 380.99 448.71 C 385.88 448.00 390.80 447.55 395.72 447.15 C 395.45 445.71 395.18 444.27 394.92 442.84 C 392.32 443.10 389.73 443.35 387.14 443.59 C 387.04 442.58 386.84 440.57 386.75 439.57 C 389.35 439.18 391.96 438.84 394.59 438.58 C 394.36 437.07 394.13 435.57 393.92 434.07 C 390.90 434.77 387.81 435.21 384.71 435.23 C 382.00 437.58 381.28 441.88 384.63 444.06 C 382.65 444.17 380.68 444.29 378.72 444.42 C 378.25 439.71 377.71 434.99 377.80 430.25 C 376.24 430.41 374.69 430.57 373.14 430.72 M 340.31 431.63 C 340.23 432.67 340.16 433.72 340.10 434.77 C 341.29 434.82 342.49 434.87 343.70 434.92 C 343.66 433.81 343.62 432.70 343.58 431.61 C 342.49 431.61 341.40 431.62 340.31 431.63 M 312.43 449.11 C 312.33 450.25 312.23 451.40 312.14 452.56 C 313.41 452.64 314.70 452.73 315.98 452.83 C 315.93 451.75 315.82 450.68 315.65 449.63 C 314.58 449.42 313.50 449.25 312.43 449.11 Z" />
<path fill="#fb1010" opacity="1.00" d=" M 303.60 376.00 C 305.06 376.00 306.53 376.00 308.00 376.00 C 308.00 378.61 307.99 381.22 307.99 383.84 C 306.53 383.83 305.07 383.83 303.62 383.84 C 303.60 381.22 303.60 378.61 303.60 376.00 Z" />
<path fill="#fb1010" opacity="1.00" d=" M 342.38 377.18 C 343.86 377.17 345.34 377.17 346.83 377.17 C 346.83 379.12 346.83 381.07 346.84 383.02 C 345.32 382.99 343.82 382.96 342.32 382.94 C 342.34 381.01 342.36 379.09 342.38 377.18 Z" />
<path fill="#fb1010" opacity="1.00" d=" M 153.45 384.50 C 154.99 385.41 156.11 386.89 156.16 388.73 C 154.42 389.03 153.00 385.99 153.45 384.50 Z" />
<path fill="#fb1010" opacity="1.00" d=" M 443.65 428.00 C 447.25 426.91 450.83 425.75 454.40 424.59 C 454.81 425.89 455.22 427.18 455.64 428.49 C 452.03 429.68 448.41 430.80 444.79 431.93 C 444.40 430.61 444.02 429.31 443.65 428.00 Z" />
<path fill="#fb1010" opacity="1.00" d=" M 284.44 433.53 C 285.58 433.74 286.72 433.93 287.87 434.15 C 287.59 435.59 287.32 437.05 287.07 438.50 C 285.86 438.29 284.66 438.06 283.46 437.84 C 283.79 436.40 284.11 434.96 284.44 433.53 Z" />
<path fill="#fb1010" opacity="1.00" d=" M 414.57 435.33 C 416.76 434.90 418.95 434.50 421.15 434.11 C 420.78 435.46 420.41 436.81 420.04 438.16 C 419.09 438.45 418.15 438.75 417.21 439.05 C 416.34 437.79 415.45 436.56 414.57 435.33 Z" />
<path fill="#fb1010" opacity="1.00" d=" M 352.83 446.01 C 352.83 444.00 352.83 441.99 352.83 439.99 C 353.72 440.00 355.49 440.00 356.37 440.01 C 356.37 442.00 356.37 443.99 356.37 445.99 C 355.49 446.00 353.72 446.01 352.83 446.01 Z" />
</g>
<g id="#cb6161ff">
<path fill="#cb6161" opacity="1.00" d=" M 325.93 280.18 C 338.53 278.26 351.27 279.28 363.94 279.04 C 379.84 278.12 395.41 281.95 410.90 284.93 C 410.51 285.13 409.72 285.54 409.33 285.75 C 398.63 283.84 388.01 281.34 377.21 280.07 C 376.57 280.04 375.28 280.00 374.64 279.98 C 369.47 279.94 364.30 279.74 359.12 279.66 C 358.72 279.66 357.92 279.67 357.52 279.67 C 354.91 279.70 352.30 279.77 349.69 279.83 C 348.25 279.85 346.81 279.87 345.38 279.89 C 342.74 279.91 340.09 279.95 337.46 280.11 C 336.72 280.16 335.98 280.23 335.25 280.32 C 330.55 280.96 325.86 281.58 321.13 281.99 C 315.30 282.32 309.75 284.26 304.01 285.15 L 303.85 283.93 C 311.18 282.49 318.44 280.62 325.93 280.18 Z" />
</g>
<g id="#cebfbfff">
<path fill="#cebfbf" opacity="1.00" d=" M 335.25 280.32 C 335.98 280.23 336.72 280.16 337.46 280.11 C 337.06 284.78 338.75 289.17 342.03 292.49 C 345.63 291.23 349.48 291.26 353.07 292.58 C 356.18 288.98 357.42 284.35 357.52 279.67 C 357.92 279.67 358.72 279.66 359.12 279.66 C 359.49 281.95 359.85 284.25 360.22 286.55 C 364.06 286.32 368.16 286.52 371.64 284.62 C 373.49 283.80 373.78 281.57 374.64 279.98 C 375.28 280.00 376.57 280.04 377.21 280.07 C 376.27 282.11 375.59 284.35 374.09 286.08 C 370.00 288.84 364.74 289.60 360.00 288.27 C 358.49 290.22 357.02 292.18 355.55 294.15 C 356.02 296.14 356.52 298.12 357.04 300.10 C 354.14 297.80 351.60 294.74 348.00 293.54 C 344.44 294.22 342.41 297.53 339.56 299.42 C 338.05 300.05 338.46 298.32 338.60 297.44 C 339.02 296.16 339.65 294.96 340.24 293.75 C 338.45 292.17 336.81 290.44 335.32 288.60 C 331.81 288.44 328.21 288.38 324.88 287.13 C 322.09 286.10 319.82 284.07 317.08 282.95 C 313.14 284.18 309.79 286.94 305.65 287.59 C 303.06 287.91 300.45 287.65 297.86 287.50 C 296.62 289.81 295.01 292.11 292.05 291.52 C 292.66 290.26 293.27 289.00 293.88 287.74 C 293.16 287.82 291.72 287.97 291.00 288.05 C 295.21 286.60 299.62 285.85 304.01 285.15 C 309.75 284.26 315.30 282.32 321.13 281.99 C 324.34 286.40 330.08 285.89 334.90 286.39 C 335.01 284.37 335.13 282.34 335.25 280.32 Z" />
</g>
<g id="#eee0e3ff">
<path fill="#eee0e3" opacity="1.00" d=" M 337.46 280.11 C 340.09 279.95 342.74 279.91 345.38 279.89 C 343.88 281.25 342.26 282.52 341.03 284.15 C 340.42 285.48 341.90 286.62 343.06 286.90 C 345.23 287.70 347.58 288.25 349.91 287.97 C 352.34 287.54 352.76 284.83 353.38 282.88 C 350.79 283.81 348.22 284.79 345.67 285.81 C 347.02 283.83 348.36 281.83 349.69 279.83 C 352.30 279.77 354.91 279.70 357.52 279.67 C 357.42 284.35 356.18 288.98 353.07 292.58 C 349.48 291.26 345.63 291.23 342.03 292.49 C 338.75 289.17 337.06 284.78 337.46 280.11 Z" />
</g>
<g id="#ddd1d3ff">
<path fill="#ddd1d3" opacity="1.00" d=" M 345.38 279.89 C 346.81 279.87 348.25 279.85 349.69 279.83 C 348.36 281.83 347.02 283.83 345.67 285.81 C 348.22 284.79 350.79 283.81 353.38 282.88 C 352.76 284.83 352.34 287.54 349.91 287.97 C 347.58 288.25 345.23 287.70 343.06 286.90 C 341.90 286.62 340.42 285.48 341.03 284.15 C 342.26 282.52 343.88 281.25 345.38 279.89 Z" />
</g>
<g id="#eadfe2ff">
<path fill="#eadfe2" opacity="1.00" d=" M 359.12 279.66 C 364.30 279.74 369.47 279.94 374.64 279.98 C 373.78 281.57 373.49 283.80 371.64 284.62 C 368.16 286.52 364.06 286.32 360.22 286.55 C 359.85 284.25 359.49 281.95 359.12 279.66 Z" />
</g>
<g id="#eedcddff">
<path fill="#eedcdd" opacity="1.00" d=" M 377.21 280.07 C 388.01 281.34 398.63 283.84 409.33 285.75 C 410.00 285.85 410.67 285.95 411.35 286.06 C 415.30 287.41 419.31 288.56 423.39 289.46 C 427.92 290.47 431.97 292.80 436.18 294.67 C 435.36 294.57 433.73 294.38 432.92 294.29 C 432.83 295.19 432.74 296.10 432.63 297.00 C 431.63 297.26 430.64 297.51 429.66 297.77 C 428.88 299.10 428.09 300.41 427.31 301.74 C 422.77 299.59 417.76 301.52 413.75 303.92 C 412.15 304.66 412.43 306.51 412.55 307.94 C 412.96 309.02 413.39 310.10 413.84 311.18 C 412.32 311.21 410.80 311.23 409.31 311.29 C 406.74 310.72 404.17 310.14 401.61 309.56 C 402.59 309.31 404.55 308.79 405.53 308.54 C 403.85 306.72 402.12 304.90 399.95 303.67 C 400.90 303.72 401.85 303.78 402.81 303.84 C 401.97 303.09 401.14 302.34 400.31 301.60 C 402.75 299.06 404.60 295.23 408.24 294.36 C 412.77 293.92 414.22 299.21 417.73 300.80 C 418.72 299.82 418.91 298.18 417.70 297.29 C 415.01 294.51 411.33 291.20 407.14 292.44 C 403.36 293.79 399.70 296.45 398.74 300.58 C 396.38 300.88 394.03 301.16 391.67 301.43 C 392.47 302.05 393.28 302.66 394.10 303.26 C 393.28 303.57 392.46 303.90 391.66 304.24 C 391.43 305.00 390.98 306.53 390.75 307.29 C 390.24 307.29 389.23 307.28 388.72 307.28 C 387.99 304.21 386.36 301.09 383.34 299.76 C 379.61 298.70 375.68 298.78 371.84 298.41 C 371.74 297.75 371.54 296.42 371.45 295.75 C 368.34 296.60 367.36 299.64 366.47 302.37 C 361.50 302.25 356.85 304.13 352.04 304.98 C 343.74 305.76 335.39 303.91 327.11 305.16 C 327.07 304.69 327.00 303.74 326.97 303.27 C 327.47 303.33 328.48 303.45 328.99 303.51 C 328.47 299.87 327.16 296.37 324.29 293.94 C 325.00 292.61 325.71 291.28 326.43 289.95 C 326.00 289.49 325.12 288.58 324.69 288.12 C 322.47 290.52 320.59 294.08 316.96 294.35 C 312.41 294.40 311.11 288.78 306.95 287.85 C 307.16 292.22 311.22 294.61 314.73 296.30 C 317.25 297.62 319.93 296.02 322.39 295.34 C 323.67 297.10 324.96 298.85 326.10 300.72 C 324.51 300.12 322.93 299.52 321.35 298.93 C 321.96 300.01 322.57 301.08 323.19 302.17 C 322.87 302.56 322.22 303.36 321.89 303.75 C 320.11 303.33 318.32 302.91 316.54 302.49 C 315.30 303.40 314.06 304.32 312.82 305.24 C 311.77 304.01 310.72 302.78 309.67 301.56 C 309.20 301.61 308.26 301.71 307.78 301.76 C 308.60 299.54 309.61 297.41 310.56 295.25 C 309.10 295.41 307.28 294.85 306.21 296.15 C 303.99 298.49 305.00 301.88 305.17 304.73 C 303.70 304.16 302.25 303.59 300.79 303.00 C 300.42 304.37 300.05 305.74 299.69 307.11 C 296.65 307.80 293.61 307.12 290.70 306.23 C 291.78 308.21 292.93 310.14 294.12 312.06 C 292.30 312.49 290.48 312.95 288.68 313.45 C 289.70 312.77 290.72 312.08 291.73 311.38 C 289.47 310.15 287.19 308.67 284.53 308.59 C 284.37 306.60 284.91 304.21 283.28 302.69 C 281.59 300.91 279.34 299.84 277.27 298.58 C 279.34 296.31 281.06 293.22 284.17 292.27 C 288.88 291.55 290.88 297.21 295.07 298.16 C 296.06 294.26 291.04 292.70 288.64 290.67 C 288.63 290.20 288.61 289.28 288.60 288.81 C 289.20 288.62 290.40 288.24 291.00 288.05 C 291.72 287.97 293.16 287.82 293.88 287.74 C 293.27 289.00 292.66 290.26 292.05 291.52 C 295.01 292.11 296.62 289.81 297.86 287.50 C 300.45 287.65 303.06 287.91 305.65 287.59 C 309.79 286.94 313.14 284.18 317.08 282.95 C 319.82 284.07 322.09 286.10 324.88 287.13 C 328.21 288.38 331.81 288.44 335.32 288.60 C 336.81 290.44 338.45 292.17 340.24 293.75 C 339.65 294.96 339.02 296.16 338.60 297.44 C 338.46 298.32 338.05 300.05 339.56 299.42 C 342.41 297.53 344.44 294.22 348.00 293.54 C 351.60 294.74 354.14 297.80 357.04 300.10 C 356.52 298.12 356.02 296.14 355.55 294.15 C 357.02 292.18 358.49 290.22 360.00 288.27 C 364.74 289.60 370.00 288.84 374.09 286.08 C 375.59 284.35 376.27 282.11 377.21 280.07 M 368.99 288.84 C 369.27 290.39 368.79 292.47 370.41 293.43 C 373.29 295.71 376.69 299.16 380.72 297.52 C 384.22 295.96 388.72 293.19 386.96 288.65 C 384.13 290.70 382.31 294.03 379.04 295.45 C 374.24 295.77 372.82 290.37 368.99 288.84 M 384.12 297.61 C 385.83 299.69 387.57 301.75 389.41 303.73 C 391.06 300.50 388.34 297.65 386.14 295.62 C 385.46 296.28 384.79 296.94 384.12 297.61 M 342.04 302.81 C 346.61 304.59 351.93 304.60 355.96 301.54 C 354.39 299.90 352.64 298.45 350.73 297.24 C 350.14 299.18 349.71 302.06 346.95 301.53 C 345.71 300.29 345.04 298.64 344.20 297.15 C 342.65 298.67 342.12 300.70 342.04 302.81 M 289.95 300.97 C 286.25 302.11 286.53 306.99 289.33 308.97 C 290.10 306.76 289.87 303.57 292.37 302.46 C 296.01 300.92 300.20 301.91 303.80 300.16 C 300.02 296.17 294.17 299.45 289.95 300.97 Z" />
</g>
<g id="#eddfe2ff">
<path fill="#eddfe2" opacity="1.00" d=" M 321.13 281.99 C 325.86 281.58 330.55 280.96 335.25 280.32 C 335.13 282.34 335.01 284.37 334.90 286.39 C 330.08 285.89 324.34 286.40 321.13 281.99 Z" />
</g>
<g id="#ce4a4aff">
<path fill="#ce4a4a" opacity="1.00" d=" M 291.21 286.55 C 295.31 285.21 299.59 284.57 303.85 283.93 L 304.01 285.15 C 299.62 285.85 295.21 286.60 291.00 288.05 C 290.40 288.24 289.20 288.62 288.60 288.81 C 284.09 290.43 279.30 291.05 274.78 292.64 C 271.52 293.65 268.33 294.88 265.02 295.71 C 263.61 296.01 262.20 296.28 260.79 296.54 C 270.45 291.92 281.10 289.96 291.21 286.55 Z" />
</g>
<g id="#cb4444ff">
<path fill="#cb4444" opacity="1.00" d=" M 411.35 286.06 C 418.33 286.07 425.08 288.31 431.54 290.75 C 438.17 294.11 445.59 295.50 452.12 299.08 C 462.50 303.42 472.46 308.67 482.48 313.78 C 485.89 315.52 488.91 317.89 492.10 319.99 C 501.78 326.02 511.58 332.33 519.00 341.13 C 518.48 340.98 517.42 340.68 516.90 340.53 C 513.22 337.22 509.82 333.57 505.66 330.85 C 501.92 328.13 498.12 325.52 494.19 323.10 C 490.60 320.96 487.22 318.52 483.73 316.24 C 480.90 314.63 477.87 313.41 474.97 311.97 C 473.67 311.14 472.36 310.32 471.02 309.58 C 469.68 308.88 468.32 308.23 466.96 307.60 C 462.70 305.58 458.36 303.75 454.03 301.90 C 448.26 299.07 442.59 295.83 436.18 294.67 C 431.97 292.80 427.92 290.47 423.39 289.46 C 419.31 288.56 415.30 287.41 411.35 286.06 Z" />
</g>
<g id="#d3c0bdff">
<path fill="#d3c0bd" opacity="1.00" d=" M 306.95 287.85 C 311.11 288.78 312.41 294.40 316.96 294.35 C 320.59 294.08 322.47 290.52 324.69 288.12 C 325.12 288.58 326.00 289.49 326.43 289.95 C 325.71 291.28 325.00 292.61 324.29 293.94 C 327.16 296.37 328.47 299.87 328.99 303.51 C 328.48 303.45 327.47 303.33 326.97 303.27 C 326.75 302.63 326.31 301.35 326.10 300.72 C 324.96 298.85 323.67 297.10 322.39 295.34 C 319.93 296.02 317.25 297.62 314.73 296.30 C 311.22 294.61 307.16 292.22 306.95 287.85 Z" />
</g>
<g id="#d1bdbcff">
<path fill="#d1bdbc" opacity="1.00" d=" M 274.78 292.64 C 279.30 291.05 284.09 290.43 288.60 288.81 C 288.61 289.28 288.63 290.20 288.64 290.67 C 291.04 292.70 296.06 294.26 295.07 298.16 C 290.88 297.21 288.88 291.55 284.17 292.27 C 281.06 293.22 279.34 296.31 277.27 298.58 C 279.34 299.84 281.59 300.91 283.28 302.69 C 284.91 304.21 284.37 306.60 284.53 308.59 C 283.38 309.35 282.26 310.16 281.13 310.95 C 280.69 311.00 279.80 311.08 279.36 311.13 C 280.05 308.90 282.66 306.43 280.90 304.15 C 277.47 299.83 270.16 302.50 267.21 297.80 C 269.88 297.83 272.56 298.02 275.22 298.29 C 275.97 296.36 276.85 294.48 277.76 292.63 C 277.02 292.63 275.53 292.63 274.78 292.64 Z" />
</g>
<g id="#d3c1bfff">
<path fill="#d3c1bf" opacity="1.00" d=" M 368.99 288.84 C 372.82 290.37 374.24 295.77 379.04 295.45 C 382.31 294.03 384.13 290.70 386.96 288.65 C 388.72 293.19 384.22 295.96 380.72 297.52 C 376.69 299.16 373.29 295.71 370.41 293.43 C 368.79 292.47 369.27 290.39 368.99 288.84 Z" />
</g>
<g id="#c8b5b7ff">
<path fill="#c8b5b7" opacity="1.00" d=" M 398.74 300.58 C 399.70 296.45 403.36 293.79 407.14 292.44 C 411.33 291.20 415.01 294.51 417.70 297.29 C 418.91 298.18 418.72 299.82 417.73 300.80 C 414.22 299.21 412.77 293.92 408.24 294.36 C 404.60 295.23 402.75 299.06 400.31 301.60 C 401.14 302.34 401.97 303.09 402.81 303.84 C 401.85 303.78 400.90 303.72 399.95 303.67 C 398.00 303.52 396.04 303.40 394.10 303.26 C 393.28 302.66 392.47 302.05 391.67 301.43 C 394.03 301.16 396.38 300.88 398.74 300.58 Z" />
</g>
<g id="#edd2d3ff">
<path fill="#edd2d3" opacity="1.00" d=" M 265.02 295.71 C 268.33 294.88 271.52 293.65 274.78 292.64 C 275.53 292.63 277.02 292.63 277.76 292.63 C 276.85 294.48 275.97 296.36 275.22 298.29 C 272.56 298.02 269.88 297.83 267.21 297.80 C 270.16 302.50 277.47 299.83 280.90 304.15 C 282.66 306.43 280.05 308.90 279.36 311.13 C 279.80 311.08 280.69 311.00 281.13 310.95 C 280.24 311.67 279.37 312.41 278.50 313.16 C 278.66 313.84 279.00 315.21 279.17 315.90 C 277.88 316.29 276.61 316.75 275.34 317.21 C 275.50 316.22 275.66 315.24 275.82 314.26 C 272.54 314.19 269.26 314.13 265.99 314.08 C 267.14 307.99 267.20 301.59 265.02 295.71 M 268.02 311.08 C 268.24 311.63 268.68 312.74 268.90 313.29 C 272.14 313.56 275.34 312.68 278.38 311.62 C 275.10 310.28 271.45 310.71 268.02 311.08 Z" />
</g>
<g id="#d1c3bbff">
<path fill="#d1c3bb" opacity="1.00" d=" M 306.21 296.15 C 307.28 294.85 309.10 295.41 310.56 295.25 C 309.61 297.41 308.60 299.54 307.78 301.76 C 307.51 303.96 307.37 306.18 307.24 308.40 C 310.77 308.24 314.36 307.75 317.48 305.97 C 320.61 306.16 323.74 306.40 326.88 306.54 C 326.50 306.72 325.73 307.07 325.35 307.25 C 318.31 307.24 311.46 309.01 304.52 309.89 C 304.91 308.19 305.24 306.47 305.17 304.73 C 305.00 301.88 303.99 298.49 306.21 296.15 Z" />
</g>
<g id="#e9d1d1ff">
<path fill="#e9d1d1" opacity="1.00" d=" M 432.63 297.00 C 432.74 296.10 432.83 295.19 432.92 294.29 C 433.73 294.38 435.36 294.57 436.18 294.67 C 442.59 295.83 448.26 299.07 454.03 301.90 C 453.26 301.98 451.72 302.13 450.95 302.21 C 451.79 307.62 451.98 313.12 450.98 318.52 C 450.80 320.01 450.66 321.50 450.52 322.99 C 449.01 322.32 447.53 321.59 446.02 320.95 C 446.74 318.78 447.50 316.62 448.31 314.48 C 445.34 315.64 441.71 317.61 438.83 315.17 C 436.47 313.84 435.21 310.46 432.37 310.25 C 431.11 311.73 430.35 313.54 429.48 315.26 C 428.94 315.24 427.84 315.21 427.30 315.19 C 426.81 315.09 425.85 314.89 425.36 314.79 C 426.23 314.52 427.97 313.96 428.84 313.69 C 427.92 310.53 426.40 307.56 423.69 305.57 C 423.70 307.17 423.71 308.76 423.73 310.36 C 420.22 309.99 417.82 307.20 415.24 305.12 C 419.21 303.58 423.52 303.44 427.72 303.66 C 428.23 306.56 428.86 309.46 429.70 312.29 C 430.10 307.09 431.28 302.02 432.63 297.00 M 438.55 307.50 C 438.12 308.46 437.24 311.10 439.05 310.99 C 440.96 311.66 441.62 309.30 442.27 308.06 C 441.03 307.84 439.80 307.60 438.55 307.50 Z" />
</g>
<g id="#cdb1b2ff">
<path fill="#cdb1b2" opacity="1.00" d=" M 260.79 296.54 C 262.20 296.28 263.61 296.01 265.02 295.71 C 267.20 301.59 267.14 307.99 265.99 314.08 C 265.07 315.10 264.09 316.07 263.08 317.00 C 262.58 316.97 261.58 316.92 261.08 316.90 C 263.91 311.82 265.12 305.81 263.74 300.09 C 263.37 298.81 262.23 297.97 261.41 297.00 L 260.43 296.61 L 260.79 296.54 Z" />
</g>
<g id="#d0c2c3ff">
<path fill="#d0c2c3" opacity="1.00" d=" M 366.47 302.37 C 367.36 299.64 368.34 296.60 371.45 295.75 C 371.54 296.42 371.74 297.75 371.84 298.41 C 370.79 299.71 369.74 301.01 368.69 302.32 C 368.13 302.33 367.02 302.36 366.47 302.37 Z" />
</g>
<g id="#d8c8c7ff">
<path fill="#d8c8c7" opacity="1.00" d=" M 384.12 297.61 C 384.79 296.94 385.46 296.28 386.14 295.62 C 388.34 297.65 391.06 300.50 389.41 303.73 C 387.57 301.75 385.83 299.69 384.12 297.61 Z" />
</g>
<g id="#c83838ff">
<path fill="#c83838" opacity="1.00" d=" M 242.08 303.37 C 248.16 301.03 254.10 298.18 260.43 296.61 L 261.41 297.00 C 255.82 299.31 250.19 301.55 244.61 303.91 C 242.30 304.97 240.10 306.25 237.91 307.55 C 235.32 309.10 232.70 310.60 230.01 311.96 C 222.40 316.06 215.03 320.58 207.61 325.00 C 206.39 325.75 205.18 326.51 203.97 327.27 C 201.46 328.84 198.94 330.38 196.49 332.03 C 191.24 335.79 185.93 339.47 180.79 343.36 C 177.73 346.10 174.76 348.94 171.64 351.62 C 169.26 353.70 167.03 355.97 165.12 358.49 C 162.61 361.93 160.00 365.30 157.68 368.87 C 155.13 373.05 153.13 377.53 150.55 381.69 C 150.60 381.05 150.69 379.75 150.73 379.10 C 155.87 363.44 168.29 351.86 180.45 341.43 C 195.20 330.97 210.32 320.98 226.08 312.10 C 231.44 309.23 236.79 306.36 242.08 303.37 Z" />
</g>
<g id="#f5f4f1ff">
<path fill="#f5f4f1" opacity="1.00" d=" M 342.04 302.81 C 342.12 300.70 342.65 298.67 344.20 297.15 C 345.04 298.64 345.71 300.29 346.95 301.53 C 349.71 302.06 350.14 299.18 350.73 297.24 C 352.64 298.45 354.39 299.90 355.96 301.54 C 351.93 304.60 346.61 304.59 342.04 302.81 Z" />
</g>
<g id="#cab5b3ff">
<path fill="#cab5b3" opacity="1.00" d=" M 429.66 297.77 C 430.64 297.51 431.63 297.26 432.63 297.00 C 431.28 302.02 430.10 307.09 429.70 312.29 C 428.86 309.46 428.23 306.56 427.72 303.66 C 423.52 303.44 419.21 303.58 415.24 305.12 C 414.33 306.05 413.43 306.99 412.55 307.94 C 412.43 306.51 412.15 304.66 413.75 303.92 C 417.76 301.52 422.77 299.59 427.31 301.74 C 428.09 300.41 428.88 299.10 429.66 297.77 Z" />
</g>
<g id="#efc9caff">
<path fill="#efc9ca" opacity="1.00" d=" M 244.61 303.91 C 250.19 301.55 255.82 299.31 261.41 297.00 C 262.23 297.97 263.37 298.81 263.74 300.09 C 265.12 305.81 263.91 311.82 261.08 316.90 C 261.58 316.92 262.58 316.97 263.08 317.00 C 262.60 317.45 261.64 318.36 261.15 318.81 C 262.44 319.39 263.72 319.98 265.00 320.57 C 263.08 321.13 261.16 321.74 259.28 322.44 C 259.03 321.44 258.80 320.44 258.60 319.43 C 258.61 318.81 258.62 317.56 258.62 316.93 C 256.41 316.17 254.06 314.77 251.68 315.69 C 248.44 316.72 245.38 318.62 243.32 321.37 C 243.08 322.72 244.45 323.22 245.35 323.84 C 246.29 324.81 247.20 325.80 248.12 326.80 C 236.80 332.46 224.80 336.62 213.60 342.54 C 210.74 343.66 208.05 345.16 205.71 347.17 C 202.89 346.01 199.90 345.29 196.84 345.23 C 200.24 342.63 203.46 338.71 208.25 339.54 C 211.44 340.16 210.30 336.62 210.56 334.65 C 213.24 334.62 215.92 334.68 218.60 334.81 C 218.63 334.03 218.66 333.25 218.69 332.48 C 220.49 332.19 222.30 331.91 224.10 331.63 C 223.35 331.33 221.85 330.72 221.09 330.41 C 223.13 329.17 225.17 327.92 227.21 326.67 C 224.89 323.09 220.68 322.49 216.77 322.08 C 220.19 321.73 223.65 321.14 226.63 319.33 C 228.99 323.54 230.60 328.10 232.03 332.70 C 232.88 330.55 233.74 328.40 234.60 326.25 C 237.47 325.96 240.35 325.67 243.22 325.33 C 240.45 323.16 237.08 322.59 233.68 323.36 C 232.28 321.58 230.90 319.79 229.54 317.99 C 230.34 316.07 231.17 314.15 231.91 312.20 C 231.43 312.14 230.48 312.02 230.01 311.96 C 232.70 310.60 235.32 309.10 237.91 307.55 C 238.46 307.86 239.56 308.50 240.11 308.82 C 241.28 312.30 242.34 317.22 247.02 316.94 C 245.79 314.43 244.31 312.00 243.51 309.30 C 243.22 307.44 244.16 305.67 244.61 303.91 M 251.28 304.72 C 252.15 305.50 253.03 306.27 253.91 307.04 C 254.64 306.36 255.34 305.65 256.03 304.94 C 255.10 302.73 252.81 304.14 251.28 304.72 M 249.25 307.32 C 248.50 308.02 247.75 308.74 247.01 309.45 C 249.13 310.87 251.29 312.57 253.96 312.67 C 256.58 313.06 258.93 311.42 260.65 309.62 C 261.00 307.89 258.67 307.81 257.64 307.00 C 257.60 307.50 257.53 308.49 257.50 308.98 C 255.64 309.46 253.79 309.96 251.95 310.47 C 251.04 309.42 250.15 308.37 249.25 307.32 Z" />
</g>
<g id="#cdbbb9ff">
<path fill="#cdbbb9" opacity="1.00" d=" M 289.95 300.97 C 294.17 299.45 300.02 296.17 303.80 300.16 C 300.20 301.91 296.01 300.92 292.37 302.46 C 289.87 303.57 290.10 306.76 289.33 308.97 C 286.53 306.99 286.25 302.11 289.95 300.97 Z" />
</g>
<g id="#ededebff">
<path fill="#ededeb" opacity="1.00" d=" M 371.84 298.41 C 375.68 298.78 379.61 298.70 383.34 299.76 C 386.36 301.09 387.99 304.21 388.72 307.28 C 387.14 307.27 385.57 307.24 384.01 307.19 C 375.41 305.84 366.68 306.71 358.04 306.06 C 347.75 305.05 337.41 305.63 327.14 306.54 L 327.11 305.16 C 335.39 303.91 343.74 305.76 352.04 304.98 C 356.85 304.13 361.50 302.25 366.47 302.37 C 367.02 302.36 368.13 302.33 368.69 302.32 C 369.74 301.01 370.79 299.71 371.84 298.41 Z" />
</g>
<g id="#f6f3f0ff">
<path fill="#f6f3f0" opacity="1.00" d=" M 321.35 298.93 C 322.93 299.52 324.51 300.12 326.10 300.72 C 326.31 301.35 326.75 302.63 326.97 303.27 C 327.00 303.74 327.07 304.69 327.11 305.16 L 327.14 306.54 L 326.88 306.54 C 323.74 306.40 320.61 306.16 317.48 305.97 C 314.36 307.75 310.77 308.24 307.24 308.40 C 307.37 306.18 307.51 303.96 307.78 301.76 C 308.26 301.71 309.20 301.61 309.67 301.56 C 310.72 302.78 311.77 304.01 312.82 305.24 C 314.06 304.32 315.30 303.40 316.54 302.49 C 318.32 302.91 320.11 303.33 321.89 303.75 C 322.22 303.36 322.87 302.56 323.19 302.17 C 322.57 301.08 321.96 300.01 321.35 298.93 Z" />
</g>
<g id="#e7cecdff">
<path fill="#e7cecd" opacity="1.00" d=" M 450.95 302.21 C 451.72 302.13 453.26 301.98 454.03 301.90 C 458.36 303.75 462.70 305.58 466.96 307.60 C 466.65 309.70 466.47 312.22 464.30 313.29 C 461.09 315.71 455.83 312.93 453.48 316.71 C 456.08 316.97 458.70 317.15 461.31 317.34 C 462.61 321.05 465.81 323.30 469.20 324.96 C 467.94 325.04 466.69 325.13 465.44 325.25 C 464.83 326.21 464.22 327.17 463.62 328.13 C 462.75 327.76 461.90 327.40 461.03 327.06 C 461.46 325.83 461.92 324.62 462.37 323.40 C 461.33 321.75 460.30 320.10 459.28 318.45 C 456.51 318.38 453.74 318.41 450.98 318.52 C 451.98 313.12 451.79 307.62 450.95 302.21 Z" />
</g>
<g id="#f5f1f0ff">
<path fill="#f5f1f0" opacity="1.00" d=" M 300.79 303.00 C 302.25 303.59 303.70 304.16 305.17 304.73 C 305.24 306.47 304.91 308.19 304.52 309.89 C 301.03 310.49 297.57 311.25 294.12 312.06 C 292.93 310.14 291.78 308.21 290.70 306.23 C 293.61 307.12 296.65 307.80 299.69 307.11 C 300.05 305.74 300.42 304.37 300.79 303.00 Z" />
</g>
<g id="#f7f7f3ff">
<path fill="#f7f7f3" opacity="1.00" d=" M 394.10 303.26 C 396.04 303.40 398.00 303.52 399.95 303.67 C 402.12 304.90 403.85 306.72 405.53 308.54 C 404.55 308.79 402.59 309.31 401.61 309.56 C 395.78 308.50 389.88 307.91 384.01 307.19 C 385.57 307.24 387.14 307.27 388.72 307.28 C 389.23 307.28 390.24 307.29 390.75 307.29 C 390.98 306.53 391.43 305.00 391.66 304.24 C 392.46 303.90 393.28 303.57 394.10 303.26 Z" />
</g>
<g id="#cdaaaaff">
<path fill="#cdaaaa" opacity="1.00" d=" M 237.91 307.55 C 240.10 306.25 242.30 304.97 244.61 303.91 C 244.16 305.67 243.22 307.44 243.51 309.30 C 244.31 312.00 245.79 314.43 247.02 316.94 C 242.34 317.22 241.28 312.30 240.11 308.82 C 239.56 308.50 238.46 307.86 237.91 307.55 Z" />
</g>
<g id="#d4b7b7ff">
<path fill="#d4b7b7" opacity="1.00" d=" M 251.28 304.72 C 252.81 304.14 255.10 302.73 256.03 304.94 C 255.34 305.65 254.64 306.36 253.91 307.04 C 253.03 306.27 252.15 305.50 251.28 304.72 Z" />
</g>
<g id="#f3f2eeff">
<path fill="#f3f2ee" opacity="1.00" d=" M 412.55 307.94 C 413.43 306.99 414.33 306.05 415.24 305.12 C 417.82 307.20 420.22 309.99 423.73 310.36 C 423.71 308.76 423.70 307.17 423.69 305.57 C 426.40 307.56 427.92 310.53 428.84 313.69 C 427.97 313.96 426.23 314.52 425.36 314.79 C 420.11 314.02 415.17 311.26 409.77 311.77 C 409.65 311.65 409.42 311.41 409.31 311.29 C 410.80 311.23 412.32 311.21 413.84 311.18 C 413.39 310.10 412.96 309.02 412.55 307.94 Z" />
</g>
<g id="#d9b6b5ff">
<path fill="#d9b6b5" opacity="1.00" d=" M 249.25 307.32 C 250.15 308.37 251.04 309.42 251.95 310.47 C 253.79 309.96 255.64 309.46 257.50 308.98 C 257.53 308.49 257.60 307.50 257.64 307.00 C 258.67 307.81 261.00 307.89 260.65 309.62 C 258.93 311.42 256.58 313.06 253.96 312.67 C 251.29 312.57 249.13 310.87 247.01 309.45 C 247.75 308.74 248.50 308.02 249.25 307.32 Z" />
</g>
<g id="#dac1c1ff">
<path fill="#dac1c1" opacity="1.00" d=" M 438.55 307.50 C 439.80 307.60 441.03 307.84 442.27 308.06 C 441.62 309.30 440.96 311.66 439.05 310.99 C 437.24 311.10 438.12 308.46 438.55 307.50 Z" />
</g>
<g id="#f3f3f1ff">
<path fill="#f3f3f1" opacity="1.00" d=" M 284.53 308.59 C 287.19 308.67 289.47 310.15 291.73 311.38 C 290.72 312.08 289.70 312.77 288.68 313.45 C 285.54 314.39 282.32 315.01 279.17 315.90 C 279.00 315.21 278.66 313.84 278.50 313.16 C 279.37 312.41 280.24 311.67 281.13 310.95 C 282.26 310.16 283.38 309.35 284.53 308.59 Z" />
</g>
<g id="#d95e5dff">
<path fill="#d95e5d" opacity="1.00" d=" M 304.52 309.89 C 311.46 309.01 318.31 307.24 325.35 307.25 C 317.89 310.10 309.70 309.81 301.99 311.67 C 281.21 316.30 260.54 322.16 241.29 331.38 C 235.15 334.94 228.20 336.63 221.91 339.85 C 213.19 343.82 205.65 349.88 197.11 354.15 L 196.51 353.46 C 199.67 351.51 202.85 349.55 205.71 347.17 C 208.05 345.16 210.74 343.66 213.60 342.54 C 224.80 336.62 236.80 332.46 248.12 326.80 C 251.78 325.20 255.54 323.84 259.28 322.44 C 261.16 321.74 263.08 321.13 265.00 320.57 C 268.49 319.59 271.95 318.49 275.34 317.21 C 276.61 316.75 277.88 316.29 279.17 315.90 C 282.32 315.01 285.54 314.39 288.68 313.45 C 290.48 312.95 292.30 312.49 294.12 312.06 C 297.57 311.25 301.03 310.49 304.52 309.89 Z" />
</g>
<g id="#cfa9abff">
<path fill="#cfa9ab" opacity="1.00" d=" M 466.96 307.60 C 468.32 308.23 469.68 308.88 471.02 309.58 C 468.69 312.24 466.17 314.74 463.37 316.92 C 465.41 319.92 467.94 323.41 471.99 323.38 C 475.68 322.72 477.94 319.51 479.52 316.40 C 478.00 314.91 476.51 313.41 474.97 311.97 C 477.87 313.41 480.90 314.63 483.73 316.24 C 482.17 318.33 480.69 320.48 479.34 322.71 C 481.42 324.30 483.46 325.95 485.65 327.40 L 486.48 327.83 C 487.71 328.46 488.95 329.10 490.23 329.67 C 488.68 329.77 487.16 329.94 485.63 330.09 C 485.38 332.83 485.11 335.57 484.85 338.32 C 484.37 338.09 483.42 337.62 482.94 337.39 C 483.30 332.22 481.27 327.44 478.00 323.54 C 475.24 324.86 472.25 325.81 469.20 324.96 C 465.81 323.30 462.61 321.05 461.31 317.34 C 458.70 317.15 456.08 316.97 453.48 316.71 C 455.83 312.93 461.09 315.71 464.30 313.29 C 466.47 312.22 466.65 309.70 466.96 307.60 Z" />
</g>
<g id="#f7e9e9ff">
<path fill="#f7e9e9" opacity="1.00" d=" M 432.37 310.25 C 435.21 310.46 436.47 313.84 438.83 315.17 C 441.71 317.61 445.34 315.64 448.31 314.48 C 447.50 316.62 446.74 318.78 446.02 320.95 C 443.82 320.09 441.50 319.60 439.20 319.15 C 435.50 317.90 431.78 316.62 427.90 316.13 C 427.75 315.89 427.45 315.42 427.30 315.19 C 427.84 315.21 428.94 315.24 429.48 315.26 C 430.35 313.54 431.11 311.73 432.37 310.25 Z" />
</g>
<g id="#edc7c8ff">
<path fill="#edc7c8" opacity="1.00" d=" M 471.02 309.58 C 472.36 310.32 473.67 311.14 474.97 311.97 C 476.51 313.41 478.00 314.91 479.52 316.40 C 477.94 319.51 475.68 322.72 471.99 323.38 C 467.94 323.41 465.41 319.92 463.37 316.92 C 466.17 314.74 468.69 312.24 471.02 309.58 Z" />
</g>
<g id="#d5bfc2ff">
<path fill="#d5bfc2" opacity="1.00" d=" M 268.02 311.08 C 271.45 310.71 275.10 310.28 278.38 311.62 C 275.34 312.68 272.14 313.56 268.90 313.29 C 268.68 312.74 268.24 311.63 268.02 311.08 Z" />
</g>
<g id="#e4b3b2ff">
<path fill="#e4b3b2" opacity="1.00" d=" M 207.61 325.00 C 215.03 320.58 222.40 316.06 230.01 311.96 C 230.48 312.02 231.43 312.14 231.91 312.20 C 231.17 314.15 230.34 316.07 229.54 317.99 C 230.90 319.79 232.28 321.58 233.68 323.36 C 237.08 322.59 240.45 323.16 243.22 325.33 C 240.35 325.67 237.47 325.96 234.60 326.25 C 233.74 328.40 232.88 330.55 232.03 332.70 C 230.60 328.10 228.99 323.54 226.63 319.33 C 223.65 321.14 220.19 321.73 216.77 322.08 C 220.68 322.49 224.89 323.09 227.21 326.67 C 225.17 327.92 223.13 329.17 221.09 330.41 C 221.85 330.72 223.35 331.33 224.10 331.63 C 222.30 331.91 220.49 332.19 218.69 332.48 C 218.66 333.25 218.63 334.03 218.60 334.81 C 215.92 334.68 213.24 334.62 210.56 334.65 C 210.30 336.62 211.44 340.16 208.25 339.54 C 208.82 334.68 207.15 329.88 207.61 325.00 Z" />
</g>
<g id="#f5eae7ff">
<path fill="#f5eae7" opacity="1.00" d=" M 263.08 317.00 C 264.09 316.07 265.07 315.10 265.99 314.08 C 269.26 314.13 272.54 314.19 275.82 314.26 C 275.66 315.24 275.50 316.22 275.34 317.21 C 271.95 318.49 268.49 319.59 265.00 320.57 C 263.72 319.98 262.44 319.39 261.15 318.81 C 261.64 318.36 262.60 317.45 263.08 317.00 Z" />
</g>
<g id="#d1aeb0ff">
<path fill="#d1aeb0" opacity="1.00" d=" M 251.68 315.69 C 254.06 314.77 256.41 316.17 258.62 316.93 C 258.62 317.56 258.61 318.81 258.60 319.43 C 257.03 318.76 255.47 318.08 253.91 317.39 C 250.52 318.74 247.43 320.79 245.35 323.84 C 244.45 323.22 243.08 322.72 243.32 321.37 C 245.38 318.62 248.44 316.72 251.68 315.69 Z" />
</g>
<g id="#eec6c9ff">
<path fill="#eec6c9" opacity="1.00" d=" M 479.34 322.71 C 480.69 320.48 482.17 318.33 483.73 316.24 C 487.22 318.52 490.60 320.96 494.19 323.10 C 493.67 324.20 493.17 325.31 492.67 326.42 C 490.33 326.76 487.99 327.09 485.65 327.40 C 483.46 325.95 481.42 324.30 479.34 322.71 Z" />
</g>
<g id="#f6d8dcff">
<path fill="#f6d8dc" opacity="1.00" d=" M 245.35 323.84 C 247.43 320.79 250.52 318.74 253.91 317.39 C 255.47 318.08 257.03 318.76 258.60 319.43 C 258.80 320.44 259.03 321.44 259.28 322.44 C 255.54 323.84 251.78 325.20 248.12 326.80 C 247.20 325.80 246.29 324.81 245.35 323.84 Z" />
</g>
<g id="#f5e5e4ff">
<path fill="#f5e5e4" opacity="1.00" d=" M 450.98 318.52 C 453.74 318.41 456.51 318.38 459.28 318.45 C 460.30 320.10 461.33 321.75 462.37 323.40 C 461.92 324.62 461.46 325.83 461.03 327.06 C 457.51 325.74 453.95 324.53 450.52 322.99 C 450.66 321.50 450.80 320.01 450.98 318.52 Z" />
</g>
<g id="#db625fff">
<path fill="#db625f" opacity="1.00" d=" M 439.20 319.15 C 441.50 319.60 443.82 320.09 446.02 320.95 C 447.53 321.59 449.01 322.32 450.52 322.99 C 453.95 324.53 457.51 325.74 461.03 327.06 C 461.90 327.40 462.75 327.76 463.62 328.13 C 470.17 330.98 476.47 334.36 482.94 337.39 C 483.42 337.62 484.37 338.09 484.85 338.32 C 486.11 338.95 487.38 339.61 488.63 340.31 C 497.49 345.87 506.31 351.51 515.20 357.01 C 514.96 357.42 514.47 358.26 514.22 358.67 C 512.33 359.36 510.45 360.05 508.60 360.84 C 510.26 359.72 511.84 358.51 513.44 357.32 C 506.56 352.47 499.03 348.66 492.06 343.94 C 484.39 338.92 475.88 335.42 467.74 331.29 C 458.25 327.18 448.43 323.84 439.20 319.15 Z" />
</g>
<g id="#fefefeff">
<path fill="#fefefe" opacity="1.00" d=" M 291.06 326.80 C 293.57 325.03 296.17 323.29 299.08 322.25 C 301.79 321.73 304.03 323.87 306.33 324.95 C 308.80 323.80 311.15 321.55 314.06 322.06 C 316.88 323.04 319.39 324.72 321.98 326.19 C 319.24 328.14 316.37 330.28 312.99 330.89 C 310.73 330.48 308.83 329.05 306.82 328.04 C 304.29 329.17 301.90 331.50 298.95 330.91 C 296.18 329.83 293.66 328.20 291.06 326.80 Z" />
<path fill="#fefefe" opacity="1.00" d=" M 409.58 326.46 C 414.49 326.19 419.40 325.95 424.31 326.08 C 424.43 333.71 424.42 341.35 424.35 348.99 C 424.46 353.00 422.13 356.77 418.58 358.59 C 413.24 361.41 407.03 360.77 401.21 360.84 C 399.53 365.36 395.87 368.87 391.23 370.22 C 381.70 373.19 371.38 371.88 361.86 369.55 C 362.62 366.97 363.39 364.39 364.20 361.83 C 371.91 362.26 379.91 364.44 387.41 361.48 C 380.61 360.21 373.18 360.85 367.01 357.15 C 363.90 355.37 361.66 351.52 362.97 347.95 C 364.33 343.02 369.53 340.63 374.09 339.49 C 381.60 338.18 390.19 338.64 396.31 343.70 C 398.85 345.57 400.23 348.50 401.35 351.36 C 404.02 351.47 406.70 351.44 409.37 351.36 C 409.88 343.07 409.52 334.76 409.58 326.46 M 375.56 350.13 C 379.33 351.56 383.39 351.51 387.36 351.29 C 384.52 348.11 378.69 346.45 375.56 350.13 Z" />
<path fill="#fefefe" opacity="1.00" d=" M 338.34 327.09 C 343.21 326.61 348.11 326.22 353.01 326.52 C 352.95 337.81 353.08 349.10 352.94 360.38 C 348.10 360.47 343.27 360.85 338.43 360.74 C 338.27 349.53 338.45 338.31 338.34 327.09 Z" />
<path fill="#fefefe" opacity="1.00" d=" M 438.00 327.05 C 442.68 326.67 447.39 326.17 452.09 326.49 C 453.00 327.79 452.49 329.51 452.66 331.00 C 452.58 340.78 452.68 350.56 452.60 360.34 C 447.73 360.45 442.86 360.96 437.99 360.62 C 438.01 349.43 437.99 338.24 438.00 327.05 Z" />
<path fill="#fefefe" opacity="1.00" d=" M 301.36 332.50 C 309.33 331.16 318.40 331.77 324.78 337.27 C 329.72 341.46 331.15 349.83 326.88 354.93 C 322.50 358.60 316.52 359.24 311.06 359.96 C 301.07 361.18 290.99 360.79 280.95 360.79 C 275.19 360.80 269.57 359.49 263.97 358.34 C 260.80 358.80 257.62 360.03 255.16 362.12 C 254.74 363.47 255.20 364.27 256.56 364.53 C 265.50 366.97 274.88 365.86 283.98 365.27 C 286.54 366.52 286.36 370.47 287.57 372.84 C 276.36 374.64 264.85 374.93 253.61 373.24 C 249.63 372.42 245.38 371.51 242.25 368.76 C 239.72 366.53 239.48 362.32 241.71 359.81 C 244.58 356.33 249.06 354.94 253.08 353.25 C 250.18 351.38 247.35 349.42 244.59 347.36 C 244.61 345.00 244.61 342.65 244.61 340.30 C 255.80 338.72 267.25 337.73 278.47 339.65 C 280.87 340.20 283.96 341.14 284.44 343.98 C 283.97 347.21 281.59 349.61 279.09 351.48 C 289.73 351.31 300.38 351.34 311.02 351.60 C 305.45 351.20 299.59 351.05 294.56 348.35 C 292.03 346.98 289.73 344.11 290.60 341.08 C 291.81 336.22 296.89 333.68 301.36 332.50 M 301.53 342.74 C 306.32 343.90 311.42 344.07 316.19 342.71 C 312.04 340.05 305.20 338.73 301.53 342.74 M 260.18 346.58 C 262.13 347.56 264.08 348.56 266.01 349.59 C 267.89 348.87 269.72 347.97 271.28 346.69 C 267.59 346.24 263.88 346.37 260.18 346.58 Z" />
<path fill="#fefefe" opacity="1.00" d=" M 462.21 411.68 C 463.30 411.23 464.41 410.80 465.51 410.36 C 465.91 411.36 466.33 412.37 466.74 413.39 C 465.66 413.83 464.59 414.28 463.52 414.74 C 463.07 413.71 462.64 412.70 462.21 411.68 Z" />
<path fill="#fefefe" opacity="1.00" d=" M 250.49 414.12 C 251.59 414.54 252.69 414.96 253.79 415.40 C 253.45 416.38 253.12 417.36 252.79 418.35 C 251.67 418.01 250.56 417.68 249.45 417.36 C 249.79 416.27 250.13 415.18 250.49 414.12 Z" />
<path fill="#fefefe" opacity="1.00" d=" M 428.66 422.40 C 429.75 422.10 430.85 421.81 431.95 421.52 C 432.23 422.53 432.53 423.54 432.82 424.55 C 431.68 424.88 430.56 425.21 429.43 425.55 C 429.24 424.76 428.85 423.18 428.66 422.40 Z" />
<path fill="#fefefe" opacity="1.00" d=" M 308.50 423.17 C 310.08 423.41 311.70 423.68 313.08 424.54 C 312.05 424.74 309.99 425.12 308.95 425.32 C 309.73 425.52 311.29 425.92 312.06 426.12 L 311.93 427.67 C 310.25 427.35 308.56 427.03 306.89 426.71 C 307.42 425.53 307.96 424.35 308.50 423.17 Z" />
<path fill="#fefefe" opacity="1.00" d=" M 287.24 424.68 C 288.29 424.93 289.35 425.18 290.41 425.44 C 290.14 426.54 289.87 427.63 289.61 428.74 C 288.48 428.36 287.35 427.98 286.23 427.61 C 286.57 426.63 286.90 425.65 287.24 424.68 Z" />
</g>
<g id="#f2d0d5ff">
<path fill="#f2d0d5" opacity="1.00" d=" M 469.20 324.96 C 472.25 325.81 475.24 324.86 478.00 323.54 C 481.27 327.44 483.30 332.22 482.94 337.39 C 476.47 334.36 470.17 330.98 463.62 328.13 C 464.22 327.17 464.83 326.21 465.44 325.25 C 466.69 325.13 467.94 325.04 469.20 324.96 Z" />
</g>
<g id="#eebdbdff">
<path fill="#eebdbd" opacity="1.00" d=" M 494.19 323.10 C 498.12 325.52 501.92 328.13 505.66 330.85 C 505.79 332.51 505.84 334.19 506.19 335.84 C 507.62 338.52 510.83 339.33 513.39 340.56 C 511.17 342.99 509.21 345.65 507.61 348.52 C 509.44 347.78 511.43 347.26 513.03 346.03 C 514.56 344.38 515.59 342.35 516.90 340.53 C 517.42 340.68 518.48 340.98 519.00 341.13 C 519.38 344.03 521.11 346.41 522.93 348.60 C 521.65 348.83 520.38 349.07 519.11 349.32 C 519.96 349.70 520.82 350.08 521.68 350.47 C 520.42 351.38 519.16 352.29 517.91 353.20 C 517.43 351.74 516.97 350.22 516.02 348.98 C 514.72 348.16 513.03 348.58 511.58 348.38 C 514.11 351.22 516.34 354.38 517.41 358.08 C 516.86 357.81 515.76 357.28 515.20 357.01 C 506.31 351.51 497.49 345.87 488.63 340.31 C 490.22 339.98 491.84 339.68 493.45 339.41 C 495.82 339.27 498.41 339.75 500.55 338.46 C 503.73 337.14 503.65 331.89 500.65 330.43 C 496.30 328.14 491.26 328.16 486.48 327.83 L 485.65 327.40 C 487.99 327.09 490.33 326.76 492.67 326.42 C 493.17 325.31 493.67 324.20 494.19 323.10 Z" />
</g>
<g id="#cf9795ff">
<path fill="#cf9795" opacity="1.00" d=" M 203.97 327.27 C 205.18 326.51 206.39 325.75 207.61 325.00 C 207.15 329.88 208.82 334.68 208.25 339.54 C 205.52 336.02 204.59 331.58 203.97 327.27 Z" />
</g>
<g id="#eeb6b6ff">
<path fill="#eeb6b6" opacity="1.00" d=" M 203.97 327.27 C 204.59 331.58 205.52 336.02 208.25 339.54 C 203.46 338.71 200.24 342.63 196.84 345.23 C 199.90 345.29 202.89 346.01 205.71 347.17 C 202.85 349.55 199.67 351.51 196.51 353.46 C 196.30 353.18 195.87 352.62 195.65 352.35 C 195.44 349.83 195.62 347.28 195.10 344.81 C 194.65 342.47 192.05 341.79 190.33 340.61 C 192.05 338.80 193.65 336.89 195.14 334.90 C 198.14 335.21 201.26 335.48 204.07 334.09 C 201.56 333.32 199.03 332.66 196.49 332.03 C 198.94 330.38 201.46 328.84 203.97 327.27 Z" />
</g>
<g id="#c69893ff">
<path fill="#c69893" opacity="1.00" d=" M 486.48 327.83 C 491.26 328.16 496.30 328.14 500.65 330.43 C 503.65 331.89 503.73 337.14 500.55 338.46 C 498.41 339.75 495.82 339.27 493.45 339.41 C 495.96 338.16 500.74 337.34 499.55 333.50 C 497.54 330.44 493.45 330.39 490.23 329.67 C 488.95 329.10 487.71 328.46 486.48 327.83 Z" />
</g>
<g id="#f3cbcdff">
<path fill="#f3cbcd" opacity="1.00" d=" M 485.63 330.09 C 487.16 329.94 488.68 329.77 490.23 329.67 C 493.45 330.39 497.54 330.44 499.55 333.50 C 500.74 337.34 495.96 338.16 493.45 339.41 C 491.84 339.68 490.22 339.98 488.63 340.31 C 487.38 339.61 486.11 338.95 484.85 338.32 C 485.11 335.57 485.38 332.83 485.63 330.09 M 491.18 333.27 C 490.91 333.48 490.37 333.90 490.10 334.11 C 490.95 336.41 494.06 336.04 496.07 336.41 C 498.97 333.85 493.04 331.27 491.18 333.27 Z" />
</g>
<g id="#d2a09eff">
<path fill="#d2a09e" opacity="1.00" d=" M 505.66 330.85 C 509.82 333.57 513.22 337.22 516.90 340.53 C 515.59 342.35 514.56 344.38 513.03 346.03 C 511.43 347.26 509.44 347.78 507.61 348.52 C 509.21 345.65 511.17 342.99 513.39 340.56 C 510.83 339.33 507.62 338.52 506.19 335.84 C 505.84 334.19 505.79 332.51 505.66 330.85 Z" />
</g>
<g id="#cb9190ff">
<path fill="#cb9190" opacity="1.00" d=" M 180.79 343.36 C 185.93 339.47 191.24 335.79 196.49 332.03 C 199.03 332.66 201.56 333.32 204.07 334.09 C 201.26 335.48 198.14 335.21 195.14 334.90 C 193.65 336.89 192.05 338.80 190.33 340.61 C 192.05 341.79 194.65 342.47 195.10 344.81 C 195.62 347.28 195.44 349.83 195.65 352.35 C 195.87 352.62 196.30 353.18 196.51 353.46 L 197.11 354.15 C 195.73 354.81 194.38 355.52 193.07 356.31 C 193.16 353.65 193.82 350.87 192.94 348.28 C 191.72 345.65 189.78 343.46 187.97 341.23 C 185.81 342.05 183.64 342.86 181.44 343.55 L 180.79 343.36 Z" />
</g>
<g id="#d8aeadff">
<path fill="#d8aead" opacity="1.00" d=" M 491.18 333.27 C 493.04 331.27 498.97 333.85 496.07 336.41 C 494.06 336.04 490.95 336.41 490.10 334.11 C 490.37 333.90 490.91 333.48 491.18 333.27 Z" />
</g>
<g id="#efb3b4ff">
<path fill="#efb3b4" opacity="1.00" d=" M 181.44 343.55 C 183.64 342.86 185.81 342.05 187.97 341.23 C 189.78 343.46 191.72 345.65 192.94 348.28 C 193.82 350.87 193.16 353.65 193.07 356.31 C 190.87 357.66 188.79 359.19 186.63 360.59 C 183.09 363.24 178.69 363.94 174.38 363.81 C 174.01 362.54 173.64 361.29 173.27 360.03 C 175.91 359.84 178.69 360.08 181.22 359.17 C 183.61 356.81 183.84 353.21 184.68 350.14 C 186.22 349.45 189.23 349.51 188.11 347.05 C 186.07 345.57 183.76 344.51 181.44 343.55 Z" />
</g>
<g id="#eaa09eff">
<path fill="#eaa09e" opacity="1.00" d=" M 519.00 341.13 C 522.37 344.76 526.34 347.73 529.95 351.09 C 527.11 352.13 524.10 352.31 521.11 352.21 C 521.11 352.55 521.11 353.23 521.11 353.57 C 525.85 353.98 531.92 353.75 534.87 358.23 C 534.45 360.51 533.23 362.51 532.25 364.58 C 534.48 363.36 536.70 362.13 538.91 360.86 C 543.23 366.42 547.19 372.24 551.25 378.00 C 551.36 382.50 553.81 387.64 550.45 391.52 C 546.32 386.24 542.72 380.26 536.90 376.61 C 536.78 376.51 536.54 376.31 536.42 376.21 C 533.24 371.71 528.70 368.52 524.87 364.63 C 526.25 364.06 527.63 363.45 529.00 362.83 C 527.17 361.58 525.34 360.37 523.49 359.18 C 523.85 357.77 524.23 356.38 524.61 354.99 C 522.83 355.12 521.06 355.24 519.30 355.44 C 519.08 355.82 518.66 356.59 518.44 356.97 C 518.25 355.71 518.10 354.45 517.91 353.20 C 519.16 352.29 520.42 351.38 521.68 350.47 C 520.82 350.08 519.96 349.70 519.11 349.32 C 520.38 349.07 521.65 348.83 522.93 348.60 C 521.11 346.41 519.38 344.03 519.00 341.13 Z" />
</g>
<g id="#eb9b9cff">
<path fill="#eb9b9c" opacity="1.00" d=" M 171.64 351.62 C 174.76 348.94 177.73 346.10 180.79 343.36 L 181.44 343.55 C 183.76 344.51 186.07 345.57 188.11 347.05 C 189.23 349.51 186.22 349.45 184.68 350.14 C 183.84 353.21 183.61 356.81 181.22 359.17 C 178.69 360.08 175.91 359.84 173.27 360.03 C 173.64 361.29 174.01 362.54 174.38 363.81 C 178.69 363.94 183.09 363.24 186.63 360.59 C 186.55 361.04 186.39 361.92 186.32 362.36 C 185.97 365.10 184.91 367.71 183.14 369.84 C 182.81 369.71 182.14 369.43 181.81 369.29 C 183.18 367.60 184.00 365.57 184.66 363.52 C 181.02 364.39 178.81 367.54 176.16 369.89 C 171.89 373.92 167.36 377.89 164.54 383.14 C 161.91 386.14 159.76 389.51 157.83 393.00 C 157.56 392.44 157.31 391.87 157.07 391.31 C 158.54 383.90 159.28 376.33 157.68 368.87 C 160.00 365.30 162.61 361.93 165.12 358.49 C 166.87 361.51 169.14 364.33 172.98 364.24 C 171.48 361.92 169.69 359.71 168.82 357.05 C 169.39 355.07 170.46 353.29 171.64 351.62 M 169.97 371.00 C 172.87 370.46 174.22 366.99 176.05 364.90 C 173.25 365.75 168.38 367.02 169.97 371.00 M 162.23 370.60 C 160.80 370.89 159.83 372.12 158.71 372.95 C 162.39 373.67 166.14 373.61 169.87 373.56 C 167.34 372.54 164.88 371.26 162.23 370.60 Z" />
</g>
<g id="#cf9593ff">
<path fill="#cf9593" opacity="1.00" d=" M 511.58 348.38 C 513.03 348.58 514.72 348.16 516.02 348.98 C 516.97 350.22 517.43 351.74 517.91 353.20 C 518.10 354.45 518.25 355.71 518.44 356.97 C 518.46 360.37 521.54 362.31 524.00 364.06 C 523.07 364.33 522.17 364.63 521.28 364.97 C 519.52 363.59 517.76 362.22 516.00 360.85 C 514.91 362.11 513.81 363.36 512.73 364.63 C 512.02 364.71 510.62 364.88 509.91 364.96 C 511.44 362.93 512.93 360.87 514.22 358.67 C 514.47 358.26 514.96 357.42 515.20 357.01 C 515.76 357.28 516.86 357.81 517.41 358.08 C 516.34 354.38 514.11 351.22 511.58 348.38 Z" />
</g>
<g id="#cf8183ff">
<path fill="#cf8183" opacity="1.00" d=" M 529.95 351.09 C 533.23 354.06 536.33 357.25 538.91 360.86 C 536.70 362.13 534.48 363.36 532.25 364.58 C 533.23 362.51 534.45 360.51 534.87 358.23 C 531.92 353.75 525.85 353.98 521.11 353.57 C 521.11 353.23 521.11 352.55 521.11 352.21 C 524.10 352.31 527.11 352.13 529.95 351.09 Z" />
</g>
<g id="#d07b79ff">
<path fill="#d07b79" opacity="1.00" d=" M 165.12 358.49 C 167.03 355.97 169.26 353.70 171.64 351.62 C 170.46 353.29 169.39 355.07 168.82 357.05 C 169.69 359.71 171.48 361.92 172.98 364.24 C 169.14 364.33 166.87 361.51 165.12 358.49 Z" />
</g>
<g id="#f4c4c1ff">
<path fill="#f4c4c1" opacity="1.00" d=" M 519.30 355.44 C 521.06 355.24 522.83 355.12 524.61 354.99 C 524.23 356.38 523.85 357.77 523.49 359.18 C 525.34 360.37 527.17 361.58 529.00 362.83 C 527.63 363.45 526.25 364.06 524.87 364.63 L 524.00 364.06 C 521.54 362.31 518.46 360.37 518.44 356.97 C 518.66 356.59 519.08 355.82 519.30 355.44 Z" />
</g>
<g id="#edbebcff">
<path fill="#edbebc" opacity="1.00" d=" M 508.60 360.84 C 510.45 360.05 512.33 359.36 514.22 358.67 C 512.93 360.87 511.44 362.93 509.91 364.96 C 510.62 364.88 512.02 364.71 512.73 364.63 C 513.81 363.36 514.91 362.11 516.00 360.85 C 517.76 362.22 519.52 363.59 521.28 364.97 C 518.95 366.40 516.68 367.93 514.33 369.31 C 511.85 367.25 508.98 365.71 505.74 365.36 C 507.00 366.80 508.30 368.22 509.60 369.63 C 507.46 370.74 505.33 371.85 503.20 372.97 C 503.19 373.90 503.17 375.76 503.16 376.69 C 502.22 377.21 501.28 377.71 500.35 378.22 C 499.81 378.24 498.73 378.28 498.19 378.29 C 499.13 376.50 500.10 374.72 501.08 372.94 C 498.37 372.21 495.59 371.79 492.80 371.61 C 494.24 372.69 495.71 373.76 497.17 374.84 C 493.00 378.01 487.75 378.38 482.71 378.38 C 482.64 376.62 482.58 374.87 482.52 373.11 C 491.55 369.80 499.91 364.91 508.60 360.84 Z" />
</g>
<g id="#edbebdff">
<path fill="#edbebd" opacity="1.00" d=" M 186.32 362.36 C 194.35 365.92 201.91 370.59 210.25 373.40 C 209.83 375.05 209.41 376.70 208.99 378.37 C 204.13 378.30 198.73 378.45 195.06 374.69 C 196.10 373.63 197.14 372.57 198.17 371.50 C 195.55 371.81 192.98 372.48 190.63 373.73 C 193.11 377.61 197.49 379.22 201.83 379.87 C 201.82 381.05 201.80 382.21 201.79 383.39 C 197.50 381.23 193.34 378.85 189.19 376.44 C 189.28 372.74 186.06 371.09 183.14 369.84 C 184.91 367.71 185.97 365.10 186.32 362.36 Z" />
</g>
<g id="#cd8687ff">
<path fill="#cd8687" opacity="1.00" d=" M 176.16 369.89 C 178.81 367.54 181.02 364.39 184.66 363.52 C 184.00 365.57 183.18 367.60 181.81 369.29 C 181.14 369.42 179.81 369.66 179.14 369.79 C 178.14 369.83 177.15 369.87 176.16 369.89 Z" />
</g>
<g id="#d44443ff">
<path fill="#d44443" opacity="1.00" d=" M 521.28 364.97 C 522.17 364.63 523.07 364.33 524.00 364.06 L 524.87 364.63 C 528.70 368.52 533.24 371.71 536.42 376.21 C 531.34 373.45 528.02 368.51 523.28 365.35 C 517.91 368.09 513.12 371.90 507.47 374.16 C 509.67 372.43 511.91 370.73 514.33 369.31 C 516.68 367.93 518.95 366.40 521.28 364.97 Z" />
</g>
<g id="#d28c8bff">
<path fill="#d28c8b" opacity="1.00" d=" M 169.97 371.00 C 168.38 367.02 173.25 365.75 176.05 364.90 C 174.22 366.99 172.87 370.46 169.97 371.00 Z" />
</g>
<g id="#000000ff">
<path fill="#000000" opacity="1.00" d=" M 301.42 365.58 C 302.62 365.61 303.84 365.65 305.05 365.70 C 305.03 366.55 304.99 368.25 304.98 369.10 C 303.76 369.03 302.55 368.97 301.34 368.91 C 301.36 367.79 301.39 366.68 301.42 365.58 Z" />
<path fill="#000000" opacity="1.00" d=" M 306.59 365.67 C 307.67 365.61 308.76 365.55 309.85 365.49 C 309.89 366.66 309.97 367.83 310.07 369.01 C 309.23 369.03 307.56 369.06 306.72 369.08 C 306.68 367.94 306.62 366.80 306.59 365.67 Z" />
<path fill="#000000" opacity="1.00" d=" M 315.58 365.59 C 317.25 365.61 318.93 365.62 320.61 365.63 C 320.60 371.42 320.60 377.21 320.60 383.00 C 323.06 382.99 325.53 383.00 328.00 383.00 C 328.08 379.52 328.04 376.03 327.68 372.56 C 329.45 372.60 331.23 372.63 333.00 372.67 C 332.97 376.27 332.99 379.88 333.09 383.49 C 334.59 383.44 336.11 383.39 337.63 383.35 C 337.63 380.66 337.62 377.97 337.64 375.29 C 338.79 374.41 339.93 373.53 341.08 372.65 C 344.75 372.64 348.43 372.64 352.11 372.59 C 351.32 376.59 351.53 380.68 351.85 384.71 C 350.96 385.84 350.07 386.97 349.19 388.10 C 344.49 387.95 339.78 388.00 335.08 387.98 C 334.21 387.19 333.33 386.42 332.45 385.65 C 331.69 386.44 330.93 387.23 330.17 388.02 C 325.36 387.45 319.56 389.64 315.74 385.77 C 315.82 379.05 316.04 372.31 315.58 365.59 M 342.38 377.18 C 342.36 379.09 342.34 381.01 342.32 382.94 C 343.82 382.96 345.32 382.99 346.84 383.02 C 346.83 381.07 346.83 379.12 346.83 377.17 C 345.34 377.17 343.86 377.17 342.38 377.18 Z" />
<path fill="#000000" opacity="1.00" d=" M 328.65 366.43 C 329.73 366.39 330.82 366.35 331.91 366.32 C 331.95 367.56 331.99 368.81 332.04 370.07 C 330.86 369.97 329.69 369.91 328.51 369.87 C 328.56 368.72 328.61 367.57 328.65 366.43 Z" />
<path fill="#000000" opacity="1.00" d=" M 341.99 366.30 C 343.10 366.34 344.22 366.38 345.35 366.43 C 345.38 367.57 345.43 368.72 345.48 369.88 C 344.23 369.91 342.99 369.98 341.76 370.07 C 341.84 368.81 341.91 367.55 341.99 366.30 Z" />
<path fill="#000000" opacity="1.00" d=" M 347.06 366.35 C 348.24 366.36 349.42 366.37 350.61 366.39 C 350.62 367.56 350.64 368.73 350.66 369.91 C 349.43 369.95 348.20 369.99 346.97 370.04 C 347.00 368.80 347.03 367.58 347.06 366.35 Z" />
<path fill="#000000" opacity="1.00" d=" M 298.72 374.57 C 301.35 371.24 305.49 371.41 309.34 371.55 C 310.59 372.59 311.85 373.63 313.11 374.67 C 312.94 378.11 313.20 381.57 312.86 385.00 C 310.62 388.84 305.93 388.03 302.19 387.99 C 301.05 386.99 299.90 385.99 298.75 385.01 C 298.86 381.53 298.87 378.05 298.72 374.57 M 303.60 376.00 C 303.60 378.61 303.60 381.22 303.62 383.84 C 305.07 383.83 306.53 383.83 307.99 383.84 C 307.99 381.22 308.00 378.61 308.00 376.00 C 306.53 376.00 305.06 376.00 303.60 376.00 Z" />
</g>
<g id="#d29999ff">
<path fill="#d29999" opacity="1.00" d=" M 505.74 365.36 C 508.98 365.71 511.85 367.25 514.33 369.31 C 511.91 370.73 509.67 372.43 507.47 374.16 C 506.05 375.03 504.60 375.87 503.16 376.69 C 503.17 375.76 503.19 373.90 503.20 372.97 C 505.33 371.85 507.46 370.74 509.60 369.63 C 508.30 368.22 507.00 366.80 505.74 365.36 Z" />
</g>
<g id="#db787aff">
<path fill="#db787a" opacity="1.00" d=" M 150.55 381.69 C 153.13 377.53 155.13 373.05 157.68 368.87 C 159.28 376.33 158.54 383.90 157.07 391.31 C 156.84 390.66 156.39 389.38 156.16 388.73 C 156.11 386.89 154.99 385.41 153.45 384.50 C 152.39 383.66 151.49 382.65 150.55 381.69 Z" />
</g>
<g id="#d39a99ff">
<path fill="#d39a99" opacity="1.00" d=" M 179.14 369.79 C 179.81 369.66 181.14 369.42 181.81 369.29 C 182.14 369.43 182.81 369.71 183.14 369.84 C 186.06 371.09 189.28 372.74 189.19 376.44 C 185.67 374.49 182.29 372.29 179.14 369.79 Z" />
</g>
<g id="#bf6c70ff">
<path fill="#bf6c70" opacity="1.00" d=" M 162.23 370.60 C 164.88 371.26 167.34 372.54 169.87 373.56 C 166.14 373.61 162.39 373.67 158.71 372.95 C 159.83 372.12 160.80 370.89 162.23 370.60 Z" />
</g>
<g id="#cc4a49ff">
<path fill="#cc4a49" opacity="1.00" d=" M 164.54 383.14 C 167.36 377.89 171.89 373.92 176.16 369.89 C 177.15 369.87 178.14 369.83 179.14 369.79 C 182.29 372.29 185.67 374.49 189.19 376.44 C 193.34 378.85 197.50 381.23 201.79 383.39 C 204.88 384.91 208.04 386.27 211.22 387.58 C 212.97 388.29 214.73 388.97 216.48 389.70 C 218.72 390.63 220.91 391.68 223.16 392.61 C 224.53 393.09 225.92 393.51 227.31 393.97 C 232.78 395.91 238.36 397.53 243.74 399.72 C 245.06 400.27 246.38 400.84 247.71 401.38 C 253.62 403.40 259.91 404.32 265.55 407.12 C 267.10 407.81 268.63 408.51 270.19 409.20 C 263.35 408.92 257.47 405.02 250.84 403.76 C 238.84 399.49 226.85 395.15 214.92 390.67 C 204.46 385.80 193.83 381.14 184.19 374.75 C 181.92 373.22 179.75 371.41 177.09 370.61 C 172.52 374.39 169.34 379.58 164.54 383.14 Z" />
</g>
<g id="#d3aaaeff">
<path fill="#d3aaae" opacity="1.00" d=" M 190.63 373.73 C 192.98 372.48 195.55 371.81 198.17 371.50 C 197.14 372.57 196.10 373.63 195.06 374.69 C 198.73 378.45 204.13 378.30 208.99 378.37 C 209.41 376.70 209.83 375.05 210.25 373.40 C 211.60 373.82 212.95 374.24 214.31 374.64 C 213.60 374.70 212.17 374.81 211.46 374.86 C 212.40 378.08 214.04 381.07 216.67 383.22 C 220.01 382.62 223.52 382.14 226.83 383.20 C 229.67 383.89 231.78 386.03 234.32 387.33 C 236.68 387.99 239.16 388.04 241.58 388.42 C 238.60 389.82 235.25 389.46 232.10 390.07 C 229.91 390.41 228.75 392.53 227.31 393.97 C 225.92 393.51 224.53 393.09 223.16 392.61 C 226.13 391.30 228.96 389.70 231.63 387.87 C 229.37 386.05 226.98 384.03 223.94 383.88 C 221.18 383.48 218.80 385.21 216.44 386.33 C 216.45 387.45 216.46 388.57 216.48 389.70 C 214.73 388.97 212.97 388.29 211.22 387.58 C 212.46 386.46 213.70 385.34 214.93 384.22 C 211.46 380.60 206.52 380.22 201.83 379.87 C 197.49 379.22 193.11 377.61 190.63 373.73 Z" />
</g>
<g id="#d5acafff">
<path fill="#d5acaf" opacity="1.00" d=" M 492.80 371.61 C 495.59 371.79 498.37 372.21 501.08 372.94 C 500.10 374.72 499.13 376.50 498.19 378.29 C 498.73 378.28 499.81 378.24 500.35 378.22 C 497.37 379.98 494.43 381.81 491.30 383.27 C 491.13 382.49 490.79 380.94 490.62 380.16 C 485.67 379.76 480.69 380.63 476.92 384.06 C 478.20 385.19 479.48 386.33 480.76 387.48 C 478.93 388.20 477.12 388.95 475.32 389.73 C 476.48 385.51 471.43 383.54 468.03 383.93 C 464.99 383.98 462.60 385.97 460.46 387.89 C 463.10 389.69 465.88 391.26 468.81 392.54 C 467.45 393.02 466.08 393.42 464.73 393.86 C 463.23 392.49 462.02 390.42 459.87 390.07 C 456.68 389.57 453.36 389.67 450.34 388.39 C 452.82 388.04 455.33 387.82 457.81 387.41 C 458.17 387.08 458.90 386.44 459.26 386.11 C 463.08 382.67 468.38 382.33 473.27 382.66 C 477.70 383.34 479.20 378.21 480.47 374.99 C 479.54 374.97 477.69 374.93 476.76 374.91 C 478.68 374.31 480.60 373.72 482.52 373.11 C 482.58 374.87 482.64 376.62 482.71 378.38 C 487.75 378.38 493.00 378.01 497.17 374.84 C 495.71 373.76 494.24 372.69 492.80 371.61 Z" />
</g>
<g id="#e9cfd0ff">
<path fill="#e9cfd0" opacity="1.00" d=" M 211.46 374.86 C 212.17 374.81 213.60 374.70 214.31 374.64 C 222.42 376.97 229.90 381.36 238.41 382.33 L 237.33 382.51 C 235.68 382.80 234.07 383.26 232.45 383.71 C 235.75 387.69 241.76 387.88 245.79 384.91 C 246.61 385.14 247.43 385.37 248.26 385.60 C 247.89 386.90 247.54 388.22 247.18 389.53 C 250.59 388.93 254.27 388.54 257.42 390.30 C 260.20 391.39 261.30 394.37 262.63 396.79 C 263.56 394.63 264.73 392.58 266.02 390.63 L 266.28 391.63 C 265.68 395.30 264.13 398.72 262.43 402.00 C 263.06 402.05 264.32 402.15 264.95 402.20 C 265.97 401.07 266.99 399.94 268.02 398.83 C 268.63 399.07 269.84 399.55 270.44 399.79 C 268.21 401.16 265.93 402.44 263.61 403.65 C 264.25 404.80 264.90 405.96 265.55 407.12 C 259.91 404.32 253.62 403.40 247.71 401.38 C 245.78 396.64 245.39 391.52 245.48 386.46 C 244.46 387.64 242.59 388.47 242.57 390.24 C 242.56 393.43 243.31 396.57 243.74 399.72 C 238.36 397.53 232.78 395.91 227.31 393.97 C 228.75 392.53 229.91 390.41 232.10 390.07 C 235.25 389.46 238.60 389.82 241.58 388.42 C 239.16 388.04 236.68 387.99 234.32 387.33 C 231.78 386.03 229.67 383.89 226.83 383.20 C 223.52 382.14 220.01 382.62 216.67 383.22 C 214.04 381.07 212.40 378.08 211.46 374.86 Z" />
</g>
<g id="#f0cfd5ff">
<path fill="#f0cfd5" opacity="1.00" d=" M 454.72 382.04 C 462.51 381.17 469.38 377.17 476.76 374.91 C 477.69 374.93 479.54 374.97 480.47 374.99 C 479.20 378.21 477.70 383.34 473.27 382.66 C 468.38 382.33 463.08 382.67 459.26 386.11 C 457.80 386.42 456.33 386.67 454.86 386.87 C 456.21 385.70 457.56 384.55 458.92 383.38 C 457.87 383.03 456.83 382.69 455.78 382.37 L 454.72 382.04 Z" />
</g>
<g id="#d75957fb">
<path fill="#d75957" opacity="1.00" d=" M 536.90 376.61 C 542.72 380.26 546.32 386.24 550.45 391.52 C 553.81 387.64 551.36 382.50 551.25 378.00 C 553.11 380.31 554.51 382.95 555.58 385.72 C 553.91 388.35 552.28 391.01 550.46 393.54 C 546.30 387.61 541.50 382.19 536.90 376.61 Z" />
</g>
<g id="#efc7c9ff">
<path fill="#efc7c9" opacity="1.00" d=" M 201.79 383.39 C 201.80 382.21 201.82 381.05 201.83 379.87 C 206.52 380.22 211.46 380.60 214.93 384.22 C 213.70 385.34 212.46 386.46 211.22 387.58 C 208.04 386.27 204.88 384.91 201.79 383.39 Z" />
</g>
<g id="#f0c6c9ff">
<path fill="#f0c6c9" opacity="1.00" d=" M 476.92 384.06 C 480.69 380.63 485.67 379.76 490.62 380.16 C 490.79 380.94 491.13 382.49 491.30 383.27 C 490.01 383.87 488.72 384.45 487.43 385.04 C 485.20 385.83 482.96 386.60 480.76 387.48 C 479.48 386.33 478.20 385.19 476.92 384.06 Z" />
</g>
<g id="#d56564ff">
<path fill="#d56564" opacity="1.00" d=" M 238.41 382.33 C 244.32 382.94 249.80 385.36 255.58 386.56 C 278.12 391.15 300.88 395.33 323.94 395.88 C 335.30 395.84 346.65 396.49 358.00 395.94 C 377.44 396.16 396.88 394.12 415.97 390.48 C 425.70 388.54 435.61 387.28 445.07 384.20 C 448.21 383.17 451.45 382.52 454.72 382.04 L 455.78 382.37 C 452.55 383.03 449.38 383.95 446.22 384.89 C 445.39 385.12 444.56 385.36 443.73 385.60 C 430.74 388.90 417.50 391.12 404.33 393.56 C 403.94 393.63 403.17 393.78 402.79 393.85 C 397.23 394.54 391.67 395.14 386.10 395.69 C 366.17 397.30 346.16 397.64 326.17 396.92 C 319.64 396.77 313.13 396.10 306.61 395.72 C 306.45 395.71 306.12 395.70 305.95 395.69 C 300.44 395.15 294.93 394.61 289.45 393.84 C 287.09 393.35 284.71 392.99 282.34 392.62 C 270.96 390.38 259.48 388.55 248.26 385.60 C 247.43 385.37 246.61 385.14 245.79 384.91 C 242.99 384.06 240.19 383.17 237.33 382.51 L 238.41 382.33 Z" />
</g>
<g id="#f4e4e6ff">
<path fill="#f4e4e6" opacity="1.00" d=" M 232.45 383.71 C 234.07 383.26 235.68 382.80 237.33 382.51 C 240.19 383.17 242.99 384.06 245.79 384.91 C 241.76 387.88 235.75 387.69 232.45 383.71 Z" />
</g>
<g id="#f6e5e7ff">
<path fill="#f6e5e7" opacity="1.00" d=" M 446.22 384.89 C 449.38 383.95 452.55 383.03 455.78 382.37 C 456.83 382.69 457.87 383.03 458.92 383.38 C 457.56 384.55 456.21 385.70 454.86 386.87 C 451.82 387.15 448.74 386.72 446.22 384.89 Z" />
</g>
<g id="#ecc8c8ff">
<path fill="#ecc8c8" opacity="1.00" d=" M 216.44 386.33 C 218.80 385.21 221.18 383.48 223.94 383.88 C 226.98 384.03 229.37 386.05 231.63 387.87 C 228.96 389.70 226.13 391.30 223.16 392.61 C 220.91 391.68 218.72 390.63 216.48 389.70 C 216.46 388.57 216.45 387.45 216.44 386.33 Z" />
<path fill="#ecc8c8" opacity="1.00" d=" M 460.46 387.89 C 462.60 385.97 464.99 383.98 468.03 383.93 C 471.43 383.54 476.48 385.51 475.32 389.73 C 473.14 390.65 470.99 391.64 468.81 392.54 C 465.88 391.26 463.10 389.69 460.46 387.89 Z" />
</g>
<g id="#e8cfcfff">
<path fill="#e8cfcf" opacity="1.00" d=" M 443.73 385.60 C 444.56 385.36 445.39 385.12 446.22 384.89 C 448.74 386.72 451.82 387.15 454.86 386.87 C 456.33 386.67 457.80 386.42 459.26 386.11 C 458.90 386.44 458.17 387.08 457.81 387.41 C 455.33 387.82 452.82 388.04 450.34 388.39 C 453.36 389.67 456.68 389.57 459.87 390.07 C 462.02 390.42 463.23 392.49 464.73 393.86 C 459.21 395.78 453.62 397.47 448.19 399.61 C 448.66 396.30 449.69 393.01 449.45 389.64 C 448.69 388.38 447.70 387.26 446.81 386.11 C 446.32 391.00 446.03 395.92 445.34 400.79 C 439.02 403.31 432.11 404.08 426.04 407.29 C 426.97 405.93 427.91 404.58 428.75 403.17 C 428.90 402.86 429.20 402.22 429.35 401.90 C 427.73 398.60 426.71 395.07 426.55 391.39 C 427.53 393.14 428.45 394.94 429.35 396.75 C 430.71 394.38 431.85 391.58 434.45 390.31 C 437.61 388.34 441.43 389.10 444.89 389.57 C 444.50 388.25 444.10 386.91 443.73 385.60 Z" />
</g>
<g id="#cb5959ff">
<path fill="#cb5959" opacity="1.00" d=" M 480.76 387.48 C 482.96 386.60 485.20 385.83 487.43 385.04 C 478.36 390.92 467.78 393.64 457.84 397.62 C 450.83 399.76 444.19 402.94 437.07 404.72 C 430.98 406.50 425.23 409.40 418.91 410.39 C 405.56 413.41 392.22 416.89 378.49 417.52 L 376.94 417.22 C 377.37 417.12 378.24 416.94 378.67 416.84 C 383.45 415.75 388.33 415.27 393.17 414.56 C 394.76 414.31 396.36 414.05 397.95 413.76 C 407.27 411.41 416.83 410.01 426.04 407.29 C 432.11 404.08 439.02 403.31 445.34 400.79 C 446.28 400.39 447.23 400.00 448.19 399.61 C 453.62 397.47 459.21 395.78 464.73 393.86 C 466.08 393.42 467.45 393.02 468.81 392.54 C 470.99 391.64 473.14 390.65 475.32 389.73 C 477.12 388.95 478.93 388.20 480.76 387.48 Z" />
</g>
<g id="#f1e8e4ff">
<path fill="#f1e8e4" opacity="1.00" d=" M 248.26 385.60 C 259.48 388.55 270.96 390.38 282.34 392.62 C 282.41 393.72 282.49 394.82 282.53 395.92 C 278.09 396.85 273.52 397.95 268.96 397.19 C 267.74 395.51 267.00 393.55 266.28 391.63 L 266.02 390.63 C 264.73 392.58 263.56 394.63 262.63 396.79 C 261.30 394.37 260.20 391.39 257.42 390.30 C 254.27 388.54 250.59 388.93 247.18 389.53 C 247.54 388.22 247.89 386.90 248.26 385.60 Z" />
</g>
<g id="#f1e7e3ff">
<path fill="#f1e7e3" opacity="1.00" d=" M 404.33 393.56 C 417.50 391.12 430.74 388.90 443.73 385.60 C 444.10 386.91 444.50 388.25 444.89 389.57 C 441.43 389.10 437.61 388.34 434.45 390.31 C 431.85 391.58 430.71 394.38 429.35 396.75 C 428.45 394.94 427.53 393.14 426.55 391.39 C 425.26 393.11 424.19 394.97 423.20 396.86 C 418.11 397.40 413.02 396.69 408.11 395.32 C 408.26 395.79 408.56 396.72 408.71 397.18 C 410.07 397.93 411.44 398.68 412.82 399.43 C 412.16 400.42 411.49 401.41 410.82 402.40 C 410.31 402.15 409.29 401.65 408.79 401.41 C 407.90 400.16 407.04 398.90 406.16 397.65 C 404.15 399.24 402.13 400.83 400.14 402.44 C 399.75 401.42 399.37 400.40 399.00 399.38 C 401.10 397.76 402.97 395.86 404.33 393.56 Z" />
</g>
<g id="#d4b8b8ff">
<path fill="#d4b8b8" opacity="1.00" d=" M 242.57 390.24 C 242.59 388.47 244.46 387.64 245.48 386.46 C 245.39 391.52 245.78 396.64 247.71 401.38 C 246.38 400.84 245.06 400.27 243.74 399.72 C 243.31 396.57 242.56 393.43 242.57 390.24 Z" />
</g>
<g id="#d4b9baff">
<path fill="#d4b9ba" opacity="1.00" d=" M 445.34 400.79 C 446.03 395.92 446.32 391.00 446.81 386.11 C 447.70 387.26 448.69 388.38 449.45 389.64 C 449.69 393.01 448.66 396.30 448.19 399.61 C 447.23 400.00 446.28 400.39 445.34 400.79 Z" />
</g>
<g id="#cab8b7ff">
<path fill="#cab8b7" opacity="1.00" d=" M 262.43 402.00 C 264.13 398.72 265.68 395.30 266.28 391.63 C 267.00 393.55 267.74 395.51 268.96 397.19 C 273.52 397.95 278.09 396.85 282.53 395.92 C 282.54 396.24 282.55 396.88 282.55 397.20 C 278.88 399.27 274.66 400.36 270.44 399.79 C 269.84 399.55 268.63 399.07 268.02 398.83 C 266.99 399.94 265.97 401.07 264.95 402.20 C 264.32 402.15 263.06 402.05 262.43 402.00 Z" />
</g>
<g id="#d0bfc0ff">
<path fill="#d0bfc0" opacity="1.00" d=" M 423.20 396.86 C 424.19 394.97 425.26 393.11 426.55 391.39 C 426.71 395.07 427.73 398.60 429.35 401.90 C 429.20 402.22 428.90 402.86 428.75 403.17 C 424.92 400.69 420.39 399.62 415.87 400.43 C 413.58 403.82 410.26 406.85 406.02 407.31 C 403.80 407.06 401.72 406.19 399.63 405.46 C 398.16 407.79 394.14 411.60 397.95 413.76 C 396.36 414.05 394.76 414.31 393.17 414.56 C 393.36 413.49 393.55 412.43 393.74 411.38 C 390.22 411.39 386.60 411.11 383.18 412.13 C 380.99 412.85 380.00 415.17 378.67 416.84 C 378.24 416.94 377.37 417.12 376.94 417.22 C 376.65 417.17 376.08 417.06 375.80 417.01 C 376.98 413.48 379.86 411.22 383.12 409.68 C 380.58 407.32 377.89 404.35 374.16 404.27 C 370.99 404.55 369.12 407.44 367.09 409.52 C 370.44 411.23 373.04 413.94 375.28 416.92 C 374.15 416.86 373.04 416.83 371.93 416.83 C 370.31 413.37 366.48 412.04 362.94 411.73 C 360.46 411.70 360.10 414.52 359.28 416.23 C 361.37 415.97 363.48 415.71 365.58 415.45 C 366.02 415.82 366.89 416.55 367.33 416.91 C 364.03 416.96 360.75 417.03 357.46 417.06 C 357.30 414.81 357.61 412.43 356.81 410.28 C 355.88 408.92 354.63 407.83 353.47 406.70 C 349.93 407.66 346.25 407.54 342.79 406.33 C 339.46 409.06 337.22 412.89 337.31 417.28 C 336.80 417.28 335.77 417.28 335.26 417.28 C 335.13 415.45 335.01 413.63 334.88 411.82 C 329.71 411.33 322.16 411.06 320.15 417.11 C 318.99 417.07 317.83 417.04 316.67 416.99 C 318.83 413.90 321.47 411.18 324.84 409.40 C 322.74 407.16 320.58 404.01 317.12 404.27 C 313.76 404.79 311.45 407.55 309.03 409.69 C 312.19 411.27 314.97 413.53 316.17 416.98 C 315.23 416.89 314.29 416.78 313.36 416.66 C 312.03 415.03 311.09 412.70 308.90 412.06 C 305.43 411.32 301.78 411.59 298.42 410.28 C 301.09 408.99 304.04 409.08 306.91 409.46 C 308.07 407.76 309.23 406.05 310.37 404.34 C 307.81 402.87 305.54 400.78 306.54 397.55 C 308.12 399.23 309.68 401.06 311.75 402.18 C 315.47 402.69 319.31 402.26 322.94 403.46 C 324.48 402.00 326.01 400.53 327.55 399.08 C 329.23 401.77 326.04 403.26 324.31 404.69 C 325.48 406.15 326.65 407.61 327.81 409.08 C 330.26 409.28 332.72 409.48 335.17 409.69 C 336.73 408.18 338.30 406.67 339.86 405.16 C 339.63 403.74 339.40 402.32 339.17 400.91 C 342.06 402.57 344.74 404.81 347.99 405.68 C 350.50 405.52 352.50 403.74 354.64 402.60 C 355.61 402.22 356.81 400.71 357.69 402.02 C 357.44 403.25 357.09 404.47 356.74 405.69 C 357.92 407.01 359.12 408.33 360.31 409.65 C 361.99 409.63 363.67 409.61 365.35 409.60 C 365.45 408.59 365.54 407.59 365.65 406.59 C 367.64 405.24 369.58 403.73 371.85 402.86 C 374.44 402.18 377.15 402.80 379.77 402.42 C 382.14 401.28 384.01 399.35 386.10 397.80 C 386.02 400.82 384.29 403.06 381.63 404.32 C 382.77 405.93 383.91 407.53 385.07 409.14 C 387.86 409.18 390.66 409.26 393.45 409.40 C 394.85 407.76 396.24 406.11 397.62 404.45 C 396.67 403.20 395.71 401.96 394.76 400.73 C 392.35 400.47 389.95 400.15 387.56 399.74 C 389.43 399.19 391.31 398.66 393.23 398.26 C 396.83 397.84 400.23 396.49 402.79 393.85 C 403.17 393.78 403.94 393.63 404.33 393.56 C 402.97 395.86 401.10 397.76 399.00 399.38 C 399.37 400.40 399.75 401.42 400.14 402.44 C 401.34 403.38 402.58 404.37 404.08 404.83 C 406.60 405.40 408.88 403.80 410.82 402.40 C 411.49 401.41 412.16 400.42 412.82 399.43 C 411.44 398.68 410.07 397.93 408.71 397.18 C 408.56 396.72 408.26 395.79 408.11 395.32 C 413.02 396.69 418.11 397.40 423.20 396.86 Z" />
</g>
<g id="#ebd9dbff">
<path fill="#ebd9db" opacity="1.00" d=" M 282.34 392.62 C 284.71 392.99 287.09 393.35 289.45 393.84 C 291.38 395.14 293.33 396.46 295.53 397.27 C 294.33 398.71 294.70 400.40 295.36 401.98 C 293.70 405.53 295.30 409.27 296.40 412.72 C 294.87 412.86 293.34 412.98 291.82 413.09 C 285.32 412.04 279.04 409.75 272.42 409.48 C 271.67 409.38 270.93 409.30 270.19 409.20 C 268.63 408.51 267.10 407.81 265.55 407.12 C 264.90 405.96 264.25 404.80 263.61 403.65 C 265.93 402.44 268.21 401.16 270.44 399.79 C 274.66 400.36 278.88 399.27 282.55 397.20 C 282.55 396.88 282.54 396.24 282.53 395.92 C 282.49 394.82 282.41 393.72 282.34 392.62 Z" />
</g>
<g id="#fdfdf8ff">
<path fill="#fdfdf8" opacity="1.00" d=" M 289.45 393.84 C 294.93 394.61 300.44 395.15 305.95 395.69 C 303.24 398.69 299.04 397.68 295.53 397.27 C 293.33 396.46 291.38 395.14 289.45 393.84 Z" />
</g>
<g id="#fdfcf7ff">
<path fill="#fdfcf7" opacity="1.00" d=" M 386.10 395.69 C 391.67 395.14 397.23 394.54 402.79 393.85 C 400.23 396.49 396.83 397.84 393.23 398.26 C 390.60 398.22 388.03 397.56 386.10 395.69 Z" />
</g>
<g id="#eedcdcff">
<path fill="#eedcdc" opacity="1.00" d=" M 305.95 395.69 C 306.12 395.70 306.45 395.71 306.61 395.72 C 306.60 396.18 306.56 397.09 306.54 397.55 C 305.54 400.78 307.81 402.87 310.37 404.34 C 309.23 406.05 308.07 407.76 306.91 409.46 C 304.04 409.08 301.09 408.99 298.42 410.28 C 301.78 411.59 305.43 411.32 308.90 412.06 C 311.09 412.70 312.03 415.03 313.36 416.66 C 306.17 415.54 298.94 414.61 291.82 413.09 C 293.34 412.98 294.87 412.86 296.40 412.72 C 295.30 409.27 293.70 405.53 295.36 401.98 C 294.70 400.40 294.33 398.71 295.53 397.27 C 299.04 397.68 303.24 398.69 305.95 395.69 Z" />
</g>
<g id="#eeebe9ff">
<path fill="#eeebe9" opacity="1.00" d=" M 306.61 395.72 C 313.13 396.10 319.64 396.77 326.17 396.92 C 326.52 397.46 327.21 398.54 327.55 399.08 C 326.01 400.53 324.48 402.00 322.94 403.46 C 319.31 402.26 315.47 402.69 311.75 402.18 C 309.68 401.06 308.12 399.23 306.54 397.55 C 306.56 397.09 306.60 396.18 306.61 395.72 Z" />
</g>
<g id="#eee1e1ff">
<path fill="#eee1e1" opacity="1.00" d=" M 326.17 396.92 C 346.16 397.64 366.17 397.30 386.10 395.69 C 388.03 397.56 390.60 398.22 393.23 398.26 C 391.31 398.66 389.43 399.19 387.56 399.74 C 389.95 400.15 392.35 400.47 394.76 400.73 C 395.71 401.96 396.67 403.20 397.62 404.45 C 396.24 406.11 394.85 407.76 393.45 409.40 C 390.66 409.26 387.86 409.18 385.07 409.14 C 383.91 407.53 382.77 405.93 381.63 404.32 C 384.29 403.06 386.02 400.82 386.10 397.80 C 384.01 399.35 382.14 401.28 379.77 402.42 C 377.15 402.80 374.44 402.18 371.85 402.86 C 369.58 403.73 367.64 405.24 365.65 406.59 C 365.54 407.59 365.45 408.59 365.35 409.60 C 363.67 409.61 361.99 409.63 360.31 409.65 C 359.12 408.33 357.92 407.01 356.74 405.69 C 357.09 404.47 357.44 403.25 357.69 402.02 C 356.81 400.71 355.61 402.22 354.64 402.60 C 352.50 403.74 350.50 405.52 347.99 405.68 C 344.74 404.81 342.06 402.57 339.17 400.91 C 339.40 402.32 339.63 403.74 339.86 405.16 C 338.30 406.67 336.73 408.18 335.17 409.69 C 332.72 409.48 330.26 409.28 327.81 409.08 C 326.65 407.61 325.48 406.15 324.31 404.69 C 326.04 403.26 329.23 401.77 327.55 399.08 C 327.21 398.54 326.52 397.46 326.17 396.92 Z" />
</g>
<g id="#e9d7d5ff">
<path fill="#e9d7d5" opacity="1.00" d=" M 400.14 402.44 C 402.13 400.83 404.15 399.24 406.16 397.65 C 407.04 398.90 407.90 400.16 408.79 401.41 C 409.29 401.65 410.31 402.15 410.82 402.40 C 408.88 403.80 406.60 405.40 404.08 404.83 C 402.58 404.37 401.34 403.38 400.14 402.44 Z" />
</g>
<g id="#f0dcdfff">
<path fill="#f0dcdf" opacity="1.00" d=" M 415.87 400.43 C 420.39 399.62 424.92 400.69 428.75 403.17 C 427.91 404.58 426.97 405.93 426.04 407.29 C 416.83 410.01 407.27 411.41 397.95 413.76 C 394.14 411.60 398.16 407.79 399.63 405.46 C 401.72 406.19 403.80 407.06 406.02 407.31 C 410.26 406.85 413.58 403.82 415.87 400.43 Z" />
</g>
<g id="#ecdcdeff">
<path fill="#ecdcde" opacity="1.00" d=" M 309.03 409.69 C 311.45 407.55 313.76 404.79 317.12 404.27 C 320.58 404.01 322.74 407.16 324.84 409.40 C 321.47 411.18 318.83 413.90 316.67 416.99 L 316.17 416.98 C 314.97 413.53 312.19 411.27 309.03 409.69 Z" />
</g>
<g id="#eddcdeff">
<path fill="#eddcde" opacity="1.00" d=" M 367.09 409.52 C 369.12 407.44 370.99 404.55 374.16 404.27 C 377.89 404.35 380.58 407.32 383.12 409.68 C 379.86 411.22 376.98 413.48 375.80 417.01 L 375.28 416.92 C 373.04 413.94 370.44 411.23 367.09 409.52 Z" />
</g>
<g id="#e6dbddff">
<path fill="#e6dbdd" opacity="1.00" d=" M 342.79 406.33 C 346.25 407.54 349.93 407.66 353.47 406.70 C 354.63 407.83 355.88 408.92 356.81 410.28 C 357.61 412.43 357.30 414.81 357.46 417.06 C 350.74 416.93 344.02 416.96 337.31 417.28 C 337.22 412.89 339.46 409.06 342.79 406.33 Z" />
</g>
<g id="#ffffffff">
<path fill="#ffffff" opacity="1.00" d=" M 240.12 409.71 C 241.65 410.30 243.17 410.90 244.70 411.50 C 243.14 415.88 241.64 420.29 240.06 424.67 C 242.01 425.42 243.96 426.18 245.92 426.94 C 246.77 424.26 247.58 421.57 248.29 418.86 C 249.85 419.38 251.41 419.93 252.98 420.47 C 252.13 423.15 251.28 425.83 250.40 428.49 C 251.61 428.87 252.83 429.25 254.04 429.63 C 254.85 426.91 255.66 424.20 256.46 421.48 C 257.97 421.99 259.49 422.52 261.01 423.04 C 260.15 425.72 259.36 428.43 258.60 431.15 C 259.83 431.52 261.05 431.90 262.28 432.28 C 263.04 429.53 263.79 426.77 264.47 424.00 C 266.06 424.48 267.65 424.96 269.26 425.43 C 268.31 428.14 267.58 430.92 266.94 433.71 C 268.22 433.99 269.50 434.28 270.79 434.56 C 271.34 431.79 272.02 429.05 272.60 426.29 C 274.18 426.74 275.77 427.18 277.36 427.61 C 276.57 430.35 275.89 433.11 275.27 435.90 C 276.20 436.09 278.04 436.47 278.96 436.66 C 279.31 434.70 279.69 432.77 280.04 430.82 C 284.25 427.84 289.09 430.67 293.58 431.28 C 292.76 433.97 292.09 436.71 291.58 439.48 C 293.78 439.94 296.00 440.34 298.23 440.75 C 298.73 437.93 299.16 435.09 299.36 432.23 C 300.92 432.59 302.49 432.93 304.07 433.28 C 303.02 437.40 304.47 443.32 299.86 445.48 C 297.29 444.96 294.72 444.53 292.16 443.99 C 291.78 443.37 291.03 442.13 290.65 441.51 C 290.20 441.99 289.29 442.96 288.83 443.44 C 284.67 442.47 280.50 441.56 276.32 440.64 C 275.73 439.85 275.12 439.09 274.48 438.35 C 272.44 438.60 270.41 438.93 268.35 438.76 C 267.62 437.73 266.87 436.70 266.13 435.68 C 263.47 437.13 259.38 437.34 258.48 433.67 C 258.10 434.05 257.36 434.80 256.98 435.17 C 254.03 434.23 250.46 433.86 249.04 430.66 C 248.49 430.96 247.40 431.57 246.85 431.87 C 242.64 429.86 236.59 429.83 234.63 424.90 C 236.73 419.94 238.63 414.88 240.12 409.71 M 284.44 433.53 C 284.11 434.96 283.79 436.40 283.46 437.84 C 284.66 438.06 285.86 438.29 287.07 438.50 C 287.32 437.05 287.59 435.59 287.87 434.15 C 286.72 433.93 285.58 433.74 284.44 433.53 Z" />
<path fill="#ffffff" opacity="1.00" d=" M 463.26 416.66 C 464.87 416.08 466.48 415.50 468.10 414.92 C 469.30 418.20 470.48 421.48 471.73 424.74 C 470.46 428.73 465.99 429.16 462.70 430.67 C 461.80 430.06 460.91 429.45 460.02 428.85 C 459.47 429.98 458.92 431.11 458.38 432.25 C 452.22 433.93 446.24 436.24 440.04 437.80 C 438.66 438.28 437.37 437.41 436.07 437.12 C 435.56 437.87 435.06 438.63 434.56 439.38 C 429.31 440.07 424.12 443.20 418.81 441.84 C 417.51 442.76 416.13 443.59 414.61 444.11 C 414.77 445.53 414.94 446.96 415.11 448.40 C 418.05 447.81 420.96 447.11 423.89 446.50 C 423.22 448.17 422.57 449.85 421.92 451.53 C 418.17 452.32 414.02 453.73 410.75 450.90 C 410.47 448.28 410.05 445.69 409.46 443.14 C 410.62 441.88 411.81 440.65 413.03 439.45 C 412.07 437.93 411.13 436.40 410.19 434.88 C 410.88 433.70 411.59 432.54 412.30 431.38 C 415.36 430.90 418.38 430.24 421.36 429.39 C 422.50 430.08 423.65 430.78 424.80 431.49 C 424.54 433.49 424.24 435.49 423.93 437.48 C 426.42 436.92 428.89 436.32 431.39 435.77 C 430.85 432.97 430.12 430.20 429.16 427.52 C 430.72 427.10 432.29 426.67 433.86 426.24 C 434.65 428.95 435.38 431.69 436.03 434.45 C 437.31 434.10 438.59 433.75 439.88 433.40 C 439.18 430.16 438.38 426.93 437.13 423.86 C 438.69 423.43 440.23 422.98 441.80 422.55 C 441.94 422.88 442.22 423.55 442.36 423.88 C 446.49 422.62 450.62 421.31 454.66 419.76 C 456.04 420.62 457.43 421.48 458.82 422.33 C 459.30 423.79 459.76 425.26 460.22 426.74 C 462.32 426.01 464.42 425.28 466.52 424.53 C 465.58 421.84 464.57 419.18 463.26 416.66 M 443.65 428.00 C 444.02 429.31 444.40 430.61 444.79 431.93 C 448.41 430.80 452.03 429.68 455.64 428.49 C 455.22 427.18 454.81 425.89 454.40 424.59 C 450.83 425.75 447.25 426.91 443.65 428.00 M 414.57 435.33 C 415.45 436.56 416.34 437.79 417.21 439.05 C 418.15 438.75 419.09 438.45 420.04 438.16 C 420.41 436.81 420.78 435.46 421.15 434.11 C 418.95 434.50 416.76 434.90 414.57 435.33 Z" />
<path fill="#ffffff" opacity="1.00" d=" M 300.73 427.28 C 301.83 427.54 302.93 427.80 304.03 428.07 C 303.95 428.82 303.79 430.31 303.71 431.06 C 302.57 430.92 301.44 430.78 300.31 430.64 C 300.44 429.51 300.58 428.39 300.73 427.28 Z" />
<path fill="#ffffff" opacity="1.00" d=" M 306.94 427.96 C 308.54 428.15 310.12 428.33 311.73 428.54 C 311.14 433.19 310.61 437.86 310.00 442.51 C 312.05 442.83 314.10 443.13 316.16 443.39 C 316.50 440.57 316.89 437.74 316.66 434.89 C 318.35 435.09 320.05 435.30 321.75 435.50 C 321.34 438.98 320.90 442.46 320.76 445.96 C 317.07 449.60 311.78 446.53 307.34 446.59 C 306.52 445.76 305.71 444.93 304.90 444.11 C 305.72 438.74 306.76 433.39 306.94 427.96 Z" />
<path fill="#ffffff" opacity="1.00" d=" M 394.57 428.43 C 396.29 428.27 398.02 428.11 399.75 427.95 C 400.43 433.97 400.96 440.07 402.53 445.95 C 400.66 446.25 398.80 446.57 396.94 446.87 C 396.75 440.67 395.78 434.50 394.57 428.43 Z" />
<path fill="#ffffff" opacity="1.00" d=" M 329.19 430.31 C 330.78 430.50 332.39 430.67 334.00 430.86 C 333.76 435.56 333.51 440.26 333.33 444.96 C 335.32 445.06 337.32 445.16 339.33 445.24 C 339.50 442.41 339.64 439.58 339.33 436.77 C 341.04 436.88 342.75 437.00 344.47 437.12 C 344.27 439.86 344.03 442.59 343.91 445.34 C 345.33 445.33 346.74 445.33 348.16 445.34 C 348.17 443.02 348.18 440.72 348.21 438.41 C 349.30 437.68 350.39 436.93 351.47 436.19 C 353.64 436.17 355.82 436.16 357.99 436.13 C 358.97 437.00 360.13 437.71 360.91 438.79 C 361.07 441.59 361.01 444.40 361.25 447.20 C 360.18 448.07 359.10 448.95 358.03 449.83 C 354.34 449.79 350.65 449.90 346.96 449.83 C 345.39 450.14 344.51 448.60 343.46 447.81 C 343.03 448.26 342.17 449.17 341.75 449.62 C 337.19 449.17 331.66 450.52 328.12 446.87 C 328.79 441.37 329.45 435.85 329.19 430.31 M 352.83 446.01 C 353.72 446.01 355.49 446.00 356.37 445.99 C 356.37 443.99 356.37 442.00 356.37 440.01 C 355.49 440.00 353.72 440.00 352.83 439.99 C 352.83 441.99 352.83 444.00 352.83 446.01 Z" />
<path fill="#ffffff" opacity="1.00" d=" M 373.14 430.72 C 374.69 430.57 376.24 430.41 377.80 430.25 C 377.71 434.99 378.25 439.71 378.72 444.42 C 380.68 444.29 382.65 444.17 384.63 444.06 C 381.28 441.88 382.00 437.58 384.71 435.23 C 387.81 435.21 390.90 434.77 393.92 434.07 C 394.13 435.57 394.36 437.07 394.59 438.58 C 391.96 438.84 389.35 439.18 386.75 439.57 C 386.84 440.57 387.04 442.58 387.14 443.59 C 389.73 443.35 392.32 443.10 394.92 442.84 C 395.18 444.27 395.45 445.71 395.72 447.15 C 390.80 447.55 385.88 448.00 380.99 448.71 C 380.20 448.15 379.42 447.60 378.64 447.05 C 377.54 447.83 376.55 449.09 375.05 448.99 C 371.04 449.42 367.00 449.46 362.99 449.92 C 362.99 448.41 363.00 446.91 363.01 445.41 C 363.92 445.36 365.76 445.25 366.68 445.19 C 366.64 443.16 366.60 441.12 366.59 439.10 C 365.27 437.90 363.94 436.74 362.59 435.60 C 363.82 434.95 365.05 434.29 366.28 433.64 C 368.10 435.04 369.92 436.46 371.76 437.87 C 371.68 440.51 369.79 445.42 374.05 445.30 C 373.57 440.45 373.25 435.59 373.14 430.72 Z" />
<path fill="#ffffff" opacity="1.00" d=" M 340.31 431.63 C 341.40 431.62 342.49 431.61 343.58 431.61 C 343.62 432.70 343.66 433.81 343.70 434.92 C 342.49 434.87 341.29 434.82 340.10 434.77 C 340.16 433.72 340.23 432.67 340.31 431.63 Z" />
<path fill="#ffffff" opacity="1.00" d=" M 312.43 449.11 C 313.50 449.25 314.58 449.42 315.65 449.63 C 315.82 450.68 315.93 451.75 315.98 452.83 C 314.70 452.73 313.41 452.64 312.14 452.56 C 312.23 451.40 312.33 450.25 312.43 449.11 Z" />
</g>
<g id="#cd6667ff">
<path fill="#cd6667" opacity="1.00" d=" M 272.42 409.48 C 279.04 409.75 285.32 412.04 291.82 413.09 C 298.94 414.61 306.17 415.54 313.36 416.66 C 314.29 416.78 315.23 416.89 316.17 416.98 L 316.67 416.99 C 317.83 417.04 318.99 417.07 320.15 417.11 C 323.45 417.19 326.74 417.15 330.04 417.18 L 329.92 418.25 C 323.08 418.29 316.20 418.49 309.45 417.21 C 296.93 415.67 284.41 413.48 272.42 409.48 Z" />
</g>
<g id="#eee2e4ff">
<path fill="#eee2e4" opacity="1.00" d=" M 383.18 412.13 C 386.60 411.11 390.22 411.39 393.74 411.38 C 393.55 412.43 393.36 413.49 393.17 414.56 C 388.33 415.27 383.45 415.75 378.67 416.84 C 380.00 415.17 380.99 412.85 383.18 412.13 Z" />
</g>
<g id="#eadee1ff">
<path fill="#eadee1" opacity="1.00" d=" M 320.15 417.11 C 322.16 411.06 329.71 411.33 334.88 411.82 C 335.01 413.63 335.13 415.45 335.26 417.28 C 333.52 417.24 331.78 417.19 330.04 417.18 C 326.74 417.15 323.45 417.19 320.15 417.11 Z" />
</g>
<g id="#f0e4e7ff">
<path fill="#f0e4e7" opacity="1.00" d=" M 359.28 416.23 C 360.10 414.52 360.46 411.70 362.94 411.73 C 366.48 412.04 370.31 413.37 371.93 416.83 C 370.39 416.85 368.85 416.87 367.33 416.91 C 366.89 416.55 366.02 415.82 365.58 415.45 C 363.48 415.71 361.37 415.97 359.28 416.23 Z" />
</g>
<g id="#c58c8dff">
<path fill="#c58c8d" opacity="1.00" d=" M 330.04 417.18 C 331.78 417.19 333.52 417.24 335.26 417.28 C 335.77 417.28 336.80 417.28 337.31 417.28 C 344.02 416.96 350.74 416.93 357.46 417.06 C 360.75 417.03 364.03 416.96 367.33 416.91 C 368.85 416.87 370.39 416.85 371.93 416.83 C 373.04 416.83 374.15 416.86 375.28 416.92 L 375.80 417.01 C 376.08 417.06 376.65 417.17 376.94 417.22 L 378.49 417.52 C 362.31 418.34 346.11 418.35 329.92 418.25 L 330.04 417.18 Z" />
</g>
</svg>
