<?xml version="1.0" encoding="UTF-8" ?>
<!DOCTYPE svg PUBLIC "-//W3C//DTD SVG 1.1//EN" "http://www.w3.org/Graphics/SVG/1.1/DTD/svg11.dtd">
<svg width="128pt" height="128pt" viewBox="0 0 128 128" version="1.1" xmlns="http://www.w3.org/2000/svg">
<g id="#fb1010ff">
<path fill="#fb1010" opacity="1.00" d=" M 59.64 0.00 L 66.56 0.00 C 82.65 0.86 98.38 7.72 109.64 19.30 C 120.53 30.21 127.01 45.17 128.00 60.52 L 128.00 67.42 C 127.52 72.96 126.60 78.48 124.86 83.77 C 124.15 76.67 121.05 70.14 118.42 63.60 C 117.04 63.21 115.67 62.81 114.29 62.40 C 115.24 62.49 117.14 62.67 118.09 62.75 C 113.34 54.45 108.67 45.96 101.99 39.01 C 93.42 30.08 83.57 21.28 71.08 18.70 C 64.20 17.85 56.96 17.93 50.41 20.47 C 45.55 22.31 40.93 24.75 36.57 27.57 C 30.41 31.60 25.54 37.20 20.75 42.71 C 13.50 51.18 6.81 60.46 3.32 71.16 C 1.79 75.87 2.53 80.89 2.73 85.73 C 4.47 80.92 6.55 76.25 8.89 71.71 C 15.54 81.92 25.93 88.65 36.00 95.08 C 40.96 97.88 46.31 100.16 51.94 101.14 C 57.93 101.73 64.01 101.71 70.00 101.11 C 81.71 99.04 91.41 91.64 100.73 84.74 C 106.62 80.39 110.87 74.36 115.57 68.85 C 118.87 74.40 121.98 80.10 124.05 86.24 C 119.25 98.82 110.52 109.87 99.25 117.27 C 89.61 123.73 78.19 127.29 66.64 128.00 L 59.76 128.00 C 45.56 126.99 31.64 121.53 20.93 112.08 C 10.20 102.64 2.42 89.60 0.00 75.46 L 0.00 52.56 C 2.58 38.68 9.85 25.73 20.43 16.38 C 31.17 6.68 45.25 1.07 59.64 0.00 M 28.64 95.78 C 28.01 99.62 25.55 103.94 27.25 107.69 C 30.58 110.55 34.55 112.55 38.52 114.36 C 40.05 115.38 41.66 116.26 43.28 117.13 C 44.75 117.46 46.25 117.64 47.77 117.67 C 48.69 118.24 49.62 118.80 50.56 119.35 C 50.47 120.79 50.43 122.29 51.64 123.31 C 51.59 122.42 51.49 120.62 51.44 119.72 C 51.82 119.53 52.58 119.14 52.96 118.95 C 53.23 116.34 54.86 112.59 51.84 110.99 C 51.68 112.95 51.60 114.91 51.53 116.88 C 51.13 116.65 50.33 116.21 49.93 115.98 C 49.95 113.23 50.87 110.38 49.95 107.69 C 47.71 109.27 48.88 112.85 48.57 115.29 C 48.09 113.33 48.44 110.94 46.73 109.48 C 46.38 111.49 46.12 113.51 45.82 115.53 C 43.83 113.94 44.75 111.38 44.72 109.23 C 44.10 109.08 42.85 108.78 42.23 108.63 C 45.34 108.22 43.31 106.24 42.87 104.89 C 42.73 105.53 42.44 106.81 42.30 107.44 C 40.75 108.87 40.11 110.87 39.37 112.78 C 39.31 110.48 40.44 107.86 38.69 105.89 C 38.18 107.85 37.78 109.84 37.28 111.80 C 36.90 109.42 37.61 106.72 36.06 104.66 C 35.48 106.61 35.03 108.61 34.37 110.54 C 34.21 108.05 35.25 105.33 33.78 103.07 C 33.15 104.92 32.55 106.79 31.97 108.67 C 31.90 106.24 32.05 103.79 31.46 101.41 C 31.99 101.62 33.05 102.04 33.59 102.25 C 32.95 101.13 32.31 100.01 31.68 98.89 C 31.27 100.18 30.83 101.46 30.34 102.73 C 30.23 103.78 30.01 105.90 29.89 106.96 C 26.76 103.81 31.45 99.20 28.64 95.78 M 96.15 98.04 C 96.47 98.35 97.10 98.96 97.41 99.26 C 97.20 101.82 97.72 104.45 96.93 106.94 C 96.19 105.48 95.51 104.00 94.82 102.51 C 92.88 103.48 90.87 104.33 88.81 105.01 C 89.20 107.23 89.52 109.49 89.18 111.74 C 88.33 108.85 87.82 105.89 87.09 102.97 C 86.08 104.58 86.74 106.44 86.65 108.20 C 86.74 109.16 86.92 111.06 87.00 112.02 C 86.57 112.28 85.70 112.80 85.26 113.06 C 84.77 111.68 86.10 108.99 84.26 108.49 C 83.43 108.72 81.75 109.20 80.91 109.44 C 81.22 113.91 79.38 118.66 81.54 122.88 C 82.31 122.55 83.83 121.89 84.60 121.56 C 84.68 120.80 84.84 119.28 84.93 118.52 C 84.34 118.80 83.17 119.35 82.58 119.62 C 82.41 118.99 82.05 117.72 81.87 117.09 C 88.43 115.03 94.06 111.06 99.67 107.22 C 99.65 103.66 98.60 100.24 97.68 96.84 C 97.30 97.14 96.54 97.74 96.15 98.04 M 48.77 106.44 C 49.73 107.23 50.35 106.90 50.61 105.44 C 49.42 104.49 48.81 104.82 48.77 106.44 M 46.82 107.25 C 45.52 108.03 46.64 110.45 48.07 109.64 C 49.46 108.87 48.29 106.31 46.82 107.25 M 75.74 107.70 C 75.85 108.90 75.96 110.11 76.07 111.32 C 75.17 111.43 73.37 111.65 72.47 111.76 C 72.21 113.37 71.97 114.98 71.74 116.59 C 73.14 115.46 74.55 114.35 76.03 113.32 C 76.27 115.15 76.54 116.98 76.83 118.81 L 78.36 118.63 C 77.94 114.86 77.78 111.07 77.56 107.29 C 77.11 107.39 76.19 107.60 75.74 107.70 M 55.56 109.05 C 55.51 112.04 55.27 115.03 55.35 118.02 C 55.22 119.07 55.79 120.57 57.07 120.46 C 59.74 120.68 62.43 120.73 65.11 120.77 C 65.66 117.99 65.86 115.12 65.18 112.34 C 64.37 112.37 62.74 112.41 61.93 112.44 C 61.53 114.50 61.29 116.59 60.76 118.63 C 60.29 115.35 61.01 111.76 59.36 108.75 C 59.33 109.66 59.28 111.49 59.25 112.40 C 58.81 114.37 58.52 116.36 58.18 118.35 C 55.96 115.77 57.72 112.14 57.43 109.09 C 56.96 109.08 56.03 109.06 55.56 109.05 M 68.97 112.89 C 68.34 111.65 67.42 111.08 66.22 111.17 C 66.35 113.45 66.90 115.68 67.19 117.94 L 65.64 118.00 C 65.74 118.72 65.94 120.17 66.04 120.89 C 67.60 120.60 69.16 120.32 70.71 120.00 C 72.69 119.74 74.66 119.45 76.63 119.16 C 76.49 118.45 76.20 117.03 76.05 116.32 C 74.38 116.62 72.70 116.88 71.03 117.19 C 70.99 116.22 70.92 114.26 70.88 113.29 C 71.08 111.72 71.02 110.13 71.06 108.56 C 68.57 108.75 68.99 111.05 68.97 112.89 Z" />
<path fill="#fb1010" opacity="1.00" d=" M 26.63 50.68 C 34.87 43.06 44.84 36.97 55.89 34.59 C 64.74 33.62 73.97 34.23 82.11 38.11 C 94.75 44.02 104.87 54.23 113.01 65.38 C 109.03 68.93 105.56 73.10 100.98 75.91 C 94.36 80.69 86.83 84.06 79.06 86.46 C 70.36 89.15 61.11 89.03 52.12 88.39 C 36.73 86.32 22.18 78.82 11.21 67.88 C 15.66 61.59 20.51 55.45 26.63 50.68 M 43.58 46.34 C 44.52 47.41 45.48 48.45 46.46 49.48 C 47.93 47.83 49.65 48.33 51.30 49.34 C 52.11 48.30 52.92 47.26 53.71 46.21 C 52.77 45.26 51.82 44.32 50.88 43.37 C 50.18 43.94 49.48 44.51 48.77 45.08 C 46.91 42.85 45.16 45.17 43.58 46.34 M 58.36 46.71 C 58.42 53.61 58.26 60.51 58.46 67.41 C 59.98 67.22 61.49 67.04 63.00 66.87 C 62.98 60.00 63.04 53.14 62.96 46.28 C 61.43 46.42 59.90 46.56 58.36 46.71 M 80.36 46.42 C 80.29 51.37 80.58 56.33 80.21 61.27 L 78.76 61.60 C 76.99 58.80 76.31 53.90 72.04 53.97 C 66.56 53.40 64.60 60.28 66.66 64.34 C 68.16 66.72 71.21 66.97 73.59 67.95 C 71.17 68.38 68.73 68.19 66.33 67.72 C 66.09 69.35 65.83 70.98 65.57 72.61 C 68.51 73.74 72.09 74.70 74.97 72.89 C 76.88 71.82 77.26 69.44 78.14 67.63 C 80.68 67.31 83.81 66.82 84.59 63.92 C 85.49 58.04 84.80 52.02 84.97 46.08 C 83.43 46.19 81.89 46.31 80.36 46.42 M 89.00 46.68 C 89.01 53.55 88.97 60.42 89.03 67.29 C 90.63 67.15 92.23 67.01 93.84 66.88 C 93.78 60.02 93.92 53.16 93.75 46.30 C 92.16 46.42 90.58 46.55 89.00 46.68 M 46.25 50.28 C 44.94 52.28 43.08 54.37 43.64 56.97 C 43.91 59.42 46.34 60.60 48.24 61.66 C 45.81 61.39 43.36 61.36 40.91 61.36 C 41.38 59.14 43.27 55.83 40.49 54.46 C 36.85 53.28 32.97 54.11 29.29 54.62 C 28.95 57.59 29.75 60.38 31.95 62.47 C 29.17 64.74 26.81 68.58 28.83 72.12 C 32.05 76.52 38.40 75.55 43.06 74.63 C 42.81 73.03 42.56 71.42 42.29 69.82 C 39.03 70.01 35.13 71.12 32.62 68.36 C 33.49 67.53 34.36 66.71 35.24 65.89 C 40.64 67.86 46.67 67.88 52.13 66.18 C 56.58 64.53 56.26 58.89 55.42 55.10 C 54.46 51.07 50.20 48.32 46.25 50.28 Z" />
<path fill="#fb1010" opacity="1.00" d=" M 47.63 55.86 C 47.93 54.17 50.82 54.46 51.14 56.00 C 50.80 57.55 47.95 57.35 47.63 55.86 Z" />
<path fill="#fb1010" opacity="1.00" d=" M 34.74 59.19 C 35.28 58.00 36.16 57.75 37.39 58.45 C 38.66 60.22 34.92 61.23 34.74 59.19 Z" />
<path fill="#fb1010" opacity="1.00" d=" M 70.28 60.56 C 70.37 58.90 73.09 59.36 73.27 60.76 C 73.13 62.33 70.47 61.93 70.28 60.56 Z" />
<path fill="#fb1010" opacity="1.00" d=" M 91.19 107.48 C 92.15 106.93 93.11 106.38 94.07 105.83 C 94.20 106.27 94.45 107.13 94.58 107.56 C 93.53 108.31 92.49 109.06 91.44 109.81 C 91.36 109.03 91.27 108.26 91.19 107.48 Z" />
<path fill="#fb1010" opacity="1.00" d=" M 83.10 111.27 C 84.80 111.07 84.79 113.85 83.15 113.80 C 81.40 114.00 81.42 111.24 83.10 111.27 Z" />
<path fill="#fb1010" opacity="1.00" d=" M 63.19 117.69 C 62.34 116.41 62.55 115.62 63.81 115.32 C 64.66 116.60 64.45 117.39 63.19 117.69 Z" />
</g>
<g id="#ebcfcfff">
<path fill="#ebcfcf" opacity="1.00" d=" M 50.41 20.47 C 56.96 17.93 64.20 17.85 71.08 18.70 C 83.57 21.28 93.42 30.08 101.99 39.01 C 108.67 45.96 113.34 54.45 118.09 62.75 C 117.14 62.67 115.24 62.49 114.29 62.40 C 115.67 62.81 117.04 63.21 118.42 63.60 C 121.05 70.14 124.15 76.67 124.86 83.77 C 124.62 84.60 124.35 85.43 124.05 86.24 C 121.98 80.10 118.87 74.40 115.57 68.85 C 110.87 74.36 106.62 80.39 100.73 84.74 C 91.41 91.64 81.71 99.04 70.00 101.11 C 64.01 101.71 57.93 101.73 51.94 101.14 C 46.31 100.16 40.96 97.88 36.00 95.08 C 25.93 88.65 15.54 81.92 8.89 71.71 C 6.55 76.25 4.47 80.92 2.73 85.73 C 2.53 80.89 1.79 75.87 3.32 71.16 C 6.81 60.46 13.50 51.18 20.75 42.71 C 25.54 37.20 30.41 31.60 36.57 27.57 C 40.93 24.75 45.55 22.31 50.41 20.47 M 26.63 50.68 C 20.51 55.45 15.66 61.59 11.21 67.88 C 22.18 78.82 36.73 86.32 52.12 88.39 C 61.11 89.03 70.36 89.15 79.06 86.46 C 86.83 84.06 94.36 80.69 100.98 75.91 C 105.56 73.10 109.03 68.93 113.01 65.38 C 104.87 54.23 94.75 44.02 82.11 38.11 C 73.97 34.23 64.74 33.62 55.89 34.59 C 44.84 36.97 34.87 43.06 26.63 50.68 Z" />
<path fill="#ebcfcf" opacity="1.00" d=" M 68.97 112.89 C 68.99 111.05 68.57 108.75 71.06 108.56 C 71.02 110.13 71.08 111.72 70.88 113.29 C 70.58 114.81 70.22 116.32 69.88 117.84 C 69.21 117.87 67.86 117.92 67.19 117.94 C 66.90 115.68 66.35 113.45 66.22 111.17 C 67.42 111.08 68.34 111.65 68.97 112.89 Z" />
<path fill="#ebcfcf" opacity="1.00" d=" M 42.05 113.40 C 41.17 112.19 41.43 111.52 42.83 111.37 C 43.70 112.58 43.44 113.25 42.05 113.40 Z" />
</g>
<g id="#fefefeff">
<path fill="#fefefe" opacity="1.00" d=" M 43.58 46.34 C 45.16 45.17 46.91 42.85 48.77 45.08 C 49.48 44.51 50.18 43.94 50.88 43.37 C 51.82 44.32 52.77 45.26 53.71 46.21 C 52.92 47.26 52.11 48.30 51.30 49.34 C 49.65 48.33 47.93 47.83 46.46 49.48 C 45.48 48.45 44.52 47.41 43.58 46.34 Z" />
<path fill="#fefefe" opacity="1.00" d=" M 58.36 46.71 C 59.90 46.56 61.43 46.42 62.96 46.28 C 63.04 53.14 62.98 60.00 63.00 66.87 C 61.49 67.04 59.98 67.22 58.46 67.41 C 58.26 60.51 58.42 53.61 58.36 46.71 Z" />
<path fill="#fefefe" opacity="1.00" d=" M 80.36 46.42 C 81.89 46.31 83.43 46.19 84.97 46.08 C 84.80 52.02 85.49 58.04 84.59 63.92 C 83.81 66.82 80.68 67.31 78.14 67.63 C 77.26 69.44 76.88 71.82 74.97 72.89 C 72.09 74.70 68.51 73.74 65.57 72.61 C 65.83 70.98 66.09 69.35 66.33 67.72 C 68.73 68.19 71.17 68.38 73.59 67.95 C 71.21 66.97 68.16 66.72 66.66 64.34 C 64.60 60.28 66.56 53.40 72.04 53.97 C 76.31 53.90 76.99 58.80 78.76 61.60 L 80.21 61.27 C 80.58 56.33 80.29 51.37 80.36 46.42 M 70.28 60.56 C 70.47 61.93 73.13 62.33 73.27 60.76 C 73.09 59.36 70.37 58.90 70.28 60.56 Z" />
<path fill="#fefefe" opacity="1.00" d=" M 89.00 46.68 C 90.58 46.55 92.16 46.42 93.75 46.30 C 93.92 53.16 93.78 60.02 93.84 66.88 C 92.23 67.01 90.63 67.15 89.03 67.29 C 88.97 60.42 89.01 53.55 89.00 46.68 Z" />
<path fill="#fefefe" opacity="1.00" d=" M 46.25 50.28 C 50.20 48.32 54.46 51.07 55.42 55.10 C 56.26 58.89 56.58 64.53 52.13 66.18 C 46.67 67.88 40.64 67.86 35.24 65.89 C 34.36 66.71 33.49 67.53 32.62 68.36 C 35.13 71.12 39.03 70.01 42.29 69.82 C 42.56 71.42 42.81 73.03 43.06 74.63 C 38.40 75.55 32.05 76.52 28.83 72.12 C 26.81 68.58 29.17 64.74 31.95 62.47 C 29.75 60.38 28.95 57.59 29.29 54.62 C 32.97 54.11 36.85 53.28 40.49 54.46 C 43.27 55.83 41.38 59.14 40.91 61.36 C 43.36 61.36 45.81 61.39 48.24 61.66 C 46.34 60.60 43.91 59.42 43.64 56.97 C 43.08 54.37 44.94 52.28 46.25 50.28 M 47.63 55.86 C 47.95 57.35 50.80 57.55 51.14 56.00 C 50.82 54.46 47.93 54.17 47.63 55.86 M 34.74 59.19 C 34.92 61.23 38.66 60.22 37.39 58.45 C 36.16 57.75 35.28 58.00 34.74 59.19 Z" />
<path fill="#fefefe" opacity="1.00" d=" M 28.64 95.78 C 31.45 99.20 26.76 103.81 29.89 106.96 C 30.01 105.90 30.23 103.78 30.34 102.73 C 30.83 101.46 31.27 100.18 31.68 98.89 C 32.31 100.01 32.95 101.13 33.59 102.25 C 33.05 102.04 31.99 101.62 31.46 101.41 C 32.05 103.79 31.90 106.24 31.97 108.67 C 32.55 106.79 33.15 104.92 33.78 103.07 C 35.25 105.33 34.21 108.05 34.37 110.54 C 35.03 108.61 35.48 106.61 36.06 104.66 C 37.61 106.72 36.90 109.42 37.28 111.80 C 37.78 109.84 38.18 107.85 38.69 105.89 C 40.44 107.86 39.31 110.48 39.37 112.78 C 40.11 110.87 40.75 108.87 42.30 107.44 C 42.44 106.81 42.73 105.53 42.87 104.89 C 43.31 106.24 45.34 108.22 42.23 108.63 C 42.85 108.78 44.10 109.08 44.72 109.23 C 44.75 111.38 43.83 113.94 45.82 115.53 C 46.12 113.51 46.38 111.49 46.73 109.48 C 48.44 110.94 48.09 113.33 48.57 115.29 C 48.88 112.85 47.71 109.27 49.95 107.69 C 50.87 110.38 49.95 113.23 49.93 115.98 C 50.33 116.21 51.13 116.65 51.53 116.88 C 51.60 114.91 51.68 112.95 51.84 110.99 C 54.86 112.59 53.23 116.34 52.96 118.95 C 52.58 119.14 51.82 119.53 51.44 119.72 C 51.49 120.62 51.59 122.42 51.64 123.31 C 50.43 122.29 50.47 120.79 50.56 119.35 C 49.62 118.80 48.69 118.24 47.77 117.67 C 46.25 117.64 44.75 117.46 43.28 117.13 C 41.66 116.26 40.05 115.38 38.52 114.36 C 34.55 112.55 30.58 110.55 27.25 107.69 C 25.55 103.94 28.01 99.62 28.64 95.78 M 42.05 113.40 C 43.44 113.25 43.70 112.58 42.83 111.37 C 41.43 111.52 41.17 112.19 42.05 113.40 Z" />
<path fill="#fefefe" opacity="1.00" d=" M 96.15 98.04 C 96.54 97.74 97.30 97.14 97.68 96.84 C 98.60 100.24 99.65 103.66 99.67 107.22 C 94.06 111.06 88.43 115.03 81.87 117.09 C 82.05 117.72 82.41 118.99 82.58 119.62 C 83.17 119.35 84.34 118.80 84.93 118.52 C 84.84 119.28 84.68 120.80 84.60 121.56 C 83.83 121.89 82.31 122.55 81.54 122.88 C 79.38 118.66 81.22 113.91 80.91 109.44 C 81.75 109.20 83.43 108.72 84.26 108.49 C 86.10 108.99 84.77 111.68 85.26 113.06 C 85.70 112.80 86.57 112.28 87.00 112.02 C 86.92 111.06 86.74 109.16 86.65 108.20 C 86.74 106.44 86.08 104.58 87.09 102.97 C 87.82 105.89 88.33 108.85 89.18 111.74 C 89.52 109.49 89.20 107.23 88.81 105.01 C 90.87 104.33 92.88 103.48 94.82 102.51 C 95.51 104.00 96.19 105.48 96.93 106.94 C 97.72 104.45 97.20 101.82 97.41 99.26 C 97.10 98.96 96.47 98.35 96.15 98.04 M 91.19 107.48 C 91.27 108.26 91.36 109.03 91.44 109.81 C 92.49 109.06 93.53 108.31 94.58 107.56 C 94.45 107.13 94.20 106.27 94.07 105.83 C 93.11 106.38 92.15 106.93 91.19 107.48 M 83.10 111.27 C 81.42 111.24 81.40 114.00 83.15 113.80 C 84.79 113.85 84.80 111.07 83.10 111.27 Z" />
<path fill="#fefefe" opacity="1.00" d=" M 48.77 106.44 C 48.81 104.82 49.42 104.49 50.61 105.44 C 50.35 106.90 49.73 107.23 48.77 106.44 Z" />
<path fill="#fefefe" opacity="1.00" d=" M 46.82 107.25 C 48.29 106.31 49.46 108.87 48.07 109.64 C 46.64 110.45 45.52 108.03 46.82 107.25 Z" />
<path fill="#fefefe" opacity="1.00" d=" M 75.74 107.70 C 76.19 107.60 77.11 107.39 77.56 107.29 C 77.78 111.07 77.94 114.86 78.36 118.63 L 76.83 118.81 C 76.54 116.98 76.27 115.15 76.03 113.32 C 74.55 114.35 73.14 115.46 71.74 116.59 C 71.97 114.98 72.21 113.37 72.47 111.76 C 73.37 111.65 75.17 111.43 76.07 111.32 C 75.96 110.11 75.85 108.90 75.74 107.70 Z" />
<path fill="#fefefe" opacity="1.00" d=" M 55.56 109.05 C 56.03 109.06 56.96 109.08 57.43 109.09 C 57.72 112.14 55.96 115.77 58.18 118.35 C 58.52 116.36 58.81 114.37 59.25 112.40 C 59.28 111.49 59.33 109.66 59.36 108.75 C 61.01 111.76 60.29 115.35 60.76 118.63 C 61.29 116.59 61.53 114.50 61.93 112.44 C 62.74 112.41 64.37 112.37 65.18 112.34 C 65.86 115.12 65.66 117.99 65.11 120.77 C 62.43 120.73 59.74 120.68 57.07 120.46 C 55.79 120.57 55.22 119.07 55.35 118.02 C 55.27 115.03 55.51 112.04 55.56 109.05 M 63.19 117.69 C 64.45 117.39 64.66 116.60 63.81 115.32 C 62.55 115.62 62.34 116.41 63.19 117.69 Z" />
<path fill="#fefefe" opacity="1.00" d=" M 69.88 117.84 C 70.22 116.32 70.58 114.81 70.88 113.29 C 70.92 114.26 70.99 116.22 71.03 117.19 C 72.70 116.88 74.38 116.62 76.05 116.32 C 76.20 117.03 76.49 118.45 76.63 119.16 C 74.66 119.45 72.69 119.74 70.71 120.00 C 69.16 120.32 67.60 120.60 66.04 120.89 C 65.94 120.17 65.74 118.72 65.64 118.00 L 67.19 117.94 C 67.86 117.92 69.21 117.87 69.88 117.84 Z" />
</g>
</svg>
