<?xml version="1.0" encoding="UTF-8" ?>
<!DOCTYPE svg PUBLIC "-//W3C//DTD SVG 1.1//EN" "http://www.w3.org/Graphics/SVG/1.1/DTD/svg11.dtd">
<svg width="500pt" height="500pt" viewBox="0 0 500 500" version="1.1" xmlns="http://www.w3.org/2000/svg">
<g id="#ed5c26ff">
<path fill="#ed5c26" opacity="1.00" d=" M 291.47 17.57 C 293.75 13.99 294.97 9.18 299.14 7.27 C 301.91 6.65 304.05 9.51 303.50 12.08 C 300.49 17.33 296.06 21.52 292.27 26.15 C 287.97 33.95 282.06 40.62 276.41 47.44 C 273.49 50.96 269.54 53.35 265.73 55.78 C 264.52 56.69 263.02 56.88 261.56 57.01 C 261.26 55.51 261.17 53.72 262.42 52.60 C 268.99 44.12 276.41 36.31 282.70 27.60 C 285.30 23.97 289.22 21.48 291.47 17.57 Z" />
<path fill="#ed5c26" opacity="1.00" d=" M 64.58 33.98 C 66.61 33.13 69.28 31.61 70.98 33.87 C 78.44 41.48 86.29 48.75 93.10 56.96 C 96.95 61.14 101.29 64.80 105.52 68.57 C 105.59 69.14 105.71 70.26 105.77 70.83 C 104.52 70.68 103.05 71.06 102.03 70.13 C 95.00 64.79 88.53 58.74 81.26 53.72 C 77.24 50.81 72.55 48.51 69.93 44.09 C 67.97 40.88 63.99 38.12 64.58 33.98 Z" />
</g>
<g id="#693327a9">
<path fill="#693327" opacity="0.66" d=" M 102.33 46.71 C 99.90 44.62 105.16 42.25 105.54 44.76 C 105.02 44.92 103.98 45.25 103.46 45.41 C 103.30 45.71 102.97 46.31 102.81 46.61 L 102.33 46.71 Z" />
</g>
<g id="#ec592dff">
<path fill="#ec592d" opacity="1.00" d=" M 103.46 45.41 C 103.98 45.25 105.02 44.92 105.54 44.76 C 105.87 45.02 106.52 45.54 106.85 45.81 C 107.55 46.89 108.34 48.21 109.75 48.41 L 110.53 48.61 C 110.67 49.07 110.95 49.98 111.10 50.44 C 110.95 50.74 110.66 51.34 110.52 51.64 C 109.98 51.79 108.90 52.10 108.36 52.25 C 105.41 51.89 103.82 49.09 102.81 46.61 C 102.97 46.31 103.30 45.71 103.46 45.41 Z" />
</g>
<g id="#5a281a95">
<path fill="#5a281a" opacity="0.58" d=" M 106.85 45.81 C 108.21 45.13 110.24 46.99 109.75 48.41 C 108.34 48.21 107.55 46.89 106.85 45.81 Z" />
</g>
<g id="#4d231a92">
<path fill="#4d231a" opacity="0.57" d=" M 111.10 50.44 C 114.58 50.86 108.94 55.56 108.36 52.25 C 108.90 52.10 109.98 51.79 110.52 51.64 C 110.66 51.34 110.95 50.74 111.10 50.44 Z" />
</g>
<g id="#ea5f2aff">
<path fill="#ea5f2a" opacity="1.00" d=" M 128.81 51.54 C 129.95 51.46 131.09 51.42 132.24 51.39 C 133.33 55.17 133.42 59.63 136.66 62.36 C 139.78 65.22 140.96 69.37 142.95 72.97 C 144.09 74.98 144.62 77.27 144.46 79.58 C 141.43 78.96 139.81 76.09 138.03 73.87 C 134.78 69.50 133.05 64.27 130.30 59.61 C 129.95 59.22 129.25 58.42 128.90 58.03 C 127.13 56.20 127.35 53.47 128.81 51.54 Z" />
</g>
<g id="#f05b23ff">
<path fill="#f05b23" opacity="1.00" d=" M 115.83 64.17 C 115.08 62.03 115.11 59.74 115.53 57.54 C 117.64 57.35 120.11 57.61 121.24 59.67 C 126.59 68.22 130.42 77.96 138.08 84.84 C 142.89 88.77 147.70 93.00 153.62 95.17 C 156.70 95.87 159.93 95.89 162.91 97.07 C 168.61 99.00 173.04 103.49 178.82 105.27 C 182.16 106.11 185.67 105.85 188.98 104.95 C 194.34 103.55 200.13 105.47 205.32 103.22 C 205.92 100.08 205.35 96.74 206.74 93.77 C 208.77 93.25 210.94 92.97 212.81 91.98 C 216.09 89.48 215.43 84.78 217.91 81.80 C 222.49 79.53 226.18 84.18 229.99 85.96 C 233.53 88.49 238.07 87.39 241.98 88.88 C 244.64 89.53 246.41 91.78 248.63 93.22 C 248.94 93.45 249.58 93.90 249.89 94.12 C 252.54 93.81 255.35 92.70 257.97 93.61 C 259.86 94.89 259.52 97.22 259.41 99.18 C 256.77 101.44 257.22 105.07 257.64 108.14 L 258.33 108.81 C 258.42 109.41 258.59 110.60 258.67 111.20 C 260.11 114.08 261.76 116.97 264.28 119.07 C 266.47 120.88 269.30 121.69 271.61 123.34 C 275.22 125.87 274.40 131.42 278.68 133.38 C 281.74 133.41 284.80 133.38 287.86 133.28 C 288.23 132.92 288.98 132.22 289.35 131.86 C 290.91 130.25 290.19 127.75 289.69 125.84 C 291.29 124.44 293.43 124.07 295.28 123.11 C 295.64 119.40 296.95 115.84 298.97 112.72 C 302.48 111.11 306.55 111.66 310.00 109.88 C 313.70 107.78 318.95 107.98 320.90 103.54 C 323.80 101.62 325.74 98.61 328.70 96.77 C 330.89 95.46 332.54 93.51 334.00 91.46 C 339.67 91.94 345.20 93.61 350.90 93.77 C 354.17 93.63 355.88 90.55 358.12 88.65 C 360.58 87.43 361.90 90.21 363.42 91.58 C 366.22 94.13 370.03 96.54 373.98 95.54 C 376.78 94.87 378.64 91.46 381.81 92.28 C 385.21 93.48 387.35 96.91 390.85 97.96 C 393.57 99.09 396.35 97.00 399.10 97.75 C 401.42 98.21 403.47 99.40 405.46 100.62 C 406.94 103.36 405.39 107.64 408.92 109.05 C 413.33 110.58 417.92 111.67 422.05 113.94 C 422.44 114.95 422.87 115.94 423.34 116.92 C 422.42 118.93 421.70 121.35 422.55 123.50 C 423.81 124.98 425.29 126.29 426.90 127.38 C 429.79 128.60 432.19 125.89 434.99 125.75 C 437.54 125.51 440.13 125.18 442.68 125.66 C 441.65 129.90 436.49 129.95 433.77 132.75 C 431.79 133.66 431.77 136.44 432.90 138.01 C 434.81 139.95 437.22 141.30 439.43 142.88 C 439.97 144.96 439.82 147.11 439.63 149.24 C 440.26 150.40 440.91 151.55 441.57 152.71 C 446.30 153.24 451.22 151.94 455.80 153.56 C 455.68 154.80 455.57 156.04 455.47 157.28 C 450.84 158.09 446.16 157.37 441.51 157.46 C 441.21 161.34 440.81 165.24 440.72 169.13 C 441.45 172.96 446.08 173.21 448.15 175.97 C 450.26 178.20 450.61 181.41 450.47 184.34 C 446.22 185.26 442.99 181.32 438.83 181.55 C 437.52 184.55 436.06 187.66 436.17 191.01 C 436.27 193.87 437.04 196.65 437.56 199.45 C 441.14 203.24 447.83 206.37 446.59 212.59 C 439.97 214.35 438.95 204.63 433.00 204.21 C 429.49 204.11 427.05 207.79 427.32 211.05 C 426.62 215.05 429.45 218.40 429.54 222.29 C 427.08 223.12 424.45 223.20 421.99 224.02 C 421.52 223.70 421.05 223.37 420.60 223.03 C 415.95 218.77 419.10 210.73 414.66 206.26 C 410.78 204.26 406.04 205.65 402.77 208.23 C 399.56 205.25 394.55 204.06 390.80 206.82 C 387.22 212.58 389.07 220.40 384.10 225.53 C 385.75 229.37 391.15 227.44 392.14 224.10 C 393.33 220.44 393.72 216.58 394.57 212.83 C 395.45 215.06 396.51 217.21 397.63 219.33 L 397.63 219.35 C 397.37 221.46 396.61 223.94 398.17 225.75 C 400.02 227.64 404.02 228.33 405.42 225.55 C 407.30 221.77 407.71 217.47 408.60 213.39 C 409.81 217.24 410.84 221.15 411.32 225.17 C 407.98 227.23 404.87 229.78 402.84 233.20 C 401.38 235.27 400.32 237.62 398.72 239.61 C 395.83 240.03 392.90 239.55 390.12 238.81 C 389.07 238.15 388.23 237.22 387.12 236.68 C 382.24 236.67 381.88 244.24 376.89 243.81 C 376.13 242.46 375.56 240.75 374.00 240.12 C 371.80 238.85 369.37 240.30 367.46 241.43 C 363.34 244.10 358.38 245.31 354.62 248.54 C 351.31 252.92 349.36 258.19 348.47 263.58 C 347.54 269.70 344.25 275.94 346.80 282.11 C 348.53 285.97 349.88 291.31 346.86 294.86 C 343.73 298.08 338.74 295.86 336.75 292.50 C 333.78 287.64 336.97 281.64 334.39 276.62 C 330.85 269.18 325.15 263.01 321.19 255.81 C 318.96 252.10 316.78 248.30 313.84 245.11 C 311.63 242.96 307.75 243.43 306.16 246.10 C 301.68 253.04 303.21 262.07 307.28 268.83 C 310.92 274.88 312.67 281.80 316.15 287.93 C 320.50 296.21 326.10 303.81 332.57 310.55 C 333.82 311.79 334.24 313.57 334.68 315.21 C 332.77 319.27 327.62 319.52 323.88 318.28 C 322.17 317.12 321.62 314.99 320.72 313.25 C 317.13 305.02 309.76 299.32 305.49 291.56 C 302.49 288.49 298.20 286.07 293.78 286.62 C 290.41 287.74 289.14 291.43 288.57 294.61 C 287.28 302.07 285.54 309.51 285.44 317.12 C 285.33 320.76 282.42 323.65 278.97 324.43 C 274.17 323.41 274.65 317.79 274.23 314.00 C 273.84 310.17 275.28 306.53 277.39 303.41 C 279.43 300.59 278.58 295.90 275.12 294.64 C 269.72 293.64 264.63 297.39 261.79 301.70 C 259.43 305.05 258.79 309.89 254.74 311.79 C 250.09 314.02 245.10 315.80 239.94 316.31 C 237.15 316.29 235.44 318.92 233.66 320.70 C 231.87 325.32 233.97 330.55 232.07 335.15 C 229.56 341.63 219.44 340.71 217.96 347.87 C 217.08 354.19 217.71 360.65 216.84 366.99 C 216.42 376.31 215.88 385.65 216.44 394.97 C 215.73 402.66 214.23 410.28 213.65 417.98 C 213.16 423.75 217.38 428.38 218.02 433.93 C 219.23 441.91 218.28 450.00 218.39 458.03 C 218.14 464.43 220.88 470.68 219.39 477.08 C 217.97 478.06 216.72 479.69 214.81 479.57 C 213.62 479.01 212.37 478.33 211.84 477.06 C 210.22 472.90 210.56 468.37 210.44 464.01 C 209.99 453.95 207.15 443.97 207.78 433.91 C 210.19 426.25 208.87 418.24 207.61 410.52 C 206.78 402.34 206.54 394.12 205.67 385.96 C 204.42 372.02 206.96 358.00 204.83 344.12 C 203.96 337.19 203.77 329.95 200.73 323.54 C 199.38 320.56 196.10 319.28 194.21 316.73 C 191.20 312.88 186.51 311.11 182.59 308.39 C 176.26 305.29 168.96 302.68 161.86 304.33 C 156.79 305.09 152.25 307.62 147.67 309.76 C 141.75 312.85 133.92 311.40 129.25 306.69 C 122.58 300.22 119.47 290.67 111.50 285.44 C 106.83 282.01 100.62 281.47 95.10 282.66 C 91.46 283.89 88.79 286.80 85.59 288.80 C 81.65 291.35 78.16 294.66 75.79 298.75 C 72.28 304.67 72.45 311.83 70.19 318.17 C 68.19 323.45 62.37 326.77 56.81 325.21 C 56.09 323.65 54.97 321.80 55.94 320.09 C 58.44 315.35 61.37 310.82 63.54 305.91 C 64.85 301.72 65.48 297.31 67.41 293.33 C 71.23 284.97 76.75 277.16 78.17 267.88 C 79.01 263.29 85.02 262.48 86.43 258.15 C 87.70 252.21 86.13 245.52 81.49 241.43 C 74.88 237.25 66.94 233.92 59.02 236.20 C 57.94 235.92 56.87 235.60 55.82 235.24 C 54.67 233.63 55.39 231.64 55.90 229.96 C 58.24 228.67 60.86 227.46 62.33 225.11 C 63.05 220.57 62.86 215.62 60.34 211.63 C 59.90 211.37 59.02 210.87 58.58 210.62 C 56.29 205.10 55.26 198.67 57.96 193.10 C 60.36 186.27 67.91 183.02 70.22 176.15 C 72.69 168.68 73.67 160.23 79.26 154.24 C 80.99 151.88 84.25 152.20 86.48 150.60 C 89.84 148.45 91.70 143.85 89.71 140.17 C 90.17 137.48 91.04 134.87 91.85 132.27 C 93.17 134.63 93.73 137.29 93.51 140.00 C 93.29 152.65 93.20 165.31 93.37 177.97 C 93.35 186.03 93.59 194.24 95.90 202.02 C 96.38 204.07 98.44 204.93 99.98 206.06 C 103.69 210.35 108.13 213.91 112.71 217.24 C 117.88 220.77 124.10 222.11 130.08 223.61 C 143.37 226.93 157.43 225.62 170.44 221.69 C 191.46 215.92 208.08 201.07 224.15 187.10 C 229.36 182.81 235.52 179.85 241.70 177.24 C 241.91 175.01 239.96 173.85 238.64 172.44 C 238.60 172.26 238.53 171.89 238.49 171.71 C 238.23 159.13 238.44 146.54 238.48 133.95 C 238.44 130.87 238.01 127.49 235.87 125.11 C 233.64 123.38 230.73 122.82 227.98 122.58 C 220.31 122.29 212.62 122.86 204.96 122.48 C 202.13 122.38 200.87 119.39 199.34 117.45 C 196.98 113.85 193.83 109.57 189.04 109.66 C 173.93 109.58 158.81 109.70 143.69 109.61 C 136.43 108.92 133.80 117.34 129.70 121.73 C 128.28 121.82 126.87 121.91 125.45 122.00 C 126.18 118.68 126.60 115.26 126.15 111.87 C 125.70 111.85 124.78 111.80 124.33 111.78 C 118.99 111.89 113.58 111.24 108.31 112.28 C 108.29 114.75 108.24 117.22 108.27 119.70 C 108.27 120.18 108.27 121.14 108.26 121.62 C 107.11 121.95 105.95 122.29 104.78 122.58 C 100.46 122.18 96.81 124.38 94.29 127.74 C 94.31 125.44 94.27 123.14 94.24 120.85 C 96.11 113.48 103.24 108.84 109.86 106.06 C 114.95 105.53 120.02 107.30 125.07 107.92 C 129.89 108.83 135.18 107.23 138.38 103.44 C 140.78 100.26 139.64 95.71 136.98 93.05 C 133.97 89.98 132.89 84.88 128.38 83.49 C 124.00 82.02 119.90 79.46 117.63 75.30 C 116.77 71.64 117.09 67.76 115.83 64.17 M 402.75 133.92 C 402.32 145.89 403.12 157.88 402.70 169.86 C 397.72 166.52 391.59 167.96 385.99 167.55 C 379.72 167.36 373.59 165.64 367.98 162.89 C 375.47 157.36 385.10 156.63 394.09 156.29 C 398.35 156.49 399.22 148.79 394.99 148.18 C 382.01 147.89 368.92 151.84 358.25 159.22 C 356.79 160.08 355.81 161.47 354.89 162.84 C 356.16 164.45 357.53 165.97 358.97 167.45 C 357.46 167.85 355.91 167.93 354.37 167.84 C 354.45 160.90 354.18 153.96 354.15 147.02 C 354.11 143.04 354.95 138.97 353.91 135.07 C 353.16 131.45 347.41 130.48 345.49 133.52 C 344.84 135.87 344.78 138.34 344.00 140.66 C 343.06 138.62 343.25 136.37 343.36 134.20 C 341.05 130.40 334.30 131.26 333.80 135.91 C 333.51 144.93 333.68 153.98 333.80 163.01 C 335.69 166.28 339.66 164.76 341.10 161.96 C 343.93 156.46 342.13 149.84 343.99 144.11 C 345.11 146.60 344.79 149.38 344.84 152.03 C 344.77 155.70 345.05 159.68 342.89 162.88 C 340.83 166.33 336.75 167.48 333.60 169.61 C 331.98 171.47 331.80 175.89 334.92 176.30 C 336.75 176.82 338.57 176.12 339.97 174.92 L 338.92 174.54 L 339.47 174.26 C 341.23 174.25 343.00 174.11 344.74 173.80 C 346.62 175.02 348.52 176.66 350.95 176.32 C 366.29 175.96 381.63 176.45 396.96 176.01 C 399.08 176.13 400.83 174.95 402.36 173.63 C 403.59 175.31 405.19 176.66 406.90 177.84 C 401.87 181.96 398.38 187.43 395.15 192.99 C 395.18 196.48 399.57 196.34 402.07 196.29 C 405.57 195.91 410.55 197.45 412.62 193.66 C 413.45 190.41 409.65 189.27 407.31 188.43 C 409.24 185.75 412.09 183.47 412.63 180.03 C 411.44 179.04 410.27 178.06 409.11 177.05 C 410.44 174.91 411.93 172.68 411.59 170.02 C 411.40 157.66 411.60 145.29 411.38 132.93 C 409.66 129.57 403.34 129.93 402.75 133.92 M 292.56 132.67 C 292.68 134.05 292.09 135.80 293.46 136.75 C 298.96 140.88 302.25 147.21 304.63 153.53 C 305.32 154.59 305.36 156.71 307.06 156.58 C 308.49 160.71 309.65 165.00 309.52 169.41 C 303.92 169.53 298.30 169.86 292.73 169.32 C 292.73 164.05 292.77 158.78 292.67 153.51 C 289.83 152.35 286.81 153.26 283.90 153.52 C 277.49 154.28 271.21 157.09 266.92 161.99 C 259.73 169.13 253.52 178.69 254.49 189.25 C 256.42 189.41 258.45 189.64 260.12 188.42 C 260.39 188.43 260.93 188.44 261.20 188.44 C 261.88 178.98 266.47 169.72 274.13 163.99 C 277.68 166.75 277.20 171.75 279.92 175.09 C 282.97 179.53 287.48 184.48 293.44 183.58 C 294.25 181.06 294.31 178.41 294.21 175.80 C 298.77 175.10 303.39 175.56 307.99 175.48 C 312.70 175.47 318.03 176.21 321.99 173.04 C 324.61 170.66 327.32 168.06 328.36 164.57 C 330.04 159.29 331.80 153.36 329.45 148.00 C 330.19 146.97 330.94 145.94 331.70 144.92 C 331.08 143.43 330.61 141.79 329.46 140.62 C 327.40 138.97 324.14 139.49 322.41 141.31 C 320.30 143.63 322.52 146.50 323.60 148.74 C 321.82 153.68 322.70 159.32 320.04 163.96 C 319.36 165.52 317.68 165.80 316.19 166.03 C 315.41 159.27 313.38 152.70 310.33 146.62 C 309.10 144.33 307.50 142.17 307.12 139.53 C 311.61 138.69 318.30 141.28 320.66 135.95 C 319.40 134.55 318.30 132.27 316.06 132.57 C 308.23 132.59 300.38 132.29 292.56 132.67 M 229.41 189.39 L 229.16 189.34 C 224.65 193.78 219.85 197.92 215.26 202.29 C 203.65 212.74 189.95 220.71 175.35 226.21 C 166.45 228.81 157.26 230.26 147.99 230.44 C 144.85 230.36 141.66 229.05 138.58 230.22 C 135.51 229.51 132.17 229.54 129.47 227.72 C 127.38 226.18 124.70 226.52 122.27 226.38 C 119.42 224.25 115.71 224.39 112.35 224.25 C 112.36 224.86 112.38 226.09 112.39 226.70 C 117.22 230.48 121.89 234.48 127.05 237.81 C 140.45 245.87 156.47 249.16 171.99 248.04 C 194.62 246.46 216.75 234.38 228.96 215.05 C 233.99 206.04 238.47 196.00 237.46 185.43 C 234.26 185.38 231.50 187.09 229.41 189.39 M 252.52 205.60 C 252.16 211.06 252.76 216.51 252.45 221.97 C 252.55 223.90 251.84 226.40 253.99 227.49 C 257.31 227.76 260.67 227.61 264.00 227.48 C 266.34 227.39 268.71 226.28 271.03 227.15 C 273.46 227.65 276.06 228.82 278.49 227.64 C 281.31 226.85 283.06 224.40 284.64 222.13 C 284.51 224.58 284.98 227.79 288.05 227.99 C 292.04 227.72 296.04 227.68 300.02 227.37 C 302.45 227.16 305.60 228.75 307.41 226.43 C 308.90 223.15 305.94 218.93 308.53 216.00 C 309.77 219.29 310.14 222.96 312.10 225.94 C 315.75 228.93 320.62 227.42 324.90 227.66 C 326.31 227.82 327.44 226.91 328.59 226.25 C 328.39 223.16 326.63 219.61 328.70 216.83 C 331.04 219.68 331.41 223.60 333.64 226.47 C 335.59 228.86 340.16 227.35 339.44 224.04 C 339.28 217.97 339.79 211.91 339.58 205.85 C 336.81 204.65 334.08 206.05 332.47 208.37 C 329.47 205.77 324.95 203.78 321.47 206.74 C 321.44 212.40 322.00 218.06 321.44 223.70 C 319.90 223.52 318.45 222.67 317.84 221.19 C 316.01 216.92 315.95 212.12 314.15 207.84 C 313.15 205.46 310.02 205.90 307.92 205.60 C 305.14 205.68 301.88 204.93 299.57 206.89 C 300.95 211.74 300.94 216.90 299.91 221.82 C 298.41 220.93 296.94 218.52 295.00 219.81 C 294.10 220.78 293.37 221.87 292.58 222.93 C 292.07 217.55 292.37 212.14 293.34 206.83 C 290.42 204.02 286.39 205.79 283.38 207.42 C 280.77 206.34 278.07 204.89 275.15 205.39 C 267.65 206.90 260.09 204.69 252.52 205.60 M 341.36 206.67 C 342.31 212.06 342.83 217.58 341.77 222.99 C 341.00 224.98 342.62 226.40 343.75 227.79 C 345.37 227.36 346.98 226.93 348.58 226.43 C 348.62 223.75 348.60 221.07 348.63 218.39 C 350.38 220.03 351.56 222.12 352.92 224.07 C 355.49 227.38 361.32 229.23 364.12 225.18 C 365.50 225.70 366.88 226.25 368.30 226.67 C 371.84 226.78 375.42 227.01 378.93 226.36 C 380.00 225.53 381.13 224.78 382.27 224.04 C 383.43 218.86 384.72 212.68 380.61 208.41 C 380.39 208.38 379.95 208.31 379.73 208.28 C 379.37 207.87 378.66 207.03 378.31 206.61 C 374.97 206.58 370.00 205.09 367.85 208.30 C 367.56 208.34 366.98 208.41 366.68 208.45 C 365.98 209.50 365.25 210.54 364.61 211.64 C 360.35 215.06 364.19 220.62 363.55 225.00 C 358.71 222.38 356.42 217.22 353.07 213.14 C 354.73 210.94 356.54 208.87 358.39 206.83 C 355.79 204.90 352.85 206.16 350.03 206.59 C 347.15 205.86 344.10 204.94 341.36 206.67 M 242.55 228.55 C 241.70 231.80 243.28 235.24 242.51 238.43 C 240.99 239.36 239.32 240.01 237.82 240.96 C 235.99 242.03 236.98 244.39 236.92 246.08 C 237.23 247.80 237.01 249.89 238.37 251.21 C 238.91 249.06 239.35 246.88 239.72 244.70 C 242.35 243.62 245.09 242.86 247.77 241.91 C 247.79 237.94 247.77 233.96 248.23 230.01 C 248.35 228.09 248.96 225.83 247.21 224.44 C 245.61 225.75 243.86 226.93 242.55 228.55 M 258.93 236.89 C 255.27 239.33 256.28 244.58 253.72 247.75 C 251.22 249.46 247.25 247.49 245.22 250.24 C 243.76 252.27 243.08 254.73 242.21 257.05 C 244.88 256.84 246.22 254.36 248.18 252.91 C 250.93 252.44 253.78 253.11 256.51 252.47 C 258.93 250.33 259.21 246.71 261.22 244.25 C 264.08 242.47 267.53 241.91 270.46 240.22 C 269.58 237.17 268.66 234.12 267.23 231.28 C 264.44 233.11 261.61 234.90 258.93 236.89 M 205.23 242.27 C 203.64 245.81 203.68 249.90 203.34 253.72 C 198.75 261.34 194.67 269.31 190.30 277.08 C 186.13 279.91 182.21 283.09 178.38 286.36 C 176.58 287.78 175.46 289.81 174.63 291.91 L 175.14 292.64 C 174.31 297.98 178.38 302.85 182.50 305.74 C 186.72 308.83 192.13 306.87 196.37 304.88 C 198.71 308.41 202.00 311.21 205.48 313.58 C 208.73 315.51 212.12 317.88 216.10 317.49 C 218.89 315.35 223.30 313.73 223.58 309.71 C 221.13 309.64 218.96 308.59 217.37 306.75 C 212.78 305.22 209.59 301.09 206.07 297.92 C 214.34 296.33 222.63 294.77 230.92 293.27 L 231.29 293.72 C 234.35 294.73 238.03 295.87 241.00 294.02 C 244.63 290.98 243.95 285.83 243.74 281.63 L 243.22 282.19 C 242.30 275.65 239.83 269.14 235.99 263.77 C 234.66 260.75 232.72 258.06 230.76 255.43 L 230.18 255.34 C 227.82 250.84 223.65 247.59 219.98 244.19 C 216.04 241.19 209.31 237.84 205.23 242.27 M 259.06 262.45 C 255.76 262.20 252.20 260.13 249.05 262.07 C 248.00 262.85 245.08 263.74 246.65 265.38 C 251.30 262.94 255.47 266.87 259.98 267.55 C 262.13 267.30 264.07 266.21 266.09 265.50 C 268.02 266.11 269.85 267.41 271.93 267.34 C 273.97 266.10 275.51 264.26 277.01 262.44 C 273.09 261.42 269.14 260.14 265.05 260.23 C 262.96 260.71 261.19 262.14 259.06 262.45 Z" />
</g>
<g id="#54261492">
<path fill="#542614" opacity="0.57" d=" M 128.90 58.03 C 129.25 58.42 129.95 59.22 130.30 59.61 L 129.37 59.73 L 128.65 58.91 L 128.90 58.03 Z" />
</g>
<g id="#ec5c27ff">
<path fill="#ec5c27" opacity="1.00" d=" M 248.09 64.00 C 250.02 62.29 252.69 62.17 254.86 63.51 C 254.95 70.05 247.71 74.68 241.71 74.89 C 241.38 74.12 240.72 72.59 240.39 71.82 C 243.05 69.31 245.41 66.48 248.09 64.00 Z" />
</g>
<g id="#b55631e5">
<path fill="#b55631" opacity="0.90" d=" M 248.63 93.22 C 252.65 92.56 256.95 91.45 260.75 93.58 C 261.00 95.59 260.81 97.61 259.41 99.18 C 259.52 97.22 259.86 94.89 257.97 93.61 C 255.35 92.70 252.54 93.81 249.89 94.12 C 249.58 93.90 248.94 93.45 248.63 93.22 Z" />
</g>
<g id="#d86643ff">
<path fill="#d86643" opacity="1.00" d=" M 129.70 121.73 C 133.80 117.34 136.43 108.92 143.69 109.61 C 145.80 109.98 147.89 110.45 150.04 110.55 C 163.09 110.70 176.19 109.97 189.23 110.90 C 176.15 110.57 163.07 110.97 150.00 110.81 C 146.58 110.91 142.99 110.53 139.74 111.78 C 136.59 114.19 134.93 117.92 132.70 121.10 C 130.74 122.49 128.36 123.04 125.98 122.91 C 118.91 122.75 111.84 122.95 104.78 122.58 C 105.95 122.29 107.11 121.95 108.26 121.62 C 108.27 121.14 108.27 120.18 108.27 119.70 C 113.72 119.87 119.18 119.95 124.63 119.67 C 124.66 117.03 124.58 114.40 124.33 111.78 C 124.78 111.80 125.70 111.85 126.15 111.87 C 126.60 115.26 126.18 118.68 125.45 122.00 C 126.87 121.91 128.28 121.82 129.70 121.73 Z" />
</g>
<g id="#d07c61ff">
<path fill="#d07c61" opacity="1.00" d=" M 143.69 109.61 C 158.81 109.70 173.93 109.58 189.04 109.66 C 193.83 109.57 196.98 113.85 199.34 117.45 C 200.87 119.39 202.13 122.38 204.96 122.48 C 212.62 122.86 220.31 122.29 227.98 122.58 C 230.73 122.82 233.64 123.38 235.87 125.11 C 238.01 127.49 238.44 130.87 238.48 133.95 C 238.44 146.54 238.23 159.13 238.49 171.71 L 237.29 171.45 C 237.22 158.26 237.27 145.07 237.16 131.89 C 237.09 127.53 233.15 124.30 229.01 123.98 C 219.87 123.22 210.60 124.34 201.51 123.40 C 197.35 119.44 196.09 111.36 189.23 110.90 C 176.19 109.97 163.09 110.70 150.04 110.55 C 147.89 110.45 145.80 109.98 143.69 109.61 Z" />
<path fill="#d07c61" opacity="1.00" d=" M 292.56 132.67 C 300.38 132.29 308.23 132.59 316.06 132.57 C 318.30 132.27 319.40 134.55 320.66 135.95 C 318.30 141.28 311.61 138.69 307.12 139.53 C 307.50 142.17 309.10 144.33 310.33 146.62 C 313.38 152.70 315.41 159.27 316.19 166.03 C 317.68 165.80 319.36 165.52 320.04 163.96 C 322.70 159.32 321.82 153.68 323.60 148.74 C 322.52 146.50 320.30 143.63 322.41 141.31 C 324.14 139.49 327.40 138.97 329.46 140.62 C 330.61 141.79 331.08 143.43 331.70 144.92 C 330.94 145.94 330.19 146.97 329.45 148.00 C 331.80 153.36 330.04 159.29 328.36 164.57 C 327.32 168.06 324.61 170.66 321.99 173.04 C 318.03 176.21 312.70 175.47 307.99 175.48 C 303.39 175.56 298.77 175.10 294.21 175.80 C 294.31 178.41 294.25 181.06 293.44 183.58 C 287.48 184.48 282.97 179.53 279.92 175.09 C 277.20 171.75 277.68 166.75 274.13 163.99 C 266.47 169.72 261.88 178.98 261.20 188.44 C 260.93 188.44 260.39 188.43 260.12 188.42 C 260.49 179.22 264.85 170.04 271.98 164.16 C 273.18 163.47 274.51 161.78 276.01 162.63 C 277.73 167.21 278.64 172.31 282.04 176.06 C 284.90 179.18 288.26 182.54 292.69 183.02 C 292.82 180.23 292.79 177.43 292.79 174.64 C 300.21 174.24 307.64 174.73 315.06 174.35 C 319.53 174.19 323.04 170.87 325.39 167.35 C 328.61 162.33 329.18 156.23 329.57 150.42 C 327.89 150.13 326.22 149.79 324.56 149.47 C 323.29 153.91 323.89 158.73 321.95 163.01 C 320.64 165.88 318.33 168.99 314.85 168.89 C 314.71 157.87 310.21 147.50 304.09 138.51 C 308.80 138.21 313.52 138.41 318.24 138.34 C 318.33 136.77 318.38 135.21 318.40 133.65 C 309.91 133.68 301.41 133.44 292.93 133.78 C 299.67 139.92 304.47 147.85 307.06 156.58 C 305.36 156.71 305.32 154.59 304.63 153.53 C 302.25 147.21 298.96 140.88 293.46 136.75 C 292.09 135.80 292.68 134.05 292.56 132.67 M 326.18 141.15 C 323.67 140.73 321.32 143.76 323.12 145.85 C 324.65 148.71 330.02 147.32 329.68 144.03 C 330.08 142.03 327.83 141.01 326.18 141.15 Z" />
</g>
<g id="#000000ff">
<path fill="#000000" opacity="1.00" d=" M 139.74 111.78 C 142.99 110.53 146.58 110.91 150.00 110.81 C 163.07 110.97 176.15 110.57 189.23 110.90 C 196.09 111.36 197.35 119.44 201.51 123.40 C 210.60 124.34 219.87 123.22 229.01 123.98 C 233.15 124.30 237.09 127.53 237.16 131.89 C 237.27 145.07 237.22 158.26 237.29 171.45 C 233.06 170.48 229.44 167.67 225.04 167.26 C 219.77 166.11 214.36 166.99 209.24 168.41 C 204.92 169.55 204.15 164.81 202.41 162.07 C 189.85 142.19 159.55 137.26 141.00 151.36 C 137.51 151.76 134.50 149.32 131.03 149.42 C 123.59 148.90 115.39 154.15 114.55 161.91 C 113.65 168.05 118.08 173.56 123.45 175.95 C 123.69 176.54 124.18 177.73 124.43 178.33 C 123.69 184.24 124.88 190.18 126.97 195.70 C 128.00 197.03 129.25 198.16 130.43 199.35 C 131.79 200.67 132.52 202.43 133.25 204.14 C 122.06 207.21 109.49 207.73 98.63 203.25 C 96.14 197.89 95.42 191.89 95.17 186.05 C 95.11 168.06 95.07 150.06 95.21 132.07 C 95.05 126.96 100.41 123.60 105.05 123.71 C 113.08 123.57 121.11 123.81 129.13 123.65 C 130.92 123.94 131.78 122.27 132.70 121.10 C 134.93 117.92 136.59 114.19 139.74 111.78 M 215.45 138.12 C 214.81 140.60 216.94 142.12 218.48 143.63 C 220.32 143.71 222.17 143.90 224.01 143.66 C 226.51 142.59 228.51 139.67 227.26 136.94 C 225.29 131.72 216.08 132.41 215.45 138.12 Z" />
<path fill="#000000" opacity="1.00" d=" M 108.31 112.28 C 113.58 111.24 118.99 111.89 124.33 111.78 C 124.58 114.40 124.66 117.03 124.63 119.67 C 119.18 119.95 113.72 119.87 108.27 119.70 C 108.24 117.22 108.29 114.75 108.31 112.28 Z" />
<path fill="#000000" opacity="1.00" d=" M 404.49 174.77 C 404.52 160.72 404.13 146.63 404.69 132.60 C 406.38 132.59 408.08 132.70 409.77 132.90 C 409.97 139.27 409.61 145.65 410.11 152.00 C 409.96 158.74 409.45 165.50 410.27 172.22 C 409.97 172.73 409.36 173.73 409.06 174.24 C 407.55 174.52 406.02 174.67 404.49 174.77 Z" />
<path fill="#000000" opacity="1.00" d=" M 292.93 133.78 C 301.41 133.44 309.91 133.68 318.40 133.65 C 318.38 135.21 318.33 136.77 318.24 138.34 C 313.52 138.41 308.80 138.21 304.09 138.51 C 310.21 147.50 314.71 157.87 314.85 168.89 C 318.33 168.99 320.64 165.88 321.95 163.01 C 323.89 158.73 323.29 153.91 324.56 149.47 C 326.22 149.79 327.89 150.13 329.57 150.42 C 329.18 156.23 328.61 162.33 325.39 167.35 C 323.04 170.87 319.53 174.19 315.06 174.35 C 307.64 174.73 300.21 174.24 292.79 174.64 C 292.79 177.43 292.82 180.23 292.69 183.02 C 288.26 182.54 284.90 179.18 282.04 176.06 C 278.64 172.31 277.73 167.21 276.01 162.63 C 274.51 161.78 273.18 163.47 271.98 164.16 C 264.85 170.04 260.49 179.22 260.12 188.42 C 258.45 189.64 256.42 189.41 254.49 189.25 C 253.52 178.69 259.73 169.13 266.92 161.99 C 271.21 157.09 277.49 154.28 283.90 153.52 C 286.81 153.26 289.83 152.35 292.67 153.51 C 292.77 158.78 292.73 164.05 292.73 169.32 C 298.30 169.86 303.92 169.53 309.52 169.41 C 309.65 165.00 308.49 160.71 307.06 156.58 C 304.47 147.85 299.67 139.92 292.93 133.78 M 282.35 160.23 C 281.45 163.49 282.95 166.74 284.51 169.54 C 285.56 171.31 286.32 173.71 288.65 174.04 C 288.55 169.12 288.53 164.20 288.54 159.28 C 286.51 159.48 284.06 158.90 282.35 160.23 Z" />
<path fill="#000000" opacity="1.00" d=" M 335.73 133.77 C 337.31 133.67 338.90 133.57 340.49 133.48 C 341.69 136.56 340.68 139.82 340.92 143.00 C 341.38 148.62 341.52 154.42 339.83 159.87 C 339.46 161.56 338.02 162.62 336.90 163.81 C 336.61 163.41 336.03 162.62 335.74 162.22 C 335.65 152.74 335.67 143.25 335.73 133.77 Z" />
<path fill="#000000" opacity="1.00" d=" M 346.69 133.69 C 348.54 133.66 350.39 133.64 352.25 133.64 C 352.47 145.60 352.15 157.56 352.36 169.51 C 356.95 169.56 361.55 169.73 366.14 169.42 C 362.96 167.38 359.64 165.53 356.68 163.15 C 358.14 161.04 360.40 159.79 362.55 158.51 C 372.36 152.32 384.23 149.42 395.78 150.21 C 395.71 151.63 395.64 153.06 395.57 154.48 C 385.05 155.13 373.49 155.85 365.00 162.86 C 374.81 170.20 387.79 168.95 399.34 169.78 C 401.25 170.79 399.82 172.95 399.52 174.49 C 382.17 174.39 364.81 174.43 347.46 174.53 C 347.09 172.96 346.74 171.38 346.42 169.81 C 344.23 171.47 341.89 172.94 339.47 174.26 L 338.92 174.54 C 337.31 174.58 335.70 174.65 334.10 174.70 C 334.19 173.73 334.38 171.79 334.48 170.82 C 337.62 169.39 341.04 168.06 343.25 165.28 C 345.69 162.09 346.60 157.99 346.62 154.04 C 346.66 147.26 346.58 140.47 346.69 133.69 Z" />
<path fill="#000000" opacity="1.00" d=" M 326.18 141.15 C 327.83 141.01 330.08 142.03 329.68 144.03 C 330.02 147.32 324.65 148.71 323.12 145.85 C 321.32 143.76 323.67 140.73 326.18 141.15 Z" />
<path fill="#000000" opacity="1.00" d=" M 253.64 207.43 C 255.22 206.56 257.03 207.03 258.72 207.21 C 258.11 213.37 258.04 219.69 258.71 225.88 C 257.04 226.20 255.35 226.15 253.76 225.52 C 253.90 219.49 254.04 213.45 253.64 207.43 Z" />
<path fill="#000000" opacity="1.00" d=" M 262.89 207.36 C 264.15 206.71 265.36 206.71 266.54 207.36 C 266.72 208.60 266.81 209.84 266.81 211.09 C 265.04 210.39 263.78 208.99 262.89 207.36 Z" />
<path fill="#000000" opacity="1.00" d=" M 270.71 207.33 C 273.69 207.21 276.67 207.59 279.65 207.40 C 282.88 208.10 282.19 212.34 280.27 214.10 C 282.74 216.30 283.76 220.12 282.02 223.06 C 281.09 224.99 278.86 225.43 277.01 225.97 C 278.00 223.04 279.54 219.88 278.28 216.76 C 277.36 215.63 276.08 214.88 274.95 214.00 C 277.69 213.28 278.38 210.73 277.58 208.25 C 274.22 207.09 272.88 210.66 270.35 211.89 C 270.44 210.36 270.58 208.84 270.71 207.33 Z" />
<path fill="#000000" opacity="1.00" d=" M 286.38 207.41 C 288.01 206.92 289.69 206.78 291.30 207.48 C 290.65 213.52 290.28 219.79 291.60 225.76 C 289.88 225.79 288.16 225.79 286.45 225.68 C 286.79 219.60 286.82 213.49 286.38 207.41 Z" />
<path fill="#000000" opacity="1.00" d=" M 301.67 207.61 C 302.24 207.39 303.38 206.95 303.95 206.73 C 304.70 206.96 306.19 207.43 306.94 207.66 C 308.58 207.34 310.73 206.49 312.01 208.09 C 314.67 212.51 314.21 218.03 316.22 222.71 C 316.95 224.22 318.71 224.67 320.05 225.49 C 317.94 225.79 315.81 225.86 313.72 225.45 C 312.59 223.92 311.53 222.31 311.44 220.35 C 311.18 217.45 309.48 214.88 309.52 211.94 C 309.55 209.83 308.10 207.51 305.70 208.27 C 306.79 213.95 305.09 219.65 306.33 225.31 C 305.75 225.59 304.59 226.13 304.01 226.41 C 303.45 226.13 302.32 225.58 301.76 225.31 C 302.43 219.44 302.42 213.47 301.67 207.61 Z" />
<path fill="#000000" opacity="1.00" d=" M 323.53 206.86 C 329.90 205.83 332.97 212.54 335.39 217.17 C 336.53 213.89 336.01 210.46 335.47 207.13 C 336.22 207.12 337.72 207.09 338.47 207.08 C 337.43 213.34 338.29 219.70 337.61 225.94 C 336.66 225.79 335.71 225.64 334.77 225.50 C 332.84 220.54 330.82 215.02 326.33 211.80 C 326.05 216.38 326.07 220.98 326.41 225.55 C 325.68 225.68 324.23 225.95 323.50 226.08 C 323.69 219.67 323.82 213.26 323.53 206.86 Z" />
<path fill="#000000" opacity="1.00" d=" M 343.26 208.04 C 343.11 205.82 346.30 207.25 347.53 206.86 C 347.70 208.57 347.46 210.29 347.64 212.01 C 349.65 209.20 352.24 206.02 356.18 207.28 C 354.51 209.24 352.59 210.97 351.05 213.04 C 355.08 216.65 356.95 221.96 361.08 225.48 C 359.34 225.79 357.45 226.27 355.86 225.23 C 352.00 222.98 351.11 218.26 349.19 214.58 C 348.78 214.59 347.96 214.62 347.55 214.63 C 347.31 218.46 347.80 222.30 347.45 226.13 C 346.46 226.17 344.49 226.25 343.50 226.29 C 343.05 220.23 343.64 214.12 343.26 208.04 Z" />
<path fill="#000000" opacity="1.00" d=" M 391.89 207.85 C 394.46 207.41 397.78 206.33 400.03 207.99 C 402.18 211.92 401.46 216.76 403.08 220.93 C 404.11 217.36 404.15 213.61 405.01 210.02 C 405.17 207.78 407.18 207.13 409.15 207.01 C 406.29 211.23 406.82 216.52 405.41 221.23 C 404.88 223.16 404.56 226.06 401.89 225.87 C 398.61 225.80 398.57 221.64 397.63 219.35 L 397.63 219.33 C 397.48 215.75 397.35 212.06 396.06 208.67 C 395.47 208.48 394.30 208.11 393.72 207.92 C 392.22 213.07 392.13 218.51 390.61 223.64 C 390.18 225.52 388.20 225.75 386.63 225.95 C 390.86 220.76 388.89 213.52 391.89 207.85 Z" />
<path fill="#000000" opacity="1.00" d=" M 409.19 206.72 C 411.01 207.35 414.36 206.56 414.81 209.14 C 416.91 214.61 415.22 221.33 419.51 225.91 C 417.14 225.94 414.55 226.05 412.95 223.97 C 412.70 222.59 412.44 221.22 412.16 219.86 C 411.68 215.38 411.32 210.79 409.19 206.72 Z" />
<path fill="#000000" opacity="1.00" d=" M 262.54 216.35 C 262.35 214.84 262.07 213.22 262.94 211.85 C 263.95 213.21 264.50 214.70 263.39 216.22 C 263.18 216.26 262.75 216.32 262.54 216.35 Z" />
<path fill="#000000" opacity="1.00" d=" M 263.95 224.09 C 265.02 222.96 266.45 222.34 267.93 221.96 C 267.68 224.57 266.11 226.78 263.22 225.77 C 263.39 225.39 263.72 224.62 263.89 224.24 L 263.95 224.09 Z" />
<path fill="#000000" opacity="1.00" d=" M 295.67 222.01 C 297.53 222.42 298.87 223.73 298.95 225.70 C 297.81 225.76 296.67 225.81 295.53 225.84 C 295.57 224.56 295.62 223.28 295.67 222.01 Z" />
</g>
<g id="#db6f48ff">
<path fill="#db6f48" opacity="1.00" d=" M 91.85 132.27 C 92.10 128.47 92.86 124.46 94.24 120.85 C 94.27 123.14 94.31 125.44 94.29 127.74 C 96.81 124.38 100.46 122.18 104.78 122.58 C 111.84 122.95 118.91 122.75 125.98 122.91 C 128.36 123.04 130.74 122.49 132.70 121.10 C 131.78 122.27 130.92 123.94 129.13 123.65 C 121.11 123.81 113.08 123.57 105.05 123.71 C 100.41 123.60 95.05 126.96 95.21 132.07 C 95.07 150.06 95.11 168.06 95.17 186.05 C 95.42 191.89 96.14 197.89 98.63 203.25 C 98.97 203.95 99.64 205.35 99.98 206.06 C 98.44 204.93 96.38 204.07 95.90 202.02 C 93.59 194.24 93.35 186.03 93.37 177.97 C 93.20 165.31 93.29 152.65 93.51 140.00 C 93.73 137.29 93.17 134.63 91.85 132.27 Z" />
</g>
<g id="#5121138f">
<path fill="#512113" opacity="0.56" d=" M 289.36 125.87 L 289.69 125.84 C 290.19 127.75 290.91 130.25 289.35 131.86 C 288.82 129.98 288.65 127.73 289.36 125.87 Z" />
</g>
<g id="#e26b42ff">
<path fill="#e26b42" opacity="1.00" d=" M 402.75 133.92 C 403.34 129.93 409.66 129.57 411.38 132.93 C 411.60 145.29 411.40 157.66 411.59 170.02 C 411.93 172.68 410.44 174.91 409.11 177.05 C 410.27 178.06 411.44 179.04 412.63 180.03 C 412.09 183.47 409.24 185.75 407.31 188.43 C 409.65 189.27 413.45 190.41 412.62 193.66 C 410.55 197.45 405.57 195.91 402.07 196.29 C 399.57 196.34 395.18 196.48 395.15 192.99 C 398.38 187.43 401.87 181.96 406.90 177.84 C 405.19 176.66 403.59 175.31 402.36 173.63 C 400.83 174.95 399.08 176.13 396.96 176.01 C 381.63 176.45 366.29 175.96 350.95 176.32 C 348.52 176.66 346.62 175.02 344.74 173.80 C 343.00 174.11 341.23 174.25 339.47 174.26 C 341.89 172.94 344.23 171.47 346.42 169.81 C 346.74 171.38 347.09 172.96 347.46 174.53 C 364.81 174.43 382.17 174.39 399.52 174.49 C 399.82 172.95 401.25 170.79 399.34 169.78 C 387.79 168.95 374.81 170.20 365.00 162.86 C 373.49 155.85 385.05 155.13 395.57 154.48 C 395.64 153.06 395.71 151.63 395.78 150.21 C 384.23 149.42 372.36 152.32 362.55 158.51 C 360.40 159.79 358.14 161.04 356.68 163.15 C 359.64 165.53 362.96 167.38 366.14 169.42 C 361.55 169.73 356.95 169.56 352.36 169.51 C 352.15 157.56 352.47 145.60 352.25 133.64 C 350.39 133.64 348.54 133.66 346.69 133.69 C 346.58 140.47 346.66 147.26 346.62 154.04 C 346.60 157.99 345.69 162.09 343.25 165.28 C 341.04 168.06 337.62 169.39 334.48 170.82 C 334.38 171.79 334.19 173.73 334.10 174.70 C 335.70 174.65 337.31 174.58 338.92 174.54 L 339.97 174.92 C 338.57 176.12 336.75 176.82 334.92 176.30 C 331.80 175.89 331.98 171.47 333.60 169.61 C 336.75 167.48 340.83 166.33 342.89 162.88 C 345.05 159.68 344.77 155.70 344.84 152.03 C 344.79 149.38 345.11 146.60 343.99 144.11 C 342.13 149.84 343.93 156.46 341.10 161.96 C 339.66 164.76 335.69 166.28 333.80 163.01 C 333.68 153.98 333.51 144.93 333.80 135.91 C 334.30 131.26 341.05 130.40 343.36 134.20 C 343.25 136.37 343.06 138.62 344.00 140.66 C 344.78 138.34 344.84 135.87 345.49 133.52 C 347.41 130.48 353.16 131.45 353.91 135.07 C 354.95 138.97 354.11 143.04 354.15 147.02 C 354.18 153.96 354.45 160.90 354.37 167.84 C 355.91 167.93 357.46 167.85 358.97 167.45 C 357.53 165.97 356.16 164.45 354.89 162.84 C 355.81 161.47 356.79 160.08 358.25 159.22 C 368.92 151.84 382.01 147.89 394.99 148.18 C 399.22 148.79 398.35 156.49 394.09 156.29 C 385.10 156.63 375.47 157.36 367.98 162.89 C 373.59 165.64 379.72 167.36 385.99 167.55 C 391.59 167.96 397.72 166.52 402.70 169.86 C 403.12 157.88 402.32 145.89 402.75 133.92 M 404.49 174.77 C 406.02 174.67 407.55 174.52 409.06 174.24 C 409.36 173.73 409.97 172.73 410.27 172.22 C 409.45 165.50 409.96 158.74 410.11 152.00 C 409.61 145.65 409.97 139.27 409.77 132.90 C 408.08 132.70 406.38 132.59 404.69 132.60 C 404.13 146.63 404.52 160.72 404.49 174.77 M 335.73 133.77 C 335.67 143.25 335.65 152.74 335.74 162.22 C 336.03 162.62 336.61 163.41 336.90 163.81 C 338.02 162.62 339.46 161.56 339.83 159.87 C 341.52 154.42 341.38 148.62 340.92 143.00 C 340.68 139.82 341.69 136.56 340.49 133.48 C 338.90 133.57 337.31 133.67 335.73 133.77 M 402.99 183.94 C 400.91 187.01 400.53 191.34 396.90 193.22 C 397.37 193.49 398.32 194.02 398.79 194.29 C 402.72 194.43 406.87 194.93 410.63 193.48 C 410.62 192.99 410.62 192.03 410.61 191.55 C 408.77 191.40 406.97 191.00 405.25 190.36 C 404.57 185.58 411.64 184.33 410.61 179.34 C 407.21 178.81 405.10 181.82 402.99 183.94 Z" />
</g>
<g id="#f0a281ff">
<path fill="#f0a281" opacity="1.00" d=" M 215.45 138.12 C 216.08 132.41 225.29 131.72 227.26 136.94 C 228.51 139.67 226.51 142.59 224.01 143.66 C 222.17 143.90 220.32 143.71 218.48 143.63 C 216.94 142.12 214.81 140.60 215.45 138.12 M 217.23 140.69 C 218.35 143.37 221.84 143.00 224.14 142.38 C 225.97 140.97 225.85 138.64 225.65 136.59 C 223.92 135.70 222.19 133.79 220.08 134.81 C 217.67 135.37 215.43 138.43 217.23 140.69 Z" />
<path fill="#f0a281" opacity="1.00" d=" M 229.41 189.39 C 231.50 187.09 234.26 185.38 237.46 185.43 C 238.47 196.00 233.99 206.04 228.96 215.05 C 216.75 234.38 194.62 246.46 171.99 248.04 C 156.47 249.16 140.45 245.87 127.05 237.81 C 121.89 234.48 117.22 230.48 112.39 226.70 C 112.38 226.09 112.36 224.86 112.35 224.25 C 115.71 224.39 119.42 224.25 122.27 226.38 C 120.24 226.41 118.22 226.55 116.20 226.73 C 115.85 226.75 115.13 226.79 114.78 226.81 C 127.69 239.61 145.91 246.61 163.99 246.89 C 188.35 247.91 213.36 236.29 226.92 215.77 C 232.24 207.13 236.32 197.43 236.49 187.14 C 235.00 188.03 233.51 188.93 232.11 189.96 C 231.44 189.82 230.09 189.53 229.41 189.39 Z" />
</g>
<g id="#ee5c26ff">
<path fill="#ee5c26" opacity="1.00" d=" M 217.23 140.69 C 215.43 138.43 217.67 135.37 220.08 134.81 C 222.19 133.79 223.92 135.70 225.65 136.59 C 225.85 138.64 225.97 140.97 224.14 142.38 C 221.84 143.00 218.35 143.37 217.23 140.69 Z" />
</g>
<g id="#5bdee4ff">
<path fill="#5bdee4" opacity="1.00" d=" M 141.00 151.36 C 159.55 137.26 189.85 142.19 202.41 162.07 C 192.39 163.67 184.70 170.91 176.25 175.92 C 164.75 182.81 152.84 189.06 140.17 193.52 C 136.02 195.36 131.49 196.15 126.97 195.70 C 124.88 190.18 123.69 184.24 124.43 178.33 C 130.32 178.74 136.81 178.47 141.55 174.46 C 148.84 169.05 148.26 156.56 140.83 151.58 L 141.00 151.36 Z" />
</g>
<g id="#fefefdff">
<path fill="#fefefd" opacity="1.00" d=" M 114.55 161.91 C 115.39 154.15 123.59 148.90 131.03 149.42 C 134.50 149.32 137.51 151.76 141.00 151.36 L 140.83 151.58 C 140.46 151.82 139.72 152.29 139.34 152.52 C 140.23 156.83 145.53 159.35 144.61 164.18 C 144.95 169.03 140.53 171.76 137.17 174.31 C 133.24 177.27 127.99 176.12 123.45 175.95 C 118.08 173.56 113.65 168.05 114.55 161.91 Z" />
</g>
<g id="#c7f9faff">
<path fill="#c7f9fa" opacity="1.00" d=" M 139.34 152.52 C 139.72 152.29 140.46 151.82 140.83 151.58 C 148.26 156.56 148.84 169.05 141.55 174.46 C 136.81 178.47 130.32 178.74 124.43 178.33 C 124.18 177.73 123.69 176.54 123.45 175.95 C 127.99 176.12 133.24 177.27 137.17 174.31 C 140.53 171.76 144.95 169.03 144.61 164.18 C 145.53 159.35 140.23 156.83 139.34 152.52 Z" />
</g>
<g id="#de6437ff">
<path fill="#de6437" opacity="1.00" d=" M 282.35 160.23 C 284.06 158.90 286.51 159.48 288.54 159.28 C 288.53 164.20 288.55 169.12 288.65 174.04 C 286.32 173.71 285.56 171.31 284.51 169.54 C 282.95 166.74 281.45 163.49 282.35 160.23 Z" />
</g>
<g id="#535343ff">
<path fill="#535343" opacity="1.00" d=" M 202.41 162.07 C 204.15 164.81 204.92 169.55 209.24 168.41 C 197.87 170.40 189.35 178.82 179.70 184.45 C 165.20 193.05 149.77 200.42 133.25 204.14 C 132.52 202.43 131.79 200.67 130.43 199.35 C 136.47 197.02 142.93 195.78 148.63 192.59 C 158.34 188.94 167.27 183.56 176.24 178.40 C 176.24 177.78 176.24 176.54 176.25 175.92 C 184.70 170.91 192.39 163.67 202.41 162.07 Z" />
</g>
<g id="#e1e0deff">
<path fill="#e1e0de" opacity="1.00" d=" M 209.24 168.41 C 214.36 166.99 219.77 166.11 225.04 167.26 C 229.44 167.67 233.06 170.48 237.29 171.45 L 238.49 171.71 C 238.53 171.89 238.60 172.26 238.64 172.44 C 239.96 173.85 241.91 175.01 241.70 177.24 C 235.52 179.85 229.36 182.81 224.15 187.10 C 208.08 201.07 191.46 215.92 170.44 221.69 C 157.43 225.62 143.37 226.93 130.08 223.61 C 124.10 222.11 117.88 220.77 112.71 217.24 C 108.13 213.91 103.69 210.35 99.98 206.06 C 99.64 205.35 98.97 203.95 98.63 203.25 C 109.49 207.73 122.06 207.21 133.25 204.14 C 149.77 200.42 165.20 193.05 179.70 184.45 C 189.35 178.82 197.87 170.40 209.24 168.41 Z" />
</g>
<g id="#3e6b62ff">
<path fill="#3e6b62" opacity="1.00" d=" M 140.17 193.52 C 152.84 189.06 164.75 182.81 176.25 175.92 C 176.24 176.54 176.24 177.78 176.24 178.40 C 167.27 183.56 158.34 188.94 148.63 192.59 C 142.93 195.78 136.47 197.02 130.43 199.35 C 129.25 198.16 128.00 197.03 126.97 195.70 C 131.49 196.15 136.02 195.36 140.17 193.52 Z" />
</g>
<g id="#a4d4cdff">
<path fill="#a4d4cd" opacity="1.00" d=" M 402.99 183.94 C 405.10 181.82 407.21 178.81 410.61 179.34 C 411.64 184.33 404.57 185.58 405.25 190.36 C 406.97 191.00 408.77 191.40 410.61 191.55 C 410.62 192.03 410.62 192.99 410.63 193.48 C 406.87 194.93 402.72 194.43 398.79 194.29 C 398.32 194.02 397.37 193.49 396.90 193.22 C 400.53 191.34 400.91 187.01 402.99 183.94 Z" />
</g>
<g id="#565442ff">
<path fill="#565442" opacity="1.00" d=" M 232.11 189.96 C 233.51 188.93 235.00 188.03 236.49 187.14 C 236.32 197.43 232.24 207.13 226.92 215.77 C 213.36 236.29 188.35 247.91 163.99 246.89 C 145.91 246.61 127.69 239.61 114.78 226.81 C 115.13 226.79 115.85 226.75 116.20 226.73 C 128.38 231.52 141.60 233.28 154.62 232.23 C 159.81 232.49 164.81 230.86 169.82 229.75 C 182.11 226.95 193.34 220.77 203.75 213.84 C 214.03 206.89 222.56 197.81 232.11 189.96 Z" />
</g>
<g id="#cd8b6aff">
<path fill="#cd8b6a" opacity="1.00" d=" M 229.16 189.34 L 229.41 189.39 C 230.09 189.53 231.44 189.82 232.11 189.96 C 222.56 197.81 214.03 206.89 203.75 213.84 C 193.34 220.77 182.11 226.95 169.82 229.75 C 164.81 230.86 159.81 232.49 154.62 232.23 C 149.33 231.09 143.81 231.76 138.58 230.22 C 141.66 229.05 144.85 230.36 147.99 230.44 C 157.26 230.26 166.45 228.81 175.35 226.21 C 189.95 220.71 203.65 212.74 215.26 202.29 C 219.85 197.92 224.65 193.78 229.16 189.34 Z" />
</g>
<g id="#d86b47ff">
<path fill="#d86b47" opacity="1.00" d=" M 252.52 205.60 C 260.09 204.69 267.65 206.90 275.15 205.39 C 278.07 204.89 280.77 206.34 283.38 207.42 C 286.39 205.79 290.42 204.02 293.34 206.83 C 292.37 212.14 292.07 217.55 292.58 222.93 C 293.37 221.87 294.10 220.78 295.00 219.81 C 296.94 218.52 298.41 220.93 299.91 221.82 C 300.94 216.90 300.95 211.74 299.57 206.89 C 301.88 204.93 305.14 205.68 307.92 205.60 C 310.02 205.90 313.15 205.46 314.15 207.84 C 315.95 212.12 316.01 216.92 317.84 221.19 C 318.45 222.67 319.90 223.52 321.44 223.70 C 322.00 218.06 321.44 212.40 321.47 206.74 C 324.95 203.78 329.47 205.77 332.47 208.37 C 334.08 206.05 336.81 204.65 339.58 205.85 C 339.79 211.91 339.28 217.97 339.44 224.04 C 340.16 227.35 335.59 228.86 333.64 226.47 C 331.41 223.60 331.04 219.68 328.70 216.83 C 326.63 219.61 328.39 223.16 328.59 226.25 C 327.44 226.91 326.31 227.82 324.90 227.66 C 320.62 227.42 315.75 228.93 312.10 225.94 C 310.14 222.96 309.77 219.29 308.53 216.00 C 305.94 218.93 308.90 223.15 307.41 226.43 C 305.60 228.75 302.45 227.16 300.02 227.37 C 296.04 227.68 292.04 227.72 288.05 227.99 C 284.98 227.79 284.51 224.58 284.64 222.13 C 283.06 224.40 281.31 226.85 278.49 227.64 C 276.06 228.82 273.46 227.65 271.03 227.15 C 268.71 226.28 266.34 227.39 264.00 227.48 C 260.67 227.61 257.31 227.76 253.99 227.49 C 251.84 226.40 252.55 223.90 252.45 221.97 C 252.76 216.51 252.16 211.06 252.52 205.60 M 253.64 207.43 C 254.04 213.45 253.90 219.49 253.76 225.52 C 255.35 226.15 257.04 226.20 258.71 225.88 C 258.04 219.69 258.11 213.37 258.72 207.21 C 257.03 207.03 255.22 206.56 253.64 207.43 M 262.89 207.36 C 263.78 208.99 265.04 210.39 266.81 211.09 C 266.81 209.84 266.72 208.60 266.54 207.36 C 265.36 206.71 264.15 206.71 262.89 207.36 M 270.71 207.33 C 270.58 208.84 270.44 210.36 270.35 211.89 C 272.88 210.66 274.22 207.09 277.58 208.25 C 278.38 210.73 277.69 213.28 274.95 214.00 C 276.08 214.88 277.36 215.63 278.28 216.76 C 279.54 219.88 278.00 223.04 277.01 225.97 C 278.86 225.43 281.09 224.99 282.02 223.06 C 283.76 220.12 282.74 216.30 280.27 214.10 C 282.19 212.34 282.88 208.10 279.65 207.40 C 276.67 207.59 273.69 207.21 270.71 207.33 M 286.38 207.41 C 286.82 213.49 286.79 219.60 286.45 225.68 C 288.16 225.79 289.88 225.79 291.60 225.76 C 290.28 219.79 290.65 213.52 291.30 207.48 C 289.69 206.78 288.01 206.92 286.38 207.41 M 301.67 207.61 C 302.42 213.47 302.43 219.44 301.76 225.31 C 302.32 225.58 303.45 226.13 304.01 226.41 C 304.59 226.13 305.75 225.59 306.33 225.31 C 305.09 219.65 306.79 213.95 305.70 208.27 C 308.10 207.51 309.55 209.83 309.52 211.94 C 309.48 214.88 311.18 217.45 311.44 220.35 C 311.53 222.31 312.59 223.92 313.72 225.45 C 315.81 225.86 317.94 225.79 320.05 225.49 C 318.71 224.67 316.95 224.22 316.22 222.71 C 314.21 218.03 314.67 212.51 312.01 208.09 C 310.73 206.49 308.58 207.34 306.94 207.66 C 306.19 207.43 304.70 206.96 303.95 206.73 C 303.38 206.95 302.24 207.39 301.67 207.61 M 323.53 206.86 C 323.82 213.26 323.69 219.67 323.50 226.08 C 324.23 225.95 325.68 225.68 326.41 225.55 C 326.07 220.98 326.05 216.38 326.33 211.80 C 330.82 215.02 332.84 220.54 334.77 225.50 C 335.71 225.64 336.66 225.79 337.61 225.94 C 338.29 219.70 337.43 213.34 338.47 207.08 C 337.72 207.09 336.22 207.12 335.47 207.13 C 336.01 210.46 336.53 213.89 335.39 217.17 C 332.97 212.54 329.90 205.83 323.53 206.86 M 262.54 216.35 C 261.97 216.39 260.82 216.47 260.25 216.51 C 259.85 218.80 259.93 221.12 260.29 223.41 C 261.19 223.62 262.99 224.03 263.89 224.24 C 263.72 224.62 263.39 225.39 263.22 225.77 C 266.11 226.78 267.68 224.57 267.93 221.96 C 266.45 222.34 265.02 222.96 263.95 224.09 C 264.04 223.37 264.22 221.94 264.31 221.22 C 264.99 220.97 266.36 220.46 267.05 220.21 C 269.68 222.66 273.20 223.06 276.64 222.85 C 276.66 221.30 276.76 219.75 276.62 218.21 C 274.42 214.78 270.99 212.19 266.77 212.29 C 266.12 213.56 265.49 214.84 264.83 216.12 L 263.39 216.22 C 264.50 214.70 263.95 213.21 262.94 211.85 C 262.07 213.22 262.35 214.84 262.54 216.35 M 295.67 222.01 C 295.62 223.28 295.57 224.56 295.53 225.84 C 296.67 225.81 297.81 225.76 298.95 225.70 C 298.87 223.73 297.53 222.42 295.67 222.01 M 271.00 224.22 C 270.52 225.76 271.14 226.30 272.85 225.86 C 273.32 224.32 272.70 223.77 271.00 224.22 Z" />
</g>
<g id="#ca6b47ff">
<path fill="#ca6b47" opacity="1.00" d=" M 390.80 206.82 C 394.55 204.06 399.56 205.25 402.77 208.23 C 406.04 205.65 410.78 204.26 414.66 206.26 C 419.10 210.73 415.95 218.77 420.60 223.03 C 420.32 224.66 419.91 226.27 419.34 227.82 C 417.38 227.40 415.41 227.01 413.46 226.61 C 413.33 225.95 413.07 224.63 412.95 223.97 C 414.55 226.05 417.14 225.94 419.51 225.91 C 415.22 221.33 416.91 214.61 414.81 209.14 C 414.36 206.56 411.01 207.35 409.19 206.72 C 411.32 210.79 411.68 215.38 412.16 219.86 C 410.92 216.88 409.97 213.80 409.03 210.72 C 408.88 211.61 408.73 212.50 408.60 213.39 C 407.71 217.47 407.30 221.77 405.42 225.55 C 404.02 228.33 400.02 227.64 398.17 225.75 C 396.61 223.94 397.37 221.46 397.63 219.35 C 398.57 221.64 398.61 225.80 401.89 225.87 C 404.56 226.06 404.88 223.16 405.41 221.23 C 406.82 216.52 406.29 211.23 409.15 207.01 C 407.18 207.13 405.17 207.78 405.01 210.02 C 404.15 213.61 404.11 217.36 403.08 220.93 C 401.46 216.76 402.18 211.92 400.03 207.99 C 397.78 206.33 394.46 207.41 391.89 207.85 C 388.89 213.52 390.86 220.76 386.63 225.95 C 388.20 225.75 390.18 225.52 390.61 223.64 C 392.13 218.51 392.22 213.07 393.72 207.92 C 394.30 208.11 395.47 208.48 396.06 208.67 C 397.35 212.06 397.48 215.75 397.63 219.33 C 396.51 217.21 395.45 215.06 394.57 212.83 C 393.72 216.58 393.33 220.44 392.14 224.10 C 391.15 227.44 385.75 229.37 384.10 225.53 C 389.07 220.40 387.22 212.58 390.80 206.82 Z" />
</g>
<g id="#cd815fff">
<path fill="#cd815f" opacity="1.00" d=" M 341.36 206.67 C 344.10 204.94 347.15 205.86 350.03 206.59 C 352.85 206.16 355.79 204.90 358.39 206.83 C 356.54 208.87 354.73 210.94 353.07 213.14 C 356.42 217.22 358.71 222.38 363.55 225.00 C 364.19 220.62 360.35 215.06 364.61 211.64 C 364.35 214.74 363.80 217.97 364.64 221.03 C 365.62 223.05 367.01 224.83 368.30 226.67 C 366.88 226.25 365.50 225.70 364.12 225.18 C 361.32 229.23 355.49 227.38 352.92 224.07 C 351.56 222.12 350.38 220.03 348.63 218.39 C 348.60 221.07 348.62 223.75 348.58 226.43 C 346.98 226.93 345.37 227.36 343.75 227.79 C 342.62 226.40 341.00 224.98 341.77 222.99 C 342.83 217.58 342.31 212.06 341.36 206.67 M 343.26 208.04 C 343.64 214.12 343.05 220.23 343.50 226.29 C 344.49 226.25 346.46 226.17 347.45 226.13 C 347.80 222.30 347.31 218.46 347.55 214.63 C 347.96 214.62 348.78 214.59 349.19 214.58 C 351.11 218.26 352.00 222.98 355.86 225.23 C 357.45 226.27 359.34 225.79 361.08 225.48 C 356.95 221.96 355.08 216.65 351.05 213.04 C 352.59 210.97 354.51 209.24 356.18 207.28 C 352.24 206.02 349.65 209.20 347.64 212.01 C 347.46 210.29 347.70 208.57 347.53 206.86 C 346.30 207.25 343.11 205.82 343.26 208.04 Z" />
</g>
<g id="#d2bca4ff">
<path fill="#d2bca4" opacity="1.00" d=" M 367.85 208.30 C 370.00 205.09 374.97 206.58 378.31 206.61 C 378.66 207.03 379.37 207.87 379.73 208.28 C 375.79 207.56 371.79 207.70 367.85 208.30 Z" />
</g>
<g id="#a7d6ceff">
<path fill="#a7d6ce" opacity="1.00" d=" M 366.68 208.45 C 366.98 208.41 367.56 208.34 367.85 208.30 C 371.79 207.70 375.79 207.56 379.73 208.28 C 379.95 208.31 380.39 208.38 380.61 208.41 C 384.72 212.68 383.43 218.86 382.27 224.04 C 381.13 224.78 380.00 225.53 378.93 226.36 C 375.42 227.01 371.84 226.78 368.30 226.67 C 367.01 224.83 365.62 223.05 364.64 221.03 C 363.80 217.97 364.35 214.74 364.61 211.64 C 365.25 210.54 365.98 209.50 366.68 208.45 M 370.94 211.55 C 370.58 212.10 369.86 213.21 369.50 213.76 C 369.45 215.97 369.41 218.18 369.36 220.39 C 370.60 221.94 372.15 223.19 374.13 223.66 C 375.76 222.41 377.67 221.23 378.30 219.14 C 378.59 216.75 378.16 214.17 376.93 212.09 C 375.33 210.65 372.88 211.52 370.94 211.55 Z" />
</g>
<g id="#eb5b26ff">
<path fill="#eb5b26" opacity="1.00" d=" M 370.94 211.55 C 372.88 211.52 375.33 210.65 376.93 212.09 C 378.16 214.17 378.59 216.75 378.30 219.14 C 377.67 221.23 375.76 222.41 374.13 223.66 C 372.15 223.19 370.60 221.94 369.36 220.39 C 369.41 218.18 369.45 215.97 369.50 213.76 C 369.86 213.21 370.58 212.10 370.94 211.55 Z" />
</g>
<g id="#ec5e2cff">
<path fill="#ec5e2c" opacity="1.00" d=" M 408.60 213.39 C 408.73 212.50 408.88 211.61 409.03 210.72 C 409.97 213.80 410.92 216.88 412.16 219.86 C 412.44 221.22 412.70 222.59 412.95 223.97 C 413.07 224.63 413.33 225.95 413.46 226.61 C 415.41 227.01 417.38 227.40 419.34 227.82 C 419.91 226.27 420.32 224.66 420.60 223.03 C 421.05 223.37 421.52 223.70 421.99 224.02 L 423.01 224.72 C 423.85 227.14 425.75 229.02 426.71 231.37 C 427.03 231.78 427.69 232.60 428.01 233.01 C 428.34 233.46 429.00 234.35 429.32 234.80 C 429.27 235.44 429.16 236.72 429.11 237.37 C 427.59 236.41 426.15 235.33 425.06 233.89 C 424.69 233.38 423.93 232.38 423.56 231.88 C 423.41 231.69 423.11 231.33 422.96 231.14 C 419.73 230.98 416.28 231.08 413.63 228.89 C 413.06 228.39 412.50 227.87 411.98 227.34 C 411.47 227.39 410.46 227.50 409.95 227.55 C 408.07 229.33 406.59 231.86 404.08 232.79 L 402.84 233.20 C 404.87 229.78 407.98 227.23 411.32 225.17 C 410.84 221.15 409.81 217.24 408.60 213.39 Z" />
</g>
<g id="#ee5c24ff">
<path fill="#ee5c24" opacity="1.00" d=" M 266.77 212.29 C 270.99 212.19 274.42 214.78 276.62 218.21 C 276.76 219.75 276.66 221.30 276.64 222.85 C 273.20 223.06 269.68 222.66 267.05 220.21 C 266.36 220.46 264.99 220.97 264.31 221.22 C 264.22 221.94 264.04 223.37 263.95 224.09 L 263.89 224.24 C 262.99 224.03 261.19 223.62 260.29 223.41 C 259.93 221.12 259.85 218.80 260.25 216.51 C 260.82 216.47 261.97 216.39 262.54 216.35 C 262.75 216.32 263.18 216.26 263.39 216.22 L 264.83 216.12 C 265.49 214.84 266.12 213.56 266.77 212.29 Z" />
</g>
<g id="#91563dff">
<path fill="#91563d" opacity="1.00" d=" M 271.00 224.22 C 272.70 223.77 273.32 224.32 272.85 225.86 C 271.14 226.30 270.52 225.76 271.00 224.22 Z" />
</g>
<g id="#feb335ff">
<path fill="#feb335" opacity="1.00" d=" M 242.55 228.55 C 243.86 226.93 245.61 225.75 247.21 224.44 C 248.96 225.83 248.35 228.09 248.23 230.01 C 247.77 233.96 247.79 237.94 247.77 241.91 C 245.09 242.86 242.35 243.62 239.72 244.70 C 239.35 246.88 238.91 249.06 238.37 251.21 C 237.01 249.89 237.23 247.80 236.92 246.08 C 236.98 244.39 235.99 242.03 237.82 240.96 C 239.32 240.01 240.99 239.36 242.51 238.43 C 243.28 235.24 241.70 231.80 242.55 228.55 Z" />
</g>
<g id="#facfb7ff">
<path fill="#facfb7" opacity="1.00" d=" M 116.20 226.73 C 118.22 226.55 120.24 226.41 122.27 226.38 C 124.70 226.52 127.38 226.18 129.47 227.72 C 132.17 229.54 135.51 229.51 138.58 230.22 C 143.81 231.76 149.33 231.09 154.62 232.23 C 141.60 233.28 128.38 231.52 116.20 226.73 Z" />
</g>
<g id="#481e0e7d">
<path fill="#481e0e" opacity="0.49" d=" M 413.63 228.89 C 416.28 231.08 419.73 230.98 422.96 231.14 C 423.11 231.33 423.41 231.69 423.56 231.88 C 420.08 232.03 415.58 232.53 413.63 228.89 Z" />
</g>
<g id="#481d0f88">
<path fill="#481d0f" opacity="0.53" d=" M 426.71 231.37 L 427.62 231.29 L 428.29 232.13 L 428.01 233.01 C 427.69 232.60 427.03 231.78 426.71 231.37 Z" />
</g>
<g id="#ffb233ff">
<path fill="#ffb233" opacity="1.00" d=" M 258.93 236.89 C 261.61 234.90 264.44 233.11 267.23 231.28 C 268.66 234.12 269.58 237.17 270.46 240.22 C 267.53 241.91 264.08 242.47 261.22 244.25 C 259.21 246.71 258.93 250.33 256.51 252.47 C 253.78 253.11 250.93 252.44 248.18 252.91 C 246.22 254.36 244.88 256.84 242.21 257.05 C 243.08 254.73 243.76 252.27 245.22 250.24 C 247.25 247.49 251.22 249.46 253.72 247.75 C 256.28 244.58 255.27 239.33 258.93 236.89 Z" />
</g>
<g id="#c4664dff">
<path fill="#c4664d" opacity="1.00" d=" M 402.84 233.20 L 404.08 232.79 C 401.82 235.45 400.47 238.69 401.60 242.21 C 403.76 245.42 404.44 249.32 406.08 252.79 C 409.19 259.76 411.60 267.02 414.65 274.01 C 414.25 274.46 413.46 275.36 413.07 275.80 C 410.31 272.13 410.62 267.34 408.68 263.30 C 406.92 259.42 406.04 255.16 403.84 251.49 C 401.86 248.20 401.60 244.27 400.26 240.73 C 397.74 240.57 395.17 240.41 392.78 241.37 C 391.70 240.71 390.52 240.09 390.12 238.81 C 392.90 239.55 395.83 240.03 398.72 239.61 C 400.32 237.62 401.38 235.27 402.84 233.20 Z" />
</g>
<g id="#52281795">
<path fill="#522817" opacity="0.58" d=" M 425.06 233.89 C 426.15 235.33 427.59 236.41 429.11 237.37 C 429.16 236.72 429.27 235.44 429.32 234.80 C 429.98 235.68 430.78 237.97 428.90 238.01 C 426.67 238.18 425.85 235.51 425.06 233.89 Z" />
</g>
<g id="#ffb13dff">
<path fill="#ffb13d" opacity="1.00" d=" M 205.23 242.27 C 209.31 237.84 216.04 241.19 219.98 244.19 C 223.65 247.59 227.82 250.84 230.18 255.34 C 228.95 255.14 227.72 254.94 226.49 254.73 C 223.08 249.43 218.11 244.50 211.91 242.81 C 208.70 242.45 209.12 246.50 208.74 248.61 C 208.67 250.12 208.66 251.64 208.72 253.15 C 207.86 250.14 208.49 246.40 205.81 244.21 C 205.68 246.06 205.60 247.92 205.57 249.78 C 205.14 250.94 204.61 252.06 203.91 253.09 L 203.34 253.72 C 203.68 249.90 203.64 245.81 205.23 242.27 Z" />
</g>
<g id="#ff9e19ff">
<path fill="#ff9e19" opacity="1.00" d=" M 208.74 248.61 C 209.12 246.50 208.70 242.45 211.91 242.81 C 218.11 244.50 223.08 249.43 226.49 254.73 C 224.49 255.69 222.48 256.64 220.72 258.01 C 217.44 254.06 213.60 250.50 208.74 248.61 Z" />
</g>
<g id="#fee59eff">
<path fill="#fee59e" opacity="1.00" d=" M 205.81 244.21 C 208.49 246.40 207.86 250.14 208.72 253.15 C 209.04 254.45 209.49 255.72 209.93 256.99 C 209.49 257.43 208.61 258.32 208.18 258.76 C 207.05 255.85 206.04 252.87 205.57 249.78 C 205.60 247.92 205.68 246.06 205.81 244.21 Z" />
</g>
<g id="#6c3b2db8">
<path fill="#6c3b2d" opacity="0.72" d=" M 439.95 247.01 C 441.36 245.89 442.55 248.01 443.81 248.51 L 443.70 248.79 C 443.50 249.32 443.10 250.38 442.90 250.91 C 441.64 249.85 440.13 248.79 439.95 247.01 Z" />
</g>
<g id="#fb701cff">
<path fill="#fb701c" opacity="1.00" d=" M 208.74 248.61 C 213.60 250.50 217.44 254.06 220.72 258.01 C 220.43 258.53 219.84 259.57 219.54 260.08 C 217.62 261.31 215.70 262.54 213.82 263.82 C 212.65 261.47 211.20 259.27 209.93 256.99 C 209.49 255.72 209.04 254.45 208.72 253.15 C 208.66 251.64 208.67 250.12 208.74 248.61 Z" />
</g>
<g id="#dfa864ff">
<path fill="#dfa864" opacity="1.00" d=" M 203.91 253.09 C 204.61 252.06 205.14 250.94 205.57 249.78 C 206.04 252.87 207.05 255.85 208.18 258.76 C 207.62 260.62 207.67 262.58 207.72 264.51 C 205.81 260.94 204.62 257.06 203.91 253.09 Z" />
</g>
<g id="#df6233ff">
<path fill="#df6233" opacity="1.00" d=" M 442.90 250.91 C 443.10 250.38 443.50 249.32 443.70 248.79 C 444.21 249.37 445.25 250.55 445.76 251.13 C 446.36 252.88 447.76 254.10 449.59 254.46 C 452.62 255.92 454.90 258.62 456.92 261.26 C 455.02 263.24 452.49 261.62 451.10 259.91 C 448.46 256.83 445.68 253.86 442.90 250.91 Z" />
</g>
<g id="#874129c6">
<path fill="#874129" opacity="0.78" d=" M 445.76 251.13 C 447.26 250.62 449.81 252.92 449.59 254.46 C 447.76 254.10 446.36 252.88 445.76 251.13 Z" />
</g>
<g id="#edf4f5ff">
<path fill="#edf4f5" opacity="1.00" d=" M 203.34 253.72 L 203.91 253.09 C 204.62 257.06 205.81 260.94 207.72 264.51 C 208.43 266.02 209.22 267.51 209.98 269.01 C 210.75 270.56 211.64 272.04 212.54 273.52 C 210.95 277.16 207.21 278.94 204.29 281.33 C 200.96 283.61 198.24 287.15 194.06 287.86 C 192.24 284.51 190.10 281.03 190.30 277.08 C 194.67 269.31 198.75 261.34 203.34 253.72 Z" />
</g>
<g id="#f3b76bff">
<path fill="#f3b76b" opacity="1.00" d=" M 220.72 258.01 C 222.48 256.64 224.49 255.69 226.49 254.73 C 227.72 254.94 228.95 255.14 230.18 255.34 L 230.76 255.43 C 232.72 258.06 234.66 260.75 235.99 263.77 C 235.63 265.30 235.21 266.83 234.85 268.37 C 234.21 263.89 231.96 259.54 228.47 256.63 C 225.10 255.10 222.48 259.01 219.54 260.08 C 219.84 259.57 220.43 258.53 220.72 258.01 Z" />
</g>
<g id="#f7f9f6ff">
<path fill="#f7f9f6" opacity="1.00" d=" M 219.54 260.08 C 222.48 259.01 225.10 255.10 228.47 256.63 C 231.96 259.54 234.21 263.89 234.85 268.37 C 234.83 268.57 234.78 268.97 234.76 269.17 C 233.22 270.42 231.65 271.64 230.05 272.80 C 227.98 274.27 225.89 275.70 223.84 277.20 C 223.37 277.07 222.42 276.80 221.95 276.67 C 225.05 274.28 228.60 272.43 231.19 269.43 C 229.43 267.61 227.65 265.81 225.84 264.04 C 222.59 265.68 219.42 267.45 216.29 269.29 C 215.32 267.53 214.57 265.67 213.82 263.82 C 215.70 262.54 217.62 261.31 219.54 260.08 Z" />
</g>
<g id="#fcb032ff">
<path fill="#fcb032" opacity="1.00" d=" M 209.93 256.99 C 211.20 259.27 212.65 261.47 213.82 263.82 C 214.57 265.67 215.32 267.53 216.29 269.29 C 218.20 272.54 220.52 275.52 222.76 278.54 C 225.01 281.90 227.71 284.93 230.93 287.38 C 228.84 287.82 226.73 288.11 224.62 288.28 C 222.44 286.44 220.53 284.32 218.73 282.13 C 218.25 281.54 217.77 280.96 217.29 280.37 C 217.71 280.29 218.53 280.13 218.95 280.05 C 215.65 275.58 213.10 270.61 209.65 266.25 C 209.73 266.94 209.90 268.32 209.98 269.01 C 209.22 267.51 208.43 266.02 207.72 264.51 C 207.67 262.58 207.62 260.62 208.18 258.76 C 208.61 258.32 209.49 257.43 209.93 256.99 Z" />
</g>
<g id="#ffb234ff">
<path fill="#ffb234" opacity="1.00" d=" M 259.06 262.45 C 261.19 262.14 262.96 260.71 265.05 260.23 C 269.14 260.14 273.09 261.42 277.01 262.44 C 275.51 264.26 273.97 266.10 271.93 267.34 C 269.85 267.41 268.02 266.11 266.09 265.50 C 264.07 266.21 262.13 267.30 259.98 267.55 C 255.47 266.87 251.30 262.94 246.65 265.38 C 245.08 263.74 248.00 262.85 249.05 262.07 C 252.20 260.13 255.76 262.20 259.06 262.45 Z" />
</g>
<g id="#d3dde5ff">
<path fill="#d3dde5" opacity="1.00" d=" M 216.29 269.29 C 219.42 267.45 222.59 265.68 225.84 264.04 C 227.65 265.81 229.43 267.61 231.19 269.43 C 228.60 272.43 225.05 274.28 221.95 276.67 C 222.42 276.80 223.37 277.07 223.84 277.20 C 223.57 277.54 223.03 278.21 222.76 278.54 C 220.52 275.52 218.20 272.54 216.29 269.29 Z" />
</g>
<g id="#ffb039ff">
<path fill="#ffb039" opacity="1.00" d=" M 235.99 263.77 C 239.83 269.14 242.30 275.65 243.22 282.19 C 242.89 282.56 242.23 283.32 241.90 283.70 C 239.12 279.04 239.62 272.37 234.76 269.17 C 234.78 268.97 234.83 268.57 234.85 268.37 C 235.21 266.83 235.63 265.30 235.99 263.77 Z" />
</g>
<g id="#d7994eff">
<path fill="#d7994e" opacity="1.00" d=" M 209.65 266.25 C 213.10 270.61 215.65 275.58 218.95 280.05 C 218.53 280.13 217.71 280.29 217.29 280.37 C 216.91 279.90 216.13 278.95 215.75 278.48 C 214.59 276.89 213.54 275.21 212.54 273.52 C 211.64 272.04 210.75 270.56 209.98 269.01 C 209.90 268.32 209.73 266.94 209.65 266.25 Z" />
</g>
<g id="#fd9d1cff">
<path fill="#fd9d1c" opacity="1.00" d=" M 230.05 272.80 C 231.65 271.64 233.22 270.42 234.76 269.17 C 239.62 272.37 239.12 279.04 241.90 283.70 C 241.27 286.25 240.58 288.81 239.38 291.17 C 238.58 290.67 237.78 290.18 236.98 289.69 C 236.66 283.40 233.59 277.83 230.05 272.80 Z" />
</g>
<g id="#cfd8ddff">
<path fill="#cfd8dd" opacity="1.00" d=" M 212.54 273.52 C 213.54 275.21 214.59 276.89 215.75 278.48 C 209.42 282.79 202.48 286.48 197.12 292.02 C 196.03 290.68 195.02 289.28 194.06 287.86 C 198.24 287.15 200.96 283.61 204.29 281.33 C 207.21 278.94 210.95 277.16 212.54 273.52 Z" />
</g>
<g id="#fc7218ff">
<path fill="#fc7218" opacity="1.00" d=" M 223.84 277.20 C 225.89 275.70 227.98 274.27 230.05 272.80 C 233.59 277.83 236.66 283.40 236.98 289.69 C 234.76 289.57 232.71 288.67 230.93 287.38 C 227.71 284.93 225.01 281.90 222.76 278.54 C 223.03 278.21 223.57 277.54 223.84 277.20 Z" />
</g>
<g id="#65372abf">
<path fill="#65372a" opacity="0.75" d=" M 413.07 275.80 C 413.46 275.36 414.25 274.46 414.65 274.01 C 418.08 281.99 421.35 290.04 424.69 298.06 C 426.44 303.04 428.83 307.85 429.71 313.09 C 426.66 309.43 425.11 304.85 423.34 300.50 C 420.27 292.13 416.41 284.07 413.07 275.80 Z" />
</g>
<g id="#feb230ff">
<path fill="#feb230" opacity="1.00" d=" M 178.38 286.36 C 182.21 283.09 186.13 279.91 190.30 277.08 C 190.10 281.03 192.24 284.51 194.06 287.86 C 195.02 289.28 196.03 290.68 197.12 292.02 C 197.60 292.23 198.54 292.67 199.01 292.89 L 198.27 293.30 C 193.55 295.54 189.76 299.45 184.73 301.05 C 187.49 297.06 192.06 295.03 195.59 291.85 C 195.20 291.28 194.43 290.15 194.05 289.59 C 189.65 291.87 185.96 295.30 181.49 297.44 C 178.22 298.84 176.81 294.58 175.14 292.64 L 174.63 291.91 C 175.46 289.81 176.58 287.78 178.38 286.36 Z" />
</g>
<g id="#edf6f7ff">
<path fill="#edf6f7" opacity="1.00" d=" M 197.12 292.02 C 202.48 286.48 209.42 282.79 215.75 278.48 C 216.13 278.95 216.91 279.90 217.29 280.37 C 217.77 280.96 218.25 281.54 218.73 282.13 C 212.01 285.45 205.52 289.19 199.01 292.89 C 198.54 292.67 197.60 292.23 197.12 292.02 Z" />
</g>
<g id="#fc8234ff">
<path fill="#fc8234" opacity="1.00" d=" M 243.22 282.19 L 243.74 281.63 C 243.95 285.83 244.63 290.98 241.00 294.02 C 238.03 295.87 234.35 294.73 231.29 293.72 L 230.92 293.27 C 230.18 292.36 229.28 291.59 228.38 290.86 C 227.13 289.99 225.85 289.16 224.62 288.28 C 226.73 288.11 228.84 287.82 230.93 287.38 C 232.71 288.67 234.76 289.57 236.98 289.69 C 237.78 290.18 238.58 290.67 239.38 291.17 C 240.58 288.81 241.27 286.25 241.90 283.70 C 242.23 283.32 242.89 282.56 243.22 282.19 Z" />
</g>
<g id="#d0d8dfff">
<path fill="#d0d8df" opacity="1.00" d=" M 199.01 292.89 C 205.52 289.19 212.01 285.45 218.73 282.13 C 220.53 284.32 222.44 286.44 224.62 288.28 C 225.85 289.16 227.13 289.99 228.38 290.86 C 221.93 292.81 215.38 294.38 208.79 295.77 C 207.12 296.00 205.73 296.95 204.70 298.26 C 204.39 298.43 203.76 298.77 203.45 298.94 C 203.44 298.41 203.41 297.35 203.40 296.82 C 201.68 295.65 199.97 294.47 198.27 293.30 L 199.01 292.89 Z" />
</g>
<g id="#f88426ff">
<path fill="#f88426" opacity="1.00" d=" M 181.49 297.44 C 185.96 295.30 189.65 291.87 194.05 289.59 C 194.43 290.15 195.20 291.28 195.59 291.85 C 192.06 295.03 187.49 297.06 184.73 301.05 C 189.76 299.45 193.55 295.54 198.27 293.30 C 199.97 294.47 201.68 295.65 203.40 296.82 C 203.41 297.35 203.44 298.41 203.45 298.94 C 201.08 300.10 198.74 301.37 196.66 302.99 C 196.59 303.47 196.44 304.41 196.37 304.88 C 192.13 306.87 186.72 308.83 182.50 305.74 C 178.38 302.85 174.31 297.98 175.14 292.64 C 176.81 294.58 178.22 298.84 181.49 297.44 Z" />
</g>
<g id="#fff9dfff">
<path fill="#fff9df" opacity="1.00" d=" M 208.79 295.77 C 215.38 294.38 221.93 292.81 228.38 290.86 C 229.28 291.59 230.18 292.36 230.92 293.27 C 222.63 294.77 214.34 296.33 206.07 297.92 C 205.73 298.01 205.05 298.17 204.70 298.26 C 205.73 296.95 207.12 296.00 208.79 295.77 Z" />
</g>
<g id="#eaf2f2ff">
<path fill="#eaf2f2" opacity="1.00" d=" M 204.70 298.26 C 205.05 298.17 205.73 298.01 206.07 297.92 C 209.59 301.09 212.78 305.22 217.37 306.75 C 218.96 308.59 221.13 309.64 223.58 309.71 C 223.30 313.73 218.89 315.35 216.10 317.49 C 212.12 317.88 208.73 315.51 205.48 313.58 C 202.00 311.21 198.71 308.41 196.37 304.88 C 196.44 304.41 196.59 303.47 196.66 302.99 C 198.74 301.37 201.08 300.10 203.45 298.94 C 203.76 298.77 204.39 298.43 204.70 298.26 Z" />
</g>
<g id="#0f0b0b48">
<path fill="#0f0b0b" opacity="0.28" d=" M 431.01 317.88 C 432.95 318.43 434.85 322.22 432.32 323.05 C 431.64 321.39 431.04 319.69 431.01 317.88 Z" />
</g>
<g id="#ef5b25ff">
<path fill="#ef5b25" opacity="1.00" d=" M 35.16 343.09 C 36.73 339.59 36.64 334.41 40.93 332.98 C 45.02 331.13 48.27 335.18 51.62 336.84 C 51.69 338.27 51.67 339.70 51.59 341.14 C 46.46 343.72 41.79 347.98 35.86 348.42 C 32.96 348.29 34.63 344.70 35.16 343.09 Z" />
</g>
</svg>
