<?xml version="1.0" encoding="UTF-8" ?>
<!DOCTYPE svg PUBLIC "-//W3C//DTD SVG 1.1//EN" "http://www.w3.org/Graphics/SVG/1.1/DTD/svg11.dtd">
<svg width="720pt" height="720pt" viewBox="0 0 720 720" version="1.1" xmlns="http://www.w3.org/2000/svg">
<g id="#fb1010ff">
<path fill="#fb1010" opacity="1.00" d=" M 295.53 253.29 C 334.45 247.59 374.20 247.57 413.13 253.24 C 436.35 256.73 459.33 262.24 481.25 270.73 C 499.33 277.72 516.79 286.73 531.97 298.89 C 543.63 308.38 554.08 319.99 559.75 334.09 C 564.38 345.38 565.30 358.18 562.07 369.97 C 560.65 375.52 558.19 380.71 555.55 385.76 C 554.59 382.97 553.21 380.35 551.29 378.10 C 547.22 372.24 543.19 366.36 538.80 360.73 C 536.26 357.11 533.10 353.98 529.86 350.99 C 526.30 347.68 522.36 344.78 519.07 341.18 C 511.60 332.36 501.82 325.97 492.05 319.98 C 488.50 317.56 485.09 314.88 481.15 313.09 C 468.94 306.76 456.57 300.68 443.85 295.45 C 437.23 293.86 431.43 290.08 424.84 288.44 C 420.46 287.17 416.02 285.85 411.40 286.06 C 410.70 285.95 410.00 285.85 409.31 285.75 C 409.71 285.53 410.50 285.10 410.90 284.89 C 400.68 282.78 390.41 280.94 380.08 279.41 C 372.76 278.66 365.38 279.14 358.04 279.07 C 349.73 279.20 341.40 278.55 333.12 279.42 C 328.06 279.94 323.01 280.47 317.97 281.08 C 313.18 281.64 308.61 283.26 303.85 283.93 C 298.83 284.62 293.81 285.51 289.03 287.24 C 284.01 289.10 278.67 289.89 273.66 291.77 C 269.39 293.41 264.76 294.13 260.82 296.57 L 260.44 296.64 C 254.33 298.14 248.68 301.04 242.76 303.12 C 224.24 313.13 205.87 323.57 188.66 335.76 C 182.05 340.39 174.86 344.83 170.44 351.80 L 170.43 351.80 C 166.18 353.50 163.86 357.64 160.95 360.91 C 156.32 366.17 153.19 372.52 150.71 379.02 L 150.39 379.84 C 143.75 365.31 143.13 348.09 149.54 333.37 C 158.25 312.89 176.03 297.96 194.65 286.67 C 225.42 268.51 260.40 258.66 295.53 253.29 Z" />
<path fill="#fb1010" opacity="1.00" d=" M 326.74 306.51 L 327.24 306.52 C 339.45 305.35 351.79 305.19 364.03 306.24 C 370.71 306.54 377.44 306.06 384.06 307.21 C 389.94 307.96 395.86 308.43 401.67 309.60 C 404.22 310.22 406.79 310.73 409.37 311.23 C 409.46 311.40 409.62 311.73 409.70 311.89 C 415.10 310.96 420.02 314.20 425.30 314.76 C 425.70 314.89 426.50 315.13 426.90 315.25 C 431.98 316.93 437.07 318.60 442.26 319.89 C 444.98 321.02 447.63 322.30 450.37 323.38 C 452.90 324.37 455.39 325.46 457.89 326.53 C 459.68 327.24 461.49 327.90 463.29 328.60 C 469.82 331.13 475.93 334.59 482.25 337.61 C 483.10 338.04 483.97 338.48 484.84 338.92 C 485.49 339.24 486.13 339.57 486.79 339.91 C 495.86 345.48 504.84 351.22 513.96 356.71 C 513.89 357.12 513.74 357.95 513.66 358.36 C 503.24 363.14 493.31 369.06 482.56 373.08 C 480.65 373.69 478.74 374.29 476.83 374.89 C 469.59 377.02 462.94 381.08 455.32 381.88 C 451.83 382.38 448.40 383.15 445.05 384.23 C 435.63 387.27 425.79 388.55 416.11 390.46 C 401.73 393.31 387.12 394.91 372.49 395.77 C 359.00 395.83 345.52 396.56 332.04 395.92 C 306.00 396.30 280.26 391.65 254.86 386.42 C 249.33 385.28 244.11 382.80 238.42 382.39 C 237.94 382.34 236.99 382.22 236.51 382.17 C 227.40 379.94 219.10 375.38 209.96 373.27 C 201.92 370.87 195.04 365.69 187.05 363.15 C 187.41 362.12 187.17 360.74 188.16 360.04 C 194.23 355.13 201.35 351.75 207.67 347.18 C 216.80 343.02 225.28 337.43 234.99 334.54 C 256.29 323.41 279.56 316.62 302.96 311.50 C 310.36 309.80 318.23 310.03 325.36 307.31 C 325.70 307.11 326.39 306.71 326.74 306.51 M 345.69 334.78 C 348.41 336.25 351.04 337.93 353.94 339.03 C 357.11 338.09 359.83 336.05 362.83 334.67 C 359.96 333.05 357.20 331.10 354.04 330.08 C 351.02 331.17 348.21 332.80 345.69 334.78 M 248.96 339.02 C 250.71 341.66 254.40 342.31 257.01 343.99 C 259.91 342.48 262.81 340.94 265.65 339.33 C 262.80 337.81 260.13 335.87 257.02 334.93 C 254.10 335.74 251.48 337.38 248.96 339.02 M 401.20 339.57 C 403.76 341.22 406.56 342.46 409.19 344.00 C 412.25 342.57 415.22 340.93 418.17 339.28 C 415.10 337.93 412.38 335.48 409.03 334.99 C 406.31 336.19 403.14 337.25 401.20 339.57 M 288.16 341.59 C 290.31 343.62 292.13 348.40 295.82 346.81 C 302.72 344.19 310.17 345.69 317.09 347.38 C 311.75 348.61 306.42 350.08 300.91 350.37 C 293.99 350.75 286.84 351.85 280.09 349.72 C 278.72 347.64 278.01 345.11 276.01 343.50 C 272.05 344.42 268.03 345.06 264.02 345.71 C 265.48 349.75 269.07 353.38 268.48 357.91 C 265.94 360.82 261.54 360.70 257.98 360.99 C 254.13 360.58 249.26 360.83 246.63 357.46 C 244.56 354.61 247.00 351.31 248.53 348.85 C 245.26 347.63 241.78 347.20 238.42 346.36 C 236.42 348.60 234.42 351.04 233.82 354.07 C 232.73 358.08 235.09 362.26 238.50 364.32 C 245.73 368.88 254.72 369.05 262.97 368.40 C 269.90 367.60 277.69 365.15 281.02 358.43 C 295.40 359.78 310.36 358.61 323.76 352.90 C 328.28 358.00 335.51 358.87 341.93 358.89 C 348.29 358.83 354.97 359.42 360.97 356.86 C 363.39 355.86 365.90 353.91 366.00 351.07 C 366.55 346.62 364.04 342.50 361.04 339.46 C 356.93 339.89 353.01 341.32 349.02 342.33 C 350.96 344.75 352.95 347.21 353.91 350.21 C 346.90 351.40 339.68 351.17 332.74 349.67 C 334.85 349.60 336.96 349.62 339.08 349.63 C 339.94 347.33 340.80 345.04 341.63 342.73 C 336.80 342.13 331.90 342.38 327.12 341.39 C 319.11 340.31 311.23 337.76 303.07 338.15 C 297.91 338.19 292.92 339.71 288.16 341.59 M 454.52 344.53 C 451.26 346.83 448.42 350.30 444.21 350.71 C 440.24 351.48 436.25 350.54 432.36 349.82 C 431.31 347.80 430.59 345.53 429.03 343.83 C 424.70 343.85 420.52 345.28 416.23 345.78 C 418.19 349.40 420.71 352.92 421.28 357.10 C 419.45 360.81 414.50 360.56 410.98 361.00 C 406.98 360.68 402.07 360.90 399.16 357.63 C 397.12 354.72 399.34 351.25 400.99 348.74 C 397.62 347.64 394.12 347.12 390.67 346.43 C 388.39 349.17 385.94 352.26 386.03 356.03 C 385.74 360.26 389.11 363.61 392.65 365.33 C 399.80 368.90 408.10 369.06 415.90 368.35 C 422.63 367.42 430.35 365.02 433.45 358.36 C 440.03 359.24 446.93 359.44 453.27 357.19 C 457.12 358.03 460.96 359.11 464.95 358.87 C 471.28 358.91 479.02 358.89 483.38 353.51 C 485.42 349.53 482.85 344.81 479.15 342.89 C 471.64 338.53 461.39 339.19 454.52 344.53 Z" />
<path fill="#fb1010" opacity="1.00" d=" M 461.95 350.42 C 464.58 347.76 470.77 345.62 472.23 350.44 C 468.82 351.08 465.36 350.92 461.95 350.42 Z" />
<path fill="#fb1010" opacity="1.00" d=" M 523.26 365.31 C 527.96 368.55 531.34 373.42 536.40 376.22 C 536.54 376.33 536.83 376.55 536.97 376.66 C 541.51 382.25 546.29 387.64 550.48 393.51 C 539.16 407.72 524.51 418.92 508.65 427.62 C 476.11 445.31 439.63 454.57 403.06 459.12 C 356.94 464.53 309.78 462.49 264.55 451.70 C 239.27 445.51 214.41 436.55 192.19 422.82 C 180.69 415.63 169.85 407.11 161.22 396.57 C 160.40 395.57 159.42 394.72 158.39 393.98 L 158.34 392.39 C 159.89 388.97 162.13 385.92 164.61 383.12 C 169.38 379.59 172.50 374.38 177.07 370.67 C 178.61 370.88 179.90 371.86 181.18 372.69 C 191.32 380.09 202.95 384.99 214.21 390.39 C 223.36 393.78 232.45 397.35 241.72 400.41 C 245.48 401.90 249.22 403.51 253.18 404.42 C 258.99 405.63 264.12 409.22 270.20 409.20 C 270.90 409.29 271.60 409.37 272.31 409.47 C 285.81 414.00 299.98 416.30 314.13 417.71 C 335.57 418.52 357.06 418.56 378.50 417.57 C 388.00 416.88 397.49 415.46 406.75 413.18 C 415.82 410.84 425.22 409.63 433.82 405.72 C 442.30 403.61 450.27 400.01 458.59 397.38 C 468.25 393.43 478.61 390.87 487.40 385.05 C 488.71 384.45 490.03 383.85 491.35 383.24 C 494.46 381.81 497.38 380.00 500.31 378.23 C 501.18 377.75 502.05 377.27 502.92 376.79 C 504.45 375.94 505.97 375.07 507.48 374.17 C 513.12 371.92 517.94 368.16 523.26 365.31 M 240.09 409.70 C 238.67 414.88 236.72 419.91 234.64 424.87 C 235.52 427.15 237.30 428.75 239.70 429.31 C 242.77 430.08 246.03 432.79 249.17 430.80 C 250.54 433.98 254.12 434.21 257.00 435.16 C 257.38 434.77 258.16 434.00 258.54 433.62 C 259.27 437.35 263.50 437.17 266.10 435.66 C 266.85 436.67 267.60 437.68 268.34 438.71 C 270.43 439.03 272.54 438.81 274.54 438.12 C 275.09 438.97 275.63 439.82 276.18 440.67 C 280.40 441.49 284.60 442.46 288.79 443.44 C 289.26 442.96 290.22 442.00 290.69 441.53 C 291.05 442.14 291.77 443.36 292.14 443.97 C 295.52 444.41 299.73 446.73 302.42 443.57 C 303.38 440.23 303.60 436.71 304.07 433.28 C 302.49 432.93 300.91 432.59 299.34 432.23 C 299.17 435.09 298.75 437.93 298.22 440.75 C 295.99 440.35 293.78 439.94 291.59 439.43 C 292.13 436.65 292.75 433.88 293.58 431.18 C 289.69 430.98 285.75 428.43 281.93 429.88 C 279.04 430.70 279.72 434.38 278.98 436.62 C 278.05 436.45 276.21 436.11 275.29 435.94 C 275.88 433.13 276.55 430.35 277.38 427.61 C 275.78 427.19 274.18 426.74 272.59 426.29 C 272.02 429.05 271.34 431.79 270.78 434.56 C 269.52 434.29 268.25 434.03 267.00 433.76 C 267.55 430.93 268.28 428.14 269.28 425.43 C 267.66 424.96 266.06 424.49 264.46 424.00 C 263.80 426.77 263.05 429.53 262.27 432.28 C 261.05 431.90 259.84 431.53 258.62 431.16 C 259.34 428.44 260.13 425.74 261.01 423.07 C 259.51 422.52 258.00 421.97 256.52 421.43 C 255.66 424.15 254.85 426.89 254.04 429.63 C 252.82 429.24 251.61 428.86 250.40 428.49 C 251.28 425.82 252.13 423.15 252.98 420.47 C 251.41 419.92 249.84 419.38 248.26 418.85 C 247.61 421.58 246.77 424.26 245.91 426.94 C 243.96 426.18 242.01 425.41 240.06 424.68 C 241.64 420.30 243.13 415.88 244.71 411.49 C 243.17 410.89 241.63 410.29 240.09 409.70 M 462.21 411.68 C 462.64 412.69 463.07 413.71 463.52 414.74 C 464.59 414.28 465.65 413.83 466.74 413.40 C 466.32 412.38 465.91 411.36 465.52 410.36 C 464.41 410.80 463.30 411.23 462.21 411.68 M 250.51 414.10 C 250.15 415.17 249.79 416.26 249.44 417.35 C 250.52 417.68 251.61 418.02 252.71 418.36 C 253.08 417.38 253.45 416.41 253.83 415.45 C 252.72 414.99 251.61 414.54 250.51 414.10 M 463.21 416.68 C 464.61 419.13 465.54 421.80 466.55 424.43 C 464.46 425.27 462.34 426.02 460.21 426.75 C 459.76 425.27 459.31 423.81 458.84 422.35 C 457.44 421.49 456.05 420.63 454.68 419.76 C 450.84 421.13 447.03 422.63 443.06 423.58 C 442.67 423.35 441.88 422.89 441.48 422.66 C 440.00 423.04 438.55 423.48 437.08 423.87 C 438.47 426.90 439.13 430.18 439.88 433.41 C 438.59 433.75 437.30 434.10 436.01 434.45 C 435.38 431.68 434.68 428.92 433.81 426.22 C 432.25 426.67 430.69 427.10 429.13 427.53 C 430.17 430.19 430.86 432.98 431.36 435.80 C 428.87 436.32 426.40 436.92 423.92 437.48 C 424.27 435.47 424.55 433.45 424.76 431.42 C 423.60 430.74 422.45 430.05 421.31 429.38 C 418.36 430.26 415.34 430.92 412.29 431.38 C 411.58 432.54 410.88 433.69 410.19 434.87 C 411.14 436.41 412.09 437.96 413.05 439.50 C 411.75 440.62 410.57 441.87 409.46 443.18 C 410.07 445.70 410.48 448.28 410.73 450.87 C 413.99 453.76 418.13 452.31 421.89 451.54 C 422.57 449.87 423.22 448.18 423.87 446.51 C 420.94 447.11 418.04 447.83 415.10 448.38 C 414.93 446.93 414.76 445.48 414.60 444.03 C 416.21 443.66 417.59 442.78 418.85 441.73 C 424.07 443.34 429.32 439.99 434.54 439.40 C 435.06 438.62 435.57 437.86 436.09 437.09 C 437.39 437.40 438.67 438.35 440.05 437.80 C 445.81 436.27 451.46 434.34 457.14 432.55 C 459.01 432.33 459.19 430.15 460.08 428.89 C 460.95 429.48 461.83 430.07 462.71 430.67 C 465.97 429.14 470.48 428.75 471.72 424.75 C 470.48 421.48 469.30 418.19 468.09 414.92 C 466.46 415.51 464.84 416.10 463.21 416.68 M 428.72 422.26 C 428.94 423.35 429.17 424.45 429.40 425.56 C 430.54 425.22 431.68 424.88 432.83 424.55 C 432.53 423.54 432.22 422.53 431.93 421.54 C 430.86 421.78 429.79 422.02 428.72 422.26 M 308.47 423.22 C 307.94 424.38 307.41 425.55 306.89 426.72 C 308.60 427.03 310.30 427.35 312.02 427.67 L 311.98 426.31 C 311.25 426.04 309.78 425.49 309.04 425.22 C 310.03 425.08 312.01 424.82 313.00 424.68 C 311.79 423.47 310.06 423.41 308.47 423.22 M 287.24 424.68 C 286.90 425.65 286.57 426.63 286.23 427.61 C 287.35 427.98 288.47 428.36 289.60 428.74 C 289.86 427.63 290.14 426.54 290.42 425.44 C 289.35 425.18 288.30 424.93 287.24 424.68 M 300.71 427.28 C 300.58 428.40 300.45 429.52 300.32 430.65 C 301.45 430.78 302.58 430.92 303.71 431.06 C 303.79 430.31 303.96 428.82 304.04 428.07 C 302.92 427.80 301.82 427.54 300.71 427.28 M 306.91 427.96 C 306.80 433.39 305.70 438.74 304.89 444.09 C 305.70 444.92 306.52 445.76 307.34 446.59 C 310.92 447.01 314.48 447.55 318.06 447.93 C 318.95 447.22 319.84 446.52 320.74 445.83 C 320.92 442.37 321.35 438.93 321.75 435.50 C 320.04 435.29 318.32 435.10 316.61 434.90 C 317.01 437.73 316.44 440.56 316.16 443.38 C 314.10 443.12 312.05 442.83 310.00 442.53 C 310.59 437.86 311.17 433.20 311.71 428.53 C 310.10 428.32 308.51 428.15 306.91 427.96 M 394.54 428.43 C 395.79 434.50 396.79 440.68 396.89 446.89 C 398.78 446.57 400.67 446.25 402.56 445.94 C 400.93 440.08 400.42 433.97 399.78 427.94 C 398.03 428.11 396.28 428.27 394.54 428.43 M 329.15 430.29 C 329.52 435.82 328.76 441.34 328.13 446.83 C 330.09 449.15 333.14 449.43 335.99 449.47 C 338.56 449.43 341.73 450.45 343.47 447.90 C 344.52 448.68 345.40 450.09 346.92 449.84 C 350.62 449.91 354.32 449.78 358.02 449.83 C 359.11 448.95 360.20 448.06 361.29 447.19 C 360.95 444.35 360.93 441.49 361.08 438.65 C 360.04 437.81 359.00 436.99 357.95 436.17 C 355.79 436.17 353.62 436.17 351.46 436.19 C 350.39 436.93 349.31 437.67 348.23 438.40 C 348.18 440.71 348.16 443.02 348.16 445.34 C 346.75 445.33 345.33 445.33 343.92 445.35 C 344.03 442.58 344.28 439.82 344.46 437.07 C 342.71 436.99 340.97 436.93 339.23 436.82 C 339.77 439.60 339.47 442.43 339.32 445.23 C 337.32 445.15 335.32 445.06 333.33 444.97 C 333.51 440.27 333.74 435.57 334.02 430.87 C 332.39 430.68 330.77 430.50 329.15 430.29 M 373.16 430.70 C 373.24 435.56 373.55 440.41 374.05 445.24 C 369.78 445.52 371.64 440.44 371.78 437.89 C 369.97 436.50 368.16 435.09 366.39 433.66 C 365.14 434.28 363.88 434.91 362.63 435.54 C 363.90 436.76 365.24 437.92 366.59 439.08 C 366.61 441.11 366.64 443.15 366.67 445.20 C 365.76 445.25 363.93 445.35 363.02 445.40 C 363.00 446.91 362.99 448.42 362.98 449.94 C 366.99 449.42 371.03 449.43 375.05 449.00 C 376.56 449.15 377.52 447.86 378.57 447.03 C 379.37 447.58 380.18 448.14 381.00 448.71 C 385.88 448.01 390.80 447.52 395.73 447.17 C 395.45 445.72 395.18 444.28 394.91 442.84 C 392.32 443.11 389.73 443.35 387.14 443.58 C 387.04 442.59 386.83 440.59 386.73 439.60 C 389.33 439.16 391.96 438.82 394.60 438.60 C 394.36 437.08 394.14 435.56 393.92 434.05 C 390.97 434.82 387.93 435.02 384.92 435.36 C 381.71 437.21 381.38 442.04 384.64 444.05 C 382.66 444.16 380.68 444.29 378.71 444.43 C 378.29 439.71 377.68 434.99 377.80 430.24 C 376.25 430.42 374.70 430.55 373.16 430.70 M 340.33 431.61 C 340.24 432.65 340.16 433.70 340.08 434.76 C 341.28 434.81 342.49 434.87 343.70 434.93 C 343.66 433.82 343.62 432.71 343.58 431.62 C 342.50 431.61 341.41 431.60 340.33 431.61 M 312.39 449.25 C 312.31 450.35 312.23 451.45 312.14 452.55 C 313.38 452.64 314.62 452.74 315.86 452.85 C 315.83 451.71 315.81 450.58 315.78 449.46 C 314.65 449.38 313.52 449.32 312.39 449.25 Z" />
<path fill="#fb1010" opacity="1.00" d=" M 153.44 384.54 C 154.97 385.43 156.27 386.84 156.13 388.74 C 154.42 388.95 153.09 386.03 153.44 384.54 Z" />
<path fill="#fb1010" opacity="1.00" d=" M 443.66 428.00 C 447.25 426.91 450.82 425.75 454.39 424.59 C 454.81 425.88 455.23 427.17 455.66 428.46 C 452.05 429.68 448.42 430.80 444.79 431.92 C 444.40 430.61 444.03 429.30 443.66 428.00 Z" />
<path fill="#fb1010" opacity="1.00" d=" M 284.45 433.53 C 285.59 433.74 286.72 433.94 287.86 434.15 C 287.59 435.59 287.34 437.04 287.09 438.50 C 285.88 438.25 284.65 438.08 283.45 437.83 C 283.78 436.40 284.11 434.96 284.45 433.53 Z" />
<path fill="#fb1010" opacity="1.00" d=" M 414.55 435.35 C 416.74 434.91 418.94 434.50 421.15 434.11 C 420.77 435.45 420.43 436.81 420.04 438.15 C 419.11 438.44 418.18 438.74 417.25 439.04 C 416.33 437.82 415.42 436.59 414.55 435.35 Z" />
<path fill="#fb1010" opacity="1.00" d=" M 352.83 446.00 C 352.83 444.00 352.83 441.99 352.83 440.00 C 353.72 440.00 355.49 440.00 356.37 440.00 C 356.37 442.00 356.37 443.99 356.37 446.00 C 355.49 446.00 353.72 446.00 352.83 446.00 Z" />
</g>
<g id="#cb6161ff">
<path fill="#cb6161" opacity="1.00" d=" M 333.12 279.42 C 341.40 278.55 349.73 279.20 358.04 279.07 C 365.38 279.14 372.76 278.66 380.08 279.41 C 390.41 280.94 400.68 282.78 410.90 284.89 C 410.50 285.10 409.71 285.53 409.31 285.75 C 398.61 283.82 387.98 281.35 377.17 280.05 C 376.52 280.03 375.20 279.99 374.55 279.97 C 369.40 279.95 364.26 279.73 359.12 279.66 C 358.71 279.66 357.88 279.66 357.47 279.66 C 354.91 279.68 352.36 279.77 349.82 279.85 C 348.35 279.88 346.89 279.89 345.44 279.90 C 342.79 279.92 340.14 279.94 337.51 280.10 C 336.75 280.16 336.00 280.23 335.26 280.32 C 330.58 280.96 325.91 281.58 321.21 281.99 C 315.34 282.24 309.78 284.32 304.00 285.15 L 303.85 283.93 C 308.61 283.26 313.18 281.64 317.97 281.08 C 323.01 280.47 328.06 279.94 333.12 279.42 Z" />
</g>
<g id="#cebfbfff">
<path fill="#cebfbf" opacity="1.00" d=" M 335.26 280.32 C 336.00 280.23 336.75 280.16 337.51 280.10 C 336.97 284.81 338.78 289.21 342.08 292.52 C 345.63 291.15 349.46 291.20 353.00 292.61 C 356.21 289.06 357.46 284.37 357.47 279.66 C 357.88 279.66 358.71 279.66 359.12 279.66 C 359.49 281.95 359.85 284.23 360.22 286.52 C 365.44 286.37 373.47 286.68 374.55 279.97 C 375.20 279.99 376.52 280.03 377.17 280.05 C 376.25 282.11 375.61 284.38 374.11 286.10 C 369.98 288.71 364.74 289.78 360.02 288.21 C 358.52 290.20 357.03 292.18 355.52 294.17 C 356.06 296.13 356.55 298.10 357.02 300.08 C 354.08 297.85 351.64 294.67 348.00 293.56 C 344.26 294.34 341.87 297.60 339.27 300.11 C 337.73 297.95 339.22 295.69 340.30 293.72 C 338.38 292.28 336.76 290.51 335.39 288.55 C 330.85 288.55 326.09 288.20 322.11 285.82 C 320.41 284.89 318.94 283.51 317.08 282.93 C 313.14 284.18 309.79 286.96 305.65 287.61 C 303.04 287.95 300.41 287.64 297.81 287.46 C 296.59 289.83 295.10 292.28 292.06 291.42 C 292.66 290.21 293.27 289.01 293.88 287.81 C 293.16 287.86 291.72 287.96 291.00 288.01 C 295.21 286.58 299.62 285.85 304.00 285.15 C 309.78 284.32 315.34 282.24 321.21 281.99 C 324.28 286.53 330.12 285.80 334.89 286.39 C 335.01 284.37 335.13 282.34 335.26 280.32 Z" />
</g>
<g id="#eee0e3ff">
<path fill="#eee0e3" opacity="1.00" d=" M 337.51 280.10 C 340.14 279.94 342.79 279.92 345.44 279.90 C 343.87 281.49 341.47 282.66 340.84 284.90 C 342.24 287.77 346.26 287.74 349.05 288.06 C 351.92 288.17 352.97 285.19 353.28 282.86 C 350.80 283.75 348.37 284.78 345.95 285.82 C 346.12 285.37 346.46 284.46 346.63 284.00 C 347.74 282.66 348.81 281.28 349.82 279.85 C 352.36 279.77 354.91 279.68 357.47 279.66 C 357.46 284.37 356.21 289.06 353.00 292.61 C 349.46 291.20 345.63 291.15 342.08 292.52 C 338.78 289.21 336.97 284.81 337.51 280.10 Z" />
</g>
<g id="#ddd1d3ff">
<path fill="#ddd1d3" opacity="1.00" d=" M 345.44 279.90 C 346.89 279.89 348.35 279.88 349.82 279.85 C 348.81 281.28 347.74 282.66 346.63 284.00 C 346.46 284.46 346.12 285.37 345.95 285.82 C 348.37 284.78 350.80 283.75 353.28 282.86 C 352.97 285.19 351.92 288.17 349.05 288.06 C 346.26 287.74 342.24 287.77 340.84 284.90 C 341.47 282.66 343.87 281.49 345.44 279.90 Z" />
</g>
<g id="#eadfe2ff">
<path fill="#eadfe2" opacity="1.00" d=" M 359.12 279.66 C 364.26 279.73 369.40 279.95 374.55 279.97 C 373.47 286.68 365.44 286.37 360.22 286.52 C 359.85 284.23 359.49 281.95 359.12 279.66 Z" />
</g>
<g id="#eedcddff">
<path fill="#eedcdd" opacity="1.00" d=" M 377.17 280.05 C 387.98 281.35 398.61 283.82 409.31 285.75 C 410.00 285.85 410.70 285.95 411.40 286.06 C 417.69 288.60 424.64 289.06 430.74 292.11 C 432.55 292.97 434.32 293.90 436.17 294.67 C 435.34 294.58 433.67 294.41 432.84 294.32 C 432.80 295.21 432.74 296.10 432.68 297.00 C 431.67 297.25 430.67 297.51 429.68 297.78 C 428.89 299.12 428.02 300.42 427.23 301.76 C 422.76 299.49 417.78 301.60 413.79 303.90 C 412.21 304.67 412.35 306.51 412.47 307.98 C 412.91 308.99 413.37 310.00 413.85 311.00 C 412.35 311.06 410.86 311.10 409.37 311.23 C 406.79 310.73 404.22 310.22 401.67 309.60 C 402.98 309.10 404.30 308.58 405.60 308.05 C 403.75 306.51 401.89 304.99 399.89 303.66 C 400.87 303.70 401.85 303.74 402.85 303.77 C 401.97 303.12 401.11 302.47 400.24 301.83 C 402.54 299.27 404.31 295.84 407.60 294.46 C 411.80 293.58 414.11 297.88 416.62 300.37 C 417.84 301.39 418.28 299.83 418.78 298.96 C 416.35 295.23 411.93 291.23 407.14 292.42 C 403.44 293.87 399.52 296.37 398.82 300.62 C 396.44 300.86 394.07 301.11 391.70 301.41 C 392.47 302.04 393.26 302.66 394.06 303.27 C 393.24 303.56 392.44 303.86 391.65 304.18 C 391.45 304.94 391.05 306.46 390.84 307.22 C 390.30 307.23 389.21 307.26 388.66 307.27 C 388.13 304.13 386.24 301.15 383.35 299.73 C 379.60 298.72 375.67 298.79 371.83 298.41 C 371.75 297.77 371.58 296.50 371.50 295.86 C 368.21 296.39 367.39 299.67 366.52 302.37 C 361.87 302.28 357.45 303.71 353.02 304.91 C 344.40 305.79 335.72 304.03 327.09 305.06 C 327.04 304.59 326.92 303.65 326.86 303.17 C 327.39 303.29 328.44 303.53 328.96 303.65 C 328.51 299.96 327.30 296.33 324.25 293.98 C 324.97 292.64 325.70 291.30 326.43 289.96 C 325.99 289.50 325.11 288.57 324.66 288.11 C 322.32 290.74 320.10 294.88 315.95 294.28 C 311.95 293.68 311.04 288.48 307.04 288.01 C 307.09 292.37 311.37 294.55 314.73 296.30 C 317.24 297.68 319.92 296.08 322.33 295.29 C 323.65 297.05 324.97 298.82 326.11 300.71 C 324.51 300.12 322.93 299.53 321.34 298.94 C 321.95 300.00 322.56 301.06 323.17 302.13 C 322.87 302.54 322.26 303.35 321.96 303.76 C 320.15 303.33 318.35 302.90 316.55 302.47 C 315.31 303.41 314.07 304.35 312.83 305.29 C 311.78 304.04 310.73 302.79 309.68 301.55 C 309.21 301.60 308.26 301.70 307.78 301.74 C 308.58 299.57 309.59 297.49 310.54 295.39 C 309.07 295.31 307.26 294.76 306.21 296.15 C 304.04 298.50 304.87 301.89 305.16 304.74 C 303.70 304.15 302.24 303.58 300.78 303.01 C 300.45 304.34 300.12 305.67 299.80 307.01 C 296.79 308.01 293.76 307.10 290.87 306.21 C 291.58 308.36 292.79 310.29 294.24 312.03 C 292.39 312.46 290.55 312.96 288.71 313.46 C 289.69 312.76 290.67 312.05 291.64 311.33 C 289.38 310.13 287.13 308.58 284.48 308.59 C 284.42 307.04 284.73 305.41 284.16 303.93 C 282.66 301.32 279.76 300.11 277.29 298.63 C 279.50 296.21 281.36 292.49 284.98 292.19 C 289.31 292.16 290.99 297.39 295.03 298.07 C 296.13 294.23 290.98 292.70 288.62 290.69 C 288.62 290.22 288.62 289.28 288.61 288.80 C 289.21 288.61 290.40 288.21 291.00 288.01 C 291.72 287.96 293.16 287.86 293.88 287.81 C 293.27 289.01 292.66 290.21 292.06 291.42 C 295.10 292.28 296.59 289.83 297.81 287.46 C 300.41 287.64 303.04 287.95 305.65 287.61 C 309.79 286.96 313.14 284.18 317.08 282.93 C 318.94 283.51 320.41 284.89 322.11 285.82 C 326.09 288.20 330.85 288.55 335.39 288.55 C 336.76 290.51 338.38 292.28 340.30 293.72 C 339.22 295.69 337.73 297.95 339.27 300.11 C 341.87 297.60 344.26 294.34 348.00 293.56 C 351.64 294.67 354.08 297.85 357.02 300.08 C 356.55 298.10 356.06 296.13 355.52 294.17 C 357.03 292.18 358.52 290.20 360.02 288.21 C 364.74 289.78 369.98 288.71 374.11 286.10 C 375.61 284.38 376.25 282.11 377.17 280.05 M 369.03 288.96 C 369.22 290.49 368.77 292.53 370.41 293.44 C 373.33 295.67 376.67 299.20 380.72 297.53 C 384.13 295.92 388.78 293.24 386.94 288.73 C 383.38 290.72 381.13 297.20 376.26 294.79 C 373.00 293.90 372.34 289.62 369.03 288.96 M 384.04 297.50 C 385.75 299.59 387.49 301.67 389.33 303.66 C 391.52 300.70 387.03 293.56 384.04 297.50 M 342.11 302.77 C 346.59 304.65 351.94 304.57 355.91 301.55 C 354.41 299.82 352.63 298.39 350.67 297.24 C 350.01 298.68 350.24 301.47 348.02 301.40 C 345.70 301.91 345.31 298.57 344.27 297.15 C 342.57 298.58 342.09 300.62 342.11 302.77 M 288.70 301.70 C 285.91 303.48 287.26 307.27 289.22 309.14 C 289.86 307.17 289.89 304.85 291.25 303.21 C 294.83 300.40 299.87 302.35 303.69 300.13 C 302.61 299.24 301.57 297.93 299.98 298.22 C 296.05 298.52 292.11 299.71 288.70 301.70 Z" />
</g>
<g id="#eddfe2ff">
<path fill="#eddfe2" opacity="1.00" d=" M 321.21 281.99 C 325.91 281.58 330.58 280.96 335.26 280.32 C 335.13 282.34 335.01 284.37 334.89 286.39 C 330.12 285.80 324.28 286.53 321.21 281.99 Z" />
</g>
<g id="#ce4a4aff">
<path fill="#ce4a4a" opacity="1.00" d=" M 289.03 287.24 C 293.81 285.51 298.83 284.62 303.85 283.93 L 304.00 285.15 C 299.62 285.85 295.21 286.58 291.00 288.01 C 290.40 288.21 289.21 288.61 288.61 288.80 C 284.14 290.55 279.29 290.93 274.80 292.63 C 271.53 293.68 268.30 294.87 264.98 295.74 C 263.59 296.04 262.21 296.31 260.82 296.57 C 264.76 294.13 269.39 293.41 273.66 291.77 C 278.67 289.89 284.01 289.10 289.03 287.24 Z" />
</g>
<g id="#cb4444ff">
<path fill="#cb4444" opacity="1.00" d=" M 411.40 286.06 C 416.02 285.85 420.46 287.17 424.84 288.44 C 431.43 290.08 437.23 293.86 443.85 295.45 C 456.57 300.68 468.94 306.76 481.15 313.09 C 485.09 314.88 488.50 317.56 492.05 319.98 C 501.82 325.97 511.60 332.36 519.07 341.18 C 518.52 341.02 517.40 340.69 516.85 340.52 C 513.23 337.16 509.82 333.55 505.66 330.85 C 501.94 328.14 498.16 325.52 494.23 323.13 C 490.63 321.01 487.25 318.58 483.79 316.25 C 480.96 314.63 477.91 313.44 474.98 312.02 C 473.68 311.16 472.38 310.29 471.01 309.55 C 469.53 308.81 468.03 308.14 466.54 307.44 C 462.43 305.43 458.22 303.68 454.02 301.90 C 448.24 299.08 442.59 295.81 436.17 294.67 C 434.32 293.90 432.55 292.97 430.74 292.11 C 424.64 289.06 417.69 288.60 411.40 286.06 Z" />
</g>
<g id="#d3c0bdff">
<path fill="#d3c0bd" opacity="1.00" d=" M 307.04 288.01 C 311.04 288.48 311.95 293.68 315.95 294.28 C 320.10 294.88 322.32 290.74 324.66 288.11 C 325.11 288.57 325.99 289.50 326.43 289.96 C 325.70 291.30 324.97 292.64 324.25 293.98 C 327.30 296.33 328.51 299.96 328.96 303.65 C 328.44 303.53 327.39 303.29 326.86 303.17 C 326.68 302.56 326.30 301.33 326.11 300.71 C 324.97 298.82 323.65 297.05 322.33 295.29 C 319.92 296.08 317.24 297.68 314.73 296.30 C 311.37 294.55 307.09 292.37 307.04 288.01 Z" />
</g>
<g id="#d1bdbcff">
<path fill="#d1bdbc" opacity="1.00" d=" M 274.80 292.63 C 279.29 290.93 284.14 290.55 288.61 288.80 C 288.62 289.28 288.62 290.22 288.62 290.69 C 290.98 292.70 296.13 294.23 295.03 298.07 C 290.99 297.39 289.31 292.16 284.98 292.19 C 281.36 292.49 279.50 296.21 277.29 298.63 C 279.76 300.11 282.66 301.32 284.16 303.93 C 284.73 305.41 284.42 307.04 284.48 308.59 C 283.32 309.38 282.20 310.22 281.06 311.04 C 280.63 311.04 279.77 311.05 279.34 311.05 C 280.21 308.72 283.16 305.69 280.44 303.59 C 277.51 301.16 273.47 301.21 269.97 300.18 C 268.65 299.95 267.79 299.17 267.39 297.82 C 270.02 297.74 272.66 297.94 275.26 298.35 C 275.81 296.33 276.77 294.48 277.84 292.71 C 277.08 292.69 275.56 292.65 274.80 292.63 Z" />
</g>
<g id="#d3c1bfff">
<path fill="#d3c1bf" opacity="1.00" d=" M 369.03 288.96 C 372.34 289.62 373.00 293.90 376.26 294.79 C 381.13 297.20 383.38 290.72 386.94 288.73 C 388.78 293.24 384.13 295.92 380.72 297.53 C 376.67 299.20 373.33 295.67 370.41 293.44 C 368.77 292.53 369.22 290.49 369.03 288.96 Z" />
</g>
<g id="#c8b5b7ff">
<path fill="#c8b5b7" opacity="1.00" d=" M 398.82 300.62 C 399.52 296.37 403.44 293.87 407.14 292.42 C 411.93 291.23 416.35 295.23 418.78 298.96 C 418.28 299.83 417.84 301.39 416.62 300.37 C 414.11 297.88 411.80 293.58 407.60 294.46 C 404.31 295.84 402.54 299.27 400.24 301.83 C 401.11 302.47 401.97 303.12 402.85 303.77 C 401.85 303.74 400.87 303.70 399.89 303.66 C 397.94 303.51 395.99 303.39 394.06 303.27 C 393.26 302.66 392.47 302.04 391.70 301.41 C 394.07 301.11 396.44 300.86 398.82 300.62 Z" />
</g>
<g id="#edd2d3ff">
<path fill="#edd2d3" opacity="1.00" d=" M 264.98 295.74 C 268.30 294.87 271.53 293.68 274.80 292.63 C 275.56 292.65 277.08 292.69 277.84 292.71 C 276.77 294.48 275.81 296.33 275.26 298.35 C 272.66 297.94 270.02 297.74 267.39 297.82 C 267.79 299.17 268.65 299.95 269.97 300.18 C 273.47 301.21 277.51 301.16 280.44 303.59 C 283.16 305.69 280.21 308.72 279.34 311.05 C 279.77 311.05 280.63 311.04 281.06 311.04 C 280.16 311.75 279.28 312.49 278.40 313.23 C 278.59 313.89 278.98 315.22 279.17 315.89 C 277.87 316.29 276.59 316.77 275.31 317.24 C 275.47 316.23 275.63 315.22 275.81 314.21 C 272.51 314.16 269.21 314.13 265.91 314.11 C 267.20 308.04 267.26 301.58 264.98 295.74 M 267.67 312.09 C 270.64 314.59 275.23 312.89 278.25 311.16 C 274.85 311.39 270.26 309.36 267.67 312.09 Z" />
</g>
<g id="#d1c3bbff">
<path fill="#d1c3bb" opacity="1.00" d=" M 306.21 296.15 C 307.26 294.76 309.07 295.31 310.54 295.39 C 309.59 297.49 308.58 299.57 307.78 301.74 C 307.51 303.93 307.38 306.13 307.24 308.34 C 310.81 308.24 314.47 307.86 317.56 305.90 C 320.61 306.22 323.67 306.43 326.74 306.51 C 326.39 306.71 325.70 307.11 325.36 307.31 C 318.19 307.14 311.26 309.23 304.17 309.89 C 305.28 308.38 305.49 306.55 305.16 304.74 C 304.87 301.89 304.04 298.50 306.21 296.15 Z" />
</g>
<g id="#e9d1d1ff">
<path fill="#e9d1d1" opacity="1.00" d=" M 432.68 297.00 C 432.74 296.10 432.80 295.21 432.84 294.32 C 433.67 294.41 435.34 294.58 436.17 294.67 C 442.59 295.81 448.24 299.08 454.02 301.90 C 453.25 301.97 451.71 302.12 450.94 302.19 C 451.67 307.66 452.14 313.23 450.91 318.67 C 450.68 320.23 450.51 321.81 450.37 323.38 C 447.63 322.30 444.98 321.02 442.26 319.89 C 443.79 319.85 445.33 319.80 446.87 319.74 C 447.28 317.95 447.71 316.17 448.15 314.40 C 445.88 315.33 443.55 316.94 441.00 316.22 C 437.81 315.35 436.09 312.25 433.61 310.33 C 430.88 309.76 430.72 313.84 429.62 315.50 C 428.94 315.44 427.58 315.32 426.90 315.25 C 426.50 315.13 425.70 314.89 425.30 314.76 C 426.16 314.49 427.88 313.94 428.74 313.67 C 428.02 311.38 427.72 308.82 426.18 306.90 C 424.91 306.42 423.58 306.15 422.29 305.82 C 422.77 306.90 423.28 307.98 423.79 309.06 C 423.31 309.35 422.34 309.93 421.86 310.22 C 420.50 308.82 419.14 307.41 417.77 306.03 C 417.07 305.88 415.67 305.58 414.97 305.43 C 418.96 303.48 423.49 303.50 427.83 303.40 C 428.30 306.33 428.86 309.25 429.65 312.12 C 430.26 306.99 431.21 301.95 432.68 297.00 M 439.03 307.04 C 438.37 308.22 437.69 309.46 438.23 310.85 C 439.31 310.81 440.39 310.76 441.48 310.69 C 441.57 310.07 441.76 308.85 441.85 308.23 C 440.91 307.83 439.96 307.43 439.03 307.04 Z" />
</g>
<g id="#cdb1b2ff">
<path fill="#cdb1b2" opacity="1.00" d=" M 260.82 296.57 C 262.21 296.31 263.59 296.04 264.98 295.74 C 267.26 301.58 267.20 308.04 265.91 314.11 C 264.82 315.38 263.63 316.56 262.44 317.74 C 260.41 315.23 263.58 312.63 263.76 309.98 C 264.16 305.71 265.35 300.06 261.38 297.06 L 260.44 296.64 L 260.82 296.57 Z" />
</g>
<g id="#d0c2c3ff">
<path fill="#d0c2c3" opacity="1.00" d=" M 366.52 302.37 C 367.39 299.67 368.21 296.39 371.50 295.86 C 371.58 296.50 371.75 297.77 371.83 298.41 C 370.78 299.72 369.74 301.04 368.69 302.35 C 368.15 302.35 367.06 302.37 366.52 302.37 Z" />
</g>
<g id="#d8c8c7ff">
<path fill="#d8c8c7" opacity="1.00" d=" M 384.04 297.50 C 387.03 293.56 391.52 300.70 389.33 303.66 C 387.49 301.67 385.75 299.59 384.04 297.50 Z" />
</g>
<g id="#c83f3fff">
<path fill="#c83f3f" opacity="1.00" d=" M 242.76 303.12 C 248.68 301.04 254.33 298.14 260.44 296.64 L 261.38 297.06 C 255.82 299.39 250.20 301.59 244.66 303.96 C 239.67 306.45 234.75 309.08 229.97 311.94 L 229.95 311.95 C 229.62 312.59 228.97 313.88 228.64 314.52 C 228.28 314.32 227.56 313.93 227.21 313.74 C 223.15 315.48 219.51 318.01 215.75 320.29 C 215.53 320.41 215.08 320.65 214.86 320.77 C 213.10 321.74 211.34 322.73 209.59 323.74 C 207.60 324.92 205.66 326.19 203.71 327.44 C 201.27 328.93 198.86 330.46 196.50 332.07 C 191.28 335.80 186.03 339.50 180.86 343.30 C 177.88 345.90 175.24 348.87 172.13 351.32 L 170.44 351.80 C 174.86 344.83 182.05 340.39 188.66 335.76 C 205.87 323.57 224.24 313.13 242.76 303.12 Z" />
</g>
<g id="#f5f4f1ff">
<path fill="#f5f4f1" opacity="1.00" d=" M 342.11 302.77 C 342.09 300.62 342.57 298.58 344.27 297.15 C 345.31 298.57 345.70 301.91 348.02 301.40 C 350.24 301.47 350.01 298.68 350.67 297.24 C 352.63 298.39 354.41 299.82 355.91 301.55 C 351.94 304.57 346.59 304.65 342.11 302.77 Z" />
</g>
<g id="#cab5b3ff">
<path fill="#cab5b3" opacity="1.00" d=" M 429.68 297.78 C 430.67 297.51 431.67 297.25 432.68 297.00 C 431.21 301.95 430.26 306.99 429.65 312.12 C 428.86 309.25 428.30 306.33 427.83 303.40 C 423.49 303.50 418.96 303.48 414.97 305.43 C 414.12 306.26 413.29 307.11 412.47 307.98 C 412.35 306.51 412.21 304.67 413.79 303.90 C 417.78 301.60 422.76 299.49 427.23 301.76 C 428.02 300.42 428.89 299.12 429.68 297.78 Z" />
</g>
<g id="#edceceff">
<path fill="#edcece" opacity="1.00" d=" M 244.66 303.96 C 250.20 301.59 255.82 299.39 261.38 297.06 C 265.35 300.06 264.16 305.71 263.76 309.98 C 263.58 312.63 260.41 315.23 262.44 317.74 C 262.17 318.02 261.63 318.56 261.35 318.83 C 262.59 319.41 263.82 319.98 265.06 320.56 C 263.09 321.11 261.13 321.70 259.23 322.45 C 259.06 321.46 258.88 320.48 258.71 319.50 C 258.88 314.69 252.75 315.02 249.53 316.11 C 248.03 314.91 246.52 313.73 244.99 312.58 C 243.16 309.92 243.14 306.74 244.66 303.96 M 251.25 304.93 C 252.48 306.57 255.01 307.32 256.08 305.06 C 255.21 302.83 252.56 303.57 251.25 304.93 M 249.01 307.26 C 248.39 308.09 247.78 308.92 247.17 309.75 C 249.26 311.07 251.31 313.03 253.98 312.76 C 257.00 313.02 259.33 310.89 261.31 308.93 C 260.06 308.29 258.83 307.65 257.58 307.03 C 257.55 307.51 257.49 308.47 257.46 308.94 C 255.98 309.36 254.51 309.83 252.99 310.04 C 251.39 309.58 250.28 308.25 249.01 307.26 Z" />
</g>
<g id="#cdbbb9ff">
<path fill="#cdbbb9" opacity="1.00" d=" M 288.70 301.70 C 292.11 299.71 296.05 298.52 299.98 298.22 C 301.57 297.93 302.61 299.24 303.69 300.13 C 299.87 302.35 294.83 300.40 291.25 303.21 C 289.89 304.85 289.86 307.17 289.22 309.14 C 287.26 307.27 285.91 303.48 288.70 301.70 Z" />
</g>
<g id="#ededebff">
<path fill="#ededeb" opacity="1.00" d=" M 371.83 298.41 C 375.67 298.79 379.60 298.72 383.35 299.73 C 386.24 301.15 388.13 304.13 388.66 307.27 C 387.12 307.30 385.59 307.28 384.06 307.21 C 377.44 306.06 370.71 306.54 364.03 306.24 C 351.79 305.19 339.45 305.35 327.24 306.52 L 327.09 305.06 C 335.72 304.03 344.40 305.79 353.02 304.91 C 357.45 303.71 361.87 302.28 366.52 302.37 C 367.06 302.37 368.15 302.35 368.69 302.35 C 369.74 301.04 370.78 299.72 371.83 298.41 Z" />
</g>
<g id="#f6f3f0ff">
<path fill="#f6f3f0" opacity="1.00" d=" M 321.34 298.94 C 322.93 299.53 324.51 300.12 326.11 300.71 C 326.30 301.33 326.68 302.56 326.86 303.17 C 326.92 303.65 327.04 304.59 327.09 305.06 L 327.24 306.52 L 326.74 306.51 C 323.67 306.43 320.61 306.22 317.56 305.90 C 314.47 307.86 310.81 308.24 307.24 308.34 C 307.38 306.13 307.51 303.93 307.78 301.74 C 308.26 301.70 309.21 301.60 309.68 301.55 C 310.73 302.79 311.78 304.04 312.83 305.29 C 314.07 304.35 315.31 303.41 316.55 302.47 C 318.35 302.90 320.15 303.33 321.96 303.76 C 322.26 303.35 322.87 302.54 323.17 302.13 C 322.56 301.06 321.95 300.00 321.34 298.94 Z" />
</g>
<g id="#e7cecdff">
<path fill="#e7cecd" opacity="1.00" d=" M 450.94 302.19 C 451.71 302.12 453.25 301.97 454.02 301.90 C 458.22 303.68 462.43 305.43 466.54 307.44 C 466.64 308.59 466.75 309.74 466.88 310.89 C 463.91 314.73 459.00 314.94 454.56 314.66 C 454.44 315.23 454.22 316.37 454.11 316.94 C 456.56 317.06 459.01 317.17 461.47 317.29 C 462.40 321.14 465.76 323.25 469.12 324.80 C 466.33 324.49 464.47 326.29 463.29 328.60 C 461.49 327.90 459.68 327.24 457.89 326.53 C 459.62 325.72 461.31 324.81 462.89 323.74 C 461.62 321.99 460.37 320.24 459.14 318.47 C 456.40 318.32 453.65 318.43 450.91 318.67 C 452.14 313.23 451.67 307.66 450.94 302.19 Z" />
</g>
<g id="#f5f1f0ff">
<path fill="#f5f1f0" opacity="1.00" d=" M 300.78 303.01 C 302.24 303.58 303.70 304.15 305.16 304.74 C 305.49 306.55 305.28 308.38 304.17 309.89 C 300.86 310.62 297.54 311.28 294.24 312.03 C 292.79 310.29 291.58 308.36 290.87 306.21 C 293.76 307.10 296.79 308.01 299.80 307.01 C 300.12 305.67 300.45 304.34 300.78 303.01 Z" />
</g>
<g id="#f7f7f3ff">
<path fill="#f7f7f3" opacity="1.00" d=" M 394.06 303.27 C 395.99 303.39 397.94 303.51 399.89 303.66 C 401.89 304.99 403.75 306.51 405.60 308.05 C 404.30 308.58 402.98 309.10 401.67 309.60 C 395.86 308.43 389.94 307.96 384.06 307.21 C 385.59 307.28 387.12 307.30 388.66 307.27 C 389.21 307.26 390.30 307.23 390.84 307.22 C 391.05 306.46 391.45 304.94 391.65 304.18 C 392.44 303.86 393.24 303.56 394.06 303.27 Z" />
</g>
<g id="#cdaaaaff">
<path fill="#cdaaaa" opacity="1.00" d=" M 229.97 311.94 C 234.75 309.08 239.67 306.45 244.66 303.96 C 243.14 306.74 243.16 309.92 244.99 312.58 C 245.65 313.86 246.33 315.14 247.01 316.43 C 242.15 317.79 241.30 311.41 239.89 308.22 C 238.75 308.49 237.62 308.77 236.49 309.06 C 237.03 310.17 237.56 311.28 238.09 312.40 C 235.38 312.26 232.68 312.04 229.97 311.94 Z" />
</g>
<g id="#d4b7b7ff">
<path fill="#d4b7b7" opacity="1.00" d=" M 251.25 304.93 C 252.56 303.57 255.21 302.83 256.08 305.06 C 255.01 307.32 252.48 306.57 251.25 304.93 Z" />
</g>
<g id="#f2f1edff">
<path fill="#f2f1ed" opacity="1.00" d=" M 412.47 307.98 C 413.29 307.11 414.12 306.26 414.97 305.43 C 415.67 305.58 417.07 305.88 417.77 306.03 C 419.14 307.41 420.50 308.82 421.86 310.22 C 422.34 309.93 423.31 309.35 423.79 309.06 C 423.28 307.98 422.77 306.90 422.29 305.82 C 423.58 306.15 424.91 306.42 426.18 306.90 C 427.72 308.82 428.02 311.38 428.74 313.67 C 427.88 313.94 426.16 314.49 425.30 314.76 C 420.02 314.20 415.10 310.96 409.70 311.89 C 409.62 311.73 409.46 311.40 409.37 311.23 C 410.86 311.10 412.35 311.06 413.85 311.00 C 413.37 310.00 412.91 308.99 412.47 307.98 Z" />
</g>
<g id="#d9b6b5ff">
<path fill="#d9b6b5" opacity="1.00" d=" M 249.01 307.26 C 250.28 308.25 251.39 309.58 252.99 310.04 C 254.51 309.83 255.98 309.36 257.46 308.94 C 257.49 308.47 257.55 307.51 257.58 307.03 C 258.83 307.65 260.06 308.29 261.31 308.93 C 259.33 310.89 257.00 313.02 253.98 312.76 C 251.31 313.03 249.26 311.07 247.17 309.75 C 247.78 308.92 248.39 308.09 249.01 307.26 Z" />
</g>
<g id="#dac1c1ff">
<path fill="#dac1c1" opacity="1.00" d=" M 439.03 307.04 C 439.96 307.43 440.91 307.83 441.85 308.23 C 441.76 308.85 441.57 310.07 441.48 310.69 C 440.39 310.76 439.31 310.81 438.23 310.85 C 437.69 309.46 438.37 308.22 439.03 307.04 Z" />
</g>
<g id="#efc6c7ff">
<path fill="#efc6c7" opacity="1.00" d=" M 236.49 309.06 C 237.62 308.77 238.75 308.49 239.89 308.22 C 241.30 311.41 242.15 317.79 247.01 316.43 C 246.33 315.14 245.65 313.86 244.99 312.58 C 246.52 313.73 248.03 314.91 249.53 316.11 C 247.09 317.68 244.96 319.66 242.92 321.69 C 243.77 322.23 244.62 322.76 245.49 323.30 C 245.48 323.71 245.47 324.52 245.47 324.93 C 246.68 325.41 247.90 325.90 249.12 326.40 C 248.01 326.88 246.90 327.37 245.80 327.86 C 243.33 326.56 240.59 325.89 237.80 325.93 C 238.99 325.51 240.17 325.07 241.35 324.62 C 239.22 323.30 236.79 322.43 234.33 323.44 C 234.73 324.22 235.52 325.79 235.91 326.57 C 235.56 326.69 234.85 326.94 234.50 327.06 C 233.28 324.46 231.98 321.90 230.57 319.41 C 229.40 319.30 228.23 319.20 227.06 319.10 C 229.12 322.86 231.13 326.76 231.20 331.16 C 230.33 329.56 229.51 327.93 228.70 326.31 C 228.43 326.45 227.88 326.72 227.60 326.86 C 226.11 325.55 224.79 323.89 222.89 323.15 C 220.54 322.60 218.10 322.68 215.70 322.61 C 215.42 321.99 215.14 321.38 214.86 320.77 C 215.08 320.65 215.53 320.41 215.75 320.29 C 221.01 321.77 226.28 319.65 230.21 316.15 C 231.27 314.89 230.08 313.29 229.95 311.95 L 229.97 311.94 C 232.68 312.04 235.38 312.26 238.09 312.40 C 237.56 311.28 237.03 310.17 236.49 309.06 Z" />
</g>
<g id="#f3f3f1ff">
<path fill="#f3f3f1" opacity="1.00" d=" M 284.48 308.59 C 287.13 308.58 289.38 310.13 291.64 311.33 C 290.67 312.05 289.69 312.76 288.71 313.46 C 285.56 314.39 282.33 315.01 279.17 315.89 C 278.98 315.22 278.59 313.89 278.40 313.23 C 279.28 312.49 280.16 311.75 281.06 311.04 C 282.20 310.22 283.32 309.38 284.48 308.59 Z" />
</g>
<g id="#d95c5aff">
<path fill="#d95c5a" opacity="1.00" d=" M 304.17 309.89 C 311.26 309.23 318.19 307.14 325.36 307.31 C 318.23 310.03 310.36 309.80 302.96 311.50 C 279.56 316.62 256.29 323.41 234.99 334.54 C 225.28 337.43 216.80 343.02 207.67 347.18 C 209.42 345.82 211.14 344.41 212.97 343.16 C 218.38 339.53 224.56 337.37 230.45 334.66 C 235.82 332.98 240.61 329.98 245.80 327.86 C 246.90 327.37 248.01 326.88 249.12 326.40 C 252.43 324.93 255.87 323.80 259.23 322.45 C 261.13 321.70 263.09 321.11 265.06 320.56 C 268.52 319.61 271.95 318.51 275.31 317.24 C 276.59 316.77 277.87 316.29 279.17 315.89 C 282.33 315.01 285.56 314.39 288.71 313.46 C 290.55 312.96 292.39 312.46 294.24 312.03 C 297.54 311.28 300.86 310.62 304.17 309.89 Z" />
</g>
<g id="#cfa9abff">
<path fill="#cfa9ab" opacity="1.00" d=" M 466.54 307.44 C 468.03 308.14 469.53 308.81 471.01 309.55 C 468.78 312.28 466.19 314.68 463.47 316.90 C 465.37 319.98 467.98 323.37 471.98 323.39 C 475.66 322.70 477.95 319.50 479.47 316.35 C 477.96 314.91 476.49 313.45 474.98 312.02 C 477.91 313.44 480.96 314.63 483.79 316.25 C 482.11 318.27 480.61 320.43 479.36 322.74 C 481.47 324.31 483.52 325.97 485.70 327.45 L 486.48 327.85 C 487.70 328.48 488.94 329.11 490.21 329.66 C 488.65 329.80 487.12 330.00 485.58 330.19 C 485.37 333.10 485.11 336.01 484.84 338.92 C 483.97 338.48 483.10 338.04 482.25 337.61 C 484.55 332.48 480.77 327.47 477.94 323.46 C 475.19 324.83 472.17 326.00 469.12 324.80 C 465.76 323.25 462.40 321.14 461.47 317.29 C 459.01 317.17 456.56 317.06 454.11 316.94 C 454.22 316.37 454.44 315.23 454.56 314.66 C 459.00 314.94 463.91 314.73 466.88 310.89 C 466.75 309.74 466.64 308.59 466.54 307.44 Z" />
</g>
<g id="#f8e9e8ff">
<path fill="#f8e9e8" opacity="1.00" d=" M 429.62 315.50 C 430.72 313.84 430.88 309.76 433.61 310.33 C 436.09 312.25 437.81 315.35 441.00 316.22 C 443.55 316.94 445.88 315.33 448.15 314.40 C 447.71 316.17 447.28 317.95 446.87 319.74 C 445.33 319.80 443.79 319.85 442.26 319.89 C 437.07 318.60 431.98 316.93 426.90 315.25 C 427.58 315.32 428.94 315.44 429.62 315.50 Z" />
</g>
<g id="#edc7c8ff">
<path fill="#edc7c8" opacity="1.00" d=" M 471.01 309.55 C 472.38 310.29 473.68 311.16 474.98 312.02 C 476.49 313.45 477.96 314.91 479.47 316.35 C 477.95 319.50 475.66 322.70 471.98 323.39 C 467.98 323.37 465.37 319.98 463.47 316.90 C 466.19 314.68 468.78 312.28 471.01 309.55 Z" />
</g>
<g id="#d5bfc2ff">
<path fill="#d5bfc2" opacity="1.00" d=" M 267.67 312.09 C 270.26 309.36 274.85 311.39 278.25 311.16 C 275.23 312.89 270.64 314.59 267.67 312.09 Z" />
</g>
<g id="#d1abadff">
<path fill="#d1abad" opacity="1.00" d=" M 228.64 314.52 C 228.97 313.88 229.62 312.59 229.95 311.95 C 230.08 313.29 231.27 314.89 230.21 316.15 C 226.28 319.65 221.01 321.77 215.75 320.29 C 219.51 318.01 223.15 315.48 227.21 313.74 C 227.56 313.93 228.28 314.32 228.64 314.52 Z" />
</g>
<g id="#f5eae7ff">
<path fill="#f5eae7" opacity="1.00" d=" M 262.44 317.74 C 263.63 316.56 264.82 315.38 265.91 314.11 C 269.21 314.13 272.51 314.16 275.81 314.21 C 275.63 315.22 275.47 316.23 275.31 317.24 C 271.95 318.51 268.52 319.61 265.06 320.56 C 263.82 319.98 262.59 319.41 261.35 318.83 C 261.63 318.56 262.17 318.02 262.44 317.74 Z" />
</g>
<g id="#d1aeb0ff">
<path fill="#d1aeb0" opacity="1.00" d=" M 249.53 316.11 C 252.75 315.02 258.88 314.69 258.71 319.50 C 257.11 318.80 255.52 318.10 253.93 317.37 C 250.71 318.71 247.82 320.71 245.49 323.30 C 244.62 322.76 243.77 322.23 242.92 321.69 C 244.96 319.66 247.09 317.68 249.53 316.11 Z" />
</g>
<g id="#eec6c9ff">
<path fill="#eec6c9" opacity="1.00" d=" M 479.36 322.74 C 480.61 320.43 482.11 318.27 483.79 316.25 C 487.25 318.58 490.63 321.01 494.23 323.13 C 493.71 324.24 493.20 325.36 492.69 326.48 C 490.35 326.80 488.02 327.13 485.70 327.45 C 483.52 325.97 481.47 324.31 479.36 322.74 Z" />
</g>
<g id="#f6d8dcff">
<path fill="#f6d8dc" opacity="1.00" d=" M 245.49 323.30 C 247.82 320.71 250.71 318.71 253.93 317.37 C 255.52 318.10 257.11 318.80 258.71 319.50 C 258.88 320.48 259.06 321.46 259.23 322.45 C 255.87 323.80 252.43 324.93 249.12 326.40 C 247.90 325.90 246.68 325.41 245.47 324.93 C 245.47 324.52 245.48 323.71 245.49 323.30 Z" />
</g>
<g id="#f6e5e4ff">
<path fill="#f6e5e4" opacity="1.00" d=" M 450.91 318.67 C 453.65 318.43 456.40 318.32 459.14 318.47 C 460.37 320.24 461.62 321.99 462.89 323.74 C 461.31 324.81 459.62 325.72 457.89 326.53 C 455.39 325.46 452.90 324.37 450.37 323.38 C 450.51 321.81 450.68 320.23 450.91 318.67 Z" />
</g>
<g id="#cfaba9ff">
<path fill="#cfaba9" opacity="1.00" d=" M 227.06 319.10 C 228.23 319.20 229.40 319.30 230.57 319.41 C 231.98 321.90 233.28 324.46 234.50 327.06 C 233.60 328.80 232.71 330.54 231.75 332.24 C 231.62 331.97 231.34 331.43 231.20 331.16 C 231.13 326.76 229.12 322.86 227.06 319.10 Z" />
</g>
<g id="#e9b5b5ff">
<path fill="#e9b5b5" opacity="1.00" d=" M 209.59 323.74 C 211.34 322.73 213.10 321.74 214.86 320.77 C 215.14 321.38 215.42 321.99 215.70 322.61 C 218.10 322.68 220.54 322.60 222.89 323.15 C 224.79 323.89 226.11 325.55 227.60 326.86 C 225.76 327.80 223.95 328.77 222.14 329.76 C 223.27 330.67 224.40 331.58 225.55 332.50 C 223.84 332.60 222.14 332.72 220.44 332.82 C 219.94 333.62 219.44 334.43 218.95 335.24 C 216.12 335.28 213.29 335.30 210.46 335.30 C 210.66 336.76 210.86 338.22 211.06 339.69 C 205.94 339.50 201.65 342.34 197.15 344.30 C 198.78 344.86 200.40 345.45 202.06 345.95 C 200.71 346.40 199.38 346.85 198.04 347.29 C 199.89 347.53 201.73 347.78 203.58 348.05 C 201.45 350.49 198.72 352.29 195.53 352.99 C 195.47 350.02 195.86 346.94 194.88 344.09 C 194.19 342.21 192.05 341.66 190.53 340.66 C 192.24 338.87 193.74 336.89 195.10 334.83 C 198.06 335.09 201.22 335.73 203.93 334.08 C 201.49 333.25 199.00 332.63 196.50 332.07 C 198.86 330.46 201.27 328.93 203.71 327.44 C 205.43 331.46 204.91 336.66 209.04 339.30 C 207.82 334.15 206.92 328.63 209.59 323.74 Z" />
</g>
<g id="#dab4b4ff">
<path fill="#dab4b4" opacity="1.00" d=" M 234.33 323.44 C 236.79 322.43 239.22 323.30 241.35 324.62 C 240.17 325.07 238.99 325.51 237.80 325.93 C 237.33 326.09 236.38 326.41 235.91 326.57 C 235.52 325.79 234.73 324.22 234.33 323.44 Z" />
</g>
<g id="#f2d0d5ff">
<path fill="#f2d0d5" opacity="1.00" d=" M 469.12 324.80 C 472.17 326.00 475.19 324.83 477.94 323.46 C 480.77 327.47 484.55 332.48 482.25 337.61 C 475.93 334.59 469.82 331.13 463.29 328.60 C 464.47 326.29 466.33 324.49 469.12 324.80 Z" />
</g>
<g id="#eebdbcff">
<path fill="#eebdbc" opacity="1.00" d=" M 494.23 323.13 C 498.16 325.52 501.94 328.14 505.66 330.85 C 505.96 332.88 505.36 335.40 507.01 336.99 C 508.75 338.79 511.22 339.55 513.46 340.54 C 511.20 342.91 509.23 345.55 507.67 348.43 C 509.49 347.73 511.50 347.28 513.07 346.05 C 514.57 344.39 515.57 342.35 516.85 340.52 C 517.40 340.69 518.52 341.02 519.07 341.18 C 519.19 344.10 521.14 346.32 522.90 348.45 C 521.63 348.80 520.37 349.15 519.11 349.51 C 519.77 349.76 521.09 350.25 521.75 350.50 C 520.47 351.45 519.20 352.39 517.93 353.34 C 517.46 351.82 517.01 350.27 516.11 348.95 C 514.69 348.50 513.19 348.29 511.74 348.02 C 513.94 351.16 516.36 354.24 517.39 358.01 C 516.24 357.60 515.09 357.16 513.96 356.71 C 504.84 351.22 495.86 345.48 486.79 339.91 C 489.02 339.70 491.27 339.54 493.53 339.48 C 496.10 339.46 498.94 339.73 501.10 338.02 C 503.87 336.40 503.36 331.76 500.59 330.43 C 496.22 328.30 491.25 328.04 486.48 327.85 L 485.70 327.45 C 488.02 327.13 490.35 326.80 492.69 326.48 C 493.20 325.36 493.71 324.24 494.23 323.13 Z" />
</g>
<g id="#cf9795ff">
<path fill="#cf9795" opacity="1.00" d=" M 203.71 327.44 C 205.66 326.19 207.60 324.92 209.59 323.74 C 206.92 328.63 207.82 334.15 209.04 339.30 C 204.91 336.66 205.43 331.46 203.71 327.44 Z" />
</g>
<g id="#f3ceceff">
<path fill="#f3cece" opacity="1.00" d=" M 227.60 326.86 C 227.88 326.72 228.43 326.45 228.70 326.31 C 229.51 327.93 230.33 329.56 231.20 331.16 C 231.34 331.43 231.62 331.97 231.75 332.24 C 232.71 330.54 233.60 328.80 234.50 327.06 C 234.85 326.94 235.56 326.69 235.91 326.57 C 236.38 326.41 237.33 326.09 237.80 325.93 C 240.59 325.89 243.33 326.56 245.80 327.86 C 240.61 329.98 235.82 332.98 230.45 334.66 C 224.56 337.37 218.38 339.53 212.97 343.16 C 211.49 343.34 210.01 343.46 208.54 343.59 C 207.88 344.71 207.23 345.83 206.59 346.96 C 205.07 346.65 203.55 346.34 202.06 345.95 C 200.40 345.45 198.78 344.86 197.15 344.30 C 201.65 342.34 205.94 339.50 211.06 339.69 C 210.86 338.22 210.66 336.76 210.46 335.30 C 213.29 335.30 216.12 335.28 218.95 335.24 C 219.44 334.43 219.94 333.62 220.44 332.82 C 222.14 332.72 223.84 332.60 225.55 332.50 C 224.40 331.58 223.27 330.67 222.14 329.76 C 223.95 328.77 225.76 327.80 227.60 326.86 Z" />
</g>
<g id="#c69893ff">
<path fill="#c69893" opacity="1.00" d=" M 486.48 327.85 C 491.25 328.04 496.22 328.30 500.59 330.43 C 503.36 331.76 503.87 336.40 501.10 338.02 C 498.94 339.73 496.10 339.46 493.53 339.48 C 495.93 338.15 500.79 337.29 499.53 333.54 C 497.59 330.38 493.43 330.40 490.21 329.66 C 488.94 329.11 487.70 328.48 486.48 327.85 Z" />
</g>
<g id="#fefefeff">
<path fill="#fefefe" opacity="1.00" d=" M 345.69 334.78 C 348.21 332.80 351.02 331.17 354.04 330.08 C 357.20 331.10 359.96 333.05 362.83 334.67 C 359.83 336.05 357.11 338.09 353.94 339.03 C 351.04 337.93 348.41 336.25 345.69 334.78 Z" />
<path fill="#fefefe" opacity="1.00" d=" M 248.96 339.02 C 251.48 337.38 254.10 335.74 257.02 334.93 C 260.13 335.87 262.80 337.81 265.65 339.33 C 262.81 340.94 259.91 342.48 257.01 343.99 C 254.40 342.31 250.71 341.66 248.96 339.02 Z" />
<path fill="#fefefe" opacity="1.00" d=" M 401.20 339.57 C 403.14 337.25 406.31 336.19 409.03 334.99 C 412.38 335.48 415.10 337.93 418.17 339.28 C 415.22 340.93 412.25 342.57 409.19 344.00 C 406.56 342.46 403.76 341.22 401.20 339.57 Z" />
<path fill="#fefefe" opacity="1.00" d=" M 288.16 341.59 C 292.92 339.71 297.91 338.19 303.07 338.15 C 311.23 337.76 319.11 340.31 327.12 341.39 C 331.90 342.38 336.80 342.13 341.63 342.73 C 340.80 345.04 339.94 347.33 339.08 349.63 C 336.96 349.62 334.85 349.60 332.74 349.67 C 339.68 351.17 346.90 351.40 353.91 350.21 C 352.95 347.21 350.96 344.75 349.02 342.33 C 353.01 341.32 356.93 339.89 361.04 339.46 C 364.04 342.50 366.55 346.62 366.00 351.07 C 365.90 353.91 363.39 355.86 360.97 356.86 C 354.97 359.42 348.29 358.83 341.93 358.89 C 335.51 358.87 328.28 358.00 323.76 352.90 C 310.36 358.61 295.40 359.78 281.02 358.43 C 277.69 365.15 269.90 367.60 262.97 368.40 C 254.72 369.05 245.73 368.88 238.50 364.32 C 235.09 362.26 232.73 358.08 233.82 354.07 C 234.42 351.04 236.42 348.60 238.42 346.36 C 241.78 347.20 245.26 347.63 248.53 348.85 C 247.00 351.31 244.56 354.61 246.63 357.46 C 249.26 360.83 254.13 360.58 257.98 360.99 C 261.54 360.70 265.94 360.82 268.48 357.91 C 269.07 353.38 265.48 349.75 264.02 345.71 C 268.03 345.06 272.05 344.42 276.01 343.50 C 278.01 345.11 278.72 347.64 280.09 349.72 C 286.84 351.85 293.99 350.75 300.91 350.37 C 306.42 350.08 311.75 348.61 317.09 347.38 C 310.17 345.69 302.72 344.19 295.82 346.81 C 292.13 348.40 290.31 343.62 288.16 341.59 Z" />
<path fill="#fefefe" opacity="1.00" d=" M 454.52 344.53 C 461.39 339.19 471.64 338.53 479.15 342.89 C 482.85 344.81 485.42 349.53 483.38 353.51 C 479.02 358.89 471.28 358.91 464.95 358.87 C 460.96 359.11 457.12 358.03 453.27 357.19 C 446.93 359.44 440.03 359.24 433.45 358.36 C 430.35 365.02 422.63 367.42 415.90 368.35 C 408.10 369.06 399.80 368.90 392.65 365.33 C 389.11 363.61 385.74 360.26 386.03 356.03 C 385.94 352.26 388.39 349.17 390.67 346.43 C 394.12 347.12 397.62 347.64 400.99 348.74 C 399.34 351.25 397.12 354.72 399.16 357.63 C 402.07 360.90 406.98 360.68 410.98 361.00 C 414.50 360.56 419.45 360.81 421.28 357.10 C 420.71 352.92 418.19 349.40 416.23 345.78 C 420.52 345.28 424.70 343.85 429.03 343.83 C 430.59 345.53 431.31 347.80 432.36 349.82 C 436.25 350.54 440.24 351.48 444.21 350.71 C 448.42 350.30 451.26 346.83 454.52 344.53 M 461.95 350.42 C 465.36 350.92 468.82 351.08 472.23 350.44 C 470.77 345.62 464.58 347.76 461.95 350.42 Z" />
<path fill="#fefefe" opacity="1.00" d=" M 462.21 411.68 C 463.30 411.23 464.41 410.80 465.52 410.36 C 465.91 411.36 466.32 412.38 466.74 413.40 C 465.65 413.83 464.59 414.28 463.52 414.74 C 463.07 413.71 462.64 412.69 462.21 411.68 Z" />
<path fill="#fefefe" opacity="1.00" d=" M 250.51 414.10 C 251.61 414.54 252.72 414.99 253.83 415.45 C 253.45 416.41 253.08 417.38 252.71 418.36 C 251.61 418.02 250.52 417.68 249.44 417.35 C 249.79 416.26 250.15 415.17 250.51 414.10 Z" />
<path fill="#fefefe" opacity="1.00" d=" M 428.72 422.26 C 429.79 422.02 430.86 421.78 431.93 421.54 C 432.22 422.53 432.53 423.54 432.83 424.55 C 431.68 424.88 430.54 425.22 429.40 425.56 C 429.17 424.45 428.94 423.35 428.72 422.26 Z" />
<path fill="#fefefe" opacity="1.00" d=" M 308.47 423.22 C 310.06 423.41 311.79 423.47 313.00 424.68 C 312.01 424.82 310.03 425.08 309.04 425.22 C 309.78 425.49 311.25 426.04 311.98 426.31 L 312.02 427.67 C 310.30 427.35 308.60 427.03 306.89 426.72 C 307.41 425.55 307.94 424.38 308.47 423.22 Z" />
<path fill="#fefefe" opacity="1.00" d=" M 287.24 424.68 C 288.30 424.93 289.35 425.18 290.42 425.44 C 290.14 426.54 289.86 427.63 289.60 428.74 C 288.47 428.36 287.35 427.98 286.23 427.61 C 286.57 426.63 286.90 425.65 287.24 424.68 Z" />
</g>
<g id="#f3cccdff">
<path fill="#f3cccd" opacity="1.00" d=" M 485.58 330.19 C 487.12 330.00 488.65 329.80 490.21 329.66 C 493.43 330.40 497.59 330.38 499.53 333.54 C 500.79 337.29 495.93 338.15 493.53 339.48 C 491.27 339.54 489.02 339.70 486.79 339.91 C 486.13 339.57 485.49 339.24 484.84 338.92 C 485.11 336.01 485.37 333.10 485.58 330.19 M 490.05 334.14 C 490.84 336.10 493.29 335.99 495.05 336.30 C 496.97 337.02 496.66 334.50 496.81 333.43 C 494.52 332.97 491.76 331.89 490.05 334.14 Z" />
</g>
<g id="#d2a09eff">
<path fill="#d2a09e" opacity="1.00" d=" M 505.66 330.85 C 509.82 333.55 513.23 337.16 516.85 340.52 C 515.57 342.35 514.57 344.39 513.07 346.05 C 511.50 347.28 509.49 347.73 507.67 348.43 C 509.23 345.55 511.20 342.91 513.46 340.54 C 511.22 339.55 508.75 338.79 507.01 336.99 C 505.36 335.40 505.96 332.88 505.66 330.85 Z" />
</g>
<g id="#cd9191ff">
<path fill="#cd9191" opacity="1.00" d=" M 180.86 343.30 C 186.03 339.50 191.28 335.80 196.50 332.07 C 199.00 332.63 201.49 333.25 203.93 334.08 C 201.22 335.73 198.06 335.09 195.10 334.83 C 193.74 336.89 192.24 338.87 190.53 340.66 C 192.05 341.66 194.19 342.21 194.88 344.09 C 195.86 346.94 195.47 350.02 195.53 352.99 C 198.72 352.29 201.45 350.49 203.58 348.05 C 201.73 347.78 199.89 347.53 198.04 347.29 C 199.38 346.85 200.71 346.40 202.06 345.95 C 203.55 346.34 205.07 346.65 206.59 346.96 C 207.23 345.83 207.88 344.71 208.54 343.59 C 210.01 343.46 211.49 343.34 212.97 343.16 C 211.14 344.41 209.42 345.82 207.67 347.18 C 201.35 351.75 194.23 355.13 188.16 360.04 C 187.17 360.74 187.41 362.12 187.05 363.15 C 186.76 363.06 186.16 362.88 185.87 362.79 C 185.91 362.18 185.99 360.96 186.03 360.35 C 188.55 358.05 192.90 356.92 193.23 352.97 C 194.35 348.28 190.42 344.78 188.05 341.25 C 185.89 342.05 183.74 342.87 181.55 343.59 L 180.86 343.30 Z" />
</g>
<g id="#d8aeadff">
<path fill="#d8aead" opacity="1.00" d=" M 490.05 334.14 C 491.76 331.89 494.52 332.97 496.81 333.43 C 496.66 334.50 496.97 337.02 495.05 336.30 C 493.29 335.99 490.84 336.10 490.05 334.14 Z" />
</g>
<g id="#efb3b4ff">
<path fill="#efb3b4" opacity="1.00" d=" M 181.55 343.59 C 183.74 342.87 185.89 342.05 188.05 341.25 C 190.42 344.78 194.35 348.28 193.23 352.97 C 192.90 356.92 188.55 358.05 186.03 360.35 C 183.08 363.69 178.58 363.86 174.45 363.74 C 174.07 362.49 173.70 361.24 173.33 359.99 C 176.41 359.41 181.00 361.05 182.54 357.41 C 183.72 355.02 184.08 352.35 184.69 349.79 C 185.76 349.72 186.83 349.65 187.91 349.59 C 188.03 348.92 188.28 347.60 188.41 346.93 C 186.11 345.84 183.85 344.67 181.55 343.59 Z" />
</g>
<g id="#eaa09eff">
<path fill="#eaa09e" opacity="1.00" d=" M 519.07 341.18 C 522.36 344.78 526.30 347.68 529.86 350.99 C 526.97 352.83 523.07 351.16 520.46 353.40 C 525.03 354.04 530.40 353.57 534.00 357.01 C 536.00 359.46 533.02 362.16 532.22 364.51 C 534.53 363.46 536.74 362.21 538.80 360.73 C 543.19 366.36 547.22 372.24 551.29 378.10 C 551.39 382.58 553.43 387.33 550.98 391.53 C 546.11 386.74 542.99 380.23 536.97 376.66 C 536.83 376.55 536.54 376.33 536.40 376.22 C 533.35 371.63 528.68 368.61 524.88 364.73 C 526.23 364.10 527.60 363.48 528.96 362.86 C 527.13 361.66 525.32 360.44 523.52 359.22 C 523.87 357.80 524.24 356.39 524.60 354.97 C 522.46 355.28 519.73 354.63 518.35 356.75 C 518.19 355.61 518.08 354.47 517.93 353.34 C 519.20 352.39 520.47 351.45 521.75 350.50 C 521.09 350.25 519.77 349.76 519.11 349.51 C 520.37 349.15 521.63 348.80 522.90 348.45 C 521.14 346.32 519.19 344.10 519.07 341.18 Z" />
</g>
<g id="#e99b9cff">
<path fill="#e99b9c" opacity="1.00" d=" M 172.13 351.32 C 175.24 348.87 177.88 345.90 180.86 343.30 L 181.55 343.59 C 183.85 344.67 186.11 345.84 188.41 346.93 C 188.28 347.60 188.03 348.92 187.91 349.59 C 186.83 349.65 185.76 349.72 184.69 349.79 C 184.08 352.35 183.72 355.02 182.54 357.41 C 181.00 361.05 176.41 359.41 173.33 359.99 C 173.70 361.24 174.07 362.49 174.45 363.74 C 178.58 363.86 183.08 363.69 186.03 360.35 C 185.99 360.96 185.91 362.18 185.87 362.79 C 185.89 365.43 184.96 367.95 183.13 369.87 C 182.78 369.72 182.08 369.42 181.72 369.27 C 183.03 367.94 186.16 363.91 182.30 364.05 C 180.19 365.91 178.32 368.03 176.17 369.86 C 171.97 373.93 167.30 377.81 164.61 383.12 C 162.13 385.92 159.89 388.97 158.34 392.39 L 157.90 393.29 C 157.70 392.78 157.29 391.77 157.09 391.26 C 157.39 388.27 158.03 385.32 158.45 382.35 C 159.12 377.86 158.15 373.37 157.60 368.93 C 159.97 365.30 162.60 361.86 165.24 358.42 C 166.91 361.44 169.10 364.29 172.92 364.20 C 171.45 361.88 169.63 359.69 168.82 357.03 C 169.26 354.83 170.87 353.11 172.13 351.32 M 159.23 371.42 C 159.35 371.91 159.58 372.90 159.69 373.39 C 163.09 373.51 166.49 373.57 169.89 373.61 C 166.45 372.38 162.99 369.49 159.23 371.42 Z" />
</g>
<g id="#cf9593ff">
<path fill="#cf9593" opacity="1.00" d=" M 511.74 348.02 C 513.19 348.29 514.69 348.50 516.11 348.95 C 517.01 350.27 517.46 351.82 517.93 353.34 C 518.08 354.47 518.19 355.61 518.35 356.75 C 518.28 360.24 521.46 362.10 523.91 363.94 C 523.02 364.28 522.14 364.64 521.28 365.03 C 519.55 363.59 517.80 362.19 516.04 360.81 C 514.45 362.88 512.61 364.90 509.83 365.17 C 511.35 363.05 513.44 361.11 513.66 358.36 C 513.74 357.95 513.89 357.12 513.96 356.71 C 515.09 357.16 516.24 357.60 517.39 358.01 C 516.36 354.24 513.94 351.16 511.74 348.02 Z" />
</g>
<g id="#cf8183ff">
<path fill="#cf8183" opacity="1.00" d=" M 529.86 350.99 C 533.10 353.98 536.26 357.11 538.80 360.73 C 536.74 362.21 534.53 363.46 532.22 364.51 C 533.02 362.16 536.00 359.46 534.00 357.01 C 530.40 353.57 525.03 354.04 520.46 353.40 C 523.07 351.16 526.97 352.83 529.86 350.99 Z" />
</g>
<g id="#c73435ff">
<path fill="#c73435" opacity="1.00" d=" M 160.95 360.91 C 163.86 357.64 166.18 353.50 170.43 351.80 C 168.68 353.99 166.98 356.22 165.24 358.42 C 162.60 361.86 159.97 365.30 157.60 368.93 C 155.08 373.07 153.10 377.53 150.59 381.68 C 150.62 381.02 150.68 379.69 150.71 379.02 C 153.19 372.52 156.32 366.17 160.95 360.91 Z" />
</g>
<g id="#d07b79ff">
<path fill="#d07b79" opacity="1.00" d=" M 170.43 351.80 L 170.44 351.80 L 172.13 351.32 C 170.87 353.11 169.26 354.83 168.82 357.03 C 169.63 359.69 171.45 361.88 172.92 364.20 C 169.10 364.29 166.91 361.44 165.24 358.42 C 166.98 356.22 168.68 353.99 170.43 351.80 Z" />
</g>
<g id="#f4c4c1ff">
<path fill="#f4c4c1" opacity="1.00" d=" M 518.35 356.75 C 519.73 354.63 522.46 355.28 524.60 354.97 C 524.24 356.39 523.87 357.80 523.52 359.22 C 525.32 360.44 527.13 361.66 528.96 362.86 C 527.60 363.48 526.23 364.10 524.88 364.73 L 523.91 363.94 C 521.46 362.10 518.28 360.24 518.35 356.75 Z" />
</g>
<g id="#edbebcff">
<path fill="#edbebc" opacity="1.00" d=" M 482.56 373.08 C 493.31 369.06 503.24 363.14 513.66 358.36 C 513.44 361.11 511.35 363.05 509.83 365.17 C 512.61 364.90 514.45 362.88 516.04 360.81 C 517.80 362.19 519.55 363.59 521.28 365.03 C 518.91 366.42 516.64 367.99 514.25 369.36 C 511.83 367.23 509.03 365.50 505.70 365.46 C 507.00 366.86 508.34 368.23 509.70 369.58 C 506.53 371.04 502.21 372.34 502.92 376.79 C 502.05 377.27 501.18 377.75 500.31 378.23 C 499.77 378.23 498.67 378.23 498.13 378.23 C 499.10 376.48 500.09 374.74 501.08 373.00 C 498.46 372.08 495.72 371.59 492.96 371.93 C 494.34 372.89 495.75 373.84 497.16 374.79 C 493.04 378.03 487.75 378.40 482.71 378.29 C 482.65 376.55 482.61 374.82 482.56 373.08 Z" />
</g>
<g id="#edbebdff">
<path fill="#edbebd" opacity="1.00" d=" M 185.87 362.79 C 186.16 362.88 186.76 363.06 187.05 363.15 C 195.04 365.69 201.92 370.87 209.96 373.27 C 209.68 374.94 209.40 376.61 209.13 378.29 C 204.25 378.33 198.65 378.55 195.07 374.59 C 196.14 373.61 197.22 372.63 198.29 371.64 C 195.86 371.78 190.01 371.83 192.10 375.72 C 194.58 378.40 198.42 379.06 201.82 379.88 C 201.82 381.06 201.82 382.22 201.82 383.41 C 197.52 381.23 193.33 378.85 189.16 376.43 C 189.38 372.65 186.04 371.14 183.13 369.87 C 184.96 367.95 185.89 365.43 185.87 362.79 Z" />
</g>
<g id="#cd8687ff">
<path fill="#cd8687" opacity="1.00" d=" M 176.17 369.86 C 178.32 368.03 180.19 365.91 182.30 364.05 C 186.16 363.91 183.03 367.94 181.72 369.27 C 181.08 369.40 179.79 369.66 179.14 369.79 C 178.15 369.82 177.16 369.85 176.17 369.86 Z" />
</g>
<g id="#d44443ff">
<path fill="#d44443" opacity="1.00" d=" M 521.28 365.03 C 522.14 364.64 523.02 364.28 523.91 363.94 L 524.88 364.73 C 528.68 368.61 533.35 371.63 536.40 376.22 C 531.34 373.42 527.96 368.55 523.26 365.31 C 517.94 368.16 513.12 371.92 507.48 374.17 C 509.61 372.41 511.84 370.73 514.25 369.36 C 516.64 367.99 518.91 366.42 521.28 365.03 Z" />
</g>
<g id="#d29999ff">
<path fill="#d29999" opacity="1.00" d=" M 505.70 365.46 C 509.03 365.50 511.83 367.23 514.25 369.36 C 511.84 370.73 509.61 372.41 507.48 374.17 C 505.97 375.07 504.45 375.94 502.92 376.79 C 502.21 372.34 506.53 371.04 509.70 369.58 C 508.34 368.23 507.00 366.86 505.70 365.46 Z" />
</g>
<g id="#db787aff">
<path fill="#db787a" opacity="1.00" d=" M 150.59 381.68 C 153.10 377.53 155.08 373.07 157.60 368.93 C 158.15 373.37 159.12 377.86 158.45 382.35 C 158.03 385.32 157.39 388.27 157.09 391.26 C 156.85 390.63 156.37 389.37 156.13 388.74 C 156.27 386.84 154.97 385.43 153.44 384.54 C 152.36 383.72 151.51 382.66 150.59 381.68 Z" />
</g>
<g id="#d39a99ff">
<path fill="#d39a99" opacity="1.00" d=" M 179.14 369.79 C 179.79 369.66 181.08 369.40 181.72 369.27 C 182.08 369.42 182.78 369.72 183.13 369.87 C 186.04 371.14 189.38 372.65 189.16 376.43 C 185.65 374.48 182.27 372.30 179.14 369.79 Z" />
</g>
<g id="#bf6c70ff">
<path fill="#bf6c70" opacity="1.00" d=" M 159.23 371.42 C 162.99 369.49 166.45 372.38 169.89 373.61 C 166.49 373.57 163.09 373.51 159.69 373.39 C 159.58 372.90 159.35 371.91 159.23 371.42 Z" />
</g>
<g id="#cc4a49ff">
<path fill="#cc4a49" opacity="1.00" d=" M 164.61 383.12 C 167.30 377.81 171.97 373.93 176.17 369.86 C 177.16 369.85 178.15 369.82 179.14 369.79 C 182.27 372.30 185.65 374.48 189.16 376.43 C 193.33 378.85 197.52 381.23 201.82 383.41 C 204.89 384.90 208.03 386.24 211.17 387.57 C 212.93 388.29 214.71 388.95 216.47 389.68 C 218.69 390.60 220.86 391.65 223.07 392.60 C 224.50 393.09 225.96 393.51 227.41 393.98 C 232.83 395.96 238.40 397.53 243.75 399.71 C 245.09 400.27 246.41 400.86 247.76 401.41 C 253.67 403.40 259.92 404.35 265.57 407.12 C 267.13 407.79 268.65 408.50 270.20 409.20 C 264.12 409.22 258.99 405.63 253.18 404.42 C 249.22 403.51 245.48 401.90 241.72 400.41 C 232.45 397.35 223.36 393.78 214.21 390.39 C 202.95 384.99 191.32 380.09 181.18 372.69 C 179.90 371.86 178.61 370.88 177.07 370.67 C 172.50 374.38 169.38 379.59 164.61 383.12 Z" />
</g>
<g id="#d3aaaeff">
<path fill="#d3aaae" opacity="1.00" d=" M 192.10 375.72 C 190.01 371.83 195.86 371.78 198.29 371.64 C 197.22 372.63 196.14 373.61 195.07 374.59 C 198.65 378.55 204.25 378.33 209.13 378.29 C 209.40 376.61 209.68 374.94 209.96 373.27 C 219.10 375.38 227.40 379.94 236.51 382.17 C 227.50 381.94 220.11 376.02 211.41 374.60 C 212.26 378.00 214.01 381.09 216.77 383.30 C 222.85 381.45 229.78 382.96 234.21 387.63 C 236.64 387.78 239.07 387.94 241.50 388.23 C 238.28 390.49 234.02 388.87 230.60 390.61 C 229.27 391.43 228.43 392.82 227.41 393.98 C 225.96 393.51 224.50 393.09 223.07 392.60 C 226.08 391.41 228.89 389.78 231.52 387.90 C 229.41 385.93 226.96 384.13 223.99 383.88 C 221.19 383.26 218.79 385.13 216.51 386.43 C 216.49 387.51 216.48 388.59 216.47 389.68 C 214.71 388.95 212.93 388.29 211.17 387.57 C 212.43 386.45 213.70 385.35 214.95 384.24 C 213.25 383.04 211.66 381.56 209.68 380.85 C 207.09 380.30 204.43 380.29 201.82 379.88 C 198.42 379.06 194.58 378.40 192.10 375.72 Z" />
</g>
<g id="#d5acafff">
<path fill="#d5acaf" opacity="1.00" d=" M 492.96 371.93 C 495.72 371.59 498.46 372.08 501.08 373.00 C 500.09 374.74 499.10 376.48 498.13 378.23 C 498.67 378.23 499.77 378.23 500.31 378.23 C 497.38 380.00 494.46 381.81 491.35 383.24 C 491.17 382.48 490.83 380.95 490.66 380.18 C 488.12 380.22 485.56 380.12 483.06 380.56 C 480.75 381.21 478.91 382.84 476.94 384.12 C 478.19 385.25 479.47 386.37 480.73 387.50 C 478.80 388.28 476.85 389.03 474.93 389.83 C 475.20 388.87 475.48 387.90 475.77 386.94 C 471.53 382.46 464.34 383.35 460.50 387.87 C 463.08 389.76 465.84 391.42 468.84 392.56 C 467.45 393.03 466.05 393.42 464.66 393.86 C 463.63 392.74 462.71 391.48 461.43 390.63 C 457.99 388.87 453.67 390.59 450.47 388.25 C 452.94 387.96 455.43 387.83 457.91 387.52 C 458.23 387.15 458.86 386.41 459.18 386.04 C 463.68 381.98 469.95 382.57 475.53 382.59 C 478.40 381.10 479.34 377.79 480.41 374.99 C 479.51 374.96 477.72 374.91 476.83 374.89 C 478.74 374.29 480.65 373.69 482.56 373.08 C 482.61 374.82 482.65 376.55 482.71 378.29 C 487.75 378.40 493.04 378.03 497.16 374.79 C 495.75 373.84 494.34 372.89 492.96 371.93 Z" />
</g>
<g id="#e9ced0ff">
<path fill="#e9ced0" opacity="1.00" d=" M 211.41 374.60 C 220.11 376.02 227.50 381.94 236.51 382.17 C 236.99 382.22 237.94 382.34 238.42 382.39 L 237.47 382.46 C 235.74 382.63 234.09 383.22 232.44 383.71 C 235.74 387.50 241.83 388.11 245.74 384.91 C 246.54 385.13 247.34 385.36 248.15 385.59 C 247.81 386.91 247.49 388.26 247.16 389.60 C 250.33 389.03 253.73 388.52 256.74 390.04 C 259.90 391.02 261.27 394.22 262.72 396.89 C 263.54 394.60 264.56 392.40 265.82 390.32 C 265.95 390.65 266.21 391.30 266.34 391.63 C 265.36 395.15 263.85 398.50 262.60 401.93 C 262.77 402.24 263.12 402.86 263.30 403.17 C 264.06 404.48 264.82 405.80 265.57 407.12 C 259.92 404.35 253.67 403.40 247.76 401.41 C 245.43 396.63 245.71 391.28 245.25 386.13 C 244.33 387.25 243.28 388.30 242.59 389.60 C 242.44 393.00 243.38 396.34 243.75 399.71 C 238.40 397.53 232.83 395.96 227.41 393.98 C 228.43 392.82 229.27 391.43 230.60 390.61 C 234.02 388.87 238.28 390.49 241.50 388.23 C 239.07 387.94 236.64 387.78 234.21 387.63 C 229.78 382.96 222.85 381.45 216.77 383.30 C 214.01 381.09 212.26 378.00 211.41 374.60 Z" />
</g>
<g id="#f0cfd5ff">
<path fill="#f0cfd5" opacity="1.00" d=" M 455.32 381.88 C 462.94 381.08 469.59 377.02 476.83 374.89 C 477.72 374.91 479.51 374.96 480.41 374.99 C 479.34 377.79 478.40 381.10 475.53 382.59 C 469.95 382.57 463.68 381.98 459.18 386.04 C 457.74 386.38 456.28 386.64 454.82 386.86 C 456.21 385.66 457.61 384.47 459.01 383.28 C 457.76 383.02 456.52 382.78 455.29 382.54 L 455.32 381.88 Z" />
</g>
<g id="#d75857fb">
<path fill="#d75857" opacity="1.00" d=" M 536.97 376.66 C 542.99 380.23 546.11 386.74 550.98 391.53 C 553.43 387.33 551.39 382.58 551.29 378.10 C 553.21 380.35 554.59 382.97 555.55 385.76 C 553.89 388.37 552.29 391.01 550.48 393.51 C 546.29 387.64 541.51 382.25 536.97 376.66 Z" />
</g>
<g id="#efc7c9ff">
<path fill="#efc7c9" opacity="1.00" d=" M 201.82 383.41 C 201.82 382.22 201.82 381.06 201.82 379.88 C 204.43 380.29 207.09 380.30 209.68 380.85 C 211.66 381.56 213.25 383.04 214.95 384.24 C 213.70 385.35 212.43 386.45 211.17 387.57 C 208.03 386.24 204.89 384.90 201.82 383.41 Z" />
</g>
<g id="#f0c6c9ff">
<path fill="#f0c6c9" opacity="1.00" d=" M 476.94 384.12 C 478.91 382.84 480.75 381.21 483.06 380.56 C 485.56 380.12 488.12 380.22 490.66 380.18 C 490.83 380.95 491.17 382.48 491.35 383.24 C 490.03 383.85 488.71 384.45 487.40 385.05 C 485.15 385.80 482.92 386.59 480.73 387.50 C 479.47 386.37 478.19 385.25 476.94 384.12 Z" />
</g>
<g id="#d56967ff">
<path fill="#d56967" opacity="1.00" d=" M 238.42 382.39 C 244.11 382.80 249.33 385.28 254.86 386.42 C 280.26 391.65 306.00 396.30 332.04 395.92 C 345.52 396.56 359.00 395.83 372.49 395.77 C 387.12 394.91 401.73 393.31 416.11 390.46 C 425.79 388.55 435.63 387.27 445.05 384.23 C 448.40 383.15 451.83 382.38 455.32 381.88 L 455.29 382.54 C 452.28 383.18 449.30 383.95 446.37 384.86 C 445.43 385.13 444.50 385.41 443.58 385.68 C 432.47 388.64 421.09 390.43 409.82 392.65 C 407.37 393.01 404.91 393.35 402.48 393.85 C 397.01 394.64 391.49 395.15 385.99 395.72 C 366.04 397.33 346.01 397.61 326.01 396.94 C 319.59 396.75 313.19 396.15 306.78 395.71 C 306.54 395.70 306.05 395.68 305.81 395.67 C 300.64 395.19 295.48 394.70 290.36 393.93 C 287.77 393.50 285.18 393.10 282.59 392.70 C 271.10 390.39 259.49 388.58 248.15 385.59 C 247.34 385.36 246.54 385.13 245.74 384.91 C 242.99 384.09 240.25 383.19 237.47 382.46 L 238.42 382.39 Z" />
</g>
<g id="#f4e4e6ff">
<path fill="#f4e4e6" opacity="1.00" d=" M 232.44 383.71 C 234.09 383.22 235.74 382.63 237.47 382.46 C 240.25 383.19 242.99 384.09 245.74 384.91 C 241.83 388.11 235.74 387.50 232.44 383.71 Z" />
</g>
<g id="#f6e5e7ff">
<path fill="#f6e5e7" opacity="1.00" d=" M 446.37 384.86 C 449.30 383.95 452.28 383.18 455.29 382.54 C 456.52 382.78 457.76 383.02 459.01 383.28 C 457.61 384.47 456.21 385.66 454.82 386.86 C 451.83 387.18 448.73 386.89 446.37 384.86 Z" />
</g>
<g id="#ecc8c8ff">
<path fill="#ecc8c8" opacity="1.00" d=" M 216.51 386.43 C 218.79 385.13 221.19 383.26 223.99 383.88 C 226.96 384.13 229.41 385.93 231.52 387.90 C 228.89 389.78 226.08 391.41 223.07 392.60 C 220.86 391.65 218.69 390.60 216.47 389.68 C 216.48 388.59 216.49 387.51 216.51 386.43 Z" />
<path fill="#ecc8c8" opacity="1.00" d=" M 460.50 387.87 C 464.34 383.35 471.53 382.46 475.77 386.94 C 475.48 387.90 475.20 388.87 474.93 389.83 C 472.88 390.70 470.88 391.68 468.84 392.56 C 465.84 391.42 463.08 389.76 460.50 387.87 Z" />
</g>
<g id="#e9cfcfff">
<path fill="#e9cfcf" opacity="1.00" d=" M 443.58 385.68 C 444.50 385.41 445.43 385.13 446.37 384.86 C 448.73 386.89 451.83 387.18 454.82 386.86 C 456.28 386.64 457.74 386.38 459.18 386.04 C 458.86 386.41 458.23 387.15 457.91 387.52 C 455.43 387.83 452.94 387.96 450.47 388.25 C 453.67 390.59 457.99 388.87 461.43 390.63 C 462.71 391.48 463.63 392.74 464.66 393.86 C 459.20 395.82 453.62 397.44 448.23 399.58 C 448.69 396.25 449.69 392.94 449.49 389.56 C 448.75 388.30 447.69 387.27 446.76 386.18 C 446.33 391.06 446.06 395.96 445.28 400.81 C 438.95 403.35 432.03 404.08 425.96 407.32 C 426.90 406.00 427.86 404.70 428.74 403.33 C 428.92 402.98 429.29 402.28 429.47 401.93 C 427.70 398.68 426.76 395.10 426.57 391.40 C 427.15 391.84 428.31 392.70 428.90 393.14 C 428.80 394.10 428.71 395.07 428.63 396.05 C 430.27 393.34 432.12 390.44 435.30 389.40 C 438.31 387.94 441.64 388.90 444.73 389.54 C 444.34 388.25 443.95 386.96 443.58 385.68 Z" />
</g>
<g id="#cb5959ff">
<path fill="#cb5959" opacity="1.00" d=" M 480.73 387.50 C 482.92 386.59 485.15 385.80 487.40 385.05 C 478.61 390.87 468.25 393.43 458.59 397.38 C 450.27 400.01 442.30 403.61 433.82 405.72 C 425.22 409.63 415.82 410.84 406.75 413.18 C 397.49 415.46 388.00 416.88 378.50 417.57 L 377.02 417.17 C 377.44 417.07 378.29 416.89 378.71 416.80 C 383.47 415.75 388.31 415.27 393.12 414.56 C 394.77 414.32 396.41 414.05 398.05 413.73 C 407.30 411.38 416.81 410.02 425.96 407.32 C 432.03 404.08 438.95 403.35 445.28 400.81 C 446.26 400.39 447.24 399.98 448.23 399.58 C 453.62 397.44 459.20 395.82 464.66 393.86 C 466.05 393.42 467.45 393.03 468.84 392.56 C 470.88 391.68 472.88 390.70 474.93 389.83 C 476.85 389.03 478.80 388.28 480.73 387.50 Z" />
</g>
<g id="#f1e7e3ff">
<path fill="#f1e7e3" opacity="1.00" d=" M 248.15 385.59 C 259.49 388.58 271.10 390.39 282.59 392.70 C 282.21 393.94 281.83 395.17 281.45 396.41 C 277.16 396.62 272.86 396.93 268.56 396.69 C 267.81 395.00 267.05 393.32 266.34 391.63 C 266.21 391.30 265.95 390.65 265.82 390.32 C 264.56 392.40 263.54 394.60 262.72 396.89 C 261.27 394.22 259.90 391.02 256.74 390.04 C 253.73 388.52 250.33 389.03 247.16 389.60 C 247.49 388.26 247.81 386.91 248.15 385.59 Z" />
</g>
<g id="#f6f3efff">
<path fill="#f6f3ef" opacity="1.00" d=" M 409.82 392.65 C 421.09 390.43 432.47 388.64 443.58 385.68 C 443.95 386.96 444.34 388.25 444.73 389.54 C 441.64 388.90 438.31 387.94 435.30 389.40 C 432.12 390.44 430.27 393.34 428.63 396.05 C 428.71 395.07 428.80 394.10 428.90 393.14 C 428.31 392.70 427.15 391.84 426.57 391.40 C 424.30 392.73 422.69 394.84 421.03 396.81 C 420.36 395.57 419.70 394.34 419.04 393.11 C 417.28 394.05 415.57 395.08 413.91 396.18 C 413.19 396.19 411.76 396.22 411.05 396.23 C 410.67 395.82 409.90 394.99 409.52 394.57 C 409.60 394.09 409.75 393.13 409.82 392.65 Z" />
</g>
<g id="#d4b8b8ff">
<path fill="#d4b8b8" opacity="1.00" d=" M 242.59 389.60 C 243.28 388.30 244.33 387.25 245.25 386.13 C 245.71 391.28 245.43 396.63 247.76 401.41 C 246.41 400.86 245.09 400.27 243.75 399.71 C 243.38 396.34 242.44 393.00 242.59 389.60 Z" />
</g>
<g id="#d4b9baff">
<path fill="#d4b9ba" opacity="1.00" d=" M 445.28 400.81 C 446.06 395.96 446.33 391.06 446.76 386.18 C 447.69 387.27 448.75 388.30 449.49 389.56 C 449.69 392.94 448.69 396.25 448.23 399.58 C 447.24 399.98 446.26 400.39 445.28 400.81 Z" />
</g>
<g id="#d1c1c2ff">
<path fill="#d1c1c2" opacity="1.00" d=" M 262.60 401.93 C 263.85 398.50 265.36 395.15 266.34 391.63 C 267.05 393.32 267.81 395.00 268.56 396.69 C 272.86 396.93 277.16 396.62 281.45 396.41 C 281.99 396.41 283.07 396.40 283.62 396.40 C 281.93 397.60 280.12 398.60 278.26 399.52 C 280.78 401.79 283.37 404.70 287.03 404.81 C 290.73 404.37 293.34 401.28 295.04 398.21 C 295.54 398.13 296.55 397.99 297.05 397.92 L 297.91 397.95 C 299.80 398.31 301.64 398.88 303.48 399.46 C 301.50 400.25 299.40 400.62 297.29 400.72 C 296.28 401.96 295.29 403.21 294.31 404.48 C 295.72 406.11 297.13 407.74 298.54 409.39 C 301.30 409.20 304.07 409.14 306.85 409.17 C 308.01 407.59 309.18 406.00 310.35 404.43 C 307.83 402.95 305.19 400.76 306.54 397.52 C 308.14 399.23 309.73 401.05 311.78 402.25 C 314.81 402.76 317.98 402.11 320.99 403.00 C 323.94 404.16 325.59 400.48 327.61 399.03 C 329.39 401.73 326.23 403.29 324.34 404.54 C 325.32 405.90 326.31 407.27 327.30 408.64 C 329.92 408.98 332.55 409.34 335.17 409.74 C 336.72 408.21 338.27 406.68 339.81 405.14 C 339.57 403.73 339.34 402.33 339.12 400.94 C 342.13 402.47 344.83 404.88 348.18 405.57 C 351.77 404.81 354.71 402.35 358.01 400.84 C 357.57 402.44 357.13 404.04 356.69 405.65 C 358.16 407.13 359.62 408.63 361.07 410.15 C 365.50 408.61 367.81 403.83 372.38 402.58 C 374.91 402.04 377.50 402.70 380.02 403.00 C 382.04 401.27 384.04 399.54 386.13 397.90 C 386.03 400.65 384.45 402.78 382.31 404.37 C 383.15 405.97 384.01 407.57 384.87 409.18 C 387.69 409.16 390.50 409.23 393.32 409.39 C 394.69 407.68 396.15 406.03 397.68 404.46 C 396.67 403.20 395.67 401.94 394.66 400.70 C 392.30 400.54 389.95 400.22 387.64 399.71 C 389.80 399.04 391.99 398.43 394.22 397.96 C 394.72 397.86 395.73 397.65 396.23 397.54 C 398.37 400.68 400.90 404.33 405.00 404.79 C 408.60 404.69 411.26 401.94 413.74 399.66 C 412.00 398.55 410.28 397.42 408.59 396.27 C 409.20 396.26 410.43 396.24 411.05 396.23 C 411.76 396.22 413.19 396.19 413.91 396.18 C 415.57 395.08 417.28 394.05 419.04 393.11 C 419.70 394.34 420.36 395.57 421.03 396.81 C 422.69 394.84 424.30 392.73 426.57 391.40 C 426.76 395.10 427.70 398.68 429.47 401.93 C 429.29 402.28 428.92 402.98 428.74 403.33 C 426.96 402.37 425.23 401.33 423.58 400.19 C 421.00 400.17 418.43 400.26 415.87 400.44 C 413.62 403.46 410.69 406.15 406.99 407.22 C 404.38 407.40 401.94 406.14 399.50 405.36 C 398.22 407.78 394.09 411.78 398.05 413.73 C 396.41 414.05 394.77 414.32 393.12 414.56 C 393.33 413.49 393.54 412.42 393.75 411.36 C 390.22 411.41 386.60 411.17 383.16 412.16 C 380.95 412.78 380.01 415.14 378.71 416.80 C 378.29 416.89 377.44 417.07 377.02 417.17 C 376.73 417.13 376.16 417.05 375.87 417.01 C 376.82 413.41 380.00 411.69 382.65 409.52 C 380.45 407.37 378.00 405.22 375.00 404.32 C 371.62 404.17 369.11 406.82 367.56 409.53 C 370.77 411.27 373.22 413.96 375.28 416.93 C 373.96 416.90 372.65 416.88 371.35 416.88 C 371.18 416.21 370.85 414.88 370.68 414.21 C 367.90 413.18 365.09 411.58 362.03 411.87 C 360.08 412.33 360.31 414.69 359.65 416.15 C 362.33 415.70 365.31 414.88 367.63 416.85 C 364.19 416.93 360.74 417.04 357.30 417.11 C 357.24 414.21 357.86 410.78 355.52 408.56 C 353.52 405.85 349.96 407.80 347.19 407.23 C 345.33 407.30 343.08 405.94 341.56 407.53 C 338.61 409.91 337.37 413.70 337.40 417.39 C 336.83 417.37 335.70 417.33 335.13 417.31 C 334.97 415.50 334.82 413.70 334.68 411.89 C 329.64 411.32 322.35 411.18 320.24 416.91 C 319.05 416.92 317.88 416.94 316.71 416.95 C 318.77 414.03 321.22 411.39 324.29 409.49 C 322.79 406.81 320.33 404.18 317.00 404.35 C 313.83 405.21 311.50 407.76 309.00 409.74 C 312.20 411.24 315.05 413.44 316.14 416.95 C 315.68 416.91 314.75 416.84 314.28 416.80 C 314.02 416.77 313.51 416.70 313.26 416.66 C 311.96 415.04 311.02 412.74 308.83 412.16 C 305.40 411.18 301.79 411.41 298.27 411.38 C 298.46 412.42 298.67 413.47 298.88 414.53 C 296.49 414.18 294.14 413.70 291.79 413.19 C 293.27 413.13 294.75 413.05 296.23 412.95 C 295.49 410.20 294.24 407.62 292.66 405.26 C 290.15 406.06 287.65 407.28 284.97 407.21 C 281.30 406.12 278.40 403.42 276.11 400.45 C 273.54 400.26 270.96 400.15 268.39 400.15 C 266.84 401.38 265.17 402.48 263.30 403.17 C 263.12 402.86 262.77 402.24 262.60 401.93 Z" />
</g>
<g id="#ecdddbff">
<path fill="#ecdddb" opacity="1.00" d=" M 282.59 392.70 C 285.18 393.10 287.77 393.50 290.36 393.93 C 292.16 395.89 294.54 397.12 297.05 397.92 C 296.55 397.99 295.54 398.13 295.04 398.21 C 293.34 401.28 290.73 404.37 287.03 404.81 C 283.37 404.70 280.78 401.79 278.26 399.52 C 280.12 398.60 281.93 397.60 283.62 396.40 C 283.07 396.40 281.99 396.41 281.45 396.41 C 281.83 395.17 282.21 393.94 282.59 392.70 Z" />
</g>
<g id="#ecdedbff">
<path fill="#ecdedb" opacity="1.00" d=" M 402.48 393.85 C 404.91 393.35 407.37 393.01 409.82 392.65 C 409.75 393.13 409.60 394.09 409.52 394.57 C 409.90 394.99 410.67 395.82 411.05 396.23 C 410.43 396.24 409.20 396.26 408.59 396.27 C 410.28 397.42 412.00 398.55 413.74 399.66 C 411.26 401.94 408.60 404.69 405.00 404.79 C 400.90 404.33 398.37 400.68 396.23 397.54 C 398.50 396.65 400.49 395.22 402.48 393.85 Z" />
</g>
<g id="#fdfdf8ff">
<path fill="#fdfdf8" opacity="1.00" d=" M 290.36 393.93 C 295.48 394.70 300.64 395.19 305.81 395.67 C 303.96 398.25 300.69 397.91 297.91 397.95 L 297.05 397.92 C 294.54 397.12 292.16 395.89 290.36 393.93 Z" />
</g>
<g id="#fdfcf7ff">
<path fill="#fdfcf7" opacity="1.00" d=" M 385.99 395.72 C 391.49 395.15 397.01 394.64 402.48 393.85 C 400.49 395.22 398.50 396.65 396.23 397.54 C 395.73 397.65 394.72 397.86 394.22 397.96 C 391.30 398.03 388.21 397.87 385.99 395.72 Z" />
</g>
<g id="#f0dedeff">
<path fill="#f0dede" opacity="1.00" d=" M 305.81 395.67 C 306.05 395.68 306.54 395.70 306.78 395.71 C 306.72 396.17 306.60 397.07 306.54 397.52 C 305.19 400.76 307.83 402.95 310.35 404.43 C 309.18 406.00 308.01 407.59 306.85 409.17 C 304.07 409.14 301.30 409.20 298.54 409.39 C 297.13 407.74 295.72 406.11 294.31 404.48 C 295.29 403.21 296.28 401.96 297.29 400.72 C 299.40 400.62 301.50 400.25 303.48 399.46 C 301.64 398.88 299.80 398.31 297.91 397.95 C 300.69 397.91 303.96 398.25 305.81 395.67 Z" />
</g>
<g id="#eeeae8ff">
<path fill="#eeeae8" opacity="1.00" d=" M 306.78 395.71 C 313.19 396.15 319.59 396.75 326.01 396.94 C 326.41 397.46 327.21 398.50 327.61 399.03 C 325.59 400.48 323.94 404.16 320.99 403.00 C 317.98 402.11 314.81 402.76 311.78 402.25 C 309.73 401.05 308.14 399.23 306.54 397.52 C 306.60 397.07 306.72 396.17 306.78 395.71 Z" />
</g>
<g id="#eee1e1ff">
<path fill="#eee1e1" opacity="1.00" d=" M 326.01 396.94 C 346.01 397.61 366.04 397.33 385.99 395.72 C 388.21 397.87 391.30 398.03 394.22 397.96 C 391.99 398.43 389.80 399.04 387.64 399.71 C 389.95 400.22 392.30 400.54 394.66 400.70 C 395.67 401.94 396.67 403.20 397.68 404.46 C 396.15 406.03 394.69 407.68 393.32 409.39 C 390.50 409.23 387.69 409.16 384.87 409.18 C 384.01 407.57 383.15 405.97 382.31 404.37 C 384.45 402.78 386.03 400.65 386.13 397.90 C 384.04 399.54 382.04 401.27 380.02 403.00 C 377.50 402.70 374.91 402.04 372.38 402.58 C 367.81 403.83 365.50 408.61 361.07 410.15 C 359.62 408.63 358.16 407.13 356.69 405.65 C 357.13 404.04 357.57 402.44 358.01 400.84 C 354.71 402.35 351.77 404.81 348.18 405.57 C 344.83 404.88 342.13 402.47 339.12 400.94 C 339.34 402.33 339.57 403.73 339.81 405.14 C 338.27 406.68 336.72 408.21 335.17 409.74 C 332.55 409.34 329.92 408.98 327.30 408.64 C 326.31 407.27 325.32 405.90 324.34 404.54 C 326.23 403.29 329.39 401.73 327.61 399.03 C 327.21 398.50 326.41 397.46 326.01 396.94 M 363.47 399.93 C 362.98 402.79 366.03 403.67 368.20 404.09 C 367.64 402.22 365.76 398.37 363.47 399.93 Z" />
</g>
<g id="#d8ceccff">
<path fill="#d8cecc" opacity="1.00" d=" M 363.47 399.93 C 365.76 398.37 367.64 402.22 368.20 404.09 C 366.03 403.67 362.98 402.79 363.47 399.93 Z" />
</g>
<g id="#f0dbdeff">
<path fill="#f0dbde" opacity="1.00" d=" M 263.30 403.17 C 265.17 402.48 266.84 401.38 268.39 400.15 C 270.96 400.15 273.54 400.26 276.11 400.45 C 278.40 403.42 281.30 406.12 284.97 407.21 C 287.65 407.28 290.15 406.06 292.66 405.26 C 294.24 407.62 295.49 410.20 296.23 412.95 C 294.75 413.05 293.27 413.13 291.79 413.19 C 285.29 411.96 278.96 409.73 272.31 409.47 C 271.60 409.37 270.90 409.29 270.20 409.20 C 268.65 408.50 267.13 407.79 265.57 407.12 C 264.82 405.80 264.06 404.48 263.30 403.17 Z" />
<path fill="#f0dbde" opacity="1.00" d=" M 415.87 400.44 C 418.43 400.26 421.00 400.17 423.58 400.19 C 425.23 401.33 426.96 402.37 428.74 403.33 C 427.86 404.70 426.90 406.00 425.96 407.32 C 416.81 410.02 407.30 411.38 398.05 413.73 C 394.09 411.78 398.22 407.78 399.50 405.36 C 401.94 406.14 404.38 407.40 406.99 407.22 C 410.69 406.15 413.62 403.46 415.87 400.44 Z" />
</g>
<g id="#ebdbdeff">
<path fill="#ebdbde" opacity="1.00" d=" M 309.00 409.74 C 311.50 407.76 313.83 405.21 317.00 404.35 C 320.33 404.18 322.79 406.81 324.29 409.49 C 321.22 411.39 318.77 414.03 316.71 416.95 L 316.14 416.95 C 315.05 413.44 312.20 411.24 309.00 409.74 Z" />
<path fill="#ebdbde" opacity="1.00" d=" M 367.56 409.53 C 369.11 406.82 371.62 404.17 375.00 404.32 C 378.00 405.22 380.45 407.37 382.65 409.52 C 380.00 411.69 376.82 413.41 375.87 417.01 L 375.28 416.93 C 373.22 413.96 370.77 411.27 367.56 409.53 Z" />
</g>
<g id="#e6dbddff">
<path fill="#e6dbdd" opacity="1.00" d=" M 341.56 407.53 C 343.08 405.94 345.33 407.30 347.19 407.23 C 349.96 407.80 353.52 405.85 355.52 408.56 C 357.86 410.78 357.24 414.21 357.30 417.11 C 350.66 417.06 344.02 416.98 337.40 417.39 C 337.37 413.70 338.61 409.91 341.56 407.53 Z" />
</g>
<g id="#ffffffff">
<path fill="#ffffff" opacity="1.00" d=" M 240.09 409.70 C 241.63 410.29 243.17 410.89 244.71 411.49 C 243.13 415.88 241.64 420.30 240.06 424.68 C 242.01 425.41 243.96 426.18 245.91 426.94 C 246.77 424.26 247.61 421.58 248.26 418.85 C 249.84 419.38 251.41 419.92 252.98 420.47 C 252.13 423.15 251.28 425.82 250.40 428.49 C 251.61 428.86 252.82 429.24 254.04 429.63 C 254.85 426.89 255.66 424.15 256.52 421.43 C 258.00 421.97 259.51 422.52 261.01 423.07 C 260.13 425.74 259.34 428.44 258.62 431.16 C 259.84 431.53 261.05 431.90 262.27 432.28 C 263.05 429.53 263.80 426.77 264.46 424.00 C 266.06 424.49 267.66 424.96 269.28 425.43 C 268.28 428.14 267.55 430.93 267.00 433.76 C 268.25 434.03 269.52 434.29 270.78 434.56 C 271.34 431.79 272.02 429.05 272.59 426.29 C 274.18 426.74 275.78 427.19 277.38 427.61 C 276.55 430.35 275.88 433.13 275.29 435.94 C 276.21 436.11 278.05 436.45 278.98 436.62 C 279.72 434.38 279.04 430.70 281.93 429.88 C 285.75 428.43 289.69 430.98 293.58 431.18 C 292.75 433.88 292.13 436.65 291.59 439.43 C 293.78 439.94 295.99 440.35 298.22 440.75 C 298.75 437.93 299.17 435.09 299.34 432.23 C 300.91 432.59 302.49 432.93 304.07 433.28 C 303.60 436.71 303.38 440.23 302.42 443.57 C 299.73 446.73 295.52 444.41 292.14 443.97 C 291.77 443.36 291.05 442.14 290.69 441.53 C 290.22 442.00 289.26 442.96 288.79 443.44 C 284.60 442.46 280.40 441.49 276.18 440.67 C 275.63 439.82 275.09 438.97 274.54 438.12 C 272.54 438.81 270.43 439.03 268.34 438.71 C 267.60 437.68 266.85 436.67 266.10 435.66 C 263.50 437.17 259.27 437.35 258.54 433.62 C 258.16 434.00 257.38 434.77 257.00 435.16 C 254.12 434.21 250.54 433.98 249.17 430.80 C 246.03 432.79 242.77 430.08 239.70 429.31 C 237.30 428.75 235.52 427.15 234.64 424.87 C 236.72 419.91 238.67 414.88 240.09 409.70 M 284.45 433.53 C 284.11 434.96 283.78 436.40 283.45 437.83 C 284.65 438.08 285.88 438.25 287.09 438.50 C 287.34 437.04 287.59 435.59 287.86 434.15 C 286.72 433.94 285.59 433.74 284.45 433.53 Z" />
<path fill="#ffffff" opacity="1.00" d=" M 463.21 416.68 C 464.84 416.10 466.46 415.51 468.09 414.92 C 469.30 418.19 470.48 421.48 471.72 424.75 C 470.48 428.75 465.97 429.14 462.71 430.67 C 461.83 430.07 460.95 429.48 460.08 428.89 C 459.19 430.15 459.01 432.33 457.14 432.55 C 451.46 434.34 445.81 436.27 440.05 437.80 C 438.67 438.35 437.39 437.40 436.09 437.09 C 435.57 437.86 435.06 438.62 434.54 439.40 C 429.32 439.99 424.07 443.34 418.85 441.73 C 417.59 442.78 416.21 443.66 414.60 444.03 C 414.76 445.48 414.93 446.93 415.10 448.38 C 418.04 447.83 420.94 447.11 423.87 446.51 C 423.22 448.18 422.57 449.87 421.89 451.54 C 418.13 452.31 413.99 453.76 410.73 450.87 C 410.48 448.28 410.07 445.70 409.46 443.18 C 410.57 441.87 411.75 440.62 413.05 439.50 C 412.09 437.96 411.14 436.41 410.19 434.87 C 410.88 433.69 411.58 432.54 412.29 431.38 C 415.34 430.92 418.36 430.26 421.31 429.38 C 422.45 430.05 423.60 430.74 424.76 431.42 C 424.55 433.45 424.27 435.47 423.92 437.48 C 426.40 436.92 428.87 436.32 431.36 435.80 C 430.86 432.98 430.17 430.19 429.13 427.53 C 430.69 427.10 432.25 426.67 433.81 426.22 C 434.68 428.92 435.38 431.68 436.01 434.45 C 437.30 434.10 438.59 433.75 439.88 433.41 C 439.13 430.18 438.47 426.90 437.08 423.87 C 438.55 423.48 440.00 423.04 441.48 422.66 C 441.88 422.89 442.67 423.35 443.06 423.58 C 447.03 422.63 450.84 421.13 454.68 419.76 C 456.05 420.63 457.44 421.49 458.84 422.35 C 459.31 423.81 459.76 425.27 460.21 426.75 C 462.34 426.02 464.46 425.27 466.55 424.43 C 465.54 421.80 464.61 419.13 463.21 416.68 M 443.66 428.00 C 444.03 429.30 444.40 430.61 444.79 431.92 C 448.42 430.80 452.05 429.68 455.66 428.46 C 455.23 427.17 454.81 425.88 454.39 424.59 C 450.82 425.75 447.25 426.91 443.66 428.00 M 414.55 435.35 C 415.42 436.59 416.33 437.82 417.25 439.04 C 418.18 438.74 419.11 438.44 420.04 438.15 C 420.43 436.81 420.77 435.45 421.15 434.11 C 418.94 434.50 416.74 434.91 414.55 435.35 Z" />
<path fill="#ffffff" opacity="1.00" d=" M 300.71 427.28 C 301.82 427.54 302.92 427.80 304.04 428.07 C 303.96 428.82 303.79 430.31 303.71 431.06 C 302.58 430.92 301.45 430.78 300.32 430.65 C 300.45 429.52 300.58 428.40 300.71 427.28 Z" />
<path fill="#ffffff" opacity="1.00" d=" M 306.91 427.96 C 308.51 428.15 310.10 428.32 311.71 428.53 C 311.17 433.20 310.59 437.86 310.00 442.53 C 312.05 442.83 314.10 443.12 316.16 443.38 C 316.44 440.56 317.01 437.73 316.61 434.90 C 318.32 435.10 320.04 435.29 321.75 435.50 C 321.35 438.93 320.92 442.37 320.74 445.83 C 319.84 446.52 318.95 447.22 318.06 447.93 C 314.48 447.55 310.92 447.01 307.34 446.59 C 306.52 445.76 305.70 444.92 304.89 444.09 C 305.70 438.74 306.80 433.39 306.91 427.96 Z" />
<path fill="#ffffff" opacity="1.00" d=" M 394.54 428.43 C 396.28 428.27 398.03 428.11 399.78 427.94 C 400.42 433.97 400.93 440.08 402.56 445.94 C 400.67 446.25 398.78 446.57 396.89 446.89 C 396.79 440.68 395.79 434.50 394.54 428.43 Z" />
<path fill="#ffffff" opacity="1.00" d=" M 329.15 430.29 C 330.77 430.50 332.39 430.68 334.02 430.87 C 333.74 435.57 333.51 440.27 333.33 444.97 C 335.32 445.06 337.32 445.15 339.32 445.23 C 339.47 442.43 339.77 439.60 339.23 436.82 C 340.97 436.93 342.71 436.99 344.46 437.07 C 344.28 439.82 344.03 442.58 343.92 445.35 C 345.33 445.33 346.75 445.33 348.16 445.34 C 348.16 443.02 348.18 440.71 348.23 438.40 C 349.31 437.67 350.39 436.93 351.46 436.19 C 353.62 436.17 355.79 436.17 357.95 436.17 C 359.00 436.99 360.04 437.81 361.08 438.65 C 360.93 441.49 360.95 444.35 361.29 447.19 C 360.20 448.06 359.11 448.95 358.02 449.83 C 354.32 449.78 350.62 449.91 346.92 449.84 C 345.40 450.09 344.52 448.68 343.47 447.90 C 341.73 450.45 338.56 449.43 335.99 449.47 C 333.14 449.43 330.09 449.15 328.13 446.83 C 328.76 441.34 329.52 435.82 329.15 430.29 M 352.83 446.00 C 353.72 446.00 355.49 446.00 356.37 446.00 C 356.37 443.99 356.37 442.00 356.37 440.00 C 355.49 440.00 353.72 440.00 352.83 440.00 C 352.83 441.99 352.83 444.00 352.83 446.00 Z" />
<path fill="#ffffff" opacity="1.00" d=" M 373.16 430.70 C 374.70 430.55 376.25 430.42 377.80 430.24 C 377.68 434.99 378.29 439.71 378.71 444.43 C 380.68 444.29 382.66 444.16 384.64 444.05 C 381.38 442.04 381.71 437.21 384.92 435.36 C 387.93 435.02 390.97 434.82 393.92 434.05 C 394.14 435.56 394.36 437.08 394.60 438.60 C 391.96 438.82 389.33 439.16 386.73 439.60 C 386.83 440.59 387.04 442.59 387.14 443.58 C 389.73 443.35 392.32 443.11 394.91 442.84 C 395.18 444.28 395.45 445.72 395.73 447.17 C 390.80 447.52 385.88 448.01 381.00 448.71 C 380.18 448.14 379.37 447.58 378.57 447.03 C 377.52 447.86 376.56 449.15 375.05 449.00 C 371.03 449.43 366.99 449.42 362.98 449.94 C 362.99 448.42 363.00 446.91 363.02 445.40 C 363.93 445.35 365.76 445.25 366.67 445.20 C 366.64 443.15 366.61 441.11 366.59 439.08 C 365.24 437.92 363.90 436.76 362.63 435.54 C 363.88 434.91 365.14 434.28 366.39 433.66 C 368.16 435.09 369.97 436.50 371.78 437.89 C 371.64 440.44 369.78 445.52 374.05 445.24 C 373.55 440.41 373.24 435.56 373.16 430.70 Z" />
<path fill="#ffffff" opacity="1.00" d=" M 340.33 431.61 C 341.41 431.60 342.50 431.61 343.58 431.62 C 343.62 432.71 343.66 433.82 343.70 434.93 C 342.49 434.87 341.28 434.81 340.08 434.76 C 340.16 433.70 340.24 432.65 340.33 431.61 Z" />
<path fill="#ffffff" opacity="1.00" d=" M 312.39 449.25 C 313.52 449.32 314.65 449.38 315.78 449.46 C 315.81 450.58 315.83 451.71 315.86 452.85 C 314.62 452.74 313.38 452.64 312.14 452.55 C 312.23 451.45 312.31 450.35 312.39 449.25 Z" />
</g>
<g id="#ce6263ff">
<path fill="#ce6263" opacity="1.00" d=" M 272.31 409.47 C 278.96 409.73 285.29 411.96 291.79 413.19 C 294.14 413.70 296.49 414.18 298.88 414.53 C 303.68 415.16 308.49 415.81 313.26 416.66 C 313.51 416.70 314.02 416.77 314.28 416.80 L 314.13 417.71 C 299.98 416.30 285.81 414.00 272.31 409.47 Z" />
</g>
<g id="#eee2e4ff">
<path fill="#eee2e4" opacity="1.00" d=" M 298.27 411.38 C 301.79 411.41 305.40 411.18 308.83 412.16 C 311.02 412.74 311.96 415.04 313.26 416.66 C 308.49 415.81 303.68 415.16 298.88 414.53 C 298.67 413.47 298.46 412.42 298.27 411.38 Z" />
<path fill="#eee2e4" opacity="1.00" d=" M 383.16 412.16 C 386.60 411.17 390.22 411.41 393.75 411.36 C 393.54 412.42 393.33 413.49 393.12 414.56 C 388.31 415.27 383.47 415.75 378.71 416.80 C 380.01 415.14 380.95 412.78 383.16 412.16 Z" />
</g>
<g id="#eadee1ff">
<path fill="#eadee1" opacity="1.00" d=" M 320.24 416.91 C 322.35 411.18 329.64 411.32 334.68 411.89 C 334.82 413.70 334.97 415.50 335.13 417.31 C 330.17 416.89 325.20 416.73 320.24 416.91 Z" />
</g>
<g id="#f0e4e7ff">
<path fill="#f0e4e7" opacity="1.00" d=" M 359.65 416.15 C 360.31 414.69 360.08 412.33 362.03 411.87 C 365.09 411.58 367.90 413.18 370.68 414.21 C 370.85 414.88 371.18 416.21 371.35 416.88 C 370.11 416.86 368.87 416.85 367.63 416.85 C 365.31 414.88 362.33 415.70 359.65 416.15 Z" />
</g>
<g id="#c68687ff">
<path fill="#c68687" opacity="1.00" d=" M 314.28 416.80 C 314.75 416.84 315.68 416.91 316.14 416.95 L 316.71 416.95 C 317.88 416.94 319.05 416.92 320.24 416.91 C 325.20 416.73 330.17 416.89 335.13 417.31 C 335.70 417.33 336.83 417.37 337.40 417.39 C 344.02 416.98 350.66 417.06 357.30 417.11 C 360.74 417.04 364.19 416.93 367.63 416.85 C 368.87 416.85 370.11 416.86 371.35 416.88 C 372.65 416.88 373.96 416.90 375.28 416.93 L 375.87 417.01 C 376.16 417.05 376.73 417.13 377.02 417.17 L 378.50 417.57 C 357.06 418.56 335.57 418.52 314.13 417.71 L 314.28 416.80 Z" />
</g>
</svg>
